<svg width="626" height="412" viewBox="0 0 626 412" fill="none" xmlns="http://www.w3.org/2000/svg">
<ellipse cx="92.6472" cy="82.5846" rx="91.8317" ry="81.6454" fill="url(#paint0_linear_34_103)" fill-opacity="0.5"/>
<ellipse cx="355.931" cy="242.867" rx="269.145" ry="168.877" fill="url(#paint1_linear_34_103)" fill-opacity="0.4"/>
<g clip-path="url(#clip0_34_103)">
<path d="M497.251 211.868V140.87C497.251 139.856 496.887 138.884 496.238 138.167C495.59 137.45 494.71 137.047 493.793 137.047C492.876 137.047 491.996 137.45 491.348 138.167C490.699 138.884 490.335 139.856 490.335 140.87V211.868C490.335 212.882 490.699 213.854 491.348 214.571C491.996 215.288 492.876 215.691 493.793 215.691C494.71 215.691 495.59 215.288 496.238 214.571C496.887 213.854 497.251 212.882 497.251 211.868Z" fill="#FAFAFF"/>
<path d="M505.526 211.868V140.87C505.526 139.856 505.162 138.884 504.513 138.167C503.865 137.45 502.985 137.047 502.068 137.047C501.151 137.047 500.271 137.45 499.623 138.167C498.974 138.884 498.61 139.856 498.61 140.87V211.868C498.61 212.882 498.974 213.854 499.623 214.571C500.271 215.288 501.151 215.691 502.068 215.691C502.985 215.691 503.865 215.288 504.513 214.571C505.162 213.854 505.526 212.882 505.526 211.868Z" fill="#FAFAFF"/>
<path d="M513.801 211.868V140.87C513.801 139.856 513.437 138.884 512.788 138.167C512.14 137.45 511.26 137.047 510.343 137.047C509.426 137.047 508.546 137.45 507.898 138.167C507.249 138.884 506.885 139.856 506.885 140.87V211.868C506.885 212.882 507.249 213.854 507.898 214.571C508.546 215.288 509.426 215.691 510.343 215.691C511.26 215.691 512.14 215.288 512.788 214.571C513.437 213.854 513.801 212.882 513.801 211.868Z" fill="#FAFAFF"/>
<path d="M201.378 325.266C202.77 325.267 204.153 325.002 205.463 324.482L205.666 324.402L205.572 323.907C207.92 318.664 207.099 311.481 203.471 305.575C200.173 300.206 195.157 296.302 190.732 292.858C190.171 292.421 189.504 292.18 188.817 292.166C188.131 292.151 187.456 292.364 186.88 292.777C186.304 293.19 185.852 293.784 185.584 294.482C185.315 295.181 185.242 295.952 185.373 296.697L186.956 305.672C188.098 312.147 189.456 318.275 193.485 322.097C195.698 324.144 198.492 325.265 201.378 325.266Z" fill="#FAFAFF"/>
<path d="M191.015 340.775C192.547 340.765 194.053 340.332 195.396 339.515C196.739 338.698 197.876 337.523 198.703 336.097L198.818 335.9L198.545 335.633C197.837 331.363 194.507 327.559 190.036 325.923C185.972 324.436 181.487 324.679 177.532 324.893C177.009 324.921 176.506 325.12 176.085 325.465C175.665 325.809 175.347 326.284 175.171 326.829C174.995 327.374 174.97 327.964 175.098 328.525C175.226 329.086 175.501 329.592 175.89 329.98L180.34 334.42C183.574 337.647 186.799 340.56 190.689 340.768C190.798 340.773 190.906 340.775 191.015 340.775Z" fill="#FAFAFF"/>
<path d="M204.825 345.522C205.482 340.112 206.158 334.633 205.697 329.166C205.288 324.31 203.977 319.567 201.308 315.678C199.898 313.625 198.174 311.859 196.214 310.462C195.705 310.099 195.236 311.011 195.743 311.373C199.141 313.811 201.754 317.374 203.209 321.553C204.834 326.225 205.095 331.318 204.815 336.281C204.646 339.282 204.287 342.264 203.925 345.242C203.896 345.375 203.913 345.516 203.974 345.636C204.034 345.756 204.133 345.847 204.251 345.89C204.311 345.908 204.373 345.912 204.434 345.904C204.495 345.895 204.554 345.872 204.607 345.838C204.661 345.804 204.707 345.758 204.745 345.704C204.782 345.65 204.809 345.588 204.825 345.522Z" fill="#FAFAFF"/>
<path d="M206.682 348.632C203.519 342.307 199.85 335.277 193.295 333.031C191.475 332.408 189.562 332.185 187.664 332.373C187.066 332.432 187.215 333.473 187.812 333.415C191 333.119 194.18 334.07 196.798 336.102C199.332 338.051 201.305 340.761 202.975 343.634C203.997 345.394 204.914 347.229 205.83 349.061C206.123 349.647 206.979 349.224 206.682 348.632Z" fill="#FAFAFF"/>
<path d="M208.106 348.539L204.912 348.62L224.169 234.893L227.363 235.559L222.334 265.061H238.535L233.507 235.559L236.7 234.893L255.797 348.62L252.764 348.539L242.724 289.637H218.145L208.106 348.539ZM241.979 285.268L239.28 269.43H221.59L218.89 285.268H241.979Z" fill="#FAFAFF"/>
<path d="M347.562 213.68V176.332C347.562 175.223 346.01 174.321 344.104 174.321C342.197 174.321 340.645 175.223 340.645 176.332V213.68C340.645 214.788 342.197 215.691 344.104 215.691C346.01 215.691 347.562 214.788 347.562 213.68Z" fill="#FAFAFF"/>
<path d="M355.837 213.68V176.332C355.837 175.223 354.285 174.321 352.378 174.321C350.472 174.321 348.92 175.223 348.92 176.332V213.68C348.92 214.788 350.472 215.691 352.378 215.691C354.285 215.691 355.837 214.788 355.837 213.68Z" fill="#FAFAFF"/>
<path d="M364.112 213.68V176.332C364.112 175.223 362.56 174.321 360.653 174.321C358.747 174.321 357.195 175.223 357.195 176.332V213.68C357.195 214.788 358.747 215.691 360.653 215.691C362.56 215.691 364.112 214.788 364.112 213.68Z" fill="#FAFAFF"/>
<path d="M294.496 186.214C294.512 186.1 294.549 185.992 294.605 185.895C294.66 185.798 294.734 185.716 294.821 185.652L320.892 166.626C320.499 166.444 320.17 166.126 319.956 165.719C319.696 165.217 319.625 164.621 319.761 164.062C319.897 163.503 320.227 163.026 320.679 162.735L322.819 161.37C323.273 161.082 323.812 161.004 324.317 161.154C324.823 161.304 325.255 161.669 325.518 162.169C325.66 162.445 325.746 162.751 325.768 163.067L344.587 149.332C345.22 147.64 346.178 146.121 347.395 144.88C348.613 143.639 350.061 142.706 351.637 142.147V136.091H358.554V142.147C360.848 142.958 362.851 144.555 364.271 146.705C365.692 148.856 366.458 151.451 366.458 154.114V155.752H359.542C359.542 157.056 359.073 158.306 358.24 159.228C357.406 160.15 356.275 160.668 355.096 160.668C353.916 160.668 352.785 160.15 351.952 159.228C351.118 158.306 350.649 157.056 350.649 155.752H343.733V154.114C343.734 153.328 343.801 152.545 343.933 151.773L296.324 186.519L316.101 213.099C316.254 213.098 316.407 213.097 316.562 213.097C318.139 213.097 319.668 213.138 321.125 213.209C321.037 212.939 320.999 212.653 321.012 212.366C321.041 211.788 321.275 211.246 321.665 210.859C322.054 210.471 322.565 210.27 323.088 210.298L325.555 210.44C326.078 210.472 326.568 210.731 326.919 211.161C327.269 211.591 327.452 212.157 327.426 212.736C327.408 213.077 327.316 213.409 327.158 213.703C331.52 214.216 334.347 214.922 334.347 215.281C334.347 215.87 326.757 215.31 317.257 215.283C317.214 215.419 317.138 215.541 317.038 215.634C316.938 215.728 316.817 215.79 316.688 215.815C316.559 215.84 316.427 215.827 316.304 215.777C316.181 215.726 316.072 215.641 315.989 215.529L315.806 215.283C306.335 215.312 298.777 215.869 298.777 215.281C298.777 214.727 305.496 213.349 314.203 213.128L294.657 186.856C294.591 186.768 294.542 186.665 294.515 186.554C294.487 186.443 294.481 186.327 294.496 186.214Z" fill="#CCCCCC"/>
<path d="M293.597 348.77H354.21C355.434 348.768 356.609 348.227 357.475 347.266C358.341 346.304 358.828 345 358.83 343.64V233.203C358.831 231.987 359.266 230.822 360.04 229.963C360.814 229.104 361.863 228.621 362.958 228.62H504.738C505.832 228.621 506.882 229.104 507.655 229.963C508.429 230.822 508.865 231.987 508.866 233.203V343.64C508.867 345 509.355 346.304 510.221 347.266C511.087 348.228 512.261 348.768 513.486 348.77H515.56C516.785 348.768 517.959 348.228 518.825 347.266C519.692 346.304 520.179 345 520.18 343.64V227.254C520.177 223.996 519.01 220.873 516.935 218.569C514.86 216.266 512.046 214.97 509.112 214.966H300.045C297.11 214.97 294.297 216.266 292.222 218.569C290.147 220.873 288.98 223.996 288.976 227.254V343.64C288.978 345 289.465 346.304 290.331 347.266C291.198 348.228 292.372 348.769 293.597 348.77Z" fill="#FAFAFF"/>
<path d="M289.39 243.681H359.048V246.957H289.39V243.681Z" fill="white"/>
<path d="M289.39 287.918H359.048V291.195H289.39V287.918Z" fill="white"/>
<path d="M416.709 214.469L418.711 213.537L420.084 202.442H438.373L439.862 213.492L441.653 214.482C441.738 214.529 441.807 214.607 441.848 214.703C441.888 214.799 441.898 214.907 441.876 215.01C441.854 215.114 441.801 215.205 441.726 215.271C441.651 215.337 441.558 215.373 441.462 215.373H416.874C416.775 215.373 416.68 215.335 416.604 215.266C416.528 215.198 416.476 215.102 416.457 214.995C416.437 214.889 416.452 214.779 416.498 214.683C416.544 214.587 416.618 214.511 416.709 214.469Z" fill="#FAFAFF"/>
<path d="M295.565 142.351C294.777 142.225 293.973 142.292 293.211 142.547C292.449 142.802 291.746 143.238 291.153 143.826C290.56 144.413 290.091 145.137 289.778 145.947C289.466 146.756 289.318 147.632 289.344 148.512L271.28 156.198L279.464 162.663L295.364 154.372C296.698 154.225 297.936 153.541 298.845 152.452C299.754 151.362 300.269 149.942 300.294 148.46C300.319 146.978 299.851 145.538 298.98 144.412C298.108 143.286 296.893 142.552 295.565 142.351Z" fill="#9E616A"/>
<path d="M226.975 138.577L223.919 144.72C224.658 148.615 226.567 152.121 229.335 154.665C234.014 159.028 258.479 175.275 258.479 175.275L289.364 158.134L283.961 150.197L259.713 159.18C250.718 149.79 239.863 142.853 228.014 138.922L226.975 138.577Z" fill="#FAFAFF"/>
<path d="M232.658 240.216C219.346 240.216 208.554 236.329 208.554 231.534C208.554 226.738 219.346 222.851 232.658 222.851C245.97 222.851 256.762 226.738 256.762 231.534C256.762 236.329 245.97 240.216 232.658 240.216Z" fill="#FAFAFF"/>
<path d="M286.733 341.182L293.133 339.226L289.355 311.002L279.908 313.89L286.733 341.182Z" fill="#9E616A"/>
<path d="M286.815 348.539L307.454 342.233L307.381 341.944C306.793 339.589 305.381 337.589 303.459 336.384C301.536 335.179 299.259 334.867 297.128 335.518L297.128 335.518L284.523 339.37L286.815 348.539Z" fill="#2F2E41"/>
<path d="M305.29 341.273L311.365 338.308L303.909 310.994L294.944 315.37L305.29 341.273Z" fill="#9E616A"/>
<path d="M306.341 348.539L325.929 338.978L325.819 338.704C324.926 336.468 323.267 334.717 321.206 333.834C319.145 332.951 316.851 333.01 314.829 333.997L314.828 333.997L302.865 339.837L306.341 348.539Z" fill="#2F2E41"/>
<path d="M213.899 210.306C213.899 210.306 210.679 221.334 230.435 235.281L255.877 263.308L282.314 333.217L298.009 325.438L294.931 316.355L292.865 310.26L291.808 307.142L290.676 303.799L273.873 254.217L259.759 226.897L259.349 212.073L255.877 201.623L230.69 191.743L213.899 210.306Z" fill="#2F2E41"/>
<path d="M226.744 210.852C226.744 210.852 223.524 221.88 243.279 235.827L268.722 263.854L295.159 333.763L310.854 325.985L307.775 316.901L305.71 310.806L304.653 307.688L303.52 304.345L286.718 254.763L281.992 245.616C275.757 233.548 268.182 222.39 259.441 212.402L254.808 207.108L254.314 198.916L243.535 192.289L226.744 210.852Z" fill="#2F2E41"/>
<path d="M241.964 156.863L234.059 138.294L220.265 136.214C220.265 136.214 209.494 151.384 212.322 172.701C213.383 180.695 214.247 188.653 214.298 195.639C214.312 197.498 212.841 198.328 212.816 200.008C212.792 201.659 215.604 204.348 214.792 205.469C213.632 207.015 212.94 208.926 212.816 210.931C213.795 213.506 243.424 199.552 255.878 201.623L241.964 156.863Z" fill="#FAFAFF"/>
<path d="M222.372 126.866C218.851 120.318 220.798 111.855 226.721 107.962C232.644 104.07 240.3 106.223 243.821 112.771C247.342 119.318 245.395 127.782 239.472 131.674C233.549 135.566 225.893 133.414 222.372 126.866Z" fill="#9E616A"/>
<path d="M225.12 114.866C225.144 115.229 225.177 115.709 225.215 116.253C225.253 117.742 224.874 119.207 224.128 120.447C223.43 121.752 224.263 129.634 224.263 129.634C203.826 113.885 219.975 98.0634 226.291 99.4698C226.16 97.4671 231.311 98.2605 231.311 98.2605C233.274 94.8811 237.576 99.3669 237.576 99.3669L236.746 97.823C240.086 98.7623 243.388 110.174 243.388 110.174C242.255 115.097 224.988 112.863 225.12 114.866Z" fill="#2F2E41"/>
<path d="M304.401 164.168C297.378 153.841 291.826 142.386 287.939 130.203C287.713 129.474 287.729 128.68 287.984 127.963C288.238 127.246 288.714 126.652 289.328 126.287L313.36 112.052C313.749 111.82 314.18 111.689 314.622 111.669C315.063 111.65 315.503 111.741 315.907 111.938C316.319 112.136 316.685 112.435 316.977 112.813C317.268 113.191 317.478 113.637 317.59 114.118C320.388 125.859 325.645 136.707 332.938 145.784C333.239 146.154 333.459 146.594 333.582 147.072C333.705 147.549 333.728 148.052 333.648 148.541C333.572 149.022 333.398 149.477 333.139 149.873C332.879 150.268 332.541 150.593 332.151 150.822L308.119 165.057C307.505 165.42 306.793 165.529 306.113 165.366C305.432 165.203 304.825 164.779 304.401 164.168Z" fill="#CCCCCC"/>
<path d="M306.041 162.805C306.17 162.984 306.352 163.106 306.554 163.153C306.757 163.199 306.968 163.166 307.15 163.058L331.182 148.823C331.299 148.756 331.4 148.659 331.478 148.542C331.555 148.424 331.607 148.288 331.629 148.145C331.654 147.993 331.647 147.838 331.608 147.69C331.57 147.542 331.5 147.406 331.406 147.292C323.898 137.947 318.486 126.78 315.606 114.693C315.573 114.544 315.509 114.405 315.419 114.288C315.329 114.17 315.215 114.077 315.088 114.016C314.967 113.957 314.836 113.929 314.704 113.935C314.573 113.941 314.444 113.981 314.328 114.051L290.297 128.286C290.115 128.395 289.973 128.571 289.895 128.783C289.818 128.995 289.81 129.23 289.873 129.448C293.691 141.414 299.144 152.663 306.041 162.805Z" fill="white"/>
<path d="M314.449 127.576L297.873 138.316C296.224 139.385 294.73 136.554 296.377 135.487L312.953 124.746C314.602 123.678 316.095 126.509 314.449 127.576Z" fill="#6C63FF"/>
<path d="M317.413 133.583L300.837 144.324C299.188 145.393 297.695 142.561 299.341 141.494L315.917 130.754C317.566 129.685 319.059 132.517 317.413 133.583Z" fill="#6C63FF"/>
<path d="M320.871 140.137L304.295 150.878C302.646 151.946 301.153 149.115 302.799 148.048L319.375 137.308C321.024 136.239 322.518 139.07 320.871 140.137Z" fill="#6C63FF"/>
<path d="M324.329 145.598L307.754 156.339C306.104 157.407 304.611 154.576 306.258 153.509L322.833 142.769C324.482 141.7 325.976 144.531 324.329 145.598Z" fill="#6C63FF"/>
<path d="M248.766 208.775L242.543 224.245C242.393 224.615 242.329 225.021 242.356 225.425C242.384 225.83 242.502 226.221 242.7 226.562C242.934 226.97 243.272 227.293 243.671 227.489C244.07 227.685 244.513 227.746 244.943 227.665C245.09 227.64 245.234 227.598 245.372 227.538C245.922 227.304 246.366 226.837 246.605 226.242L252.828 210.772C252.947 210.477 253.012 210.159 253.019 209.837C253.027 209.514 252.977 209.193 252.872 208.892C252.661 208.283 252.239 207.793 251.7 207.528C251.162 207.263 250.55 207.246 249.999 207.48C249.449 207.713 249.005 208.179 248.766 208.775Z" fill="#6C63FF"/>
<path d="M243.045 222.997L241.798 226.119L241.161 230.546C241.118 230.837 241.165 231.136 241.292 231.395C241.419 231.654 241.62 231.86 241.864 231.98C242.108 232.1 242.381 232.127 242.641 232.058C242.9 231.989 243.131 231.827 243.299 231.597L245.879 228.048L247.107 224.994L243.045 222.997Z" fill="#3F3D56"/>
<path d="M254.211 204.471L253.32 210.664C253.29 210.867 253.219 211.06 253.112 211.227C253.005 211.395 252.864 211.533 252.701 211.631C252.538 211.729 252.356 211.784 252.171 211.792C251.985 211.8 251.8 211.761 251.631 211.678L250.747 211.243L249.04 215.485C248.987 215.617 248.888 215.72 248.766 215.772C248.644 215.824 248.508 215.82 248.389 215.761C248.269 215.702 248.175 215.593 248.128 215.458C248.081 215.323 248.085 215.173 248.138 215.041L249.844 210.799L248.96 210.364C248.667 210.22 248.437 209.953 248.322 209.623C248.206 209.292 248.214 208.924 248.343 208.599C248.386 208.492 248.442 208.391 248.509 208.299L252.072 203.419C252.24 203.19 252.471 203.028 252.731 202.958C252.99 202.889 253.263 202.917 253.507 203.037C253.751 203.157 253.952 203.362 254.08 203.622C254.207 203.881 254.253 204.179 254.211 204.471Z" fill="#3F3D56"/>
<path d="M251.63 215.65C251.489 214.783 251.179 213.961 250.72 213.241C250.262 212.522 249.666 211.922 248.975 211.485C248.284 211.047 247.515 210.783 246.721 210.709C245.928 210.636 245.129 210.756 244.382 211.061L232.098 194.525L229.123 205.147L241.244 219.221C241.791 220.575 242.767 221.66 243.989 222.27C245.21 222.881 246.592 222.975 247.872 222.535C249.152 222.095 250.242 221.151 250.934 219.881C251.627 218.612 251.874 217.107 251.63 215.65Z" fill="#9E616A"/>
<path d="M236.164 214.575L241.575 205.936L226.211 183.29L234.126 164.541L233.55 142.239L227.009 140.904L226.928 140.949C223.748 142.972 221.291 146.137 219.963 149.918C218.331 154.427 214.689 171.354 212.663 181.042C212.265 182.92 212.309 184.879 212.789 186.732C213.27 188.586 214.173 190.272 215.41 191.631L236.164 214.575Z" fill="#FAFAFF"/>
<path d="M388.503 172.829C388.548 173.249 388.563 173.671 388.548 174.094L416.25 196.373L423.86 192.65L430.444 204.612L417.551 212.651C416.509 213.3 415.305 213.558 414.12 213.387C412.934 213.215 411.831 212.623 410.975 211.7L383.095 181.595C381.667 181.996 380.164 181.907 378.784 181.34C377.403 180.773 376.212 179.755 375.368 178.421C374.524 177.087 374.067 175.501 374.058 173.873C374.049 172.246 374.489 170.654 375.319 169.309C376.149 167.964 377.329 166.931 378.703 166.346C380.077 165.761 381.58 165.652 383.011 166.034C384.442 166.416 385.735 167.271 386.716 168.485C387.697 169.699 388.32 171.214 388.503 172.829Z" fill="#FFB6B6"/>
<path d="M417.146 197.187L425.224 212.069C425.454 212.492 425.763 212.856 426.132 213.135C426.5 213.414 426.919 213.602 427.359 213.686C427.799 213.771 428.25 213.749 428.682 213.623C429.114 213.497 429.516 213.269 429.862 212.956L441.957 201.975C443.909 200.662 445.311 198.547 445.856 196.094C446.4 193.64 446.042 191.048 444.861 188.886C443.679 186.724 441.77 185.168 439.552 184.559C437.335 183.95 434.989 184.338 433.03 185.638L418.619 192.246C418.206 192.435 417.836 192.72 417.532 193.082C417.228 193.444 416.999 193.875 416.859 194.344C416.719 194.812 416.672 195.309 416.722 195.8C416.771 196.291 416.916 196.764 417.146 197.187Z" fill="#6C63FF"/>
<path d="M451.758 326.533H435.924V297.525H451.758V326.533Z" fill="#FAFAFF"/>
<path d="M436.717 312.874L438.75 316.185L400.746 344.693L398.714 341.382L436.717 312.874Z" fill="#FAFAFF"/>
<path d="M450.965 312.874L488.968 341.382L486.936 344.693L448.933 316.185L450.965 312.874Z" fill="#FAFAFF"/>
<path d="M399.73 348.539C396.981 348.539 394.753 346.076 394.753 343.038C394.753 339.999 396.981 337.536 399.73 337.536C402.478 337.536 404.707 339.999 404.707 343.038C404.707 346.076 402.478 348.539 399.73 348.539Z" fill="#FAFAFF"/>
<path d="M444.067 348.539C441.319 348.539 439.091 346.076 439.091 343.038C439.091 339.999 441.319 337.536 444.067 337.536C446.816 337.536 449.044 339.999 449.044 343.038C449.044 346.076 446.816 348.539 444.067 348.539Z" fill="#FAFAFF"/>
<path d="M487.952 348.539C485.203 348.539 482.975 346.076 482.975 343.038C482.975 339.999 485.203 337.536 487.952 337.536C490.7 337.536 492.929 339.999 492.929 343.038C492.929 346.076 490.7 348.539 487.952 348.539Z" fill="#FAFAFF"/>
<path d="M442.258 314.529H445.877V343.038H442.258V314.529Z" fill="#FAFAFF"/>
<path d="M447.234 310.528H440.448V272.017H447.234V310.528Z" fill="#FAFAFF"/>
<path d="M463.295 278.019V269.016C463.293 267.359 462.697 265.77 461.637 264.598C460.577 263.426 459.139 262.766 457.64 262.764H427.328C425.828 262.766 424.391 263.426 423.331 264.598C422.27 265.77 421.674 267.359 421.672 269.016V278.019C421.674 279.676 422.27 281.265 423.331 282.438C424.391 283.61 425.828 284.269 427.328 284.271H457.64C459.139 284.269 460.577 283.61 461.637 282.438C462.697 281.265 463.293 279.676 463.295 278.019Z" fill="#3F3D56"/>
<path d="M408.547 339.556L400.165 339.556L396.176 315.52L408.548 315.52L408.547 339.556Z" fill="#FFB8B8"/>
<path d="M410.685 348.539L383.655 348.538V348.16C383.655 346.633 383.927 345.121 384.456 343.709C384.984 342.298 385.759 341.016 386.736 339.936C387.713 338.856 388.873 337.999 390.149 337.415C391.426 336.83 392.794 336.53 394.176 336.53H394.177L410.686 336.53L410.685 348.539Z" fill="#2F2E41"/>
<path d="M396.009 324.651L379.297 283.221C377.901 279.729 377.747 275.784 378.864 272.172C379.982 268.56 382.289 265.546 385.327 263.73L421.577 242.241L438.118 240.685L453.377 239.152L453.487 239.358C453.628 239.621 456.908 245.885 454.691 252.754C453.009 257.964 448.633 262.034 441.686 264.85C425.47 271.423 406.738 277.041 399.437 279.151C399.114 279.242 398.813 279.408 398.552 279.637C398.292 279.866 398.078 280.154 397.925 280.481C397.772 280.804 397.681 281.159 397.658 281.523C397.635 281.888 397.68 282.253 397.791 282.597L413.317 321.16C413.479 321.649 413.538 322.173 413.488 322.691C413.438 323.209 413.281 323.707 413.03 324.147C412.778 324.588 412.438 324.958 412.036 325.231C411.635 325.503 411.182 325.67 410.713 325.718L399.111 326.651C399.012 326.662 398.914 326.667 398.817 326.667C398.223 326.667 397.641 326.476 397.143 326.118C396.645 325.761 396.251 325.251 396.009 324.651Z" fill="#2F2E41"/>
<path d="M414.018 339.556L405.635 339.556L401.646 315.52L414.019 315.52L414.018 339.556Z" fill="#FFB8B8"/>
<path d="M416.156 348.539L389.125 348.538V348.16C389.125 346.633 389.397 345.121 389.926 343.709C390.455 342.298 391.23 341.016 392.207 339.936C393.184 338.856 394.343 337.999 395.62 337.415C396.896 336.83 398.264 336.53 399.646 336.53H399.647L416.156 336.53L416.156 348.539Z" fill="#2F2E41"/>
<path d="M402.163 326.919L385.451 285.488C384.055 281.996 383.901 278.051 385.019 274.439C386.136 270.827 388.443 267.813 391.481 265.997L427.731 244.508L444.272 242.953L456.224 241.807L456.222 241.625C456.363 241.888 459.644 248.153 457.426 255.022C455.744 260.232 454.787 264.302 447.84 267.118C431.624 273.691 412.892 279.309 405.591 281.419C405.268 281.51 404.967 281.675 404.706 281.905C404.446 282.134 404.232 282.422 404.079 282.749C403.926 283.072 403.835 283.427 403.812 283.791C403.789 284.155 403.834 284.521 403.945 284.864L419.471 323.428C419.634 323.917 419.692 324.44 419.642 324.958C419.592 325.476 419.435 325.975 419.184 326.415C418.932 326.856 418.592 327.226 418.19 327.498C417.789 327.771 417.336 327.937 416.867 327.985L405.265 328.919C405.167 328.929 405.068 328.935 404.971 328.935C404.377 328.934 403.795 328.744 403.297 328.386C402.799 328.028 402.405 327.519 402.163 326.919Z" fill="#2F2E41"/>
<path d="M412.647 148.468C410.501 138.492 416.076 128.482 425.1 126.11C434.124 123.737 443.178 129.901 445.324 139.876C447.47 149.852 441.895 159.862 432.871 162.234C423.847 164.607 414.793 158.443 412.647 148.468Z" fill="#FFB8B8"/>
<path d="M371.094 215.504C364.072 205.178 358.52 193.723 354.632 181.54C354.407 180.811 354.423 180.017 354.677 179.3C354.932 178.583 355.408 177.989 356.021 177.624L380.053 163.389C380.442 163.157 380.874 163.026 381.315 163.006C381.757 162.986 382.196 163.078 382.601 163.275C383.013 163.473 383.379 163.772 383.67 164.15C383.962 164.528 384.172 164.974 384.284 165.455C387.081 177.196 392.339 188.043 399.632 197.121C399.932 197.49 400.152 197.931 400.275 198.408C400.398 198.886 400.421 199.389 400.342 199.877C400.266 200.359 400.091 200.814 399.832 201.21C399.573 201.605 399.235 201.93 398.845 202.159L374.813 216.394C374.198 216.757 373.487 216.866 372.806 216.703C372.125 216.54 371.519 216.115 371.094 215.504Z" fill="#CCCCCC"/>
<path d="M372.734 214.142C372.864 214.321 373.045 214.444 373.248 214.49C373.45 214.536 373.661 214.503 373.844 214.396L397.876 200.16C397.992 200.093 398.093 199.997 398.171 199.879C398.248 199.761 398.3 199.625 398.322 199.482C398.347 199.331 398.34 199.175 398.301 199.027C398.263 198.879 398.194 198.743 398.1 198.629C390.592 189.284 385.179 178.117 382.299 166.03C382.266 165.881 382.202 165.742 382.112 165.625C382.022 165.507 381.909 165.415 381.781 165.354C381.661 165.294 381.529 165.266 381.398 165.272C381.266 165.278 381.137 165.318 381.022 165.388L356.99 179.623C356.808 179.732 356.666 179.908 356.589 180.12C356.511 180.332 356.504 180.567 356.566 180.785C360.385 192.751 365.837 204 372.734 214.142Z" fill="white"/>
<path d="M381.142 178.913L364.567 189.654C362.917 190.722 361.424 187.891 363.07 186.824L379.646 176.084C381.295 175.015 382.789 177.846 381.142 178.913Z" fill="#CCCCCC"/>
<path d="M384.106 184.92L367.531 195.661C365.881 196.729 364.388 193.898 366.035 192.831L382.61 182.091C384.259 181.022 385.753 183.853 384.106 184.92Z" fill="#CCCCCC"/>
<path d="M386.435 190.905L371.36 200.798C369.861 201.782 368.256 199.747 369.754 198.764L384.829 188.871C386.328 187.887 387.933 189.922 386.435 190.905Z" fill="#CCCCCC"/>
<path d="M391.023 196.936L374.447 207.676C372.798 208.745 371.304 205.913 372.951 204.847L389.527 194.106C391.176 193.037 392.669 195.869 391.023 196.936Z" fill="#CCCCCC"/>
<path d="M419.302 243.744L452.537 243.525L452.546 243.263C453.18 224.829 451.142 208.13 446.316 192.213C446.247 191.617 446.174 190.981 446.101 190.356C445.277 183.234 444.622 177.581 438.497 175.475C439.007 174.725 439.308 173.826 439.362 172.889C439.401 172.267 439.327 171.642 439.145 171.051C438.963 170.461 438.677 169.916 438.303 169.449C437.945 168.998 437.509 168.63 437.021 168.367C436.533 168.103 436.003 167.95 435.461 167.916L423.631 167.471C423.009 167.466 422.404 167.693 421.914 168.114C421.013 168.854 420.38 169.924 420.128 171.132C419.876 172.341 420.021 173.609 420.538 174.71C420.678 175.017 420.731 175.156 420.751 175.217C420.331 177.653 419.083 180.546 417.763 183.608C415.872 187.992 413.729 192.961 413.178 198.277C412.88 201.147 413.004 204.051 413.544 206.878C413.791 208.401 413.848 209.954 413.713 211.494C413.605 213.778 413.503 215.934 414.671 218.02C414.968 218.585 415.309 219.188 415.708 219.856L417.351 224.196L419.302 243.744Z" fill="#6C63FF"/>
<path d="M469.177 269.542V194.469C469.174 192.022 468.294 189.677 466.729 187.947C465.164 186.217 463.043 185.244 460.83 185.242H458.521C456.309 185.244 454.187 186.217 452.622 187.947C451.058 189.677 450.177 192.022 450.175 194.469V269.542C450.177 271.988 451.058 274.334 452.622 276.063C454.187 277.793 456.309 278.766 458.521 278.769H460.83C463.043 278.766 465.164 277.793 466.729 276.063C468.294 274.334 469.174 271.988 469.177 269.542Z" fill="#3F3D56"/>
<path d="M380.052 201.962C380.291 202.292 380.506 202.642 380.694 203.01L414.86 205.768L419.546 198.165L430.85 204.483L423.738 218.834C423.163 219.993 422.264 220.915 421.175 221.461C420.086 222.008 418.866 222.149 417.698 221.863L379.644 212.563C378.623 213.736 377.304 214.538 375.861 214.862C374.418 215.186 372.92 215.017 371.566 214.377C370.212 213.736 369.067 212.656 368.282 211.278C367.497 209.901 367.111 208.292 367.173 206.666C367.236 205.039 367.745 203.473 368.633 202.174C369.521 200.875 370.745 199.906 372.143 199.396C373.541 198.885 375.047 198.857 376.46 199.315C377.872 199.774 379.126 200.697 380.052 201.962Z" fill="#FFB6B6"/>
<path d="M416.01 205.937L429.976 213.862C430.374 214.087 430.811 214.215 431.257 214.238C431.703 214.26 432.148 214.175 432.562 213.99C432.976 213.805 433.349 213.523 433.656 213.164C433.963 212.805 434.196 212.377 434.339 211.909L439.369 195.524C440.4 193.275 440.584 190.666 439.879 188.267C439.175 185.869 437.64 183.876 435.61 182.725C441.802 186.238 428.907 176.259 423.986 186.858L414.902 200.88C414.642 201.281 414.463 201.74 414.378 202.225C414.293 202.709 414.303 203.209 414.408 203.689C414.513 204.168 414.711 204.618 414.987 205.006C415.264 205.394 415.612 205.711 416.01 205.937Z" fill="#6C63FF"/>
<path d="M163.588 349.632H562.412C562.567 349.631 562.717 349.562 562.827 349.44C562.937 349.319 562.998 349.154 562.998 348.981C562.998 348.809 562.937 348.644 562.827 348.522C562.717 348.4 562.567 348.332 562.412 348.331H163.588C163.432 348.331 163.283 348.4 163.172 348.522C163.062 348.643 163 348.809 163 348.981C163 349.154 163.062 349.319 163.172 349.441C163.283 349.563 163.432 349.632 163.588 349.632Z" fill="#FAFAFF"/>
<path d="M426.197 147.689C426.589 146.785 426.725 145.773 426.587 144.783C426.449 143.793 426.045 142.872 425.426 142.14C423.144 139.596 419.577 141.293 416.492 141.044C411.354 140.629 407.854 133.855 409.388 128.418C410.922 122.98 416.375 119.606 421.517 119.964C426.659 120.321 431.314 123.838 434.413 128.388C436.535 124.614 441.746 124.173 445.11 126.606C448.473 129.039 450.213 133.486 450.933 137.857C451.652 142.229 451.535 146.722 452.14 151.115C453.608 161.763 459.825 171.79 468.82 175.929C477.815 180.068 489.326 177.408 495.211 168.823C496.355 179.227 494.348 189.756 489.503 198.763C484.658 207.771 477.248 214.749 468.434 218.606C463.559 220.739 458.176 221.871 453.045 220.686C444.76 218.772 438.316 210.939 435.508 202.113C432.699 193.287 433.036 183.602 434.4 174.368C435.24 168.68 436.17 161.944 432.418 157.943C431.364 156.974 430.125 156.284 428.794 155.924C428.088 155.689 427.44 155.28 426.899 154.727C426.358 154.173 425.938 153.491 425.672 152.731C425.406 151.971 425.3 151.155 425.362 150.343C425.425 149.531 425.654 148.746 426.033 148.047C426.094 147.928 426.149 147.808 426.197 147.689Z" fill="#2F2E41"/>
</g>
<defs>
<linearGradient id="paint0_linear_34_103" x1="110.232" y1="200.326" x2="107.586" y2="-18.8369" gradientUnits="userSpaceOnUse">
<stop stop-color="#6C63FF"/>
<stop offset="1" stop-color="#6C63FF" stop-opacity="0"/>
</linearGradient>
<linearGradient id="paint1_linear_34_103" x1="611.399" y1="197.748" x2="97.9134" y2="362.965" gradientUnits="userSpaceOnUse">
<stop stop-color="#F461A6"/>
<stop offset="1" stop-color="#F461A6" stop-opacity="0"/>
</linearGradient>
<clipPath id="clip0_34_103">
<rect width="400" height="252.632" fill="white" transform="matrix(-1 0 0 1 563 97)"/>
</clipPath>
</defs>
</svg>
