<svg xmlns="http://www.w3.org/2000/svg" fill="none" viewBox="54.37 22.97 458.99 523.81">
<path d="M273.871 25.6446C280.059 22.0719 287.683 22.0719 293.871 25.6446L503.368 146.598C509.556 150.17 513.368 156.773 513.368 163.918V405.824C513.368 412.969 509.556 419.572 503.368 423.145L293.871 544.098C287.683 547.67 280.059 547.67 273.871 544.098L64.3744 423.145C58.1864 419.572 54.3744 412.969 54.3744 405.824V163.918C54.3744 156.773 58.1864 150.17 64.3744 146.598L273.871 25.6446Z" fill="#6C63FF" fill-opacity="0.1"/>
<path d="M303.709 41.2464C310.287 38.4545 317.854 39.3837 323.56 43.6838L504.776 180.239C510.482 184.539 513.461 191.557 512.59 198.649L484.937 423.864C484.066 430.956 479.478 437.045 472.901 439.837L264.033 528.496C257.456 531.288 249.888 530.359 244.182 526.059L62.9668 389.503C57.2603 385.203 54.2814 378.185 55.1522 371.093L82.8051 145.878C83.6759 138.786 88.2641 132.698 94.8414 129.906L303.709 41.2464Z" fill="#6C63FF" fill-opacity="0.1"/>
<path d="M330.623 60.0344C337.492 58.0649 344.889 59.9093 350.029 64.8729L502.461 212.075C507.601 217.039 509.703 224.367 507.974 231.3L456.71 436.912C454.981 443.845 449.685 449.329 442.816 451.299L239.119 509.708C232.251 511.677 224.853 509.833 219.713 504.869L67.2809 357.667C62.141 352.704 60.0395 345.375 61.7681 338.442L113.033 132.83C114.761 125.897 120.057 120.413 126.926 118.444L330.623 60.0344Z" fill="#6C63FF" fill-opacity="0.1"/>
<path d="M352.307 81.2896C359.365 80.1719 366.482 82.904 370.979 88.457L494.896 241.482C499.392 247.035 500.585 254.565 498.024 261.235L427.46 445.063C424.899 451.734 418.974 456.532 411.917 457.649L217.435 488.452C210.378 489.57 203.26 486.838 198.763 481.285L74.8465 328.26C70.3498 322.707 69.1571 315.177 71.7178 308.506L142.283 124.679C144.843 118.008 150.768 113.21 157.826 112.093L352.307 81.2896Z" fill="#6C63FF" fill-opacity="0.1"/>
<path d="M368.573 104.27C375.714 104.021 382.445 107.6 386.232 113.659L482.627 267.924C486.414 273.984 486.68 281.603 483.325 287.912L397.926 448.526C394.571 454.835 388.106 458.875 380.965 459.124L199.169 465.472C192.029 465.722 185.297 462.143 181.511 456.083L85.115 301.818C81.3286 295.758 81.0625 288.139 84.417 281.83L169.817 121.217C173.171 114.908 179.637 110.868 186.778 110.618L368.573 104.27Z" fill="#6C63FF" fill-opacity="0.1"/>
<path d="M381.348 128.226C388.466 128.849 394.711 133.222 397.731 139.697L468.268 290.966C471.288 297.441 470.623 305.036 466.525 310.889L370.792 447.611C366.693 453.464 359.784 456.686 352.666 456.063L186.395 441.516C179.277 440.894 173.031 436.521 170.012 430.045L99.4741 278.777C96.4544 272.301 97.1189 264.706 101.217 258.853L196.951 122.131C201.049 116.278 207.959 113.056 215.077 113.679L381.348 128.226Z" fill="#6C63FF" fill-opacity="0.1"/>
<path d="M390.674 152.42C397.663 153.906 403.329 159.007 405.537 165.803L452.479 310.274C454.687 317.069 453.102 324.527 448.32 329.837L346.676 442.725C341.894 448.035 334.644 450.391 327.654 448.905L179.068 417.322C172.079 415.837 166.413 410.735 164.205 403.94L117.264 259.468C115.055 252.673 116.641 245.215 121.422 239.905L223.067 127.017C227.848 121.707 235.099 119.351 242.088 120.837L390.674 152.42Z" fill="#6C63FF" fill-opacity="0.1"/>
<path d="M393.707 176.142C400.463 178.469 405.465 184.223 406.828 191.237L432.951 325.627C434.314 332.641 431.832 339.85 426.44 344.538L323.115 434.356C317.723 439.044 310.239 440.498 303.483 438.172L174.036 393.6C167.28 391.274 162.278 385.52 160.914 378.506L134.791 244.115C133.428 237.101 135.91 229.892 141.303 225.205L244.627 135.386C250.02 130.699 257.504 129.244 264.26 131.57L393.707 176.142Z" fill="#6C63FF" fill-opacity="0.1"/>
<g clip-path="url(#clip0_96_455)">
<path d="M430.205 272.725V200.5C430.205 199.468 429.808 198.479 429.101 197.75C428.394 197.02 427.435 196.611 426.436 196.611C425.436 196.611 424.477 197.02 423.77 197.75C423.063 198.479 422.666 199.468 422.666 200.5V272.725C422.666 273.757 423.063 274.746 423.77 275.475C424.477 276.205 425.436 276.614 426.436 276.614C427.435 276.614 428.394 276.205 429.101 275.475C429.808 274.746 430.205 273.757 430.205 272.725Z" fill="#FAFAFF"/>
<path d="M439.225 272.725V200.5C439.225 199.468 438.828 198.479 438.121 197.75C437.414 197.02 436.455 196.611 435.455 196.611C434.456 196.611 433.497 197.02 432.79 197.75C432.083 198.479 431.686 199.468 431.686 200.5V272.725C431.686 273.757 432.083 274.746 432.79 275.475C433.497 276.205 434.456 276.614 435.455 276.614C436.455 276.614 437.414 276.205 438.121 275.475C438.828 274.746 439.225 273.757 439.225 272.725Z" fill="#FAFAFF"/>
<path d="M448.244 272.725V200.5C448.244 199.468 447.847 198.479 447.14 197.75C446.433 197.02 445.475 196.611 444.475 196.611C443.475 196.611 442.517 197.02 441.81 197.75C441.103 198.479 440.706 199.468 440.706 200.5V272.725C440.706 273.757 441.103 274.746 441.81 275.475C442.517 276.205 443.475 276.614 444.475 276.614C445.475 276.614 446.433 276.205 447.14 275.475C447.847 274.746 448.244 273.757 448.244 272.725Z" fill="#FAFAFF"/>
<path d="M107.703 388.084C109.221 388.085 110.727 387.816 112.156 387.287L112.377 387.205L112.275 386.702C114.834 381.368 113.939 374.061 109.985 368.052C106.39 362.591 100.923 358.62 96.0994 355.116C95.4873 354.672 94.7604 354.426 94.0121 354.412C93.2638 354.397 92.5283 354.613 91.9002 355.033C91.2722 355.453 90.7801 356.057 90.4875 356.768C90.1949 357.479 90.115 358.264 90.2581 359.022L91.9829 368.152C93.2276 374.738 94.7085 380.972 99.1 384.86C101.512 386.942 104.557 388.084 107.703 388.084Z" fill="#FAFAFF"/>
<path d="M96.4071 403.862C98.0777 403.851 99.7193 403.411 101.183 402.58C102.647 401.749 103.886 400.553 104.788 399.103L104.913 398.902L104.615 398.631C103.843 394.287 100.214 390.417 95.3406 388.752C90.9112 387.24 86.0217 387.487 81.7107 387.705C81.141 387.733 80.5923 387.936 80.1343 388.286C79.6762 388.637 79.3294 389.12 79.1377 389.674C78.9461 390.229 78.9182 390.829 79.0577 391.4C79.1971 391.97 79.4977 392.485 79.9212 392.88L84.7717 397.397C88.2966 400.679 91.812 403.642 96.0526 403.855C96.171 403.859 96.2891 403.862 96.4071 403.862Z" fill="#FAFAFF"/>
<path d="M111.46 408.691C112.177 403.187 112.913 397.614 112.411 392.051C111.965 387.111 110.536 382.287 107.627 378.331C106.09 376.242 104.211 374.446 102.075 373.024C101.52 372.654 101.009 373.583 101.561 373.951C105.265 376.431 108.113 380.055 109.699 384.307C111.471 389.059 111.755 394.241 111.45 399.289C111.265 402.343 110.874 405.376 110.48 408.405C110.448 408.541 110.467 408.685 110.533 408.807C110.598 408.929 110.706 409.021 110.835 409.065C110.9 409.083 110.967 409.088 111.034 409.079C111.101 409.069 111.165 409.047 111.223 409.012C111.281 408.977 111.332 408.931 111.373 408.876C111.414 408.821 111.443 408.758 111.46 408.691Z" fill="#F2F2F2"/>
<path d="M113.485 411.854C110.037 405.42 106.038 398.269 98.8926 395.983C96.9084 395.35 94.8235 395.123 92.7549 395.315C92.1032 395.374 92.2659 396.433 92.9164 396.374C96.3909 396.073 99.8575 397.04 102.711 399.107C105.473 401.09 107.623 403.847 109.443 406.77C110.558 408.56 111.557 410.427 112.556 412.291C112.875 412.887 113.808 412.457 113.485 411.854Z" fill="#F2F2F2"/>
<path d="M115.036 411.76L111.555 411.842L132.545 296.149L136.027 296.825L130.546 326.838H148.204L142.723 296.825L146.204 296.149L167.019 411.842L163.714 411.76L152.77 351.839H125.98L115.036 411.76ZM151.959 347.394L149.016 331.283H129.734L126.791 347.394H151.959Z" fill="#FAFAFF"/>
<path d="M267.043 274.568V236.574C267.043 235.446 265.353 234.529 263.274 234.529C261.196 234.529 259.505 235.446 259.505 236.574V274.568C259.505 275.696 261.196 276.614 263.274 276.614C265.353 276.614 267.043 275.696 267.043 274.568Z" fill="#FAFAFF"/>
<path d="M276.063 274.568V236.574C276.063 235.446 274.372 234.529 272.294 234.529C270.215 234.529 268.524 235.446 268.524 236.574V274.568C268.524 275.696 270.215 276.614 272.294 276.614C274.372 276.614 276.063 275.696 276.063 274.568Z" fill="#FAFAFF"/>
<path d="M285.083 274.568V236.574C285.083 235.446 283.392 234.529 281.313 234.529C279.235 234.529 277.544 235.446 277.544 236.574V274.568C277.544 275.696 279.235 276.614 281.313 276.614C283.392 276.614 285.083 275.696 285.083 274.568Z" fill="#FAFAFF"/>
<path d="M209.202 246.628C209.219 246.512 209.259 246.402 209.32 246.303C209.381 246.205 209.461 246.121 209.556 246.056L237.973 226.7C237.545 226.516 237.187 226.192 236.953 225.779C236.67 225.268 236.593 224.662 236.741 224.093C236.888 223.524 237.248 223.039 237.742 222.743L240.073 221.354C240.568 221.061 241.156 220.982 241.707 221.134C242.258 221.287 242.729 221.658 243.016 222.167C243.171 222.447 243.264 222.759 243.288 223.08L263.801 209.108C264.49 207.387 265.535 205.841 266.862 204.579C268.189 203.316 269.767 202.368 271.486 201.799V195.638H279.025V201.799C281.526 202.624 283.708 204.248 285.257 206.436C286.806 208.624 287.64 211.263 287.641 213.972V215.639H280.102C280.102 216.965 279.591 218.237 278.682 219.175C277.773 220.113 276.541 220.639 275.255 220.639C273.97 220.639 272.737 220.113 271.828 219.175C270.92 218.237 270.409 216.965 270.409 215.639H262.87V213.972C262.871 213.173 262.944 212.376 263.088 211.591L211.195 246.937L232.751 273.978C232.918 273.977 233.085 273.975 233.253 273.975C234.973 273.975 236.64 274.017 238.228 274.09C238.132 273.815 238.09 273.523 238.104 273.232C238.136 272.644 238.391 272.093 238.815 271.698C239.239 271.304 239.797 271.099 240.368 271.128L243.056 271.273C243.626 271.305 244.161 271.569 244.543 272.006C244.925 272.444 245.123 273.02 245.095 273.608C245.075 273.955 244.975 274.293 244.803 274.592C249.558 275.113 252.639 275.832 252.639 276.198C252.639 276.797 244.366 276.226 234.011 276.199C233.964 276.338 233.881 276.461 233.772 276.556C233.664 276.652 233.532 276.715 233.391 276.741C233.251 276.766 233.106 276.753 232.972 276.701C232.838 276.65 232.72 276.563 232.63 276.449L232.43 276.199C222.106 276.229 213.868 276.795 213.868 276.198C213.868 275.634 221.192 274.232 230.683 274.007L209.377 247.281C209.305 247.191 209.252 247.086 209.222 246.973C209.192 246.861 209.185 246.743 209.202 246.628Z" fill="#CCCCCC"/>
<path d="M208.222 411.995H274.29C275.625 411.993 276.905 411.443 277.849 410.464C278.793 409.486 279.324 408.16 279.325 406.776V294.429C279.327 293.193 279.801 292.008 280.645 291.134C281.488 290.26 282.632 289.768 283.825 289.767H438.365C439.558 289.768 440.702 290.26 441.546 291.134C442.389 292.008 442.864 293.193 442.865 294.429V406.776C442.867 408.16 443.398 409.486 444.342 410.464C445.286 411.443 446.566 411.993 447.901 411.995H450.162C451.497 411.993 452.777 411.443 453.721 410.464C454.665 409.486 455.196 408.16 455.198 406.776V288.378C455.194 285.063 453.922 281.886 451.66 279.542C449.398 277.199 446.332 275.881 443.133 275.877H215.25C212.051 275.881 208.985 277.199 206.723 279.542C204.461 281.886 203.189 285.063 203.185 288.378V406.776C203.187 408.16 203.718 409.486 204.662 410.464C205.606 411.443 206.887 411.993 208.222 411.995Z" fill="#FAFAFF"/>
<path d="M203.636 305.088H279.563V308.422H203.636V305.088Z" fill="white"/>
<path d="M203.636 350.09H279.563V353.424H203.636V350.09Z" fill="white"/>
<path d="M342.414 275.371L344.596 274.423L346.093 263.137H366.028L367.65 274.377L369.603 275.384C369.696 275.433 369.771 275.512 369.815 275.61C369.859 275.707 369.87 275.817 369.846 275.922C369.822 276.027 369.765 276.12 369.683 276.187C369.601 276.254 369.5 276.291 369.395 276.291H342.593C342.486 276.291 342.383 276.252 342.3 276.182C342.217 276.112 342.16 276.015 342.139 275.907C342.118 275.799 342.134 275.686 342.184 275.589C342.234 275.491 342.315 275.414 342.414 275.371Z" fill="#FAFAFF"/>
<path d="M210.367 202.006C209.508 201.878 208.632 201.946 207.801 202.206C206.97 202.465 206.205 202.909 205.558 203.507C204.912 204.104 204.4 204.841 204.06 205.664C203.719 206.488 203.557 207.379 203.586 208.274L183.897 216.093L192.817 222.669L210.147 214.235C211.601 214.085 212.952 213.39 213.942 212.282C214.933 211.173 215.495 209.729 215.522 208.221C215.549 206.714 215.039 205.248 214.089 204.103C213.139 202.957 211.814 202.211 210.367 202.006Z" fill="#9E616A"/>
<path d="M135.604 198.167L132.273 204.416C133.078 208.379 135.159 211.945 138.177 214.533C143.277 218.971 169.943 235.499 169.943 235.499L203.608 218.062L197.718 209.988L171.288 219.126C161.484 209.574 149.652 202.517 136.737 198.518L135.604 198.167Z" fill="#FAFAFF"/>
<path d="M141.798 301.564C127.288 301.564 115.525 297.609 115.525 292.731C115.525 287.853 127.288 283.898 141.798 283.898C156.309 283.898 168.071 287.853 168.071 292.731C168.071 297.609 156.309 301.564 141.798 301.564Z" fill="#FAFAFF"/>
<path d="M200.74 404.275L207.716 402.285L203.598 373.574L193.301 376.511L200.74 404.275Z" fill="#9E616A"/>
<path d="M200.83 411.76L223.326 405.344L223.247 405.05C222.605 402.654 221.067 400.62 218.971 399.394C216.875 398.168 214.393 397.851 212.071 398.513L212.07 398.514L198.331 402.432L200.83 411.76Z" fill="#2F2E41"/>
<path d="M220.968 404.368L227.589 401.351L219.462 373.566L209.69 378.018L220.968 404.368Z" fill="#9E616A"/>
<path d="M222.113 411.76L243.463 402.033L243.344 401.754C242.371 399.48 240.562 397.698 238.316 396.8C236.069 395.902 233.569 395.962 231.365 396.966L231.364 396.966L218.324 402.907L222.113 411.76Z" fill="#2F2E41"/>
<path d="M121.351 271.136C121.351 271.136 117.841 282.355 139.375 296.543L167.108 325.055L195.923 396.173L213.031 388.259L209.676 379.019L207.424 372.819L206.272 369.646L205.038 366.246L186.723 315.806L171.338 288.014L170.892 272.934L167.108 262.303L139.654 252.252L121.351 271.136Z" fill="#2F2E41"/>
<path d="M135.352 271.692C135.352 271.692 131.842 282.911 153.376 297.099L181.108 325.61L209.924 396.728L227.032 388.815L223.676 379.575L221.425 373.374L220.273 370.202L219.038 366.801L200.723 316.362L195.572 307.056C188.777 294.78 180.519 283.429 170.992 273.269L165.942 267.883L165.404 259.549L153.654 252.808L135.352 271.692Z" fill="#2F2E41"/>
<path d="M151.942 216.769L143.326 197.879L128.291 195.763C128.291 195.763 116.55 211.196 119.632 232.881C120.788 241.013 121.73 249.109 121.786 256.215C121.801 258.106 120.198 258.951 120.171 260.66C120.144 262.339 123.21 265.075 122.325 266.216C121.06 267.789 120.306 269.733 120.171 271.772C121.238 274.392 153.534 260.197 167.108 262.303L151.942 216.769Z" fill="#FAFAFF"/>
<path d="M130.586 186.253C126.749 179.592 128.871 170.982 135.327 167.023C141.783 163.063 150.128 165.253 153.966 171.914C157.804 178.575 155.681 187.185 149.225 191.145C142.769 195.104 134.424 192.914 130.586 186.253Z" fill="#9E616A"/>
<path d="M133.582 174.046C133.608 174.415 133.644 174.904 133.685 175.457C133.727 176.972 133.314 178.462 132.501 179.724C131.74 181.052 132.648 189.069 132.648 189.069C110.372 173.048 127.974 156.953 134.859 158.384C134.715 156.346 140.33 157.153 140.33 157.153C142.47 153.716 147.16 158.279 147.16 158.279L146.255 156.708C149.895 157.664 153.494 169.273 153.494 169.273C152.259 174.281 133.438 172.008 133.582 174.046Z" fill="#2F2E41"/>
<path d="M219.998 224.2C212.343 213.695 206.292 202.042 202.054 189.648C201.809 188.906 201.826 188.099 202.103 187.37C202.381 186.641 202.9 186.036 203.568 185.665L229.763 171.184C230.187 170.948 230.658 170.814 231.139 170.794C231.62 170.774 232.099 170.867 232.54 171.067C232.989 171.269 233.388 171.573 233.706 171.957C234.024 172.342 234.252 172.796 234.375 173.285C237.424 185.229 243.155 196.264 251.104 205.499C251.431 205.875 251.671 206.323 251.805 206.809C251.939 207.294 251.964 207.806 251.878 208.303C251.795 208.792 251.605 209.256 251.322 209.658C251.039 210.06 250.671 210.391 250.246 210.624L224.051 225.105C223.381 225.474 222.606 225.585 221.864 225.419C221.122 225.254 220.461 224.822 219.998 224.2Z" fill="#CCCCCC"/>
<path d="M221.786 222.814C221.927 222.995 222.125 223.121 222.345 223.168C222.566 223.215 222.796 223.181 222.995 223.072L249.19 208.59C249.317 208.522 249.427 208.424 249.512 208.304C249.596 208.184 249.652 208.046 249.676 207.9C249.704 207.746 249.696 207.588 249.654 207.437C249.612 207.287 249.537 207.148 249.434 207.033C241.25 197.526 235.35 186.166 232.212 173.87C232.175 173.718 232.105 173.577 232.007 173.457C231.909 173.338 231.786 173.244 231.647 173.182C231.515 173.121 231.372 173.093 231.229 173.099C231.085 173.105 230.945 173.145 230.819 173.217L204.625 187.698C204.426 187.809 204.271 187.988 204.187 188.203C204.103 188.419 204.094 188.659 204.163 188.88C208.325 201.053 214.268 212.497 221.786 222.814Z" fill="white"/>
<path d="M230.95 186.976L212.883 197.902C211.085 198.989 209.457 196.109 211.252 195.023L229.32 184.097C231.117 183.01 232.745 185.89 230.95 186.976Z" fill="#6C63FF"/>
<path d="M234.181 193.087L216.114 204.013C214.316 205.1 212.688 202.22 214.483 201.135L232.55 190.209C234.348 189.122 235.976 192.002 234.181 193.087Z" fill="#6C63FF"/>
<path d="M237.951 199.754L219.883 210.68C218.086 211.767 216.458 208.887 218.252 207.802L236.32 196.876C238.118 195.789 239.745 198.669 237.951 199.754Z" fill="#6C63FF"/>
<path d="M241.72 205.31L223.653 216.236C221.855 217.323 220.227 214.443 222.022 213.358L240.089 202.431C241.887 201.344 243.515 204.224 241.72 205.31Z" fill="#6C63FF"/>
<path d="M159.356 269.579L152.573 285.316C152.409 285.693 152.339 286.106 152.369 286.517C152.399 286.929 152.528 287.326 152.745 287.674C152.999 288.089 153.367 288.417 153.802 288.616C154.237 288.816 154.72 288.878 155.189 288.796C155.349 288.77 155.506 288.727 155.657 288.667C156.256 288.428 156.74 287.954 157.001 287.348L163.784 271.611C163.913 271.311 163.984 270.987 163.992 270.659C164 270.331 163.946 270.004 163.832 269.698C163.601 269.079 163.142 268.58 162.555 268.31C161.967 268.041 161.3 268.023 160.701 268.261C160.101 268.499 159.617 268.973 159.356 269.579Z" fill="#6C63FF"/>
<path d="M153.12 284.047L151.761 287.223L151.066 291.726C151.02 292.022 151.07 292.326 151.209 292.59C151.348 292.854 151.567 293.063 151.833 293.185C152.099 293.307 152.396 293.335 152.679 293.265C152.962 293.194 153.214 293.029 153.397 292.795L156.209 289.186L157.548 286.079L153.12 284.047Z" fill="#3F3D56"/>
<path d="M165.291 265.2L164.319 271.501C164.288 271.707 164.21 271.903 164.093 272.074C163.976 272.244 163.823 272.385 163.645 272.484C163.467 272.584 163.27 272.64 163.067 272.648C162.865 272.656 162.664 272.616 162.479 272.532L161.515 272.089L159.655 276.405C159.597 276.539 159.489 276.644 159.356 276.697C159.223 276.749 159.075 276.745 158.945 276.686C158.814 276.626 158.712 276.515 158.661 276.378C158.61 276.24 158.613 276.088 158.671 275.953L160.531 271.638L159.567 271.196C159.248 271.049 158.998 270.778 158.872 270.441C158.746 270.105 158.754 269.73 158.895 269.4C158.942 269.291 159.003 269.188 159.076 269.095L162.96 264.13C163.142 263.897 163.395 263.732 163.678 263.662C163.96 263.591 164.258 263.619 164.524 263.741C164.79 263.863 165.009 264.072 165.148 264.336C165.287 264.6 165.337 264.904 165.291 265.2Z" fill="#3F3D56"/>
<path d="M162.478 276.572C162.325 275.691 161.986 274.855 161.486 274.123C160.986 273.391 160.337 272.781 159.584 272.336C158.831 271.891 157.992 271.621 157.127 271.547C156.262 271.472 155.392 271.595 154.578 271.905L141.187 255.083L137.945 265.888L151.158 280.206C151.753 281.583 152.817 282.687 154.149 283.308C155.48 283.929 156.987 284.025 158.382 283.577C159.777 283.129 160.965 282.169 161.72 280.878C162.475 279.587 162.744 278.055 162.478 276.572Z" fill="#9E616A"/>
<path d="M145.62 275.479L151.518 266.69L134.771 243.653L143.398 224.58L142.77 201.892L135.641 200.534L135.553 200.579C132.087 202.638 129.408 205.857 127.961 209.704C126.182 214.291 122.212 231.511 120.004 241.366C119.57 243.276 119.618 245.269 120.142 247.155C120.666 249.04 121.649 250.756 122.998 252.139L145.62 275.479Z" fill="#FAFAFF"/>
<path d="M311.67 233.011C311.719 233.438 311.735 233.868 311.719 234.298L341.913 256.962L350.208 253.175L357.385 265.344L343.332 273.522C342.196 274.182 340.884 274.445 339.592 274.271C338.299 274.096 337.096 273.494 336.164 272.554L305.774 241.929C304.219 242.337 302.58 242.246 301.075 241.669C299.571 241.093 298.272 240.057 297.352 238.7C296.432 237.343 295.934 235.73 295.924 234.074C295.915 232.418 296.394 230.798 297.299 229.43C298.203 228.062 299.49 227.011 300.988 226.416C302.485 225.821 304.123 225.71 305.683 226.099C307.243 226.488 308.652 227.357 309.721 228.592C310.791 229.827 311.47 231.368 311.67 233.011Z" fill="#FFB6B6"/>
<path d="M342.89 257.791L351.695 272.929C351.946 273.36 352.283 273.73 352.685 274.014C353.086 274.298 353.543 274.489 354.022 274.575C354.502 274.661 354.994 274.639 355.465 274.51C355.936 274.382 356.374 274.151 356.75 273.832L369.934 262.661C372.062 261.325 373.591 259.174 374.184 256.678C374.777 254.182 374.387 251.545 373.099 249.346C371.811 247.146 369.731 245.563 367.313 244.944C364.896 244.324 362.339 244.719 360.203 246.041L344.496 252.763C344.046 252.956 343.642 253.246 343.311 253.615C342.98 253.983 342.73 254.421 342.577 254.898C342.425 255.375 342.374 255.88 342.428 256.379C342.482 256.879 342.639 257.36 342.89 257.791Z" fill="#6C63FF"/>
<path d="M380.618 389.373H363.358V359.863H380.618V389.373Z" fill="#FAFAFF"/>
<path d="M364.223 375.478L366.438 378.846L325.014 407.847L322.799 404.479L364.223 375.478Z" fill="#FAFAFF"/>
<path d="M379.753 375.478L421.176 404.479L418.961 407.847L377.538 378.846L379.753 375.478Z" fill="#FAFAFF"/>
<path d="M323.907 411.76C320.911 411.76 318.482 409.254 318.482 406.163C318.482 403.072 320.911 400.566 323.907 400.566C326.903 400.566 329.331 403.072 329.331 406.163C329.331 409.254 326.903 411.76 323.907 411.76Z" fill="#FAFAFF"/>
<path d="M372.234 411.76C369.239 411.76 366.81 409.254 366.81 406.163C366.81 403.072 369.239 400.566 372.234 400.566C375.23 400.566 377.659 403.072 377.659 406.163C377.659 409.254 375.23 411.76 372.234 411.76Z" fill="#FAFAFF"/>
<path d="M420.069 411.76C417.073 411.76 414.644 409.254 414.644 406.163C414.644 403.072 417.073 400.566 420.069 400.566C423.065 400.566 425.493 403.072 425.493 406.163C425.493 409.254 423.065 411.76 420.069 411.76Z" fill="#FAFAFF"/>
<path d="M370.262 377.162H374.207V406.163H370.262V377.162Z" fill="#FAFAFF"/>
<path d="M375.686 373.092H368.289V333.914H375.686V373.092Z" fill="#FAFAFF"/>
<path d="M393.193 340.02V330.862C393.191 329.175 392.541 327.559 391.385 326.367C390.23 325.174 388.663 324.504 387.029 324.502H353.988C352.354 324.504 350.787 325.174 349.632 326.367C348.476 327.559 347.826 329.175 347.824 330.862V340.02C347.826 341.706 348.476 343.323 349.632 344.515C350.787 345.707 352.354 346.378 353.988 346.38H387.029C388.663 346.378 390.23 345.707 391.385 344.515C392.541 343.323 393.191 341.706 393.193 340.02Z" fill="#3F3D56"/>
<path d="M333.518 402.621L324.381 402.621L320.033 378.169L333.519 378.17L333.518 402.621Z" fill="#FFB8B8"/>
<path d="M335.848 411.76L306.385 411.759V411.374C306.385 409.821 306.682 408.282 307.258 406.847C307.834 405.411 308.679 404.107 309.744 403.008C310.808 401.909 312.073 401.038 313.464 400.443C314.855 399.849 316.347 399.542 317.852 399.542H317.854L335.849 399.543L335.848 411.76Z" fill="#2F2E41"/>
<path d="M319.851 387.458L301.634 345.312C300.113 341.759 299.945 337.746 301.163 334.072C302.381 330.397 304.896 327.331 308.207 325.484L347.72 303.623L365.75 302.041L382.382 300.481L382.502 300.69C382.655 300.958 386.231 307.331 383.814 314.318C381.981 319.619 377.211 323.759 369.639 326.624C351.964 333.31 331.546 339.025 323.587 341.172C323.236 341.264 322.907 341.433 322.623 341.666C322.339 341.899 322.106 342.192 321.939 342.525C321.772 342.854 321.673 343.215 321.648 343.585C321.623 343.956 321.672 344.327 321.793 344.677L338.717 383.907C338.894 384.405 338.957 384.937 338.903 385.464C338.849 385.991 338.678 386.498 338.403 386.946C338.129 387.394 337.759 387.771 337.321 388.048C336.883 388.325 336.389 388.495 335.878 388.544L323.232 389.494C323.125 389.504 323.018 389.509 322.911 389.509C322.264 389.509 321.63 389.315 321.087 388.951C320.544 388.587 320.115 388.069 319.851 387.458Z" fill="#2F2E41"/>
<path d="M339.481 402.621L330.344 402.621L325.996 378.169L339.482 378.17L339.481 402.621Z" fill="#FFB8B8"/>
<path d="M341.811 411.76L312.348 411.759V411.374C312.348 409.821 312.644 408.282 313.22 406.847C313.797 405.411 314.641 404.107 315.706 403.008C316.771 401.909 318.035 401.038 319.427 400.443C320.818 399.849 322.309 399.542 323.815 399.542H323.816L341.812 399.543L341.811 411.76Z" fill="#2F2E41"/>
<path d="M326.559 389.765L308.342 347.619C306.821 344.066 306.653 340.053 307.871 336.379C309.089 332.704 311.604 329.638 314.915 327.791L354.428 305.93L372.458 304.348L385.485 303.182L385.483 302.998C385.637 303.265 389.213 309.638 386.795 316.625C384.962 321.926 383.919 326.066 376.347 328.931C358.672 335.617 338.254 341.332 330.295 343.479C329.944 343.572 329.615 343.74 329.331 343.973C329.047 344.207 328.814 344.499 328.647 344.832C328.48 345.161 328.381 345.522 328.356 345.892C328.331 346.263 328.38 346.634 328.501 346.984L345.425 386.214C345.602 386.712 345.665 387.245 345.611 387.771C345.557 388.298 345.386 388.805 345.111 389.253C344.837 389.701 344.467 390.078 344.029 390.355C343.591 390.632 343.097 390.802 342.586 390.851L329.94 391.801C329.833 391.811 329.726 391.816 329.619 391.816C328.972 391.816 328.338 391.622 327.795 391.258C327.252 390.894 326.823 390.376 326.559 389.765Z" fill="#2F2E41"/>
<path d="M337.986 208.229C335.647 198.08 341.724 187.897 351.56 185.484C361.396 183.071 371.266 189.341 373.605 199.489C375.944 209.637 369.867 219.82 360.031 222.234C350.195 224.647 340.325 218.377 337.986 208.229Z" fill="#FFB8B8"/>
<path d="M292.694 276.425C285.039 265.919 278.988 254.267 274.75 241.872C274.504 241.131 274.522 240.324 274.799 239.595C275.077 238.865 275.596 238.261 276.264 237.89L302.459 223.408C302.883 223.172 303.353 223.039 303.835 223.019C304.316 222.999 304.795 223.092 305.236 223.292C305.685 223.493 306.084 223.798 306.402 224.182C306.72 224.566 306.948 225.02 307.07 225.51C310.119 237.453 315.85 248.489 323.8 257.723C324.127 258.099 324.367 258.547 324.501 259.033C324.635 259.519 324.66 260.03 324.574 260.528C324.491 261.017 324.301 261.48 324.018 261.883C323.735 262.285 323.367 262.615 322.942 262.848L296.747 277.33C296.077 277.699 295.302 277.81 294.56 277.644C293.817 277.478 293.156 277.046 292.694 276.425Z" fill="#CCCCCC"/>
<path d="M294.482 275.039C294.623 275.22 294.82 275.345 295.041 275.392C295.262 275.439 295.492 275.406 295.691 275.297L321.886 260.815C322.013 260.746 322.123 260.649 322.207 260.529C322.292 260.409 322.348 260.271 322.372 260.125C322.399 259.971 322.392 259.812 322.35 259.662C322.308 259.511 322.232 259.373 322.13 259.258C313.946 249.751 308.046 238.39 304.908 226.095C304.871 225.943 304.801 225.802 304.703 225.682C304.605 225.563 304.482 225.469 304.342 225.407C304.211 225.346 304.068 225.318 303.925 225.324C303.781 225.33 303.641 225.37 303.515 225.442L277.32 239.923C277.122 240.034 276.967 240.212 276.883 240.428C276.799 240.644 276.79 240.883 276.859 241.105C281.021 253.278 286.964 264.722 294.482 275.039Z" fill="white"/>
<path d="M303.646 239.2L285.579 250.127C283.781 251.214 282.153 248.334 283.948 247.248L302.015 236.322C303.813 235.235 305.441 238.115 303.646 239.2Z" fill="#CCCCCC"/>
<path d="M306.877 245.312L288.81 256.238C287.012 257.325 285.384 254.445 287.179 253.36L305.246 242.433C307.044 241.346 308.672 244.226 306.877 245.312Z" fill="#CCCCCC"/>
<path d="M309.415 251.399L292.984 261.464C291.349 262.465 289.601 260.395 291.233 259.395L307.664 249.331C309.299 248.329 311.048 250.4 309.415 251.399Z" fill="#CCCCCC"/>
<path d="M314.416 257.535L296.348 268.461C294.551 269.548 292.923 266.668 294.718 265.583L312.785 254.656C314.583 253.569 316.211 256.449 314.416 257.535Z" fill="#CCCCCC"/>
<path d="M345.24 305.153L381.466 304.929L381.476 304.663C382.167 285.91 379.946 268.923 374.685 252.731C374.611 252.125 374.53 251.477 374.451 250.841C373.553 243.597 372.839 237.845 366.163 235.703C366.719 234.94 367.047 234.025 367.106 233.073C367.148 232.439 367.068 231.804 366.869 231.203C366.671 230.602 366.359 230.048 365.951 229.572C365.561 229.114 365.086 228.739 364.554 228.472C364.022 228.204 363.444 228.048 362.853 228.013L349.959 227.56C349.281 227.555 348.622 227.786 348.087 228.215C347.105 228.967 346.415 230.056 346.141 231.285C345.866 232.515 346.024 233.805 346.588 234.925C346.74 235.237 346.798 235.379 346.82 235.441C346.362 237.919 345.002 240.862 343.562 243.977C341.501 248.437 339.166 253.491 338.565 258.899C338.241 261.819 338.376 264.773 338.964 267.649C339.233 269.198 339.295 270.778 339.148 272.345C339.03 274.669 338.919 276.862 340.192 278.984C340.517 279.559 340.888 280.172 341.323 280.851L343.114 285.267L345.24 305.153Z" fill="#6C63FF"/>
<path d="M399.604 331.397V255.025C399.601 252.537 398.641 250.151 396.936 248.391C395.23 246.631 392.918 245.641 390.506 245.639H387.99C385.577 245.641 383.265 246.631 381.559 248.391C379.854 250.151 378.894 252.537 378.892 255.025V331.397C378.894 333.885 379.854 336.271 381.559 338.031C383.265 339.79 385.577 340.78 387.99 340.783H390.506C392.918 340.78 395.23 339.79 396.936 338.031C398.641 336.271 399.601 333.885 399.604 331.397Z" fill="#3F3D56"/>
<path d="M302.458 262.648C302.718 262.984 302.952 263.34 303.158 263.714L340.399 266.52L345.506 258.785L357.827 265.212L350.075 279.811C349.449 280.991 348.469 281.929 347.282 282.485C346.095 283.04 344.765 283.184 343.492 282.894L302.013 273.433C300.9 274.626 299.462 275.442 297.889 275.771C296.316 276.101 294.683 275.929 293.208 275.277C291.732 274.626 290.484 273.527 289.629 272.125C288.773 270.724 288.352 269.087 288.42 267.433C288.488 265.779 289.043 264.185 290.011 262.864C290.979 261.543 292.313 260.557 293.837 260.037C295.361 259.518 297.002 259.489 298.542 259.956C300.082 260.422 301.448 261.361 302.458 262.648Z" fill="#FFB6B6"/>
<path d="M341.652 266.691L356.876 274.754C357.309 274.983 357.785 275.113 358.271 275.136C358.757 275.158 359.243 275.072 359.694 274.884C360.145 274.695 360.552 274.409 360.886 274.043C361.221 273.678 361.475 273.243 361.631 272.767L367.113 256.099C368.237 253.811 368.437 251.156 367.67 248.716C366.902 246.276 365.229 244.249 363.016 243.078C369.765 246.652 355.71 236.501 350.346 247.283L340.444 261.547C340.161 261.955 339.966 262.422 339.873 262.915C339.78 263.408 339.791 263.916 339.906 264.404C340.021 264.893 340.236 265.35 340.537 265.744C340.838 266.139 341.219 266.462 341.652 266.691Z" fill="#6C63FF"/>
<path d="M66.5123 412.871H501.23C501.4 412.871 501.562 412.801 501.682 412.677C501.802 412.553 501.869 412.385 501.869 412.21C501.869 412.035 501.802 411.867 501.682 411.743C501.562 411.619 501.4 411.549 501.23 411.548H66.5123C66.3422 411.548 66.1791 411.618 66.0589 411.742C65.9386 411.866 65.8711 412.034 65.8711 412.21C65.8711 412.385 65.9386 412.553 66.0589 412.677C66.1791 412.801 66.3422 412.871 66.5123 412.871Z" fill="#FAFAFF"/>
<path d="M340.171 196.409C340.784 194.901 340.517 195.686 341.136 194.185C340.937 194.925 340.998 195.7 341.312 196.409H358.27V187.743C353.302 186.012 348.445 184.539 345.511 187.743C342.896 187.743 340.389 188.656 338.54 190.281C336.692 191.906 335.653 194.11 335.653 196.409H340.171Z" fill="#1E1E1E"/>
<path d="M348.458 234.268C348.472 234.044 348.493 233.813 348.521 233.59C348.766 231.951 349.162 230.347 349.705 228.804C350.23 227.121 350.762 225.431 351.295 223.748C350.609 226.803 350.818 230.029 351.89 232.936C354.965 230.208 353.025 223.971 357.046 223.971C366.713 223.971 376.66 215.046 376.66 204.032C376.66 193.025 372.513 184.794 362.846 184.794C353.172 184.794 345.635 185.855 345.446 196.861C357.355 200.051 346.209 233.151 348.458 234.268Z" fill="#1E1E1E"/>
<path d="M369.369 197.787C374.208 197.787 378.131 193.617 378.131 188.474C378.131 183.331 374.208 179.162 369.369 179.162C364.53 179.162 360.607 183.331 360.607 188.474C360.607 193.617 364.53 197.787 369.369 197.787Z" fill="#1E1E1E"/>
<path d="M366.195 183.281L367.494 182.101C369.124 186.724 373.742 189.339 376.274 193.48C380.427 200.277 378.09 209.358 374.735 216.633C371.375 223.907 366.996 231.245 367.39 239.343C367.652 244.746 370.06 249.769 372.783 254.343C375.348 258.664 378.549 262.956 382.528 265.641C383.076 264.324 383.721 263.055 384.456 261.846C385.358 260.26 386.261 258.667 387.167 257.087C385.829 260.027 385.43 263.35 386.031 266.553C386.09 266.886 386.165 267.223 386.247 267.556C387.052 267.849 387.879 268.07 388.719 268.215C390.858 268.567 393.043 268.398 395.112 267.721C395.617 266.62 396.18 265.55 396.798 264.517C397.7 262.93 398.603 261.337 399.509 259.757C398.56 261.826 402.132 265.914 402.156 268.215C403.503 264.517 403.772 262.801 404.849 258.634C407.578 251.913 406.548 243.11 401.967 237.647C398.834 233.91 396.798 232.799 393.91 228.447C392.195 223.354 391.127 220.55 390.579 215.02C390.619 207.022 392.705 202.317 395.112 194.742C397.427 187.438 393.95 177.184 387.167 174.463C380.383 171.748 368.993 176.171 366.195 183.281Z" fill="#1E1E1E"/>
<path d="M378.656 256.466C379.066 255.784 379.282 254.986 379.275 254.175C379.269 253.365 379.041 252.579 378.622 251.922C377.057 249.622 374.573 246.318 372.122 245.772C368.04 244.863 371.091 244.069 372.896 239.872C374.7 235.675 373.727 232.803 377.818 233.667C381.91 234.531 385.278 237.878 387.287 241.881C389.388 239.086 393.62 239.317 396.064 241.648C398.509 243.98 404.986 249.227 405.103 252.82C404.034 256.551 404.675 259.765 402.695 266.294C399.863 275.632 404.765 280.416 409.345 285.821C413.471 290.689 414.808 294.993 414.995 299.785C413.516 311.071 411.259 309.635 410.537 315.141C411.041 324.768 412.588 316.064 405.103 318.175C400.964 319.342 393.002 323.935 389.771 317.545C385.834 309.761 381.726 308.64 380.4 301.234C379.075 293.828 379.268 286.094 381.336 278.828C382.609 274.353 384.784 271.18 382.39 266.294C381.646 265.397 381.651 265.603 380.446 264.261C379.904 263.993 379.301 261.617 378.925 261.112C378.549 260.606 377.837 261.099 377.703 260.458C377.57 259.818 377.571 259.15 377.706 258.505C377.842 257.86 378.109 257.254 378.487 256.735C378.548 256.647 378.605 256.557 378.656 256.466Z" fill="#1E1E1E"/>
<path d="M392.448 291.735C392.986 291.157 393.359 290.422 393.517 289.628C393.675 288.834 393.611 288.017 393.333 287.284C392.267 284.698 392.791 281.75 390.505 280.689C386.696 278.921 387.556 277.982 390.169 274.267C392.782 270.551 392.41 267.532 396.237 269.257C400.064 270.983 402.682 274.981 403.838 279.328C405.387 283.099 404.814 283.626 406.733 286.433C408.653 289.239 410.091 293.325 409.479 296.864C408.867 300.403 416.874 297.465 413.465 307.267C408.001 315.574 411.699 319.623 417.461 325.322C423.223 331.021 432.709 332.242 439.476 327.353C437.587 335.615 433.261 343.082 427.175 348.587C421.089 354.093 413.585 357.325 405.839 357.779C401.555 358.029 397.149 357.373 393.549 355.019C387.738 351.219 384.903 343.422 385.103 335.894C385.304 328.366 391.344 323.595 389.89 316.173C388.082 306.944 395.913 306.263 394.113 302.15C393.567 301.113 393.53 301.316 392.623 299.743C392.147 299.365 392.037 296.911 391.772 296.336C391.506 295.761 390.711 296.09 390.709 295.435C390.708 294.78 390.844 294.127 391.107 293.525C391.37 292.923 391.754 292.388 392.228 291.962C392.306 291.889 392.379 291.813 392.448 291.735Z" fill="#1E1E1E"/>
</g>
<defs>
<clipPath id="clip0_96_455">
<rect width="436" height="257" fill="white" transform="matrix(-1 0 0 1 501.871 155.871)"/>
</clipPath>
</defs>
</svg>