<svg xmlns="http://www.w3.org/2000/svg" fill="none" viewBox="47.64 84.29 593.27 350.59">
<path fill-rule="evenodd" clip-rule="evenodd" d="M52.8278 342.191C25.2481 255.521 111.524 160.57 217.497 106.17C302.855 62.352 392.837 91.7657 467.021 129.568C556.731 175.281 674.449 228.287 631.951 317.364C587.704 410.106 441.318 428.822 321.801 433.946C207.133 438.862 79.6632 426.52 52.8278 342.191Z" fill="url(#paint0_linear_13_1348)"/>
<path d="M210.353 395.724C209.799 396.469 208.961 397.168 207.839 397.819C206.76 398.509 205.555 399.104 204.224 399.604C202.935 400.143 201.62 400.583 200.279 400.924C198.978 401.263 197.828 401.455 196.829 401.501C195.75 401.55 194.982 401.444 194.525 401.185C194.068 400.925 193.818 400.456 193.776 399.777C193.711 398.739 194.275 398.133 195.466 397.959C197.134 397.724 198.365 397.548 199.16 397.432C199.954 397.316 200.371 397.257 200.411 397.255C201.869 396.869 203.214 396.267 204.446 395.451C205.675 394.594 206.72 393.686 207.582 392.726C208.441 391.727 209.102 390.756 209.564 389.814C210.066 388.871 210.3 388.119 210.265 387.561C210.322 386.557 210.334 385.776 210.299 385.217C210.189 383.46 209.69 382.202 208.801 381.441C207.912 380.681 206.668 380.337 205.07 380.409C204.271 380.445 202.433 380.849 199.556 381.62C198.539 381.386 197.989 380.59 197.904 379.232C198.009 378.988 198.312 378.714 198.814 378.411C199.314 378.068 199.853 377.723 200.433 377.376C201.05 376.988 201.648 376.621 202.227 376.274C202.804 375.888 203.223 375.529 203.483 375.197C205.086 373.282 205.843 371.607 205.754 370.169C205.624 368.093 204.081 367.122 201.124 367.256C200.724 367.274 200.366 367.311 200.049 367.365C199.769 367.378 199.453 367.452 199.101 367.588C198.749 367.724 198.343 367.963 197.883 368.304C197.421 368.605 196.849 369.071 196.167 369.703C195.293 370.463 194.672 371.112 194.305 371.649C193.935 372.146 193.641 372.559 193.421 372.89C193.239 373.178 193.052 373.407 192.863 373.576C192.67 373.704 192.334 373.78 191.855 373.801C190.656 373.856 190.012 373.164 189.922 371.727C189.885 371.128 190.046 370.5 190.406 369.843C190.803 369.145 191.321 368.461 191.961 367.791C192.638 367.08 193.377 366.406 194.179 365.769C195.02 365.131 195.886 364.551 196.775 364.03C197.362 363.803 197.993 363.635 198.667 363.524C199.381 363.412 200.158 363.337 200.997 363.299C202.356 363.237 203.561 363.283 204.612 363.435C205.701 363.546 206.621 363.845 207.373 364.331C208.122 364.778 208.706 365.472 209.126 366.414C209.583 367.314 209.858 368.522 209.953 370.039C209.985 370.558 209.923 371.162 209.765 371.849C209.645 372.495 209.334 373.29 208.832 374.234L207.487 376.757C208.468 377.073 209.266 377.337 209.881 377.549C210.495 377.762 210.989 377.979 211.364 378.203C211.736 378.386 212.051 378.612 212.308 378.881C212.563 379.109 212.841 379.397 213.143 379.743C214.142 380.979 214.697 382.496 214.809 384.292C215.016 387.606 213.531 391.416 210.353 395.724ZM245.396 390.654C245.53 390.888 245.605 391.125 245.62 391.364C245.658 391.963 245.493 392.531 245.125 393.068C244.756 393.565 244.351 393.824 243.912 393.844C243.472 393.864 242.428 393.19 240.78 391.824C240.123 390.933 239.562 390.278 239.095 389.858C238.625 389.399 238.158 388.98 237.694 388.601C237.269 388.219 236.802 387.8 236.293 387.343C235.781 386.846 235.114 386.115 234.293 385.151L231.528 389C231.025 389.943 230.593 390.724 230.231 391.341C229.909 391.956 229.604 392.53 229.317 393.063C229.069 393.595 228.802 394.128 228.515 394.661C228.225 395.155 227.862 395.752 227.424 396.452C227.162 396.744 226.771 396.902 226.252 396.926C225.692 396.951 225.183 396.814 224.723 396.514C224.306 396.253 224.083 395.883 224.053 395.404C224.041 395.204 224.104 394.941 224.244 394.614C224.422 394.246 224.619 393.877 224.836 393.507C225.051 393.096 225.266 392.686 225.481 392.276C225.696 391.866 225.852 391.479 225.949 391.114C226.309 390.457 226.654 389.881 226.983 389.386C227.311 388.851 227.677 388.293 228.081 387.715C228.484 387.096 228.961 386.394 229.513 385.608C230.062 384.782 230.721 383.772 231.487 382.576C231.03 382.316 230.655 382.073 230.36 381.846C230.063 381.58 229.703 381.276 229.281 380.934C228.859 380.593 228.334 380.197 227.704 379.745C227.073 379.253 226.195 378.672 225.071 378.002C224.237 377.48 223.63 377.067 223.251 376.764C222.909 376.419 222.723 376.007 222.693 375.528C222.608 374.17 223.205 373.463 224.484 373.405C224.843 373.389 225.168 373.454 225.458 373.601L228.788 375.912C228.962 376.145 229.303 376.47 229.81 376.887C230.355 377.263 230.899 377.638 231.443 378.014C232.028 378.388 232.53 378.726 232.949 379.027C233.406 379.286 233.656 379.435 233.698 379.473C234.193 379.051 234.607 378.631 234.942 378.216C235.314 377.759 235.61 377.365 235.83 377.035C236.09 376.703 236.274 376.434 236.381 376.229C236.488 376.024 236.543 375.941 236.546 375.981C237.273 374.787 237.861 373.94 238.311 373.439C238.798 372.897 239.261 372.616 239.701 372.596C240.979 372.538 241.654 373.068 241.723 374.186C241.761 374.784 241.375 375.663 240.565 376.82L238.19 380.171L236.623 382.043C237.49 383.085 238.963 384.54 241.043 386.407L245.396 390.654Z" fill="#6C63FF"/>
<path d="M258.191 369.13C257.739 369.12 257.394 369.121 257.154 369.131C256.942 369.111 256.762 369.104 256.612 369.111C256.492 369.116 256.372 369.122 256.252 369.127C256.132 369.133 255.952 369.141 255.713 369.152C255.473 369.162 255.219 369.189 254.951 369.231C254.681 369.243 254.397 369.256 254.097 369.27C253.348 369.304 252.423 369.165 251.321 368.855C251.022 368.869 250.692 368.884 250.332 368.9C249.973 368.916 249.584 368.949 249.166 368.998C248.833 368.953 248.364 368.899 247.759 368.836C247.154 368.774 246.428 368.701 245.581 368.62C245.04 368.134 244.755 367.666 244.727 367.217C244.701 366.798 244.779 366.359 244.961 365.9C245.916 364.836 246.629 363.978 247.099 363.326C247.57 362.674 247.97 362.101 248.299 361.605C248.627 361.08 248.971 360.569 249.331 360.072C249.689 359.546 250.219 358.891 250.921 358.109C251.034 357.984 251.185 357.766 251.377 357.458C251.568 357.149 251.772 356.809 251.989 356.439C252.235 356.037 252.481 355.651 252.728 355.279C252.976 354.908 253.182 354.598 253.347 354.351C254.21 353.261 254.601 352.057 254.519 350.739C254.48 350.111 254.283 349.609 253.929 349.235C253.605 348.859 253.008 348.691 252.139 348.73C250.611 348.8 249.345 349.217 248.341 349.983C247.335 350.719 246.567 351.67 246.039 352.835C245.777 353.447 245.565 353.907 245.404 354.215C245.273 354.521 245.152 354.752 245.041 354.907C244.931 355.062 244.816 355.157 244.698 355.193C244.579 355.198 244.414 355.206 244.204 355.215C243.814 355.233 243.445 355.099 243.097 354.815C242.747 354.5 242.557 354.104 242.527 353.625C242.508 353.325 242.602 352.901 242.808 352.351C243.042 351.77 243.322 351.201 243.648 350.646C244.003 350.06 244.36 349.533 244.722 349.066C245.114 348.598 245.455 348.297 245.748 348.164C247.683 346.905 249.924 346.218 252.471 346.103C253.37 346.062 254.128 346.163 254.744 346.405C255.39 346.646 255.907 346.983 256.295 347.416C256.683 347.849 256.971 348.376 257.16 348.998C257.347 349.591 257.462 350.231 257.505 350.92C257.614 352.656 257.165 354.133 256.159 355.349C255.852 355.724 255.575 356.111 255.33 356.513C255.084 356.914 254.854 357.315 254.638 357.715C254.421 358.085 254.217 358.425 254.026 358.734C253.865 359.041 253.728 359.258 253.615 359.383C253.499 359.448 253.33 359.621 253.107 359.901C252.882 360.152 252.617 360.479 252.312 360.883C252.036 361.286 251.734 361.75 251.407 362.275C251.107 362.769 250.807 363.263 250.507 363.757C249.398 364.768 248.74 365.534 248.532 366.054C249.345 366.077 250.339 366.122 251.516 366.189C252.006 366.347 252.491 366.415 252.971 366.393C253.301 366.378 253.597 366.32 253.862 366.218C254.011 366.211 254.177 366.219 254.359 366.24C254.539 366.232 254.733 366.223 254.943 366.214C255.453 366.191 256.006 366.151 256.604 366.094C257.201 366.037 257.86 365.992 258.579 365.959C258.849 365.947 259.101 366.131 259.335 366.51C259.567 366.86 259.696 367.245 259.722 367.664C259.761 368.293 259.606 368.69 259.256 368.856C258.905 369.022 258.55 369.113 258.191 369.13Z" fill="#6C63FF"/>
<path d="M288.37 376.517C288.185 376.766 287.759 377.005 287.092 377.236C286.423 377.426 285.732 377.598 285.02 377.75C284.309 377.902 283.674 378.011 283.117 378.076C282.6 378.14 282.38 378.15 282.458 378.106C282.418 378.108 282.139 378.141 281.623 378.204C281.106 378.267 280.447 378.317 279.648 378.353C279.488 378.361 279.329 378.368 279.169 378.375C279.009 378.382 278.868 378.369 278.745 378.334C278.828 379.652 278.905 380.889 278.977 382.047C279.089 383.203 279.113 384.223 279.048 385.107C279.02 385.948 278.863 386.636 278.575 387.17C278.286 387.663 277.781 387.926 277.062 387.959C276.502 387.984 275.997 387.907 275.545 387.727C275.13 387.506 274.896 386.956 274.841 386.078C274.808 385.559 274.79 384.939 274.785 384.219C274.817 383.456 274.884 382.593 274.984 381.627C274.936 381.509 274.901 381.271 274.879 380.911C274.834 380.193 274.816 379.573 274.823 379.052C274.871 378.53 274.893 378.248 274.891 378.209C274.209 378.199 273.588 378.207 273.029 378.233C272.469 378.258 271.91 378.283 271.351 378.309C269.473 378.394 268.038 378.519 267.046 378.684C265.558 378.591 264.775 377.926 264.698 376.688C264.628 375.571 265.153 374.986 266.271 374.936C267.83 374.865 268.991 374.852 269.755 374.898C270.557 374.902 271.218 374.892 271.737 374.868C272.177 374.848 272.636 374.828 273.116 374.806C273.593 374.744 274.09 374.682 274.607 374.618C274.532 374.061 274.462 373.584 274.397 373.186C274.37 372.747 274.346 372.368 274.326 372.049C274.279 371.29 274.309 370.808 274.416 370.603C274.356 369.645 274.136 368.354 273.754 366.73C273.874 365.443 274.533 364.773 275.732 364.719C276.331 364.691 276.78 364.811 277.077 365.078C277.374 365.345 277.602 365.795 277.762 366.428C277.919 367.022 278.049 367.816 278.151 368.813C278.254 369.809 278.39 371.024 278.559 372.458L278.694 374.613C279.091 374.555 279.568 374.494 280.125 374.428C280.682 374.363 281.357 374.273 282.151 374.156C282.316 374.229 282.578 374.257 282.938 374.241C283.458 374.217 283.956 374.175 284.433 374.113C284.91 374.052 285.327 373.993 285.684 373.936C286.079 373.839 286.375 373.765 286.572 373.716C286.769 373.667 286.849 373.664 286.812 373.705C287.858 373.778 288.416 374.373 288.486 375.491C288.511 375.89 288.472 376.232 288.37 376.517ZM318.726 386.072C318.449 386.765 318.149 387.42 317.827 388.035C317.502 388.61 317.059 389.21 316.497 389.836C315.935 390.462 315.216 391.155 314.342 391.916C313.508 392.674 312.461 393.562 311.203 394.58C307.421 396.913 304.971 398.105 303.852 398.156C303.373 398.177 303.084 398.05 302.987 397.775C302.889 397.499 302.821 397.041 302.781 396.403C302.751 395.924 302.923 395.475 303.298 395.058C303.675 394.681 304.171 394.278 304.786 393.85C305.442 393.46 306.177 393.026 306.988 392.549C307.843 392.11 308.694 391.631 309.544 391.112C310.138 391.005 310.993 390.266 312.11 388.894L314.568 385.9C315.392 384.342 315.767 382.963 315.693 381.766C315.618 380.568 315.272 379.523 314.655 378.63C314.039 377.737 313.292 377.01 312.416 376.449C311.577 375.847 310.648 375.408 309.629 375.134C308.65 374.858 307.741 374.739 306.902 374.777C306.422 374.799 305.926 374.882 305.414 375.025C304.94 375.126 304.443 375.189 303.923 375.212C303.763 375.22 303.502 375.211 303.14 375.188C302.776 375.124 302.39 375.042 301.983 374.94C301.613 374.797 301.262 374.632 300.93 374.447C300.636 374.22 300.477 373.927 300.455 373.568C300.41 372.849 300.434 371.947 300.526 370.862C300.656 369.735 300.788 368.628 300.92 367.542C301.093 366.453 301.233 365.486 301.34 364.64C301.488 363.793 301.555 363.269 301.543 363.069L301.356 360.075C301.316 360.077 301.315 360.377 301.352 360.976C301.3 360.138 301.407 359.613 301.674 359.4C301.939 359.148 302.391 359.007 303.031 358.979C303.83 358.942 304.392 358.957 304.716 359.022C305.081 359.086 305.387 359.172 305.634 359.281C305.881 359.39 306.147 359.478 306.432 359.545C306.757 359.611 307.299 359.626 308.058 359.592C308.258 359.583 308.398 359.576 308.477 359.573C308.555 359.529 308.673 359.504 308.833 359.496C308.953 359.491 309.395 359.511 310.159 359.557C310.964 359.6 311.789 359.663 312.636 359.745C313.52 359.785 314.304 359.829 314.988 359.878C315.712 359.926 316.055 359.95 316.015 359.952C316.784 360.077 317.199 360.639 317.262 361.637C317.332 362.755 316.888 363.355 315.932 363.439C315.407 363.382 314.744 363.352 313.942 363.349C313.141 363.345 312.16 363.369 311.002 363.422C310.802 363.431 310.521 363.424 310.159 363.4C309.837 363.374 309.475 363.351 309.072 363.329C308.67 363.307 308.288 363.284 307.926 363.261C307.604 363.235 307.343 363.227 307.143 363.236C306.584 363.262 306.17 363.38 305.903 363.593C305.636 363.805 305.435 364.114 305.3 364.521C305.165 364.927 305.075 365.412 305.03 365.974C305.022 366.495 304.979 367.078 304.899 367.722C304.678 369.333 304.582 370.358 304.61 370.797C304.622 370.997 304.649 371.116 304.692 371.154C304.929 371.103 305.168 371.072 305.407 371.062C305.647 371.051 305.887 371.04 306.127 371.029C307.006 370.989 307.97 371.026 309.019 371.138C310.108 371.249 311.186 371.521 312.255 371.953C313.364 372.383 314.425 373.015 315.439 373.85C316.49 374.643 317.399 375.723 318.166 377.09C318.618 377.91 318.965 378.655 319.207 379.325C319.489 379.992 319.651 380.666 319.693 381.344C319.766 382.502 319.443 384.078 318.726 386.072ZM350.465 385.896C350.6 386.13 350.675 386.367 350.69 386.607C350.727 387.205 350.562 387.773 350.195 388.311C349.825 388.808 349.42 389.066 348.981 389.086C348.541 389.106 347.498 388.433 345.849 387.066C345.193 386.175 344.631 385.52 344.164 385.101C343.695 384.641 343.228 384.222 342.763 383.843C342.339 383.462 341.872 383.042 341.362 382.585C340.85 382.088 340.184 381.357 339.362 380.394L336.597 384.242C336.095 385.186 335.663 385.966 335.3 386.583C334.978 387.198 334.673 387.772 334.386 388.306C334.139 388.837 333.871 389.37 333.584 389.903C333.294 390.397 332.931 390.994 332.494 391.694C332.231 391.986 331.841 392.144 331.321 392.168C330.762 392.193 330.252 392.056 329.793 391.757C329.376 391.495 329.152 391.125 329.122 390.646C329.11 390.446 329.174 390.183 329.314 389.857C329.491 389.488 329.688 389.119 329.906 388.749C330.12 388.339 330.335 387.929 330.55 387.519C330.765 387.108 330.921 386.721 331.019 386.356C331.378 385.7 331.723 385.123 332.053 384.628C332.38 384.093 332.746 383.536 333.151 382.957C333.553 382.338 334.03 381.636 334.582 380.85C335.132 380.025 335.79 379.014 336.557 377.818C336.1 377.559 335.724 377.316 335.429 377.089C335.132 376.822 334.773 376.518 334.351 376.177C333.929 375.835 333.403 375.439 332.774 374.987C332.142 374.495 331.264 373.914 330.14 373.245C329.306 372.722 328.7 372.309 328.32 372.006C327.978 371.661 327.792 371.249 327.762 370.77C327.677 369.413 328.274 368.705 329.553 368.647C329.913 368.631 330.237 368.696 330.527 368.843L333.857 371.155C334.032 371.387 334.373 371.712 334.879 372.129C335.424 372.505 335.968 372.881 336.513 373.256C337.097 373.63 337.599 373.968 338.018 374.269C338.475 374.529 338.725 374.677 338.768 374.716C339.262 374.293 339.677 373.874 340.011 373.458C340.384 373.001 340.68 372.607 340.9 372.277C341.159 371.945 341.343 371.676 341.45 371.471C341.558 371.266 341.613 371.184 341.615 371.224C342.342 370.03 342.93 369.182 343.38 368.682C343.867 368.139 344.33 367.858 344.77 367.838C346.049 367.78 346.723 368.31 346.793 369.428C346.83 370.027 346.444 370.905 345.635 372.063L343.259 375.413L341.693 377.285C342.559 378.327 344.033 379.782 346.113 381.649L350.465 385.896ZM383.019 372.231C382.834 372.48 382.408 372.719 381.741 372.95C381.072 373.14 380.381 373.312 379.669 373.464C378.958 373.616 378.323 373.725 377.766 373.79C377.249 373.854 377.03 373.864 377.107 373.82C377.067 373.822 376.789 373.855 376.272 373.918C375.755 373.982 375.097 374.031 374.297 374.068C374.138 374.075 373.978 374.082 373.818 374.089C373.658 374.097 373.517 374.083 373.395 374.048C373.477 375.366 373.554 376.603 373.626 377.761C373.738 378.917 373.762 379.937 373.697 380.821C373.669 381.663 373.512 382.35 373.225 382.884C372.935 383.377 372.43 383.64 371.711 383.673C371.152 383.698 370.646 383.621 370.194 383.441C369.779 383.22 369.545 382.67 369.49 381.792C369.457 381.273 369.439 380.653 369.434 379.933C369.467 379.171 369.533 378.307 369.633 377.341C369.585 377.224 369.551 376.985 369.528 376.626C369.483 375.907 369.465 375.287 369.472 374.766C369.52 374.244 369.542 373.963 369.54 373.923C368.858 373.914 368.237 373.922 367.678 373.947C367.119 373.972 366.559 373.998 366 374.023C364.122 374.108 362.687 374.233 361.695 374.398C360.207 374.305 359.424 373.64 359.347 372.402C359.277 371.285 359.802 370.7 360.921 370.65C362.479 370.579 363.64 370.567 364.404 370.612C365.206 370.616 365.867 370.606 366.386 370.582C366.826 370.563 367.285 370.542 367.765 370.52C368.242 370.458 368.739 370.396 369.256 370.332C369.181 369.775 369.111 369.298 369.046 368.901C369.019 368.461 368.995 368.082 368.975 367.763C368.928 367.004 368.958 366.523 369.065 366.317C369.006 365.359 368.785 364.068 368.403 362.444C368.523 361.157 369.182 360.487 370.381 360.433C370.981 360.406 371.429 360.525 371.726 360.792C372.023 361.059 372.252 361.509 372.411 362.142C372.569 362.736 372.698 363.531 372.801 364.527C372.903 365.523 373.039 366.738 373.208 368.172L373.343 370.327C373.74 370.269 374.217 370.208 374.774 370.143C375.331 370.077 376.006 369.987 376.801 369.871C376.965 369.943 377.228 369.971 377.587 369.955C378.107 369.932 378.605 369.889 379.082 369.827C379.559 369.766 379.976 369.707 380.333 369.651C380.728 369.553 381.024 369.479 381.221 369.43C381.418 369.381 381.498 369.378 381.461 369.419C382.507 369.492 383.065 370.087 383.135 371.205C383.16 371.604 383.121 371.947 383.019 372.231ZM414.588 385.815C413.987 385.802 413.526 385.803 413.206 385.818C412.924 385.79 412.683 385.781 412.483 385.79C412.323 385.798 412.163 385.805 412.004 385.812C411.844 385.819 411.604 385.83 411.284 385.845C410.965 385.859 410.626 385.894 410.269 385.951C409.909 385.967 409.53 385.984 409.13 386.002C408.131 386.047 406.898 385.863 405.429 385.449C405.03 385.467 404.59 385.487 404.11 385.509C403.631 385.531 403.113 385.574 402.556 385.639C402.111 385.579 401.486 385.508 400.679 385.424C399.872 385.34 398.905 385.244 397.776 385.135C397.054 384.487 396.675 383.864 396.637 383.265C396.602 382.706 396.706 382.121 396.949 381.509C398.222 380.09 399.173 378.946 399.8 378.077C400.427 377.208 400.96 376.443 401.4 375.783C401.837 375.083 402.295 374.401 402.775 373.739C403.252 373.037 403.959 372.164 404.896 371.121C405.046 370.954 405.248 370.664 405.503 370.252C405.758 369.841 406.03 369.388 406.32 368.894C406.647 368.359 406.975 367.844 407.305 367.348C407.635 366.853 407.91 366.44 408.13 366.11C409.281 364.657 409.802 363.052 409.693 361.295C409.64 360.457 409.378 359.788 408.906 359.289C408.474 358.788 407.679 358.564 406.52 358.616C404.482 358.708 402.794 359.265 401.455 360.287C400.114 361.268 399.091 362.536 398.386 364.089C398.036 364.906 397.754 365.519 397.539 365.929C397.364 366.337 397.203 366.645 397.056 366.852C396.908 367.058 396.756 367.185 396.599 367.233C396.439 367.24 396.219 367.25 395.939 367.262C395.42 367.286 394.928 367.108 394.464 366.729C393.997 366.31 393.743 365.781 393.703 365.142C393.678 364.743 393.803 364.176 394.078 363.443C394.391 362.669 394.764 361.911 395.199 361.171C395.671 360.389 396.148 359.686 396.63 359.064C397.152 358.44 397.608 358.039 397.998 357.861C400.578 356.183 403.566 355.267 406.963 355.113C408.161 355.059 409.172 355.193 409.993 355.516C410.855 355.838 411.544 356.287 412.061 356.864C412.578 357.441 412.962 358.144 413.214 358.974C413.464 359.763 413.617 360.617 413.675 361.535C413.819 363.851 413.221 365.819 411.879 367.441C411.47 367.94 411.101 368.458 410.774 368.993C410.447 369.528 410.139 370.063 409.852 370.596C409.562 371.09 409.29 371.542 409.035 371.954C408.82 372.364 408.638 372.653 408.488 372.82C408.333 372.907 408.107 373.137 407.81 373.511C407.51 373.845 407.157 374.281 406.75 374.82C406.382 375.357 405.98 375.976 405.543 376.676C405.143 377.335 404.744 377.994 404.344 378.652C402.865 380 401.987 381.021 401.71 381.714C402.794 381.745 404.12 381.805 405.688 381.894C406.343 382.105 406.989 382.196 407.629 382.167C408.068 382.147 408.464 382.069 408.816 381.933C409.016 381.924 409.237 381.934 409.479 381.963C409.719 381.952 409.979 381.94 410.258 381.928C410.938 381.897 411.676 381.843 412.472 381.767C413.269 381.691 414.147 381.631 415.106 381.588C415.466 381.572 415.802 381.817 416.114 382.323C416.423 382.789 416.595 383.302 416.63 383.861C416.683 384.699 416.475 385.229 416.008 385.451C415.541 385.672 415.068 385.793 414.588 385.815ZM448.818 364.628C448.386 364.768 447.93 364.848 447.451 364.87C446.771 364.901 446.211 364.906 445.769 364.886C445.366 364.864 444.904 364.845 444.383 364.829C443.898 364.771 443.235 364.741 442.393 364.739C441.589 364.695 440.448 364.707 438.969 364.774C438.09 364.813 437.538 364.958 437.313 365.209C436.637 365.28 435.801 365.377 434.807 365.502C433.853 365.626 432.699 365.758 431.346 365.899C429.9 365.845 429.142 365.259 429.072 364.141C429.045 363.702 429.081 363.32 429.181 362.995C429.321 362.668 429.604 362.395 430.032 362.176C430.459 361.956 431.069 361.788 431.863 361.672C432.695 361.515 433.809 361.384 435.205 361.281C435.405 361.272 435.606 361.283 435.808 361.314C436.048 361.303 436.308 361.291 436.587 361.278C438.026 361.213 440.04 361.062 442.63 360.824C443.432 360.828 444.275 360.85 445.159 360.89C446.083 360.928 447.068 360.984 448.114 361.057C448.911 361.621 449.333 362.283 449.38 363.041C449.413 363.56 449.225 364.089 448.818 364.628ZM449.592 376.063C449.119 376.204 448.586 376.329 447.992 376.436C447.435 376.501 446.678 376.575 445.722 376.659C444.803 376.7 443.605 376.774 442.129 376.881C440.691 376.946 438.834 377.05 436.559 377.194C434.328 377.415 432.734 377.547 431.775 377.59C430.896 377.63 430.302 377.437 429.995 377.01C429.686 376.544 429.516 376.071 429.486 375.592C429.461 375.193 429.501 374.871 429.606 374.626C429.711 374.381 429.98 374.189 430.412 374.049C430.841 373.869 431.514 373.739 432.431 373.657C433.345 373.536 434.6 373.419 436.196 373.307C436.193 373.267 436.554 373.27 437.278 373.318C438.04 373.323 439.16 373.292 440.639 373.225C441.638 373.18 442.25 373.032 442.474 372.782L448.757 372.317C450.083 372.377 450.775 372.867 450.832 373.785C450.879 374.543 450.466 375.303 449.592 376.063ZM486.687 366.456C486.664 367.378 486.529 368.425 486.282 369.597C486.032 370.73 485.723 371.885 485.356 373.062C485.026 374.198 484.633 375.277 484.175 376.298C483.718 377.32 483.268 378.141 482.826 378.762C481.645 379.736 480.711 380.499 480.024 381.05C479.334 381.562 478.737 381.949 478.233 382.213C477.728 382.476 477.238 382.638 476.761 382.7C476.284 382.761 475.686 382.808 474.966 382.841C473.927 382.888 472.813 382.698 471.625 382.272C470.434 381.805 469.312 381.175 468.261 380.382C467.207 379.549 466.285 378.57 465.493 377.445C464.702 376.32 464.184 375.082 463.939 373.732C463.133 371.726 462.677 369.885 462.573 368.209C462.441 366.093 462.759 364.137 463.529 362.34C464.336 360.502 465.801 358.614 467.924 356.676C468.871 355.793 469.81 355.11 470.742 354.627C471.673 354.145 472.532 353.785 473.319 353.55C474.143 353.272 474.895 353.118 475.574 353.087C476.251 353.017 476.829 352.97 477.309 352.949C478.787 352.882 480.04 353.045 481.066 353.439C482.132 353.831 483.019 354.552 483.725 355.601C484.43 356.61 485.017 358.004 485.489 359.785C485.961 361.565 486.36 363.789 486.687 366.456ZM482.195 370.563C482.689 368.859 482.881 367.109 482.769 365.312C482.706 364.314 482.522 363.282 482.215 362.215C481.908 361.148 481.508 360.205 481.016 359.387C480.562 358.526 479.998 357.831 479.323 357.301C478.689 356.77 478.012 356.52 477.293 356.553C472.178 356.784 468.778 359.44 467.091 364.521C466.751 365.497 466.621 366.624 466.701 367.902C466.763 368.9 467.002 370.15 467.416 371.653L468.183 374.32C470.268 377.549 472.449 379.111 474.727 379.008C476.405 378.932 477.88 378.165 479.152 376.706C480.423 375.247 481.437 373.2 482.195 370.563Z" fill="#6C63FF"/>
<path d="M440.017 314.415L450.319 179.809" stroke="#6C63FF" stroke-width="4" stroke-linecap="round"/>
<path d="M440.017 314.415L554.681 323.191" stroke="#6C63FF" stroke-width="4" stroke-linecap="round"/>
<path d="M458.436 300.465C461.217 300.678 464.165 300.605 466.928 300.172C469.462 299.775 472.035 300.359 474.576 299.928C477.284 299.469 479.983 298.82 482.717 298.515C488.586 297.86 494.146 294.804 499.383 291.986C502.595 290.258 505.652 288.026 508.507 285.634C511.455 283.164 514.566 280.763 517.171 277.832C522.327 272.029 526.38 264.931 530.072 257.913C531.923 254.395 533.535 250.619 535.129 246.951C536.637 243.483 538.393 239.853 539.579 236.244C540.577 233.205 541.904 230.317 543.096 227.389C544.036 225.083 544.529 222.524 545.492 220.239C546.273 218.387 547.101 216.087 547.623 214.143C547.931 212.992 548.405 211.829 548.495 210.647" stroke="#6C63FF" stroke-width="3" stroke-linecap="round"/>
<path d="M191.666 161.855C191.991 162.095 192.158 162.555 192.17 163.235C192.19 164.435 191.701 165.035 190.701 165.035H190.461C190.461 165.035 190.161 165.075 189.563 165.155C189.003 165.195 188.364 165.255 187.646 165.335C186.927 165.415 186.229 165.515 185.551 165.635C184.912 165.715 184.534 165.795 184.415 165.875L184.425 166.475C184.433 166.915 184.403 167.515 184.336 168.274C184.268 168.994 184.24 169.654 184.25 170.254C184.253 170.454 184.257 170.654 184.26 170.854C184.303 171.054 184.347 171.254 184.39 171.454C184.238 171.934 184.172 172.734 184.191 173.854C184.257 175.373 184.317 176.513 184.37 177.273C184.422 177.993 184.551 178.533 184.757 178.893C184.963 179.253 185.308 179.533 185.791 179.733C186.275 179.933 186.98 180.233 187.907 180.633C188.872 180.953 189.362 181.513 189.375 182.312C189.384 182.832 189.192 183.272 188.798 183.632C188.444 183.992 187.967 184.172 187.367 184.172C187.087 184.172 186.666 184.112 186.104 183.992C185.542 183.872 184.959 183.712 184.356 183.512C183.792 183.272 183.267 183.012 182.783 182.732C182.297 182.412 181.971 182.072 181.805 181.712C181.308 180.673 180.91 179.673 180.614 178.713C180.317 177.713 180.159 176.673 180.141 175.593C180.122 174.474 180.127 173.634 180.158 173.074C180.188 172.514 180.221 172.074 180.255 171.754C180.29 171.434 180.325 171.154 180.361 170.914C180.396 170.634 180.41 170.254 180.402 169.774C180.396 169.454 180.371 169.134 180.325 168.814C180.319 168.454 180.313 168.114 180.308 167.795C180.3 167.355 180.294 166.995 180.289 166.715C180.324 166.395 180.359 166.135 180.396 165.935C179.317 166.015 177.723 166.335 175.612 166.895C174.972 166.895 174.41 166.735 173.924 166.415C173.439 166.095 173.191 165.635 173.181 165.035C173.178 164.875 173.234 164.655 173.349 164.375C173.465 164.095 173.66 163.835 173.936 163.595C174.251 163.315 174.668 163.095 175.185 162.935C175.741 162.735 176.42 162.635 177.22 162.635H177.58C178.46 162.635 179.477 162.455 180.631 162.095C180.63 162.055 180.627 161.895 180.622 161.615C180.657 161.295 180.671 160.956 180.665 160.596C180.698 160.196 180.712 159.816 180.706 159.456C180.739 159.096 180.755 158.836 180.752 158.676L180.747 158.376C180.78 157.936 180.849 157.316 180.955 156.516C181.061 155.676 181.227 154.856 181.453 154.057C181.679 153.217 181.967 152.497 182.317 151.897C182.706 151.297 183.181 150.997 183.741 150.997C184.821 150.997 185.489 151.477 185.746 152.437C185.747 152.517 185.692 152.797 185.58 153.277C185.508 153.757 185.417 154.296 185.308 154.896C185.198 155.496 185.088 156.076 184.977 156.636C184.867 157.196 184.813 157.556 184.816 157.716C184.817 157.796 184.801 158.016 184.767 158.376C184.733 158.736 184.7 159.136 184.668 159.576C184.675 160.016 184.663 160.456 184.63 160.896C184.598 161.335 184.583 161.655 184.586 161.855C184.506 161.855 185.045 161.795 186.203 161.675C186.403 161.675 186.583 161.675 186.743 161.675C186.943 161.635 187.122 161.615 187.282 161.615C187.402 161.615 187.503 161.635 187.583 161.675C187.663 161.675 187.743 161.675 187.823 161.675C188.183 161.635 188.522 161.615 188.842 161.615C189.162 161.575 189.461 161.555 189.741 161.555C190.621 161.555 191.263 161.655 191.666 161.855ZM219.523 177.993C220.089 178.353 220.376 178.793 220.385 179.313C220.395 179.873 220.124 180.413 219.573 180.933C219.022 181.453 218.486 181.712 217.966 181.712C216.719 181.273 215.625 180.453 214.684 179.253C213.784 178.053 213.161 176.753 212.818 175.353C212.548 175.953 212.221 176.713 211.836 177.633C211.491 178.513 211.026 179.353 210.439 180.153C209.853 180.953 209.125 181.653 208.255 182.252C207.385 182.812 206.29 183.092 204.97 183.092C204.29 183.092 203.388 182.972 202.263 182.732C201.008 181.852 200.016 181.153 199.288 180.633C198.598 180.073 198.069 179.553 197.701 179.073C197.333 178.593 197.104 178.053 197.013 177.453C196.923 176.853 196.869 176.053 196.852 175.053C196.838 174.214 196.942 173.294 197.165 172.294C197.428 171.254 197.79 170.214 198.252 169.174C198.714 168.134 199.297 167.115 200 166.115C200.703 165.115 201.527 164.195 202.473 163.355C204.223 162.755 205.595 162.315 206.59 162.035C207.586 161.755 208.263 161.615 208.623 161.615C209.407 160.696 210.24 160.236 211.12 160.236C211.6 160.236 212.024 160.516 212.394 161.075C212.763 161.635 213.096 162.375 213.392 163.295C213.727 164.175 213.984 165.155 214.162 166.235C214.38 167.315 214.558 168.354 214.695 169.354C214.819 169.554 214.923 169.794 215.007 170.074C215.092 170.314 215.177 170.634 215.264 171.034L215.652 172.714C215.912 173.874 216.389 174.873 217.084 175.713C217.778 176.553 218.591 177.313 219.523 177.993ZM210.927 170.074C210.841 169.714 210.691 169.114 210.477 168.274C210.262 167.435 209.984 166.355 209.641 165.035C209.164 165.155 208.645 165.215 208.085 165.215C207.524 165.175 206.926 165.275 206.29 165.515C205.654 165.755 204.961 166.195 204.212 166.835C203.503 167.475 202.78 168.474 202.043 169.834C201.113 171.594 200.665 173.454 200.699 175.413C200.947 175.933 201.175 176.393 201.382 176.793C201.588 177.153 201.834 177.493 202.119 177.813C202.444 178.093 202.829 178.373 203.274 178.653C203.719 178.933 204.284 179.233 204.969 179.553C205.567 179.433 206.065 179.293 206.462 179.133C206.899 178.973 207.275 178.733 207.59 178.413C207.904 178.053 208.196 177.613 208.467 177.093C208.738 176.573 209.067 175.893 209.452 175.053C210.453 172.734 210.945 171.074 210.927 170.074ZM245.186 177.633L245.194 178.113C245.197 178.313 245.204 178.713 245.214 179.313C245.264 179.873 245.234 180.453 245.124 181.053C245.014 181.653 244.803 182.192 244.492 182.672C244.22 183.152 243.764 183.392 243.124 183.392C241.964 183.392 241.256 182.932 241 182.012C241.035 181.693 241.049 181.353 241.043 180.993C241.076 180.593 241.089 180.173 241.081 179.733C241.069 178.973 241.014 178.113 240.917 177.153C240.861 176.193 240.783 175.133 240.683 173.974L240.154 171.094C239.978 170.134 239.705 169.394 239.336 168.874C238.967 168.314 238.56 167.915 238.116 167.675C237.671 167.395 237.208 167.235 236.728 167.195C236.286 167.115 235.905 167.075 235.585 167.075C234.385 167.075 233.372 167.435 232.544 168.154C231.716 168.834 231.039 170.194 230.514 172.234C230.485 172.914 230.438 173.654 230.371 174.454C230.345 175.253 230.26 176.133 230.116 177.093C230.221 178.533 230.372 180.373 230.571 182.612C230.592 183.852 229.902 184.472 228.502 184.472C227.942 184.472 227.5 184.312 227.174 183.992C226.889 183.672 226.662 183.272 226.494 182.792C226.365 182.272 226.276 181.732 226.226 181.173C226.176 180.613 226.148 180.093 226.139 179.613C226.132 179.173 226.144 178.733 226.177 178.293C226.209 177.853 226.262 177.393 226.333 176.913L226.768 170.734C226.8 170.294 226.852 169.814 226.923 169.294C227.034 168.774 227.165 168.194 227.314 167.555C227.179 166.675 226.801 165.635 226.18 164.435L226.176 164.195C226.169 163.755 226.362 163.335 226.755 162.935C227.188 162.535 227.685 162.335 228.245 162.335C228.805 162.335 229.268 162.535 229.635 162.935C230.001 163.295 230.472 163.915 231.047 164.795C231.362 164.515 231.877 164.255 232.593 164.015C233.349 163.735 234.206 163.595 235.166 163.595C237.326 163.595 239.194 164.055 240.77 164.975C242.345 165.895 243.373 167.535 243.854 169.894C243.989 170.814 244.102 171.574 244.192 172.174C244.282 172.734 244.371 173.274 244.46 173.794C244.588 174.274 244.698 174.814 244.788 175.413C244.917 175.973 245.05 176.713 245.186 177.633Z" fill="#6C63FF"/>
<path d="M337.833 153.453C337.732 154.613 337.331 155.713 336.629 156.753L334.521 159.812C334.167 160.132 333.611 160.392 332.854 160.592C332.098 160.832 331.322 161.012 330.524 161.132C329.766 161.292 329.068 161.412 328.43 161.492C327.831 161.572 327.512 161.612 327.472 161.612C327.072 161.612 326.55 161.532 325.908 161.372C325.306 161.252 324.703 161.112 324.101 160.952C323.498 160.792 322.975 160.632 322.532 160.472C322.09 160.352 321.849 160.292 321.809 160.292H321.749C321.309 160.252 320.827 160.152 320.304 159.992C319.821 159.832 319.338 159.632 318.854 159.392C318.41 159.152 318.045 158.892 317.761 158.612C317.435 158.292 317.269 157.952 317.263 157.593C317.256 157.153 317.468 156.713 317.901 156.273C318.332 155.793 318.768 155.553 319.208 155.553C323.276 157.153 326.509 157.952 328.909 157.952C329.789 157.952 330.526 157.772 331.12 157.413C331.754 157.053 332.228 156.673 332.541 156.273L333.762 153.993C333.753 153.473 333.584 152.953 333.255 152.433C332.966 151.913 332.558 151.453 332.032 151.053C331.544 150.614 330.978 150.234 330.332 149.914C329.687 149.594 329.023 149.374 328.341 149.254C327.579 149.134 326.795 148.914 325.99 148.594C325.224 148.274 324.498 147.894 323.81 147.454C323.163 147.014 322.615 146.534 322.166 146.014C321.756 145.454 321.526 144.854 321.475 144.214C321.435 144.214 321.382 143.455 321.316 141.935C321.386 141.335 321.458 140.855 321.531 140.495C321.605 140.135 321.78 139.815 322.055 139.535C322.33 139.215 322.744 138.875 323.298 138.515C323.892 138.155 324.723 137.635 325.791 136.956C326.11 136.916 326.69 136.876 327.529 136.836C328.408 136.756 329.586 136.636 331.063 136.476C331.703 136.476 333.351 136.956 336.007 137.915C336.414 138.275 336.623 138.815 336.635 139.535C336.656 140.775 336.247 141.395 335.407 141.395C335.367 141.395 335.327 141.395 335.287 141.395C335.246 141.355 335.186 141.335 335.106 141.335L332.934 140.615C331.848 140.295 330.925 140.135 330.165 140.135C329.045 140.135 328.146 140.195 327.468 140.315C326.83 140.435 326.353 140.595 326.037 140.795C325.719 140.955 325.502 141.135 325.386 141.335C325.269 141.535 325.192 141.715 325.155 141.875C325.157 141.995 325.139 142.115 325.101 142.235C325.103 142.315 325.104 142.415 325.106 142.535C325.133 144.094 325.789 145.054 327.075 145.414C333.417 146.694 337.003 149.374 337.833 153.453ZM352.991 132.636C353.002 133.316 352.892 133.876 352.659 134.316C352.466 134.716 352.191 135.016 351.835 135.216C351.478 135.416 351.08 135.556 350.642 135.636C350.243 135.676 349.843 135.696 349.443 135.696C348.876 135.296 348.389 134.856 347.98 134.376C347.611 133.856 347.423 133.356 347.415 132.876C347.409 132.516 347.562 132.116 347.874 131.676C348.186 131.196 348.458 130.736 348.691 130.296L351.455 130.536C352.459 130.776 352.971 131.476 352.991 132.636ZM351.099 141.335L351.103 141.575C351.109 141.935 351.06 142.535 350.954 143.375C350.888 144.174 350.766 145.234 350.588 146.554C350.632 146.754 350.656 147.034 350.662 147.394C350.667 147.634 350.596 148.174 350.45 149.014C350.304 149.854 350.237 150.574 350.247 151.173C350.249 151.293 350.251 151.413 350.253 151.533C350.295 151.653 350.317 151.753 350.318 151.833C350.208 152.393 350.161 153.193 350.179 154.233C350.187 154.673 350.195 155.153 350.204 155.673C350.252 156.153 350.301 156.673 350.35 157.233C350.05 158.392 349.44 158.972 348.52 158.972C347.72 158.972 347.153 158.552 346.819 157.712C346.524 156.833 346.364 155.693 346.34 154.293C346.316 152.893 346.334 151.613 346.395 150.454C346.495 149.294 346.616 148.214 346.759 147.214C346.902 146.174 347.045 145.194 347.189 144.274C347.373 143.315 347.537 142.375 347.681 141.455C348.071 140.855 348.626 140.555 349.346 140.555C350.106 140.555 350.69 140.815 351.099 141.335ZM381.807 153.633L381.815 154.113C381.818 154.313 381.825 154.713 381.835 155.313C381.885 155.873 381.855 156.453 381.745 157.053C381.635 157.653 381.425 158.192 381.113 158.672C380.841 159.152 380.385 159.392 379.745 159.392C378.585 159.392 377.877 158.932 377.621 158.012C377.656 157.693 377.67 157.353 377.664 156.993C377.697 156.593 377.71 156.173 377.703 155.733C377.69 154.973 377.635 154.113 377.539 153.153C377.482 152.193 377.404 151.133 377.304 149.974L376.775 147.094C376.599 146.134 376.326 145.394 375.957 144.874C375.588 144.314 375.181 143.915 374.737 143.675C374.292 143.395 373.829 143.235 373.349 143.195C372.907 143.115 372.527 143.075 372.207 143.075C371.007 143.075 369.993 143.435 369.165 144.154C368.337 144.834 367.66 146.194 367.135 148.234C367.106 148.914 367.059 149.654 366.992 150.454C366.966 151.253 366.881 152.133 366.738 153.093C366.842 154.533 366.993 156.373 367.192 158.612C367.213 159.852 366.523 160.472 365.123 160.472C364.563 160.472 364.121 160.312 363.795 159.992C363.51 159.672 363.283 159.272 363.115 158.792C362.986 158.272 362.897 157.732 362.847 157.173C362.798 156.613 362.769 156.093 362.761 155.613C362.753 155.173 362.766 154.733 362.798 154.293C362.83 153.853 362.883 153.393 362.954 152.913L363.389 146.734C363.422 146.294 363.473 145.814 363.544 145.294C363.656 144.774 363.786 144.194 363.935 143.555C363.8 142.675 363.422 141.635 362.802 140.435L362.797 140.195C362.79 139.755 362.983 139.335 363.376 138.935C363.809 138.535 364.306 138.335 364.866 138.335C365.426 138.335 365.889 138.535 366.256 138.935C366.622 139.295 367.093 139.915 367.668 140.795C367.983 140.515 368.498 140.255 369.214 140.015C369.97 139.735 370.827 139.595 371.787 139.595C373.947 139.595 375.815 140.055 377.391 140.975C378.966 141.895 379.994 143.535 380.475 145.894C380.61 146.814 380.723 147.574 380.814 148.174C380.903 148.734 380.992 149.274 381.081 149.794C381.209 150.274 381.319 150.814 381.409 151.413C381.538 151.973 381.671 152.713 381.807 153.633Z" fill="#6C63FF"/>
<path d="M341.149 201.413C340.377 203.053 339.198 204.313 337.613 205.192C336.068 206.032 334.115 206.452 331.755 206.452C331.235 206.452 330.393 206.352 329.23 206.152C328.066 205.952 326.879 205.532 325.668 204.892C324.457 204.213 323.381 203.293 322.441 202.133C321.541 200.933 321.073 199.333 321.039 197.334C321.009 195.574 321.241 193.894 321.733 192.294C322.225 190.655 323.099 189.095 324.354 187.615C325.177 186.655 325.904 185.875 326.534 185.275C327.163 184.635 327.775 184.155 328.369 183.836C329.004 183.516 329.68 183.296 330.398 183.176C331.156 183.056 332.075 182.996 333.155 182.996C334.355 182.996 335.296 183.076 335.979 183.236C336.661 183.356 337.184 183.536 337.548 183.776C337.911 183.976 338.136 184.235 338.221 184.555C338.346 184.835 338.412 185.155 338.418 185.515C338.441 186.875 337.653 187.555 336.053 187.555C336.093 187.555 335.992 187.535 335.751 187.495C335.51 187.415 335.209 187.335 334.847 187.255C334.485 187.135 334.104 187.055 333.703 187.015C333.302 186.935 332.941 186.895 332.621 186.895C331.461 186.895 330.191 187.455 328.81 188.575C327.468 189.655 326.417 191.354 325.657 193.674C325.429 194.354 325.259 194.974 325.149 195.534C325.078 196.054 325.045 196.494 325.051 196.854C325.073 198.133 325.431 199.173 326.124 199.973C326.857 200.733 327.668 201.333 328.555 201.773C329.482 202.173 330.347 202.453 331.149 202.613C331.951 202.733 332.452 202.793 332.652 202.793C333.332 202.793 333.989 202.613 334.623 202.253C335.297 201.893 335.891 201.513 336.404 201.113C336.916 200.673 337.33 200.273 337.643 199.913C337.997 199.553 338.174 199.373 338.174 199.373C338.489 199.093 338.847 198.953 339.247 198.953C339.767 198.953 340.211 199.193 340.579 199.673C340.947 200.153 341.136 200.633 341.144 201.113L341.149 201.413ZM362.986 205.612C362.235 206.132 360.225 206.732 356.957 207.412L354.429 206.932C354.107 206.812 353.521 206.512 352.673 206.032C351.865 205.552 351.013 204.852 350.117 203.933C349.262 203.013 348.482 201.853 347.778 200.453C347.114 199.053 346.766 197.394 346.733 195.474C346.706 193.914 347.123 192.534 347.982 191.334C348.841 190.095 350.159 188.775 351.935 187.375C352.891 187.135 353.829 187.015 354.749 187.015C357.429 187.015 359.904 187.915 362.175 189.715C364.14 192.354 365.149 195.254 365.203 198.413C365.246 200.893 364.506 203.293 362.986 205.612ZM357.276 190.974C356.672 190.695 356.029 190.555 355.349 190.555C354.869 190.555 354.351 190.675 353.795 190.915C353.279 191.154 352.786 191.514 352.314 191.994C351.882 192.474 351.532 193.094 351.265 193.854C350.998 194.574 350.872 195.434 350.889 196.434C350.903 197.234 351.017 198.033 351.23 198.833C351.484 199.633 351.837 200.373 352.288 201.053C352.78 201.733 353.389 202.293 354.117 202.733C354.844 203.133 355.707 203.333 356.707 203.333C357.627 203.333 358.663 203.093 359.815 202.613C360.794 201.373 361.268 199.893 361.239 198.173C361.174 194.374 359.853 191.974 357.276 190.974ZM388.751 200.453C388.65 201.613 388.249 202.713 387.547 203.753L385.439 206.812C385.084 207.132 384.529 207.392 383.772 207.592C383.016 207.832 382.24 208.012 381.442 208.132C380.684 208.292 379.986 208.412 379.348 208.492C378.749 208.572 378.43 208.612 378.39 208.612C377.99 208.612 377.468 208.532 376.826 208.372C376.224 208.252 375.621 208.112 375.018 207.952C374.416 207.792 373.893 207.632 373.45 207.472C373.008 207.352 372.767 207.292 372.727 207.292H372.667C372.227 207.252 371.745 207.152 371.222 206.992C370.739 206.832 370.256 206.632 369.772 206.392C369.328 206.152 368.963 205.892 368.679 205.612C368.353 205.292 368.187 204.952 368.181 204.593C368.174 204.153 368.386 203.713 368.819 203.273C369.25 202.793 369.686 202.553 370.126 202.553C374.194 204.153 377.427 204.952 379.827 204.952C380.707 204.952 381.444 204.772 382.038 204.413C382.672 204.053 383.145 203.673 383.459 203.273L384.68 200.993C384.671 200.473 384.502 199.953 384.173 199.433C383.884 198.913 383.476 198.453 382.95 198.053C382.462 197.614 381.896 197.234 381.25 196.914C380.605 196.594 379.941 196.374 379.259 196.254C378.497 196.134 377.713 195.914 376.908 195.594C376.142 195.274 375.416 194.894 374.728 194.454C374.081 194.014 373.532 193.534 373.084 193.014C372.674 192.454 372.444 191.854 372.393 191.214C372.353 191.214 372.3 190.455 372.234 188.935C372.304 188.335 372.376 187.855 372.449 187.495C372.523 187.135 372.698 186.815 372.973 186.535C373.248 186.215 373.662 185.875 374.216 185.515C374.81 185.155 375.641 184.635 376.709 183.956C377.028 183.916 377.608 183.876 378.447 183.836C379.326 183.756 380.504 183.636 381.981 183.476C382.621 183.476 384.269 183.956 386.925 184.915C387.332 185.275 387.541 185.815 387.553 186.535C387.574 187.775 387.165 188.395 386.325 188.395C386.285 188.395 386.245 188.395 386.205 188.395C386.164 188.355 386.104 188.335 386.024 188.335L383.852 187.615C382.766 187.295 381.843 187.135 381.083 187.135C379.963 187.135 379.064 187.195 378.386 187.315C377.748 187.435 377.271 187.595 376.955 187.795C376.637 187.955 376.42 188.135 376.304 188.335C376.187 188.535 376.11 188.715 376.073 188.875C376.075 188.995 376.057 189.115 376.019 189.235C376.021 189.315 376.022 189.415 376.024 189.535C376.051 191.094 376.707 192.054 377.993 192.414C384.335 193.694 387.921 196.374 388.751 200.453Z" fill="#6C63FF"/>
<path d="M264.576 189.493C261.843 189.493 259.563 188.727 257.737 187.194C255.944 185.627 254.589 183.411 253.674 180.545C252.757 177.645 252.265 174.179 252.196 170.146C252.127 166.08 252.467 162.597 253.218 159.698C253.968 156.798 255.214 154.582 256.954 153.049C258.728 151.515 261.048 150.749 263.915 150.749C266.682 150.749 268.978 151.515 270.804 153.049C272.63 154.548 274.001 156.748 274.917 159.648C275.866 162.547 276.376 166.047 276.446 170.146C276.515 174.179 276.157 177.645 275.374 180.545C274.622 183.411 273.36 185.627 271.587 187.194C269.846 188.727 267.51 189.493 264.576 189.493ZM264.514 185.844C266.247 185.844 267.655 185.344 268.738 184.344C269.855 183.344 270.678 181.778 271.208 179.645C271.738 177.512 272.008 174.729 272.016 171.296H256.666C256.79 174.695 257.121 177.462 257.657 179.595C258.227 181.728 259.071 183.311 260.188 184.344C261.305 185.344 262.747 185.844 264.514 185.844ZM256.608 167.896H271.908C271.756 164.864 271.38 162.364 270.78 160.397C270.179 158.398 269.32 156.915 268.204 155.948C267.087 154.948 265.678 154.448 263.978 154.448C262.278 154.448 260.887 154.948 259.804 155.948C258.754 156.915 257.979 158.398 257.48 160.397C256.98 162.364 256.689 164.864 256.608 167.896ZM302.412 171.796C302.047 171.896 301.664 171.946 301.264 171.946C300.698 171.946 300.231 171.929 299.863 171.896C299.53 171.862 299.146 171.829 298.712 171.796C298.311 171.729 297.76 171.679 297.059 171.646C296.391 171.579 295.441 171.546 294.207 171.546C293.474 171.546 293.009 171.646 292.813 171.846C292.247 171.879 291.547 171.929 290.715 171.996C289.916 172.062 288.951 172.129 287.819 172.196C286.617 172.096 286.008 171.579 285.992 170.646C285.986 170.279 286.03 169.963 286.126 169.696C286.255 169.43 286.501 169.213 286.865 169.046C287.229 168.88 287.743 168.763 288.409 168.696C289.107 168.596 290.039 168.53 291.205 168.496C291.372 168.496 291.539 168.513 291.706 168.546C291.906 168.546 292.123 168.546 292.356 168.546C293.556 168.546 295.239 168.496 297.404 168.396C298.071 168.43 298.772 168.48 299.506 168.546C300.274 168.613 301.092 168.696 301.961 168.796C302.602 169.296 302.929 169.863 302.94 170.496C302.947 170.929 302.771 171.363 302.412 171.796ZM302.625 181.344C302.226 181.444 301.778 181.528 301.279 181.594C300.813 181.628 300.18 181.661 299.381 181.694C298.614 181.694 297.614 181.711 296.381 181.744C295.181 181.744 293.632 181.761 291.732 181.794C289.867 181.894 288.535 181.944 287.735 181.944C287.002 181.944 286.515 181.761 286.276 181.394C286.035 180.994 285.912 180.595 285.905 180.195C285.899 179.861 285.945 179.595 286.041 179.395C286.138 179.195 286.369 179.045 286.734 178.945C287.098 178.811 287.663 178.728 288.429 178.695C289.195 178.628 290.244 178.578 291.577 178.545C291.576 178.512 291.877 178.528 292.478 178.595C293.112 178.628 294.045 178.645 295.279 178.645C296.112 178.645 296.627 178.545 296.823 178.345L302.071 178.195C303.173 178.295 303.73 178.728 303.743 179.495C303.754 180.128 303.381 180.745 302.625 181.344Z" fill="#6C63FF"/>
<path d="M399.576 164.493C396.843 164.493 394.563 163.727 392.737 162.194C390.944 160.627 389.589 158.411 388.674 155.545C387.757 152.645 387.265 149.179 387.196 145.146C387.127 141.08 387.467 137.597 388.218 134.698C388.968 131.798 390.214 129.582 391.954 128.049C393.728 126.515 396.048 125.749 398.915 125.749C401.682 125.749 403.978 126.515 405.804 128.049C407.63 129.548 409.001 131.748 409.917 134.648C410.866 137.547 411.376 141.047 411.446 145.146C411.515 149.179 411.157 152.645 410.374 155.545C409.622 158.411 408.36 160.627 406.587 162.194C404.846 163.727 402.51 164.493 399.576 164.493ZM399.514 160.844C401.247 160.844 402.655 160.344 403.738 159.344C404.855 158.344 405.678 156.778 406.208 154.645C406.738 152.512 407.008 149.729 407.016 146.296H391.666C391.79 149.695 392.121 152.462 392.657 154.595C393.227 156.728 394.071 158.311 395.188 159.344C396.305 160.344 397.747 160.844 399.514 160.844ZM391.608 142.896H406.908C406.756 139.864 406.38 137.364 405.78 135.397C405.179 133.398 404.32 131.915 403.204 130.948C402.087 129.948 400.678 129.448 398.978 129.448C397.278 129.448 395.887 129.948 394.804 130.948C393.754 131.915 392.979 133.398 392.48 135.397C391.98 137.364 391.689 139.864 391.608 142.896Z" fill="#6C63FF"/>
<path d="M409.576 212.493C406.843 212.493 404.563 211.727 402.737 210.194C400.944 208.627 399.589 206.411 398.674 203.545C397.757 200.645 397.265 197.179 397.196 193.146C397.127 189.08 397.467 185.597 398.218 182.698C398.968 179.798 400.214 177.582 401.954 176.049C403.728 174.515 406.048 173.749 408.915 173.749C411.682 173.749 413.978 174.515 415.804 176.049C417.63 177.548 419.001 179.748 419.917 182.648C420.866 185.547 421.376 189.047 421.446 193.146C421.515 197.179 421.157 200.645 420.374 203.545C419.622 206.411 418.36 208.627 416.587 210.194C414.846 211.727 412.51 212.493 409.576 212.493ZM409.514 208.844C411.247 208.844 412.655 208.344 413.738 207.344C414.855 206.344 415.678 204.778 416.208 202.645C416.738 200.512 417.008 197.729 417.016 194.296H401.666C401.79 197.695 402.121 200.462 402.657 202.595C403.227 204.728 404.071 206.311 405.188 207.344C406.305 208.344 407.747 208.844 409.514 208.844ZM401.608 190.896H416.908C416.756 187.864 416.38 185.364 415.78 183.397C415.179 181.398 414.32 179.915 413.204 178.948C412.087 177.948 410.678 177.448 408.978 177.448C407.278 177.448 405.887 177.948 404.804 178.948C403.754 179.915 402.979 181.398 402.48 183.397C401.98 185.364 401.689 187.864 401.608 190.896Z" fill="#6C63FF"/>
<path d="M310 169H425" stroke="#6C63FF" stroke-width="4" stroke-linecap="round"/>
<path d="M126.575 265.62C126.518 266.458 125.851 266.823 124.576 266.713C123.978 266.662 123.538 266.363 123.254 265.817C123.011 265.274 122.857 264.599 122.792 263.79C122.727 262.982 122.708 262.097 122.734 261.136C122.802 260.138 122.848 259.179 122.871 258.258C122.721 257.522 122.567 256.265 122.408 254.485C121.939 253.722 121.321 253.087 120.555 252.58C119.83 252.036 118.99 251.723 118.033 251.641C117.675 251.61 117.272 251.636 116.825 251.718C116.381 251.76 115.915 251.841 115.426 251.959C114.939 252.038 114.47 252.158 114.018 252.32C113.566 252.482 113.192 252.671 112.897 252.886C112.056 253.457 111.273 254.935 110.548 257.321C110.574 257.524 110.568 257.905 110.53 258.464C110.497 258.943 110.417 259.518 110.291 260.189C110.207 260.825 110.097 261.558 109.96 262.389L109.931 262.808C109.923 262.928 109.9 263.267 109.861 263.825C109.863 264.388 109.782 264.983 109.618 265.611C109.458 266.199 109.202 266.719 108.85 267.171C108.496 267.662 108 267.881 107.362 267.826C106.047 267.713 105.423 267.158 105.492 266.16C105.5 266.041 105.542 265.723 105.617 265.208C105.735 264.656 105.857 264.044 105.984 263.373C106.15 262.704 106.276 262.033 106.362 261.358C106.491 260.646 106.571 260.071 106.601 259.632C106.659 258.794 106.651 258.031 106.578 257.342L106.656 256.205C106.705 255.486 106.697 254.723 106.633 253.915C106.608 253.11 106.499 252.358 106.306 251.659C106.116 250.92 105.82 250.273 105.417 249.716C105.054 249.163 104.562 248.74 103.941 248.446C103.864 248.399 103.212 248.263 101.985 248.037C100.932 248.187 100.01 248.771 99.2188 249.787L97.591 252.477C97.4195 253.225 97.2733 253.895 97.1525 254.487C97.0716 255.082 96.9934 255.637 96.918 256.152L96.5497 258.891C96.693 260.308 96.7332 261.475 96.6703 262.393C96.6155 263.191 96.4707 263.841 96.2358 264.343C96.0037 264.805 95.4493 264.998 94.5725 264.923C94.1341 264.885 93.7781 264.814 93.5046 264.711C93.2339 264.567 93.0153 264.247 92.8489 263.751C92.7223 263.259 92.652 262.53 92.638 261.566C92.624 260.601 92.6759 259.261 92.7936 257.545C92.8867 256.188 93.0581 254.858 93.3078 253.555C93.6002 252.215 93.9756 250.541 94.434 248.533C94.3966 247.326 94.1771 246.143 93.7755 244.985C93.8111 244.466 94.0219 244.022 94.408 243.654C94.8339 243.289 95.3657 243.134 96.0033 243.189C96.5214 243.233 96.9276 243.449 97.2218 243.835C97.5558 244.225 97.9862 244.964 98.5128 246.053C99.3646 245.323 100.082 244.803 100.664 244.492C101.287 244.184 101.92 244.017 102.563 243.992C103.2 244.047 103.697 244.109 104.053 244.18C104.452 244.214 104.806 244.305 105.117 244.452C105.47 244.563 105.836 244.775 106.216 245.088C106.598 245.362 107.131 245.769 107.816 246.309C108.498 246.889 109.135 248.409 109.728 250.869C109.946 250.606 110.27 250.273 110.698 249.868C111.167 249.467 111.734 249.094 112.399 248.749C113.064 248.405 113.864 248.132 114.8 247.932C115.736 247.731 116.802 247.682 117.997 247.784C119.272 247.894 120.36 248.108 121.26 248.426C122.161 248.744 122.933 249.171 123.578 249.708C124.222 250.245 124.759 250.893 125.188 251.653C125.657 252.415 126.078 253.294 126.45 254.29L126.418 254.769C126.393 255.128 126.39 255.75 126.41 256.635C126.429 257.519 126.449 258.404 126.468 259.289C126.491 260.134 126.52 260.879 126.555 261.524C126.591 262.169 126.612 262.452 126.618 262.372C126.615 262.412 126.605 262.552 126.589 262.791C126.615 262.994 126.617 263.255 126.595 263.575C126.616 263.858 126.615 264.159 126.593 264.478C126.611 264.8 126.613 265.062 126.6 265.261L126.575 265.62ZM150.646 269.31C149.854 269.764 147.8 270.19 144.485 270.588L142.007 269.894C141.697 269.747 141.14 269.398 140.335 268.848C139.571 268.3 138.782 267.53 137.968 266.537C137.194 265.548 136.517 264.325 135.935 262.87C135.393 261.419 135.188 259.736 135.319 257.82C135.426 256.264 135.959 254.925 136.918 253.803C137.879 252.641 139.305 251.438 141.194 250.195C142.167 250.038 143.112 249.999 144.028 250.077C146.699 250.306 149.088 251.414 151.197 253.401C152.929 256.199 153.687 259.175 153.471 262.327C153.301 264.801 152.36 267.129 150.646 269.31ZM146.208 254.238C145.63 253.908 145.002 253.713 144.324 253.655C143.846 253.614 143.32 253.689 142.745 253.881C142.211 254.076 141.688 254.392 141.177 254.83C140.706 255.271 140.304 255.859 139.973 256.594C139.645 257.288 139.447 258.134 139.378 259.132C139.324 259.93 139.369 260.736 139.513 261.552C139.697 262.37 139.986 263.138 140.377 263.854C140.809 264.573 141.369 265.183 142.056 265.683C142.746 266.144 143.589 266.417 144.585 266.502C145.502 266.581 146.555 266.431 147.743 266.051C148.824 264.899 149.424 263.465 149.542 261.749C149.802 257.958 148.691 255.455 146.208 254.238ZM182.125 243.349C182.032 243.542 181.95 243.856 181.88 244.292C181.81 244.727 181.752 245.284 181.705 245.963C181.588 247.679 181.513 249.057 181.482 250.098C181.451 251.139 181.427 251.779 181.41 252.019L181.161 253.021C181.259 253.35 181.292 253.735 181.262 254.174C181.254 254.293 181.218 254.531 181.153 254.887C181.092 255.203 181.026 255.578 180.956 256.014C180.889 256.41 180.82 256.825 180.75 257.261C180.68 257.696 180.635 258.054 180.616 258.333C180.611 258.413 180.605 258.493 180.6 258.573C180.634 258.656 180.649 258.737 180.643 258.817C180.381 259.718 180.052 261.295 179.657 263.549C179.262 265.804 178.826 268.355 178.35 271.205C177.966 272.135 177.196 272.551 176.04 272.452C175.322 272.39 174.891 272.253 174.745 272.039C174.602 271.786 174.43 271.37 174.229 270.791C172.939 271.483 171.039 271.722 168.528 271.506C167.173 271.39 165.974 271.046 164.931 270.475C163.887 269.904 162.995 269.185 162.252 268.319C161.55 267.456 161.016 266.467 160.652 265.352C160.33 264.2 160.213 262.986 160.3 261.709C160.353 260.95 160.483 260.219 160.692 259.514C160.943 258.773 161.229 258.115 161.549 257.541C161.871 256.926 162.21 256.373 162.564 255.882C162.959 255.394 163.326 255.004 163.667 254.712C164.521 253.942 165.731 253.263 167.294 252.675C168.898 252.09 170.556 251.871 172.27 252.018C173.864 252.154 175.413 252.668 176.915 253.56L176.981 252.602C177.038 251.764 177.118 250.888 177.221 249.974C177.364 249.063 177.512 248.072 177.665 247.001L177.706 242.91C177.725 242.631 177.723 242.37 177.699 242.127C177.716 241.887 177.732 241.648 177.748 241.409C177.82 240.371 177.993 239.603 178.267 239.105C178.585 238.57 179.162 238.339 179.999 238.41C180.517 238.455 180.91 238.569 181.178 238.752C181.486 238.939 181.686 239.237 181.778 239.647C181.913 240.02 181.979 240.507 181.978 241.109C182.017 241.714 182.066 242.461 182.125 243.349ZM176.273 257.66C175.342 256.616 173.861 256.008 171.828 255.833C170.872 255.751 170.049 255.761 169.361 255.862C168.712 255.967 168.135 256.199 167.629 256.557C167.126 256.875 166.675 257.318 166.275 257.886C165.918 258.417 165.531 259.087 165.115 259.894C164.787 260.588 164.594 261.354 164.537 262.192C164.427 263.789 164.917 265.115 166.008 266.172C167.14 267.193 168.504 267.771 170.098 267.908C171.612 268.038 173.085 267.602 174.517 266.601C174.768 265.86 175.05 264.961 175.363 263.904C175.716 262.85 175.931 261.765 176.008 260.647C176.024 260.408 176.022 260.147 176.001 259.864C176.023 259.545 176.042 259.265 176.059 259.026C176.081 258.707 176.098 258.447 176.112 258.248C176.168 258.012 176.222 257.816 176.273 257.66Z" fill="#6C63FF"/>
<path d="M120.374 362.523L119.561 358.158L130.243 338.166L113.947 324.721L113.124 320.297L141.024 315.103L141.903 319.822L126.743 322.644C125.878 322.805 124.816 323.003 123.558 323.237C122.339 323.464 121.411 323.617 120.774 323.694L135.535 335.777L135.831 337.37L125.571 356.674C127.065 356.395 128.501 356.128 129.877 355.872C131.285 355.569 132.776 355.271 134.349 354.979L148.683 352.31L149.572 357.088L120.374 362.523Z" fill="#6C63FF"/>
<path d="M240.379 318.14L255.326 319.402" stroke="#6C63FF" stroke-width="4" stroke-linecap="round"/>
<path d="M248.553 221.406L263.499 222.669" stroke="#6C63FF" stroke-width="4" stroke-linecap="round"/>
<path d="M240.664 317.74L248.837 221.007" stroke="#6C63FF" stroke-width="4" stroke-linecap="round"/>
<path d="M360.95 328.327L346.003 327.064" stroke="#6C63FF" stroke-width="4" stroke-linecap="round"/>
<path d="M369.123 231.593L354.176 230.33" stroke="#6C63FF" stroke-width="4" stroke-linecap="round"/>
<path d="M360.736 327.885L368.909 231.152" stroke="#6C63FF" stroke-width="4" stroke-linecap="round"/>
<path d="M284.356 239.562L284.338 239.762C284.31 240.06 284.174 240.634 283.928 241.483C283.716 242.335 283.464 243.25 283.173 244.229C282.918 245.178 282.67 246.06 282.427 246.876C282.221 247.661 282.108 248.153 282.09 248.353C282.072 248.552 282.055 248.734 282.04 248.9C282.061 249.036 282.082 249.171 282.103 249.307C281.948 249.528 281.827 250.12 281.738 251.083C281.695 251.547 281.649 252.045 281.601 252.576C281.588 253.077 281.565 253.51 281.531 253.875C281.497 254.24 281.453 254.537 281.399 254.767C281.377 254.999 281.342 255.197 281.294 255.36C281.362 256.436 281.408 257.394 281.431 258.232C281.457 259.037 281.444 259.722 281.392 260.286C281.331 260.95 281.11 261.533 280.729 262.036C280.351 262.506 279.664 262.699 278.667 262.615C277.97 262.556 277.544 262.269 277.391 261.754L277.399 258.393C277.484 258.199 277.543 257.92 277.577 257.555C277.589 257.422 277.598 257.139 277.605 256.704C277.648 256.24 277.676 255.757 277.688 255.256C277.704 254.722 277.717 254.222 277.726 253.754C277.772 253.256 277.804 252.908 277.823 252.709C277.93 251.547 278.1 250.792 278.333 250.444C278.236 250.034 278.216 249.531 278.271 248.933C278.289 248.734 278.353 248.405 278.462 247.946C278.571 247.487 278.682 247.011 278.795 246.519C278.907 246.026 279.016 245.567 279.122 245.141C279.228 244.716 279.289 244.42 279.305 244.254L279.323 244.054C279.432 243.595 279.573 242.972 279.746 242.184C279.953 241.398 280.221 240.484 280.551 239.442C280.942 238.471 281.652 238.029 282.682 238.116C283.811 238.212 284.369 238.694 284.356 239.562Z" fill="#6C63FF"/>
<path d="M336.899 268.739C336.404 268.664 336.024 268.615 335.758 268.592C335.528 268.539 335.331 268.506 335.165 268.492C335.032 268.481 334.899 268.47 334.766 268.458C334.633 268.447 334.434 268.43 334.168 268.408C333.902 268.385 333.619 268.378 333.317 268.386C333.018 268.361 332.702 268.334 332.37 268.306C331.54 268.236 330.545 267.951 329.386 267.452C329.054 267.424 328.688 267.393 328.29 267.359C327.891 267.326 327.458 267.306 326.99 267.3C326.631 267.202 326.123 267.076 325.468 266.92C324.813 266.764 324.027 266.581 323.109 266.37C322.596 265.758 322.363 265.203 322.409 264.705C322.451 264.24 322.612 263.769 322.89 263.29C324.124 262.257 325.055 261.416 325.684 260.767C326.313 260.117 326.851 259.544 327.298 259.046C327.749 258.516 328.215 258.003 328.695 257.509C329.179 256.981 329.874 256.337 330.781 255.577C330.926 255.456 331.13 255.239 331.393 254.927C331.657 254.614 331.939 254.27 332.242 253.895C332.58 253.488 332.918 253.099 333.253 252.726C333.589 252.352 333.869 252.042 334.092 251.793C335.229 250.718 335.865 249.451 335.999 247.99C336.063 247.293 335.933 246.713 335.607 246.251C335.315 245.791 334.687 245.521 333.724 245.44C332.03 245.296 330.565 245.574 329.329 246.272C328.096 246.938 327.089 247.873 326.309 249.078C325.915 249.714 325.604 250.189 325.374 250.504C325.177 250.822 325.005 251.059 324.857 251.213C324.709 251.368 324.567 251.456 324.431 251.478C324.298 251.467 324.115 251.452 323.883 251.432C323.451 251.396 323.068 251.196 322.733 250.833C322.401 250.437 322.26 249.974 322.309 249.443C322.339 249.111 322.515 248.657 322.836 248.082C323.193 247.477 323.598 246.892 324.052 246.328C324.541 245.734 325.025 245.206 325.503 244.745C326.014 244.286 326.441 244.005 326.786 243.9C329.131 242.793 331.714 242.359 334.538 242.598C335.534 242.682 336.351 242.902 336.988 243.257C337.658 243.614 338.169 244.059 338.522 244.59C338.874 245.122 339.102 245.743 339.203 246.454C339.308 247.132 339.326 247.853 339.255 248.616C339.078 250.542 338.332 252.101 337.017 253.294C336.615 253.662 336.244 254.049 335.906 254.455C335.567 254.861 335.245 255.269 334.939 255.678C334.637 256.054 334.354 256.398 334.091 256.71C333.861 257.025 333.674 257.244 333.529 257.365C333.39 257.42 333.174 257.586 332.88 257.862C332.59 258.105 332.242 258.427 331.837 258.828C331.465 259.231 331.054 259.698 330.604 260.229C330.189 260.729 329.775 261.229 329.361 261.73C327.968 262.682 327.112 263.43 326.794 263.971C327.685 264.114 328.772 264.306 330.055 264.548C330.568 264.792 331.09 264.936 331.622 264.981C331.987 265.012 332.324 264.991 332.632 264.916C332.798 264.93 332.979 264.962 333.176 265.012C333.375 265.029 333.591 265.047 333.823 265.067C334.388 265.115 335.004 265.15 335.671 265.173C336.339 265.196 337.071 265.241 337.868 265.308C338.167 265.334 338.413 265.572 338.606 266.023C338.801 266.441 338.878 266.882 338.835 267.347C338.771 268.044 338.532 268.459 338.118 268.591C337.704 268.723 337.298 268.773 336.899 268.739Z" fill="#6C63FF"/>
<path d="M338.992 308.055C338.754 308.102 338.467 308.128 338.131 308.133C337.829 308.141 337.496 308.129 337.13 308.098C336.665 308.059 336.202 308.003 335.74 307.931C335.278 307.858 334.898 307.809 334.599 307.784C334.366 307.764 334.165 307.764 333.996 307.783C333.83 307.769 333.697 307.758 333.598 307.75C333.534 308.079 333.418 308.604 333.251 309.326C333.088 310.015 332.904 310.735 332.701 311.487C332.498 312.239 332.298 312.958 332.1 313.644C331.903 314.33 331.741 314.818 331.614 315.109C331.327 315.318 330.884 315.398 330.287 315.348C329.39 315.272 328.895 315.013 328.802 314.57C328.869 313.84 329.039 312.901 329.312 311.753C329.585 310.605 329.966 309.199 330.454 307.534C329.747 307.575 329.143 307.591 328.642 307.582C328.141 307.573 327.724 307.554 327.392 307.526C327.226 307.512 327.028 307.479 326.799 307.426C326.603 307.376 326.305 307.334 325.907 307.3C325.544 307.236 325.066 307.163 324.471 307.079C323.876 306.995 323.13 306.915 322.233 306.84C321.968 306.817 321.574 306.734 321.051 306.589C320.562 306.448 320.058 306.288 319.539 306.11C319.023 305.899 318.54 305.691 318.09 305.486C317.641 305.281 317.324 305.087 317.14 304.904C317.098 304.633 317.086 304.398 317.104 304.198C317.159 303.601 317.234 303.156 317.328 302.863C317.422 302.569 317.606 302.2 317.882 301.755C318.193 301.28 318.641 300.599 319.225 299.711C319.812 298.791 320.611 297.386 321.621 295.498L326.457 289.334C326.708 289.154 327.016 289.08 327.382 289.111C328.312 289.189 328.74 289.627 328.667 290.423C328.587 291.286 327.091 293.535 324.179 297.169L320.802 303.307C320.988 303.824 321.397 304.11 322.028 304.163C322.36 304.191 322.611 304.195 322.78 304.176C322.982 304.16 323.133 304.156 323.233 304.164C323.369 304.142 323.505 304.12 323.641 304.098C323.777 304.076 323.944 304.074 324.144 304.091C324.509 304.122 324.888 304.187 325.28 304.287C325.709 304.357 326.17 304.446 326.662 304.554C327.459 304.622 328.208 304.668 328.908 304.694C329.609 304.72 330.278 304.726 330.915 304.713C330.997 304.185 331.09 303.54 331.193 302.78C331.33 302.022 331.511 301.151 331.736 300.166C331.697 299.862 331.691 299.56 331.718 299.261C331.749 298.93 331.78 298.598 331.81 298.266C331.871 297.602 331.984 296.926 332.148 296.237C332.348 295.518 332.486 294.744 332.563 293.914C332.584 293.681 332.603 293.298 332.618 292.764C332.637 292.197 332.639 291.629 332.625 291.059C332.647 290.459 332.662 289.925 332.672 289.457C332.682 288.99 332.689 288.723 332.696 288.656C332.944 288.142 333.3 287.905 333.765 287.944C334.098 287.972 334.362 288.011 334.558 288.061C334.787 288.114 334.959 288.246 335.074 288.456C335.222 288.669 335.325 288.996 335.385 289.436C335.448 289.842 335.51 290.45 335.569 291.257C335.583 291.827 335.586 292.346 335.576 292.814C335.603 293.251 335.601 293.635 335.57 293.967C335.518 294.531 335.442 295.177 335.342 295.905C335.241 296.632 335.124 297.542 334.99 298.635C335.008 298.803 335.007 298.987 334.989 299.187C334.974 299.353 334.954 299.568 334.929 299.834C334.868 300.498 334.794 301.127 334.705 301.722C334.62 302.283 334.539 302.795 334.463 303.257C334.381 303.785 334.302 304.28 334.226 304.742C334.715 304.884 335.508 305.001 336.604 305.093L337.152 305.14C337.949 305.207 338.574 305.327 339.027 305.499C339.513 305.674 339.724 306.11 339.659 306.807C339.607 307.371 339.385 307.787 338.992 308.055Z" fill="#6C63FF"/>
<path d="M284.433 310.018C283.88 310.574 283.099 311.06 282.09 311.476C281.111 311.929 280.04 312.29 278.877 312.559C277.744 312.865 276.602 313.087 275.452 313.223C274.334 313.363 273.36 313.398 272.53 313.328C271.633 313.252 271.013 313.083 270.669 312.819C270.325 312.556 270.179 312.142 270.231 311.578C270.31 310.715 270.853 310.276 271.859 310.26C273.266 310.246 274.305 310.233 274.975 310.223C275.645 310.212 275.997 310.209 276.031 310.212C277.284 310.05 278.471 309.699 279.592 309.158C280.716 308.584 281.695 307.947 282.53 307.248C283.367 306.516 284.037 305.787 284.539 305.06C285.074 304.336 285.363 303.741 285.406 303.277C285.582 302.455 285.692 301.812 285.734 301.347C285.869 299.887 285.618 298.795 284.982 298.072C284.345 297.35 283.363 296.932 282.034 296.82C281.37 296.764 279.801 296.899 277.327 297.225C276.519 296.923 276.166 296.207 276.27 295.078C276.388 294.888 276.674 294.694 277.127 294.499C277.583 294.269 278.073 294.043 278.595 293.82C279.154 293.566 279.695 293.327 280.218 293.104C280.743 292.847 281.135 292.596 281.392 292.35C282.961 290.944 283.8 289.643 283.91 288.448C284.069 286.722 282.92 285.755 280.462 285.548C280.13 285.52 279.829 285.511 279.561 285.522C279.328 285.502 279.058 285.53 278.75 285.604C278.442 285.678 278.076 285.831 277.653 286.063C277.233 286.262 276.701 286.585 276.057 287.032C275.238 287.565 274.643 288.033 274.271 288.437C273.902 288.807 273.606 289.116 273.382 289.365C273.195 289.583 273.012 289.752 272.833 289.871C272.658 289.956 272.371 289.982 271.973 289.949C270.976 289.864 270.533 289.225 270.643 288.03C270.689 287.532 270.902 287.032 271.284 286.529C271.701 285.995 272.216 285.487 272.83 285.003C273.48 284.49 274.176 284.013 274.92 283.574C275.696 283.138 276.485 282.753 277.286 282.419C277.799 282.296 278.341 282.224 278.912 282.206C279.516 282.19 280.167 282.211 280.864 282.27C281.994 282.366 282.983 282.533 283.831 282.772C284.715 282.98 285.437 283.325 285.995 283.808C286.556 284.256 286.949 284.892 287.175 285.714C287.437 286.505 287.51 287.531 287.393 288.793C287.354 289.224 287.225 289.715 287.007 290.265C286.825 290.785 286.466 291.407 285.931 292.131L284.497 294.068C285.267 294.434 285.892 294.737 286.371 294.979C286.851 295.22 287.232 295.453 287.512 295.677C287.796 295.868 288.027 296.088 288.204 296.338C288.385 296.554 288.578 296.821 288.783 297.139C289.449 298.266 289.714 299.576 289.576 301.07C289.322 303.825 287.608 306.808 284.433 310.018Z" fill="#6C63FF"/>
<defs>
<linearGradient id="paint0_linear_13_1348" x1="54.3599" y1="347.374" x2="613.858" y2="180.064" gradientUnits="userSpaceOnUse">
<stop stop-color="#6C63FF" stop-opacity="0.3"/>
<stop offset="1" stop-color="#F461A6" stop-opacity="0.3"/>
</linearGradient>
</defs>
</svg>