<svg width="605" height="359" viewBox="0 0 605 359" fill="none" xmlns="http://www.w3.org/2000/svg">
<path fill-rule="evenodd" clip-rule="evenodd" d="M279.784 0.0161503C334.938 -0.681845 382.029 21.3876 430.073 38.5568C481.014 56.7616 537.91 71.5781 568.445 103.174C600.617 136.464 611.271 177.425 601.521 215.964C591.85 254.191 565.193 293.763 514.706 315.59C466.703 336.342 401.612 319.121 344.818 326.941C293.802 333.965 252.101 359.967 199.919 358.933C140.33 357.753 67.0579 352.785 35.3519 320.809C2.90362 288.085 55.5805 246.075 49.8651 207.603C44.5808 172.032 -13.6246 140.8 3.55467 106.77C20.6406 72.9245 85.4147 60.8214 133.307 42.3126C180.06 24.2439 225.025 0.709162 279.784 0.0161503Z" fill="url(#paint0_linear_12_1209)"/>
<path d="M216.544 76.1876L216.606 76.4196C216.698 76.7677 216.78 77.4707 216.853 78.5288C216.964 79.5763 217.058 80.7117 217.133 81.9349C217.236 83.109 217.319 84.2057 217.382 85.2251C217.473 86.1953 217.549 86.7964 217.61 87.0284C217.672 87.2604 217.728 87.4731 217.779 87.6665C217.858 87.8107 217.938 87.9548 218.017 88.099C217.935 88.4118 218.041 89.1289 218.338 90.2504C218.481 90.7918 218.634 91.3718 218.798 91.9906C218.99 92.5601 219.142 93.0576 219.254 93.483C219.367 93.9084 219.44 94.2617 219.473 94.5429C219.544 94.8136 219.586 95.0509 219.599 95.2548C220.119 96.4397 220.564 97.4998 220.936 98.435C221.297 99.3316 221.564 100.109 221.738 100.766C221.943 101.539 221.934 102.288 221.711 103.012C221.479 103.697 220.783 104.198 219.626 104.513C218.815 104.734 218.218 104.586 217.833 104.069L216.458 100.277C216.474 100.024 216.426 99.6847 216.313 99.2593C216.272 99.1046 216.166 98.7812 215.995 98.2889C215.851 97.7475 215.684 97.1921 215.492 96.6225C215.29 96.0143 215.098 95.4447 214.916 94.9138C214.763 94.3337 214.655 93.9277 214.594 93.6957C214.236 92.3421 214.117 91.4212 214.236 90.9327C213.959 90.5107 213.729 89.9516 213.545 89.2555C213.483 89.0235 213.42 88.6263 213.354 88.0638C213.288 87.5014 213.217 86.9196 213.141 86.3185C213.064 85.7174 212.998 85.155 212.943 84.6312C212.887 84.1075 212.834 83.7489 212.783 83.5555L212.721 83.3235C212.655 82.7611 212.558 82 212.428 81.0404C212.337 80.0702 212.263 78.9295 212.206 77.6184C212.247 76.3636 212.865 75.5732 214.062 75.2473C215.374 74.8897 216.201 75.2032 216.544 76.1876Z" fill="#6C63FF"/>
<path d="M275.409 79.157C274.812 79.0857 274.353 79.0416 274.034 79.0249C273.756 78.9703 273.518 78.9377 273.318 78.9272C273.158 78.9189 272.998 78.9105 272.839 78.9021C272.679 78.8937 272.439 78.8812 272.119 78.8644C271.8 78.8476 271.459 78.8498 271.098 78.8709C270.738 78.8521 270.359 78.8322 269.959 78.8112C268.961 78.7589 267.755 78.4553 266.341 77.9005C265.942 77.8795 265.502 77.8565 265.023 77.8314C264.543 77.8062 264.023 77.799 263.462 77.8096C263.027 77.7067 262.413 77.5743 261.62 77.4126C260.827 77.2509 259.875 77.0608 258.765 76.8423C258.12 76.1276 257.813 75.4706 257.844 74.8714C257.872 74.3121 258.042 73.7402 258.352 73.1556C259.779 71.8686 260.853 70.8234 261.575 70.0201C262.297 69.2168 262.914 68.5082 263.426 67.8941C263.94 67.2401 264.472 66.6072 265.024 65.9952C265.578 65.3433 266.38 64.5442 267.429 63.5979C267.597 63.4464 267.831 63.1783 268.131 62.7935C268.431 62.4087 268.753 61.985 269.097 61.5223C269.483 61.0219 269.867 60.5414 270.251 60.0808C270.635 59.6203 270.955 59.2365 271.211 58.9295C272.521 57.5962 273.22 56.0508 273.309 54.293C273.352 53.4541 273.167 52.7635 272.754 52.2211C272.381 51.6808 271.615 51.3803 270.457 51.3196C268.42 51.2128 266.678 51.6021 265.231 52.4875C263.786 53.333 262.625 54.4938 261.749 55.97C261.309 56.748 260.959 57.3305 260.699 57.7174C260.479 58.1064 260.284 58.3966 260.114 58.588C259.944 58.7793 259.778 58.8908 259.617 58.9224C259.457 58.914 259.237 58.9025 258.957 58.8878C258.438 58.8606 257.969 58.6357 257.55 58.2132C257.133 57.7507 256.941 57.1999 256.973 56.5607C256.993 56.1612 257.182 55.6103 257.538 54.908C257.936 54.1678 258.393 53.4508 258.909 52.7568C259.467 52.0251 260.021 51.3732 260.57 50.8012C261.16 50.2313 261.659 49.8769 262.066 49.738C264.822 48.3204 267.897 47.7006 271.293 47.8786C272.491 47.9415 273.481 48.1736 274.261 48.575C275.082 48.9785 275.716 49.4925 276.165 50.1168C276.614 50.7412 276.917 51.4781 277.074 52.3275C277.233 53.1369 277.289 54.001 277.243 54.9198C277.125 57.2369 276.307 59.1366 274.79 60.6192C274.326 61.0756 273.901 61.554 273.515 62.0544C273.129 62.5549 272.763 63.0565 272.417 63.559C272.074 64.0216 271.752 64.4454 271.452 64.8302C271.192 65.2171 270.978 65.4863 270.81 65.6377C270.646 65.7092 270.395 65.9164 270.057 66.2591C269.721 66.562 269.321 66.9615 268.855 67.4578C268.429 67.9562 267.959 68.5324 267.445 69.1864C266.973 69.8025 266.501 70.4186 266.029 71.0348C264.407 72.2314 263.418 73.1609 263.064 73.8233C264.138 73.9598 265.45 74.1487 267 74.3902C267.627 74.6634 268.26 74.8168 268.899 74.8503C269.339 74.8733 269.741 74.8343 270.107 74.7333C270.306 74.7438 270.525 74.7753 270.763 74.8278C271.002 74.8404 271.262 74.854 271.542 74.8687C272.221 74.9043 272.961 74.9231 273.762 74.925C274.563 74.9269 275.442 74.953 276.401 75.0033C276.761 75.0222 277.067 75.2986 277.32 75.8326C277.575 76.3266 277.689 76.8533 277.66 77.4126C277.618 78.2515 277.352 78.7582 276.862 78.9328C276.373 79.1074 275.888 79.1822 275.409 79.157Z" fill="#6C63FF"/>
<path d="M336.823 93.0754C336.345 93.8845 335.582 94.6802 334.533 95.4624C333.53 96.2776 332.392 97.0138 331.121 97.6708C329.895 98.3608 328.633 98.9553 327.336 99.4544C326.078 99.9469 324.956 100.275 323.97 100.439C322.904 100.615 322.132 100.602 321.654 100.397C321.175 100.193 320.882 99.7549 320.774 99.0836C320.609 98.0568 321.108 97.386 322.273 97.0711C323.905 96.6381 325.109 96.3166 325.886 96.1067C326.662 95.8967 327.07 95.7885 327.11 95.7819C328.519 95.2237 329.794 94.4647 330.936 93.5048C332.072 92.5055 333.02 91.4763 333.782 90.4174C334.537 89.319 335.098 88.2731 335.464 87.2797C335.871 86.2797 336.029 85.5033 335.94 84.9504C335.9 83.9435 335.835 83.1636 335.746 82.6107C335.466 80.8731 334.848 79.6781 333.893 79.0258C332.937 78.3734 331.67 78.1782 330.091 78.4401C329.302 78.5711 327.518 79.1915 324.739 80.3014C323.708 80.1886 323.084 79.4609 322.868 78.1182C322.949 77.8616 323.223 77.5525 323.691 77.1909C324.154 76.7899 324.655 76.3823 325.196 75.9681C325.77 75.5079 326.328 75.0708 326.869 74.6566C327.404 74.203 327.784 73.7953 328.009 73.4335C329.413 71.3353 330.001 69.5754 329.772 68.1537C329.442 66.1001 327.816 65.3156 324.896 65.8002C324.502 65.8657 324.15 65.9443 323.84 66.0362C323.564 66.082 323.258 66.1937 322.922 66.3711C322.586 66.5485 322.207 66.8344 321.784 67.2289C321.355 67.5839 320.833 68.1166 320.218 68.8268C319.425 69.6883 318.872 70.4084 318.56 70.9873C318.242 71.5267 317.99 71.974 317.804 72.3292C317.651 72.6384 317.489 72.8883 317.317 73.079C317.139 73.2302 316.813 73.3451 316.339 73.4237C315.155 73.6201 314.449 73.0075 314.22 71.5858C314.125 70.9934 314.224 70.3486 314.517 69.6512C314.843 68.9078 315.29 68.1646 315.859 67.4214C316.461 66.6322 317.129 65.8726 317.862 65.1427C318.635 64.4063 319.437 63.7258 320.269 63.1013C320.829 62.8057 321.438 62.5627 322.096 62.3724C322.794 62.1755 323.557 62.0084 324.385 61.8709C325.727 61.6482 326.927 61.5505 327.984 61.5777C329.075 61.5589 330.017 61.7473 330.81 62.1428C331.597 62.4988 332.244 63.1213 332.752 64.0102C333.292 64.853 333.684 66.0247 333.925 67.5254C334.008 68.0388 334.005 68.6476 333.915 69.3516C333.859 70.0097 333.628 70.8387 333.222 71.8387L332.133 74.513C333.137 74.7112 333.954 74.8798 334.584 75.0185C335.215 75.1572 335.726 75.3156 336.119 75.4936C336.506 75.6321 336.841 75.82 337.122 76.0571C337.397 76.2548 337.701 76.5084 338.034 76.818C339.145 77.9311 339.844 79.3763 340.13 81.1534C340.658 84.4312 339.555 88.4052 336.823 93.0754Z" fill="#6C63FF"/>
<path d="M370.644 108.784C370.746 109.416 370.53 109.958 369.995 110.412C369.5 110.859 369.015 111.122 368.542 111.2C367.713 111.338 367.046 111.347 366.541 111.228C366.035 111.109 365.622 110.935 365.302 110.704C365.014 110.428 364.805 110.138 364.676 109.835C364.54 109.493 364.446 109.163 364.395 108.848C364.281 108.137 364.42 107.364 364.812 106.528C365.204 105.693 365.814 105.206 366.643 105.069C366.919 105.023 367.241 105.01 367.609 105.03C368.01 105.004 368.41 105.1 368.81 105.317C369.21 105.535 369.576 105.92 369.908 106.473C370.234 106.987 370.479 107.757 370.644 108.784Z" fill="#6C63FF"/>
<path d="M402.264 97.1101C402.366 97.7419 402.149 98.2847 401.615 98.7383C401.119 99.1854 400.635 99.4483 400.161 99.5268C399.333 99.6643 398.666 99.6737 398.16 99.5548C397.655 99.4359 397.242 99.2611 396.921 99.0305C396.634 98.7539 396.425 98.4641 396.295 98.1613C396.159 97.819 396.066 97.4898 396.015 97.1739C395.9 96.4631 396.039 95.6899 396.431 94.8545C396.824 94.019 397.434 93.5325 398.263 93.395C398.539 93.3492 398.861 93.3363 399.229 93.3563C399.63 93.3303 400.03 93.4261 400.43 93.6436C400.829 93.8611 401.195 94.2464 401.527 94.7995C401.853 95.3131 402.099 96.0833 402.264 97.1101Z" fill="#6C63FF"/>
<path d="M434.842 98.0829C434.944 98.7147 434.727 99.2575 434.192 99.7111C433.697 100.158 433.213 100.421 432.739 100.5C431.911 100.637 431.244 100.646 430.738 100.528C430.233 100.409 429.82 100.234 429.499 100.003C429.212 99.7267 429.003 99.437 428.873 99.1341C428.737 98.7918 428.644 98.4627 428.593 98.1467C428.478 97.4359 428.617 96.6627 429.009 95.8273C429.401 94.9918 430.012 94.5053 430.841 94.3678C431.117 94.322 431.439 94.3091 431.807 94.3291C432.208 94.3032 432.608 94.3989 433.008 94.6164C433.407 94.8339 433.773 95.2192 434.105 95.7723C434.431 96.2859 434.677 97.0561 434.842 98.0829Z" fill="#6C63FF"/>
<path d="M258.76 270.817C258.16 270.777 257.7 270.757 257.38 270.757C257.1 270.717 256.86 270.697 256.66 270.697C256.5 270.697 256.34 270.697 256.18 270.697C256.02 270.697 255.78 270.697 255.46 270.697C255.14 270.697 254.8 270.717 254.44 270.757C254.08 270.757 253.7 270.757 253.3 270.757C252.3 270.757 251.08 270.517 249.64 270.037C249.24 270.037 248.8 270.037 248.32 270.037C247.84 270.037 247.32 270.057 246.76 270.097C246.32 270.017 245.7 269.917 244.9 269.797C244.1 269.677 243.14 269.537 242.02 269.377C241.34 268.697 241 268.057 241 267.457C241 266.897 241.14 266.317 241.42 265.717C242.78 264.357 243.8 263.257 244.48 262.417C245.16 261.577 245.74 260.837 246.22 260.197C246.7 259.517 247.2 258.857 247.72 258.217C248.24 257.537 249 256.697 250 255.697C250.16 255.537 250.38 255.257 250.66 254.857C250.94 254.457 251.24 254.017 251.56 253.537C251.92 253.017 252.28 252.517 252.64 252.037C253 251.557 253.3 251.157 253.54 250.837C254.78 249.437 255.4 247.857 255.4 246.097C255.4 245.257 255.18 244.577 254.74 244.057C254.34 243.537 253.56 243.277 252.4 243.277C250.36 243.277 248.64 243.757 247.24 244.717C245.84 245.637 244.74 246.857 243.94 248.377C243.54 249.177 243.22 249.777 242.98 250.177C242.78 250.577 242.6 250.877 242.44 251.077C242.28 251.277 242.12 251.397 241.96 251.437C241.8 251.437 241.58 251.437 241.3 251.437C240.78 251.437 240.3 251.237 239.86 250.837C239.42 250.397 239.2 249.857 239.2 249.217C239.2 248.817 239.36 248.257 239.68 247.537C240.04 246.777 240.46 246.037 240.94 245.317C241.46 244.557 241.98 243.877 242.5 243.277C243.06 242.677 243.54 242.297 243.94 242.137C246.62 240.577 249.66 239.797 253.06 239.797C254.26 239.797 255.26 239.977 256.06 240.337C256.9 240.697 257.56 241.177 258.04 241.777C258.52 242.377 258.86 243.097 259.06 243.937C259.26 244.737 259.36 245.597 259.36 246.517C259.36 248.837 258.64 250.777 257.2 252.337C256.76 252.817 256.36 253.317 256 253.837C255.64 254.357 255.3 254.877 254.98 255.397C254.66 255.877 254.36 256.317 254.08 256.717C253.84 257.117 253.64 257.397 253.48 257.557C253.32 257.637 253.08 257.857 252.76 258.217C252.44 258.537 252.06 258.957 251.62 259.477C251.22 259.997 250.78 260.597 250.3 261.277C249.86 261.917 249.42 262.557 248.98 263.197C247.42 264.477 246.48 265.457 246.16 266.137C247.24 266.217 248.56 266.337 250.12 266.497C250.76 266.737 251.4 266.857 252.04 266.857C252.48 266.857 252.88 266.797 253.24 266.677C253.44 266.677 253.66 266.697 253.9 266.737C254.14 266.737 254.4 266.737 254.68 266.737C255.36 266.737 256.1 266.717 256.9 266.677C257.7 266.637 258.58 266.617 259.54 266.617C259.9 266.617 260.22 266.877 260.5 267.397C260.78 267.877 260.92 268.397 260.92 268.957C260.92 269.797 260.68 270.317 260.2 270.517C259.72 270.717 259.24 270.817 258.76 270.817Z" fill="#6C63FF"/>
<path d="M314.167 251.926C313.967 252.166 313.527 252.386 312.847 252.586C312.167 252.746 311.467 252.886 310.747 253.006C310.027 253.126 309.387 253.206 308.827 253.246C308.307 253.286 308.087 253.286 308.167 253.246C308.127 253.246 307.847 253.266 307.327 253.306C306.807 253.346 306.147 253.366 305.347 253.366C305.187 253.366 305.027 253.366 304.867 253.366C304.707 253.366 304.567 253.346 304.447 253.306C304.447 254.626 304.447 255.866 304.447 257.026C304.487 258.186 304.447 259.206 304.327 260.086C304.247 260.926 304.047 261.606 303.727 262.126C303.407 262.606 302.887 262.846 302.167 262.846C301.607 262.846 301.107 262.746 300.667 262.546C300.267 262.306 300.067 261.746 300.067 260.866C300.067 260.346 300.087 259.726 300.127 259.006C300.207 258.246 300.327 257.386 300.487 256.426C300.447 256.306 300.427 256.066 300.427 255.706C300.427 254.986 300.447 254.366 300.487 253.846C300.567 253.326 300.607 253.046 300.607 253.006C299.927 252.966 299.307 252.946 298.747 252.946C298.187 252.946 297.627 252.946 297.067 252.946C295.187 252.946 293.747 253.006 292.747 253.126C291.267 252.966 290.527 252.266 290.527 251.026C290.527 249.906 291.087 249.346 292.207 249.346C293.767 249.346 294.927 249.386 295.687 249.466C296.487 249.506 297.147 249.526 297.667 249.526C298.107 249.526 298.567 249.526 299.047 249.526C299.527 249.486 300.027 249.446 300.547 249.406C300.507 248.846 300.467 248.366 300.427 247.966C300.427 247.526 300.427 247.146 300.427 246.826C300.427 246.066 300.487 245.586 300.607 245.386C300.607 244.426 300.467 243.126 300.187 241.486C300.387 240.206 301.087 239.566 302.287 239.566C302.887 239.566 303.327 239.706 303.607 239.986C303.887 240.266 304.087 240.726 304.207 241.366C304.327 241.966 304.407 242.766 304.447 243.766C304.487 244.766 304.547 245.986 304.627 247.426V249.586C305.027 249.546 305.507 249.506 306.067 249.466C306.627 249.426 307.307 249.366 308.107 249.286C308.267 249.366 308.527 249.406 308.887 249.406C309.407 249.406 309.907 249.386 310.387 249.346C310.867 249.306 311.287 249.266 311.647 249.226C312.047 249.146 312.347 249.086 312.547 249.046C312.747 249.006 312.827 249.006 312.787 249.046C313.827 249.166 314.347 249.786 314.347 250.906C314.347 251.306 314.287 251.646 314.167 251.926Z" fill="#6C63FF"/>
<path d="M362.242 266.926C361.642 266.886 361.182 266.866 360.862 266.866C360.582 266.826 360.342 266.806 360.142 266.806C359.982 266.806 359.822 266.806 359.662 266.806C359.502 266.806 359.262 266.806 358.942 266.806C358.622 266.806 358.282 266.826 357.922 266.866C357.562 266.866 357.182 266.866 356.782 266.866C355.782 266.866 354.562 266.626 353.122 266.146C352.722 266.146 352.282 266.146 351.802 266.146C351.322 266.146 350.802 266.166 350.242 266.206C349.802 266.126 349.182 266.026 348.382 265.906C347.582 265.786 346.622 265.646 345.502 265.486C344.822 264.806 344.482 264.166 344.482 263.566C344.482 263.006 344.622 262.426 344.902 261.826C346.262 260.466 347.282 259.366 347.962 258.526C348.642 257.686 349.222 256.946 349.702 256.306C350.182 255.626 350.682 254.966 351.202 254.326C351.722 253.646 352.482 252.806 353.482 251.806C353.642 251.646 353.862 251.366 354.142 250.966C354.422 250.566 354.722 250.126 355.042 249.646C355.402 249.126 355.762 248.626 356.122 248.146C356.482 247.666 356.782 247.266 357.022 246.946C358.262 245.546 358.882 243.966 358.882 242.206C358.882 241.366 358.662 240.686 358.222 240.166C357.822 239.646 357.042 239.386 355.882 239.386C353.842 239.386 352.122 239.866 350.722 240.826C349.322 241.746 348.222 242.966 347.422 244.486C347.022 245.286 346.702 245.886 346.462 246.286C346.262 246.686 346.082 246.986 345.922 247.186C345.762 247.386 345.602 247.506 345.442 247.546C345.282 247.546 345.062 247.546 344.782 247.546C344.262 247.546 343.782 247.346 343.342 246.946C342.902 246.506 342.682 245.966 342.682 245.326C342.682 244.926 342.842 244.366 343.162 243.646C343.522 242.886 343.942 242.146 344.422 241.426C344.942 240.666 345.462 239.986 345.982 239.386C346.542 238.786 347.022 238.406 347.422 238.246C350.102 236.686 353.142 235.906 356.542 235.906C357.742 235.906 358.742 236.086 359.542 236.446C360.382 236.806 361.042 237.286 361.522 237.886C362.002 238.486 362.342 239.206 362.542 240.046C362.742 240.846 362.842 241.706 362.842 242.626C362.842 244.946 362.122 246.886 360.682 248.446C360.242 248.926 359.842 249.426 359.482 249.946C359.122 250.466 358.782 250.986 358.462 251.506C358.142 251.986 357.842 252.426 357.562 252.826C357.322 253.226 357.122 253.506 356.962 253.666C356.802 253.746 356.562 253.966 356.242 254.326C355.922 254.646 355.542 255.066 355.102 255.586C354.702 256.106 354.262 256.706 353.782 257.386C353.342 258.026 352.902 258.666 352.462 259.306C350.902 260.586 349.962 261.566 349.642 262.246C350.722 262.326 352.042 262.446 353.602 262.606C354.242 262.846 354.882 262.966 355.522 262.966C355.962 262.966 356.362 262.906 356.722 262.786C356.922 262.786 357.142 262.806 357.382 262.846C357.622 262.846 357.882 262.846 358.162 262.846C358.842 262.846 359.582 262.826 360.382 262.786C361.182 262.746 362.062 262.726 363.022 262.726C363.382 262.726 363.702 262.986 363.982 263.506C364.262 263.986 364.402 264.506 364.402 265.066C364.402 265.906 364.162 266.426 363.682 266.626C363.202 266.826 362.722 266.926 362.242 266.926Z" fill="#6C63FF"/>
<path d="M412.715 250.28C412.303 250.476 411.86 250.617 411.388 250.702C410.719 250.823 410.164 250.902 409.724 250.941C409.324 250.973 408.864 251.015 408.346 251.068C407.859 251.074 407.199 251.132 406.366 251.242C405.565 251.305 404.436 251.467 402.979 251.73C402.113 251.886 401.583 252.104 401.388 252.383C400.726 252.543 399.909 252.751 398.939 253.007C398.008 253.256 396.88 253.541 395.556 253.861C394.118 253.998 393.302 253.515 393.109 252.411C393.034 251.978 393.027 251.593 393.09 251.257C393.193 250.913 393.443 250.604 393.842 250.329C394.24 250.054 394.826 249.806 395.6 249.585C396.406 249.318 397.494 249.04 398.865 248.753C399.062 248.717 399.262 248.701 399.466 248.705C399.702 248.663 399.958 248.617 400.234 248.567C401.651 248.311 403.628 247.894 406.167 247.315C406.961 247.212 407.798 247.122 408.678 247.045C409.597 246.961 410.578 246.885 411.623 246.819C412.474 247.275 412.965 247.878 413.096 248.626C413.186 249.139 413.059 249.69 412.715 250.28ZM414.748 261.558C414.296 261.762 413.782 261.956 413.205 262.141C412.661 262.28 411.92 262.454 410.982 262.664C410.077 262.827 408.899 263.059 407.45 263.361C406.032 263.617 404.205 263.966 401.968 264.41C399.785 264.926 398.22 265.269 397.276 265.439C396.41 265.595 395.801 265.481 395.449 265.097C395.091 264.674 394.871 264.226 394.788 263.753C394.719 263.359 394.723 263.034 394.8 262.776C394.877 262.518 395.121 262.291 395.534 262.095C395.939 261.859 396.591 261.64 397.49 261.438C398.381 261.196 399.611 260.913 401.179 260.59C401.172 260.55 401.529 260.506 402.252 260.457C403.007 260.362 404.112 260.183 405.569 259.92C406.553 259.743 407.143 259.515 407.337 259.236L413.506 257.941C414.826 257.825 415.565 258.22 415.724 259.127C415.855 259.875 415.529 260.686 414.748 261.558Z" fill="#6C63FF"/>
<path d="M476.386 261.33C476.098 261.373 475.754 261.389 475.352 261.377C474.99 261.37 474.591 261.338 474.155 261.281C473.599 261.209 473.047 261.116 472.496 261.004C471.946 260.892 471.492 260.813 471.135 260.766C470.858 260.73 470.617 260.719 470.414 260.733C470.216 260.707 470.057 260.686 469.938 260.67C469.848 261.062 469.688 261.687 469.459 262.544C469.234 263.362 468.985 264.217 468.711 265.109C468.437 266.001 468.168 266.853 467.903 267.666C467.639 268.479 467.425 269.056 467.261 269.397C466.908 269.634 466.375 269.705 465.661 269.612C464.59 269.472 464.008 269.134 463.915 268.598C464.025 267.725 464.268 266.607 464.642 265.244C465.016 263.881 465.529 262.213 466.182 260.241C465.334 260.251 464.61 260.238 464.01 260.2C463.41 260.162 462.912 260.117 462.515 260.065C462.317 260.039 462.082 259.988 461.809 259.912C461.576 259.842 461.222 259.775 460.746 259.713C460.314 259.616 459.744 259.502 459.035 259.369C458.326 259.236 457.436 259.1 456.365 258.96C456.048 258.919 455.58 258.797 454.96 258.595C454.38 258.398 453.783 258.179 453.169 257.938C452.559 257.657 451.989 257.381 451.459 257.11C450.929 256.839 450.557 256.589 450.344 256.359C450.305 256.031 450.301 255.748 450.331 255.51C450.421 254.796 450.529 254.265 450.653 253.919C450.778 253.572 451.014 253.139 451.362 252.619C451.755 252.066 452.319 251.272 453.055 250.238C453.795 249.165 454.81 247.523 456.098 245.311L462.142 238.173C462.45 237.971 462.822 237.898 463.258 237.955C464.368 238.1 464.863 238.649 464.743 239.601C464.612 240.633 462.729 243.251 459.092 247.456L454.796 254.641C454.998 255.272 455.476 255.637 456.229 255.735C456.626 255.787 456.926 255.806 457.129 255.792C457.372 255.784 457.553 255.787 457.672 255.803C457.836 255.784 458 255.765 458.163 255.746C458.327 255.727 458.528 255.733 458.766 255.764C459.202 255.821 459.653 255.92 460.119 256.061C460.63 256.168 461.178 256.3 461.762 256.457C462.714 256.582 463.609 256.678 464.447 256.747C465.285 256.816 466.086 256.86 466.85 256.879C466.97 256.249 467.107 255.481 467.263 254.573C467.457 253.671 467.71 252.635 468.019 251.465C467.985 251.097 467.99 250.735 468.036 250.378C468.086 249.981 468.136 249.584 468.186 249.187C468.287 248.394 468.449 247.588 468.674 246.77C468.943 245.918 469.14 244.996 469.266 244.004C469.301 243.726 469.339 243.267 469.38 242.627C469.425 241.947 469.451 241.265 469.457 240.58C469.508 239.86 469.549 239.22 469.58 238.659C469.61 238.098 469.631 237.778 469.641 237.699C469.959 237.095 470.396 236.829 470.951 236.902C471.348 236.954 471.662 237.015 471.895 237.086C472.168 237.162 472.369 237.329 472.497 237.588C472.665 237.852 472.776 238.249 472.83 238.781C472.889 239.273 472.937 240.005 472.975 240.978C472.969 241.663 472.951 242.286 472.92 242.847C472.934 243.373 472.916 243.834 472.866 244.231C472.78 244.906 472.663 245.677 472.512 246.545C472.362 247.413 472.184 248.499 471.979 249.803C471.993 250.007 471.986 250.228 471.956 250.466C471.93 250.664 471.898 250.922 471.858 251.24C471.757 252.033 471.642 252.785 471.512 253.494C471.387 254.163 471.269 254.773 471.159 255.324C471.039 255.953 470.924 256.543 470.814 257.094C471.394 257.29 472.338 257.474 473.647 257.645L474.302 257.73C475.254 257.855 475.997 258.032 476.532 258.264C477.107 258.5 477.342 259.035 477.237 259.868C477.151 260.543 476.868 261.03 476.386 261.33Z" fill="#6C63FF"/>
<path d="M244.3 162.38L241 162.62C240.72 162.62 240.22 162.7 239.5 162.86C238.82 162.98 238.22 163.04 237.7 163.04C237.74 163.76 237.8 164.66 237.88 165.74C238 166.82 238.1 167.92 238.18 169.04C238.3 170.16 238.42 171.2 238.54 172.16C238.66 173.12 238.76 173.86 238.84 174.38C238.8 174.58 238.76 174.84 238.72 175.16C238.72 175.48 238.72 175.86 238.72 176.3C238.72 177.46 238.78 179 238.9 180.92C238.34 181.76 237.56 182.18 236.56 182.18C235.64 182.18 235 181.76 234.64 180.92C234.64 180.56 234.64 180.16 234.64 179.72C234.68 179.24 234.7 178.72 234.7 178.16C234.7 177.6 234.68 176.98 234.64 176.3C234.64 175.58 234.64 174.82 234.64 174.02V173.66C234.64 173.1 234.58 172.42 234.46 171.62C234.34 170.82 234.18 169.9 233.98 168.86L233.56 163.4C233.24 163.4 232.8 163.44 232.24 163.52C231.72 163.6 231.06 163.72 230.26 163.88C230.14 163.88 230.02 163.88 229.9 163.88C229.82 163.84 229.72 163.82 229.6 163.82C229.24 163.82 228.92 163.86 228.64 163.94C228.36 163.98 228.24 163.98 228.28 163.94C227.36 163.74 226.9 163.1 226.9 162.02C226.9 161.06 227.34 160.5 228.22 160.34C228.26 160.34 228.3 160.36 228.34 160.4C228.42 160.4 228.5 160.4 228.58 160.4C228.78 160.4 229.02 160.38 229.3 160.34C229.62 160.3 229.92 160.26 230.2 160.22C230.48 160.14 230.7 160.08 230.86 160.04C231.06 160 231.14 159.98 231.1 159.98C231.38 159.9 231.7 159.84 232.06 159.8C232.42 159.76 232.86 159.72 233.38 159.68L232.9 153.68V153.32C232.9 151.76 233.58 149.86 234.94 147.62C235.34 147.38 235.72 147.16 236.08 146.96C236.48 146.76 236.94 146.58 237.46 146.42C237.98 146.22 238.62 146.04 239.38 145.88C240.14 145.72 241.12 145.56 242.32 145.4H242.62C243.66 145.4 244.18 146.02 244.18 147.26C244.18 148.22 243.72 148.86 242.8 149.18H242.44C241.84 149.18 241.22 149.3 240.58 149.54L238.9 150.26C238.22 150.58 237.78 151.02 237.58 151.58C237.38 152.1 237.22 152.66 237.1 153.26C237.1 153.3 237.1 153.48 237.1 153.8C237.14 154.08 237.16 154.42 237.16 154.82C237.16 155.18 237.16 155.54 237.16 155.9C237.2 156.26 237.22 156.52 237.22 156.68V157.16C237.22 157.48 237.24 157.82 237.28 158.18C237.32 158.54 237.4 158.94 237.52 159.38C238.92 159.38 239.98 159.28 240.7 159.08C241.42 158.88 242.06 158.78 242.62 158.78C243.22 158.78 243.8 158.9 244.36 159.14C244.96 159.34 245.26 159.84 245.26 160.64C245.26 161.56 244.94 162.14 244.3 162.38ZM259.034 154.64C259.034 155.32 258.914 155.88 258.674 156.32C258.474 156.72 258.194 157.02 257.834 157.22C257.474 157.42 257.074 157.56 256.634 157.64C256.234 157.68 255.834 157.7 255.434 157.7C254.874 157.3 254.394 156.86 253.994 156.38C253.634 155.86 253.454 155.36 253.454 154.88C253.454 154.52 253.614 154.12 253.934 153.68C254.254 153.2 254.534 152.74 254.774 152.3L257.534 152.54C258.534 152.78 259.034 153.48 259.034 154.64ZM256.994 163.34V163.58C256.994 163.94 256.934 164.54 256.814 165.38C256.734 166.18 256.594 167.24 256.394 168.56C256.434 168.76 256.454 169.04 256.454 169.4C256.454 169.64 256.374 170.18 256.214 171.02C256.054 171.86 255.974 172.58 255.974 173.18C255.974 173.3 255.974 173.42 255.974 173.54C256.014 173.66 256.034 173.76 256.034 173.84C255.914 174.4 255.854 175.2 255.854 176.24C255.854 176.68 255.854 177.16 255.854 177.68C255.894 178.16 255.934 178.68 255.974 179.24C255.654 180.4 255.034 180.98 254.114 180.98C253.314 180.98 252.754 180.56 252.434 179.72C252.154 178.84 252.014 177.7 252.014 176.3C252.014 174.9 252.054 173.62 252.134 172.46C252.254 171.3 252.394 170.22 252.554 169.22C252.714 168.18 252.874 167.2 253.034 166.28C253.234 165.32 253.414 164.38 253.574 163.46C253.974 162.86 254.534 162.56 255.254 162.56C256.014 162.56 256.594 162.82 256.994 163.34ZM288.572 161C288.532 161.32 288.392 161.74 288.152 162.26C287.952 162.74 287.652 163.38 287.252 164.18C286.892 164.98 286.412 165.96 285.812 167.12C285.252 168.28 284.612 169.68 283.892 171.32C282.732 174.44 281.652 176.58 280.652 177.74C280.492 178.18 280.252 178.66 279.932 179.18C279.612 179.66 279.232 180.12 278.792 180.56C278.352 181 277.852 181.36 277.292 181.64C276.772 181.92 276.232 182.06 275.672 182.06C274.232 182.06 273.172 181.06 272.492 179.06C271.972 178.5 271.492 177.82 271.052 177.02C270.652 176.22 270.292 175.44 269.972 174.68C269.652 173.92 269.372 173.26 269.132 172.7C268.932 172.14 268.812 171.8 268.772 171.68C268.332 170.56 268.112 169.38 268.112 168.14V167.66C267.672 166.3 267.352 165.14 267.152 164.18C266.952 163.22 266.852 162.4 266.852 161.72C267.252 160.96 268.012 160.58 269.132 160.58C269.532 160.58 269.852 160.68 270.092 160.88C270.332 161.08 270.512 161.38 270.632 161.78C270.792 162.14 270.912 162.62 270.992 163.22C271.112 163.78 271.252 164.42 271.412 165.14C271.732 166.78 272.072 168.2 272.432 169.4C272.832 170.56 273.232 171.6 273.632 172.52C274.032 173.4 274.432 174.22 274.832 174.98C275.272 175.7 275.732 176.44 276.212 177.2C276.772 176.6 277.232 176.08 277.592 175.64C277.952 175.2 278.232 174.78 278.432 174.38C278.672 173.98 278.872 173.58 279.032 173.18C279.192 172.78 279.332 172.3 279.452 171.74C279.852 171.1 280.132 170.52 280.292 170C280.492 169.44 280.752 168.76 281.072 167.96C281.392 167.12 281.852 166.06 282.452 164.78C283.092 163.46 284.012 161.74 285.212 159.62C285.492 159.22 285.892 159.02 286.412 159.02C287.012 159.02 287.512 159.24 287.912 159.68C288.352 160.08 288.572 160.52 288.572 161ZM316 179.6C314.72 180.88 313.22 181.98 311.5 182.9C309.78 183.82 308.02 184.28 306.22 184.28C305.46 184.28 303.72 184 301 183.44C300.28 182.96 299.52 182.36 298.72 181.64C297.92 180.92 297.18 180.1 296.5 179.18C295.86 178.22 295.32 177.22 294.88 176.18C294.48 175.1 294.28 173.98 294.28 172.82V172.88C294.32 172.52 294.36 172.1 294.4 171.62C294.44 171.18 294.48 170.68 294.52 170.12C294.56 169.52 294.62 168.82 294.7 168.02C295.5 166.74 296.32 165.48 297.16 164.24C298.04 163 299.32 161.9 301 160.94C303.56 160.34 305.48 160.04 306.76 160.04C307.36 160.04 307.88 160.08 308.32 160.16C308.8 160.2 309.24 160.34 309.64 160.58C310.08 160.78 310.5 161.06 310.9 161.42C311.34 161.78 311.86 162.26 312.46 162.86C312.9 163.34 313.24 163.7 313.48 163.94C313.72 164.14 313.9 164.3 314.02 164.42C314.14 164.54 314.2 164.64 314.2 164.72C314.2 164.8 314.2 164.92 314.2 165.08C314.2 166.52 314.04 167.68 313.72 168.56C313.44 169.44 312.88 170.16 312.04 170.72C311.24 171.28 310.12 171.78 308.68 172.22C307.24 172.62 305.38 173.08 303.1 173.6H302.74C302.02 173.6 300.74 173.76 298.9 174.08C300.34 178.32 302.64 180.44 305.8 180.44C308.04 180.44 310.58 179.3 313.42 177.02C313.7 176.78 314.06 176.66 314.5 176.66C315.74 176.66 316.36 177.26 316.36 178.46C316.36 178.86 316.24 179.24 316 179.6ZM310.24 166.16C309.16 164.36 307.94 163.46 306.58 163.46C305.98 163.46 305.34 163.54 304.66 163.7C303.98 163.86 303.32 164.08 302.68 164.36C302.08 164.64 301.5 164.98 300.94 165.38C300.42 165.78 299.98 166.24 299.62 166.76C299.46 167.08 299.3 167.54 299.14 168.14C299.02 168.74 298.86 169.46 298.66 170.3C299.74 170.1 300.92 169.96 302.2 169.88C303.52 169.8 304.76 169.64 305.92 169.4C307.12 169.16 308.12 168.8 308.92 168.32C309.72 167.84 310.16 167.12 310.24 166.16Z" fill="#6C63FF"/>
<path d="M381.04 178.46C380.92 179.62 380.5 180.72 379.78 181.76L377.62 184.82C377.26 185.14 376.7 185.4 375.94 185.6C375.18 185.84 374.4 186.02 373.6 186.14C372.84 186.3 372.14 186.42 371.5 186.5C370.9 186.58 370.58 186.62 370.54 186.62C370.14 186.62 369.62 186.54 368.98 186.38C368.38 186.26 367.78 186.12 367.18 185.96C366.58 185.8 366.06 185.64 365.62 185.48C365.18 185.36 364.94 185.3 364.9 185.3H364.84C364.4 185.26 363.92 185.16 363.4 185C362.92 184.84 362.44 184.64 361.96 184.4C361.52 184.16 361.16 183.9 360.88 183.62C360.56 183.3 360.4 182.96 360.4 182.6C360.4 182.16 360.62 181.72 361.06 181.28C361.5 180.8 361.94 180.56 362.38 180.56C366.42 182.16 369.64 182.96 372.04 182.96C372.92 182.96 373.66 182.78 374.26 182.42C374.9 182.06 375.38 181.68 375.7 181.28L376.96 179C376.96 178.48 376.8 177.96 376.48 177.44C376.2 176.92 375.8 176.46 375.28 176.06C374.8 175.62 374.24 175.24 373.6 174.92C372.96 174.6 372.3 174.38 371.62 174.26C370.86 174.14 370.08 173.92 369.28 173.6C368.52 173.28 367.8 172.9 367.12 172.46C366.48 172.02 365.94 171.54 365.5 171.02C365.1 170.46 364.88 169.86 364.84 169.22C364.8 169.22 364.76 168.46 364.72 166.94C364.8 166.34 364.88 165.86 364.96 165.5C365.04 165.14 365.22 164.82 365.5 164.54C365.78 164.22 366.2 163.88 366.76 163.52C367.36 163.16 368.2 162.64 369.28 161.96C369.6 161.92 370.18 161.88 371.02 161.84C371.9 161.76 373.08 161.64 374.56 161.48C375.2 161.48 376.84 161.96 379.48 162.92C379.88 163.28 380.08 163.82 380.08 164.54C380.08 165.78 379.66 166.4 378.82 166.4C378.78 166.4 378.74 166.4 378.7 166.4C378.66 166.36 378.6 166.34 378.52 166.34L376.36 165.62C375.28 165.3 374.36 165.14 373.6 165.14C372.48 165.14 371.58 165.2 370.9 165.32C370.26 165.44 369.78 165.6 369.46 165.8C369.14 165.96 368.92 166.14 368.8 166.34C368.68 166.54 368.6 166.72 368.56 166.88C368.56 167 368.54 167.12 368.5 167.24C368.5 167.32 368.5 167.42 368.5 167.54C368.5 169.1 369.14 170.06 370.42 170.42C376.74 171.7 380.28 174.38 381.04 178.46ZM396.553 157.64C396.553 158.32 396.433 158.88 396.193 159.32C395.993 159.72 395.713 160.02 395.353 160.22C394.993 160.42 394.593 160.56 394.153 160.64C393.753 160.68 393.353 160.7 392.953 160.7C392.393 160.3 391.913 159.86 391.513 159.38C391.153 158.86 390.973 158.36 390.973 157.88C390.973 157.52 391.133 157.12 391.453 156.68C391.773 156.2 392.053 155.74 392.293 155.3L395.053 155.54C396.053 155.78 396.553 156.48 396.553 157.64ZM394.513 166.34V166.58C394.513 166.94 394.453 167.54 394.333 168.38C394.253 169.18 394.113 170.24 393.913 171.56C393.953 171.76 393.973 172.04 393.973 172.4C393.973 172.64 393.893 173.18 393.733 174.02C393.573 174.86 393.493 175.58 393.493 176.18C393.493 176.3 393.493 176.42 393.493 176.54C393.533 176.66 393.553 176.76 393.553 176.84C393.433 177.4 393.373 178.2 393.373 179.24C393.373 179.68 393.373 180.16 393.373 180.68C393.413 181.16 393.453 181.68 393.493 182.24C393.173 183.4 392.553 183.98 391.633 183.98C390.833 183.98 390.273 183.56 389.953 182.72C389.673 181.84 389.533 180.7 389.533 179.3C389.533 177.9 389.573 176.62 389.653 175.46C389.773 174.3 389.913 173.22 390.073 172.22C390.233 171.18 390.393 170.2 390.553 169.28C390.753 168.32 390.933 167.38 391.093 166.46C391.493 165.86 392.053 165.56 392.773 165.56C393.533 165.56 394.113 165.82 394.513 166.34ZM426.391 181.16C426.511 181.4 426.571 181.64 426.571 181.88C426.571 182.48 426.371 183.04 425.971 183.56C425.571 184.04 425.151 184.28 424.711 184.28C424.271 184.28 423.271 183.56 421.711 182.12C421.111 181.2 420.591 180.52 420.151 180.08C419.711 179.6 419.271 179.16 418.831 178.76C418.431 178.36 417.991 177.92 417.511 177.44C417.031 176.92 416.411 176.16 415.651 175.16L412.651 178.88C412.091 179.8 411.611 180.56 411.211 181.16C410.851 181.76 410.511 182.32 410.191 182.84C409.911 183.36 409.611 183.88 409.291 184.4C408.971 184.88 408.571 185.46 408.091 186.14C407.811 186.42 407.411 186.56 406.891 186.56C406.331 186.56 405.831 186.4 405.391 186.08C404.991 185.8 404.791 185.42 404.791 184.94C404.791 184.74 404.871 184.48 405.031 184.16C405.231 183.8 405.451 183.44 405.691 183.08C405.931 182.68 406.171 182.28 406.411 181.88C406.651 181.48 406.831 181.1 406.951 180.74C407.351 180.1 407.731 179.54 408.091 179.06C408.451 178.54 408.851 178 409.291 177.44C409.731 176.84 410.251 176.16 410.851 175.4C411.451 174.6 412.171 173.62 413.011 172.46C412.571 172.18 412.211 171.92 411.931 171.68C411.651 171.4 411.311 171.08 410.911 170.72C410.511 170.36 410.011 169.94 409.411 169.46C408.811 168.94 407.971 168.32 406.891 167.6C406.091 167.04 405.511 166.6 405.151 166.28C404.831 165.92 404.671 165.5 404.671 165.02C404.671 163.66 405.311 162.98 406.591 162.98C406.951 162.98 407.271 163.06 407.551 163.22L410.731 165.68C410.891 165.92 411.211 166.26 411.691 166.7C412.211 167.1 412.731 167.5 413.251 167.9C413.811 168.3 414.291 168.66 414.691 168.98C415.131 169.26 415.371 169.42 415.411 169.46C415.931 169.06 416.371 168.66 416.731 168.26C417.131 167.82 417.451 167.44 417.691 167.12C417.971 166.8 418.171 166.54 418.291 166.34C418.411 166.14 418.471 166.06 418.471 166.1C419.271 164.94 419.911 164.12 420.391 163.64C420.911 163.12 421.391 162.86 421.831 162.86C423.111 162.86 423.751 163.42 423.751 164.54C423.751 165.14 423.311 166 422.431 167.12L419.851 170.36L418.171 172.16C418.971 173.24 420.351 174.76 422.311 176.72L426.391 181.16Z" fill="#6C63FF"/>
<path d="M128.3 193.38L125 193.62C124.72 193.62 124.22 193.7 123.5 193.86C122.82 193.98 122.22 194.04 121.7 194.04C121.74 194.76 121.8 195.66 121.88 196.74C122 197.82 122.1 198.92 122.18 200.04C122.3 201.16 122.42 202.2 122.54 203.16C122.66 204.12 122.76 204.86 122.84 205.38C122.8 205.58 122.76 205.84 122.72 206.16C122.72 206.48 122.72 206.86 122.72 207.3C122.72 208.46 122.78 210 122.9 211.92C122.34 212.76 121.56 213.18 120.56 213.18C119.64 213.18 119 212.76 118.64 211.92C118.64 211.56 118.64 211.16 118.64 210.72C118.68 210.24 118.7 209.72 118.7 209.16C118.7 208.6 118.68 207.98 118.64 207.3C118.64 206.58 118.64 205.82 118.64 205.02V204.66C118.64 204.1 118.58 203.42 118.46 202.62C118.34 201.82 118.18 200.9 117.98 199.86L117.56 194.4C117.24 194.4 116.8 194.44 116.24 194.52C115.72 194.6 115.06 194.72 114.26 194.88C114.14 194.88 114.02 194.88 113.9 194.88C113.82 194.84 113.72 194.82 113.6 194.82C113.24 194.82 112.92 194.86 112.64 194.94C112.36 194.98 112.24 194.98 112.28 194.94C111.36 194.74 110.9 194.1 110.9 193.02C110.9 192.06 111.34 191.5 112.22 191.34C112.26 191.34 112.3 191.36 112.34 191.4C112.42 191.4 112.5 191.4 112.58 191.4C112.78 191.4 113.02 191.38 113.3 191.34C113.62 191.3 113.92 191.26 114.2 191.22C114.48 191.14 114.7 191.08 114.86 191.04C115.06 191 115.14 190.98 115.1 190.98C115.38 190.9 115.7 190.84 116.06 190.8C116.42 190.76 116.86 190.72 117.38 190.68L116.9 184.68V184.32C116.9 182.76 117.58 180.86 118.94 178.62C119.34 178.38 119.72 178.16 120.08 177.96C120.48 177.76 120.94 177.58 121.46 177.42C121.98 177.22 122.62 177.04 123.38 176.88C124.14 176.72 125.12 176.56 126.32 176.4H126.62C127.66 176.4 128.18 177.02 128.18 178.26C128.18 179.22 127.72 179.86 126.8 180.18H126.44C125.84 180.18 125.22 180.3 124.58 180.54L122.9 181.26C122.22 181.58 121.78 182.02 121.58 182.58C121.38 183.1 121.22 183.66 121.1 184.26C121.1 184.3 121.1 184.48 121.1 184.8C121.14 185.08 121.16 185.42 121.16 185.82C121.16 186.18 121.16 186.54 121.16 186.9C121.2 187.26 121.22 187.52 121.22 187.68V188.16C121.22 188.48 121.24 188.82 121.28 189.18C121.32 189.54 121.4 189.94 121.52 190.38C122.92 190.38 123.98 190.28 124.7 190.08C125.42 189.88 126.06 189.78 126.62 189.78C127.22 189.78 127.8 189.9 128.36 190.14C128.96 190.34 129.26 190.84 129.26 191.64C129.26 192.56 128.94 193.14 128.3 193.38ZM150.594 211.62C149.834 212.14 147.814 212.74 144.534 213.42L142.014 212.94C141.694 212.82 141.114 212.52 140.274 212.04C139.474 211.56 138.634 210.86 137.754 209.94C136.914 209.02 136.154 207.86 135.474 206.46C134.834 205.06 134.514 203.4 134.514 201.48C134.514 199.92 134.954 198.54 135.834 197.34C136.714 196.1 138.054 194.78 139.854 193.38C140.814 193.14 141.754 193.02 142.674 193.02C145.354 193.02 147.814 193.92 150.054 195.72C151.974 198.36 152.934 201.26 152.934 204.42C152.934 206.9 152.154 209.3 150.594 211.62ZM145.134 196.98C144.534 196.7 143.894 196.56 143.214 196.56C142.734 196.56 142.214 196.68 141.654 196.92C141.134 197.16 140.634 197.52 140.154 198C139.714 198.48 139.354 199.1 139.074 199.86C138.794 200.58 138.654 201.44 138.654 202.44C138.654 203.24 138.754 204.04 138.954 204.84C139.194 205.64 139.534 206.38 139.974 207.06C140.454 207.74 141.054 208.3 141.774 208.74C142.494 209.14 143.354 209.34 144.354 209.34C145.274 209.34 146.314 209.1 147.474 208.62C148.474 207.38 148.974 205.9 148.974 204.18C148.974 200.38 147.694 197.98 145.134 196.98ZM180.946 191.04C180.986 191.48 181.006 191.9 181.006 192.3C181.046 192.7 181.066 193.12 181.066 193.56C181.066 194.52 181.026 195.34 180.946 196.02C180.866 196.66 180.766 197.4 180.646 198.24C180.526 199.04 180.366 200.04 180.166 201.24C180.006 202.4 179.846 203.96 179.686 205.92C179.686 206.04 179.666 206.16 179.626 206.28C179.626 206.36 179.626 206.46 179.626 206.58C179.626 207.22 179.686 207.92 179.806 208.68L180.046 210.9C180.046 211.94 179.386 212.46 178.066 212.46C177.506 212.46 177.086 212.32 176.806 212.04C176.526 211.72 176.326 211.36 176.206 210.96C176.086 210.52 176.026 210.08 176.026 209.64C176.026 209.16 176.026 208.76 176.026 208.44C176.026 208.04 176.046 207.74 176.086 207.54C175.126 208.5 174.266 209.26 173.506 209.82C172.786 210.34 172.106 210.72 171.466 210.96C170.866 211.2 170.266 211.34 169.666 211.38C169.106 211.42 168.506 211.44 167.866 211.44C165.706 211.44 164.046 210.84 162.886 209.64C161.766 208.44 161.206 206.66 161.206 204.3C161.206 204.02 161.206 203.7 161.206 203.34C161.206 202.98 161.226 202.56 161.266 202.08C161.226 201.92 161.206 201.66 161.206 201.3C161.206 200.78 161.226 200.3 161.266 199.86C161.306 199.38 161.386 198.82 161.506 198.18C161.666 197.5 161.866 196.68 162.106 195.72C162.386 194.72 162.746 193.44 163.186 191.88C163.626 191.44 164.126 191.22 164.686 191.22C165.206 191.22 165.646 191.36 166.006 191.64C166.366 191.92 166.546 192.34 166.546 192.9C166.546 193.1 166.466 193.52 166.306 194.16C166.186 194.8 166.046 195.5 165.886 196.26C165.726 197.02 165.566 197.78 165.406 198.54C165.286 199.26 165.226 199.82 165.226 200.22V200.52C165.146 201.08 165.066 201.6 164.986 202.08C164.946 202.56 164.926 202.96 164.926 203.28C164.926 204.52 165.166 205.6 165.646 206.52C166.166 207.4 167.126 207.84 168.526 207.84C169.446 207.84 170.306 207.64 171.106 207.24C171.906 206.84 172.626 206.36 173.266 205.8C173.906 205.2 174.466 204.56 174.946 203.88C175.426 203.16 175.786 202.5 176.026 201.9C176.106 201.14 176.246 200.24 176.446 199.2C176.646 198.12 176.906 196.88 177.226 195.48C177.186 195.24 177.166 195 177.166 194.76C177.166 194.52 177.166 194.3 177.166 194.1C177.166 193.62 177.186 193.14 177.226 192.66C177.306 192.14 177.406 191.7 177.526 191.34C177.686 190.94 177.906 190.62 178.186 190.38C178.466 190.1 178.846 189.96 179.326 189.96C180.206 189.96 180.746 190.32 180.946 191.04ZM206.342 192.6C206.822 192.92 207.062 193.48 207.062 194.28C207.062 195.84 206.422 196.62 205.142 196.62C204.542 196.62 203.942 196.48 203.342 196.2C202.742 195.92 202.162 195.78 201.602 195.78C200.962 195.78 200.342 195.9 199.742 196.14C199.182 196.38 198.542 196.86 197.822 197.58L195.602 199.74V201C195.602 201.6 195.582 202.28 195.542 203.04C195.542 203.76 195.522 204.54 195.482 205.38C195.522 206.86 195.702 208.86 196.022 211.38C195.902 212.82 195.182 213.54 193.862 213.54C193.142 213.54 192.622 213.36 192.302 213C192.022 212.6 191.822 212.08 191.702 211.44C191.582 210.8 191.522 210.08 191.522 209.28C191.522 208.48 191.482 207.66 191.402 206.82C191.442 206.62 191.462 206.38 191.462 206.1C191.462 205.82 191.462 205.52 191.462 205.2V204.24L191.102 199.86C191.062 199.66 191.042 199.48 191.042 199.32C191.042 199.16 191.042 199 191.042 198.84C191.042 198.52 191.082 198.16 191.162 197.76C190.762 196.32 190.562 195.26 190.562 194.58C190.562 194.02 190.722 193.62 191.042 193.38C191.362 193.1 191.942 192.96 192.782 192.96C193.342 192.96 193.782 193.16 194.102 193.56C194.422 193.92 194.822 194.38 195.302 194.94L197.942 193.02C198.622 192.5 199.242 192.16 199.802 192C200.402 191.84 200.982 191.76 201.542 191.76C202.382 191.76 203.262 191.86 204.182 192.06L206.342 192.6Z" fill="#6C63FF"/>
<circle cx="121" cy="122" r="35" fill="#6C63FF"/>
<path d="M528.5 129L573.1 202.5H483.9L528.5 129Z" fill="#6C63FF"/>
<rect x="135" y="269" width="60" height="60" fill="#6C63FF"/>
<defs>
<linearGradient id="paint0_linear_12_1209" x1="617.935" y1="159.539" x2="23.8046" y2="124.144" gradientUnits="userSpaceOnUse">
<stop stop-color="#FFAF67" stop-opacity="0.3"/>
<stop offset="1" stop-color="#C774F5" stop-opacity="0.3"/>
</linearGradient>
</defs>
</svg>
