<svg width="436" height="415" viewBox="0 0 436 415" fill="none" xmlns="http://www.w3.org/2000/svg">
<circle cx="204.219" cy="210.781" r="184.66" transform="rotate(-0.174543 204.219 210.781)" fill="#6C63FF" fill-opacity="0.1"/>
<circle cx="204.219" cy="210.781" r="165.721" transform="rotate(-0.174543 204.219 210.781)" fill="#6C63FF" fill-opacity="0.1"/>
<circle cx="204.219" cy="210.781" r="146.781" transform="rotate(-0.174543 204.219 210.781)" fill="#6C63FF" fill-opacity="0.1"/>
<circle cx="204.219" cy="210.781" r="127.842" transform="rotate(-0.174543 204.219 210.781)" fill="#6C63FF" fill-opacity="0.1"/>
<circle cx="205.077" cy="209.868" r="108.948" transform="rotate(-0.174543 205.077 209.868)" fill="#6C63FF" fill-opacity="0.1"/>
<circle cx="205.019" cy="209.925" r="90.0826" transform="rotate(-0.174543 205.019 209.925)" fill="#6C63FF" fill-opacity="0.1"/>
<path d="M407.817 210.161C408.16 322.605 317.283 414.037 204.839 414.38C92.3947 414.722 0.962781 323.846 0.620235 211.401C0.277689 98.957 91.1542 7.52516 203.599 7.18261C316.043 6.84007 407.475 97.7166 407.817 210.161Z" fill="#6C63FF" fill-opacity="0.1"/>
<path d="M19.0527 340.21L81.6001 340.019L81.5905 336.854C81.5821 334.105 80.9121 331.471 79.7277 329.532C78.5434 327.592 76.9418 326.505 75.2753 326.51L50.2852 326.586L25.2951 326.662C23.6286 326.667 22.0337 327.764 20.8612 329.711C19.6887 331.658 19.0347 334.296 19.0431 337.044C19.0515 339.793 19.0527 340.21 19.0527 340.21Z" fill="#FAFAFF"/>
<path d="M51.2853 328.5L48.1343 327.314C80.8317 250.097 77.3627 152.818 49.2699 69.4464C45.9336 59.7869 45.6635 49.4169 48.4929 39.6124C51.3222 29.8079 57.1277 20.9964 65.1949 14.2621C81.3119 0.609747 103.578 -2.77196 123.309 5.43582C142.784 13.5389 145.508 27.7482 145.551 41.8965L142.158 41.9068C142.112 26.8042 138.656 15.3205 121.938 8.36503C103.446 0.672841 82.5728 3.84437 67.4619 16.6441C59.8846 22.9691 54.4317 31.245 51.7741 40.4539C49.1165 49.6627 49.3702 59.4026 52.5038 68.4752C80.921 152.81 84.206 250.757 51.2853 328.5Z" fill="#FAFAFF"/>
<path d="M142.629 74.3351C136.091 74.355 130.775 69.0714 130.755 62.5337C130.735 55.9961 136.019 50.6801 142.557 50.6602C149.094 50.6403 154.41 55.9239 154.43 62.4616C154.45 68.9992 149.166 74.3152 142.629 74.3351Z" fill="#FAFAFF"/>
<path d="M160.887 83.0784L160.818 60.6493L157.331 60.6599L157.399 83.0891C156.4 83.4968 155.574 84.2393 155.062 85.1894C154.55 86.1395 154.385 87.238 154.594 88.2967C154.804 89.3553 155.375 90.3082 156.209 90.992C157.044 91.6758 158.091 92.0479 159.17 92.0446C160.249 92.0413 161.294 91.6628 162.124 90.974C162.955 90.2851 163.52 89.3288 163.723 88.2689C163.926 87.209 163.754 86.1115 163.236 85.1645C162.719 84.2176 161.888 83.4801 160.887 83.0784Z" fill="#FAFAFF"/>
<path d="M177.624 43.3666C177.603 38.2107 175.537 33.2738 171.88 29.6391C168.223 26.0044 163.274 23.9687 158.118 23.9785L125.987 24.0764C120.83 24.0921 115.889 26.1561 112.253 29.8143C108.617 33.4725 106.584 38.4252 106.599 43.583C106.615 48.7407 108.679 53.6809 112.337 57.3169C115.995 60.9529 120.948 62.9867 126.106 62.971L158.236 62.8731C163.392 62.8516 168.329 60.7857 171.964 57.1288C175.598 53.4719 177.634 48.5225 177.624 43.3666Z" fill="#6C63FF"/>
<path d="M223.261 163.657C219.91 122.395 203.356 102.781 213.88 90.4169C223.96 78.5739 252.464 80.9272 270.799 92.2061C320.254 122.628 338.71 244.423 275.37 304.149C215.181 360.905 100.73 343.134 75.1666 296.909C69.2018 286.123 64.4318 267.198 73.0784 255.701C94.5457 227.159 173.068 278.5 207.812 246.132C228.402 226.95 225.101 186.302 223.261 163.657Z" fill="#3F3D56"/>
<path d="M185.466 143.268C186.666 143.816 187.606 144.811 188.084 146.041C188.563 147.271 188.542 148.639 188.027 149.854C187.919 150.099 187.79 150.335 187.643 150.559L198.281 164.674L193.018 172.591L180.535 151.681C179.653 150.997 179.023 150.041 178.741 148.961C178.46 147.882 178.544 146.739 178.98 145.712C179.234 145.13 179.6 144.604 180.057 144.163C180.514 143.723 181.054 143.377 181.645 143.145C182.236 142.913 182.867 142.799 183.502 142.811C184.136 142.823 184.763 142.96 185.345 143.213C185.385 143.231 185.426 143.249 185.466 143.268Z" fill="#FFB6B6"/>
<path d="M185.548 167.659C184.857 168.276 186.782 169.029 188.813 167.826C189.394 167.477 189.643 167.333 189.708 167.424C189.873 167.652 188.923 169.343 189.189 173.091C189.353 175.328 193.082 179.523 197.314 183.612C203.035 189.142 209.685 194.473 209.685 194.473L212.008 192.601L236.369 172.947L240.473 167.23C240.089 164.978 239.515 162.763 238.759 160.608C237.716 157.625 236.479 154.714 235.055 151.893C234.292 150.358 233.509 148.895 232.759 147.549L219.719 162.007L208.792 174.117C208.792 174.117 205.584 168.985 203.107 167.592C202.791 167.392 202.432 167.27 202.059 167.236C199.56 167.126 199.405 165.765 202.294 162.793C205.183 159.821 201.535 162.599 198.955 161.809C196.375 161.019 198.955 161.809 198.406 159.815C197.856 157.822 190.616 153.84 190.616 153.84L190.315 154.109L184.868 158.947L183.308 160.332C183.308 160.332 185.03 165.011 185.504 165.998C185.978 166.984 186.233 167.035 185.548 167.659Z" fill="#6C63FF"/>
<path d="M41.8289 258.974L41.5407 251.759L69.2328 247.214L69.6584 257.862L41.8289 258.974Z" fill="#FFB6B6"/>
<path d="M46.8649 261.131L47.0924 249.577L42.1538 249.774L34.1475 239.117C33.7521 238.591 33.1988 238.205 32.5684 238.015C31.938 237.826 31.2635 237.842 30.6433 238.063C30.0232 238.284 29.4898 238.697 29.1212 239.243C28.7525 239.788 28.5679 240.437 28.5942 241.095L29.1424 254.818L34.1219 256.988L29.2738 258.107L29.4805 263.281L46.8649 261.131Z" fill="#2F2E41"/>
<path d="M197.768 261.308L110.021 263.8C110.021 263.8 72.1322 266.105 63.2234 260.348L53.8439 259.193L53.2937 245.422C53.2937 245.422 59.0273 245.447 62.319 243.901C65.6107 242.355 63.314 240.483 66.4625 242.321C69.611 244.159 69.2797 244.382 71.707 243.526C74.1344 242.669 185.513 225.345 185.513 225.345L197.768 261.308Z" fill="#2F2E41"/>
<path d="M82.1134 255.684L76.9947 250.591L94.2045 228.425L101.759 235.942L82.1134 255.684Z" fill="#FFB6B6"/>
<path d="M87.2641 251.224L79.5726 242.599L76.0864 246.103L62.9692 243.736C62.3214 243.619 61.6531 243.712 61.062 244.002C60.4708 244.291 59.9878 244.762 59.6833 245.346C59.3789 245.93 59.269 246.595 59.3697 247.246C59.4704 247.897 59.7764 248.498 60.2431 248.962L69.9784 258.65L75.1048 256.854L72.3115 260.971L75.9821 264.624L87.2641 251.224Z" fill="#2F2E41"/>
<path d="M232.243 213.143L231.432 233.425C230.478 257.301 204.231 271.831 183.806 259.428C183.429 259.199 183.052 258.962 182.673 258.717C182.673 258.717 174.938 256.665 175.162 253.378C175.387 250.09 173.494 248.496 171.826 249.398C170.158 250.299 148.186 219.318 148.186 219.318C148.186 219.318 102.801 242.129 92.7903 247.497C92.7903 247.497 83.3176 232.785 84.0016 232.938C84.6856 233.09 140.115 194.042 140.115 194.042C140.115 194.042 149.137 184.856 160.381 190.869C160.617 191.757 160.417 191.788 160.417 191.788L197.591 221.891L202.801 211.924L232.243 213.143Z" fill="#2F2E41"/>
<path d="M197.203 187.897C197.276 188.834 197.412 189.764 197.61 190.683C197.881 192.012 198.316 193.303 198.904 194.526C198.904 194.526 198.908 195.893 201.539 200.464C204.17 205.035 200.893 203.083 198.94 206.491C196.988 209.892 198.946 208.322 201.131 210.501C201.76 211.135 202.208 211.925 202.428 212.791C202.648 213.657 202.633 214.565 202.383 215.423C202.383 215.423 230.487 215.357 235.714 213.378C240.942 211.4 242.099 200.341 237.405 199.262C232.717 198.184 238.818 197.08 241.564 194.553C244.311 192.026 238.79 187.921 238.79 187.921C238.79 187.921 241.048 183.996 240.818 170.84C240.788 169.63 240.672 168.424 240.473 167.23C240.089 164.979 239.516 162.764 238.759 160.609C237.716 157.625 236.479 154.714 235.056 151.893C234.292 150.358 233.509 148.895 232.759 147.549C232.641 147.34 232.529 147.138 232.411 146.936C230.984 144.428 229.682 142.378 228.821 141.065C228.157 140.047 227.756 139.472 227.756 139.472L222.969 131.205L207.095 138.704L208.035 150.889L205.322 160.089L204.072 164.325L203.107 167.593L201.618 172.654C201.618 172.654 202.03 172.672 201.541 173.348C199.291 176.359 197.837 179.889 197.314 183.612C197.13 185.033 197.093 186.469 197.203 187.897Z" fill="#6C63FF"/>
<path d="M151.299 189.351L151.597 189.253L189.608 176.885L175.447 130.931C175.165 130.016 174.679 129.177 174.026 128.477C173.372 127.777 172.568 127.234 171.675 126.89C170.781 126.546 169.821 126.409 168.867 126.49C167.913 126.571 166.99 126.867 166.167 127.357L141.896 141.796C139.975 142.938 138.516 144.718 137.774 146.827C137.033 148.935 137.055 151.237 137.839 153.33L151.299 189.351Z" fill="#2F2E41"/>
<path d="M151.153 192.275L189.47 179.807L175.31 133.853C175.028 132.938 174.541 132.099 173.888 131.399C173.235 130.699 172.431 130.156 171.537 129.812C170.644 129.468 169.684 129.331 168.729 129.412C167.775 129.493 166.852 129.789 166.029 130.279L140.593 143.076C136.772 145.348 136.88 151.198 138.671 155.994L151.153 192.275Z" fill="#FAFAFF"/>
<path d="M155.003 195.593C155.888 196.088 156.866 196.394 157.876 196.492C158.885 196.589 159.904 196.475 160.867 196.158L185.358 188.188C187.237 187.568 188.799 186.238 189.71 184.481C190.622 182.725 190.81 180.682 190.235 178.789L177.822 138.504C177.574 137.699 177.167 136.952 176.627 136.306C176.086 135.66 175.422 135.129 174.673 134.743C173.925 134.358 173.107 134.125 172.267 134.06C171.427 133.995 170.583 134.098 169.784 134.363L144.404 142.782C143.195 143.183 142.078 143.822 141.12 144.662C140.162 145.502 139.382 146.525 138.826 147.672C138.27 148.818 137.95 150.064 137.883 151.337C137.817 152.609 138.007 153.882 138.44 155.08L151.693 191.676C152.289 193.338 153.464 194.729 155.003 195.593Z" fill="#3F3D56"/>
<path d="M207.971 131.392C198.273 131.422 190.388 123.584 190.358 113.887C190.329 104.189 198.166 96.3039 207.864 96.2744C217.561 96.2448 225.447 104.082 225.476 113.78C225.506 123.477 217.668 131.363 207.971 131.392Z" fill="#FFB6B6"/>
<path d="M249.575 211.826C249.211 211.537 248.816 211.288 248.398 211.085C241.667 207.761 220.74 199.142 204.399 199.548C172.957 200.329 133.046 235.154 142.43 258.429C149.57 276.14 184.832 286.121 210.525 277.974C246.519 266.561 260.6 220.562 249.575 211.826Z" fill="#3F3D56"/>
<path d="M387.724 339.747L19.8675 341.105C19.7123 341.106 19.5632 341.009 19.453 340.836C19.3428 340.663 19.2804 340.429 19.2797 340.184C19.2789 339.939 19.3398 339.704 19.449 339.531C19.5582 339.357 19.7067 339.259 19.8618 339.259L387.718 337.9C387.873 337.899 388.022 337.996 388.133 338.169C388.243 338.342 388.305 338.577 388.306 338.821C388.307 339.066 388.246 339.301 388.137 339.475C388.028 339.648 387.879 339.746 387.724 339.747Z" fill="#FAFAFF"/>
<path d="M164.397 168.502C165.716 168.546 166.966 169.103 167.88 170.054C168.795 171.006 169.302 172.276 169.294 173.596C169.288 173.864 169.26 174.132 169.21 174.395L184.457 183.334L182.643 192.667L163.08 178.163C162.003 177.871 161.053 177.231 160.378 176.343C159.704 175.454 159.342 174.367 159.35 173.251C159.36 172.617 159.496 171.99 159.748 171.408C160.001 170.825 160.366 170.298 160.822 169.857C161.279 169.415 161.818 169.068 162.408 168.835C162.999 168.602 163.629 168.487 164.264 168.498C164.308 168.498 164.353 168.5 164.397 168.502Z" fill="#FFB6B6"/>
<path d="M176.93 189.885C177.335 189.338 177.509 189.109 177.602 189.172C177.841 189.315 177.617 191.242 179.304 194.596C181.678 199.307 206.442 206.458 206.442 206.458L209.472 200.872L222.796 176.323L227.355 156.664C227.514 155.979 227.591 155.277 227.582 154.573C223.455 151.688 219.075 149.184 214.494 147.092C212.67 148.135 211.281 149.799 210.583 151.781L201.438 177.671L197.789 188.008C197.789 188.008 191.283 183.385 188.93 184.244C186.582 185.109 185.91 183.909 187.435 180.055C188.96 176.201 186.665 180.17 183.982 180.43C181.292 180.694 183.982 180.43 182.706 178.801C181.43 177.172 173.213 176.278 173.213 176.278L173.039 176.643L169.876 183.201L168.97 185.085C168.97 185.085 172.356 188.736 173.173 189.464C173.993 190.196 174.246 190.145 173.848 190.983C173.455 191.818 175.521 191.774 176.93 189.885Z" fill="#6C63FF"/>
<path d="M350.637 327.625L347.754 335.199L317.168 327.681L321.423 316.502L350.637 327.625Z" fill="#FFB7B7"/>
<path d="M357.743 275.704C357.854 312.109 342.758 306.648 324.157 306.705C305.556 306.762 290.494 312.314 290.383 275.909C290.272 239.505 297.441 174.953 323.756 174.873C350.977 174.79 357.632 239.3 357.743 275.704Z" fill="#1E1E1E"/>
<path d="M358.714 328.488L349.417 352.911L349.108 352.793C346.587 351.833 344.55 349.911 343.446 347.45C342.342 344.989 342.261 342.189 343.221 339.668L343.221 339.668L348.9 324.751L358.714 328.488Z" fill="#2F2E41"/>
<path d="M303.907 233.042L290.592 234.33L290.052 273.962C290.235 275.904 291.17 277.697 292.659 278.957C294.147 280.217 296.069 280.845 298.015 280.705L306.457 280.097L303.907 233.042Z" fill="#FAFAFF"/>
<path d="M350.856 230.949L341.742 230.859L341.346 277.95C343.36 278.011 345.365 277.656 347.236 276.908C349.107 276.16 350.804 275.034 352.22 273.601C353.637 272.168 354.743 270.459 355.47 268.579C356.197 266.7 356.528 264.691 356.444 262.678L350.856 230.949Z" fill="#FAFAFF"/>
<path d="M298.172 294.81C297.96 296.176 297.651 297.526 297.246 298.848C296.79 300.143 296.084 301.341 295.668 302.649C294.34 306.817 296.212 311.455 299.19 314.66C301.771 317.429 305.099 319.391 308.771 320.311C311.451 320.976 314.235 321.064 316.994 321.15C324.634 321.385 332.471 321.593 339.702 319.116C341.987 318.314 344.193 317.304 346.292 316.098C346.955 315.779 347.539 315.317 348.001 314.744C348.55 313.957 348.618 312.937 348.61 311.976C348.584 308.738 347.918 305.518 348.064 302.282C348.145 300.49 348.474 298.698 348.304 296.913C348.069 294.885 347.214 292.979 345.854 291.455C344.494 289.932 342.697 288.867 340.709 288.404C338.654 287.97 336.525 288.216 334.435 288.424C329.01 288.962 323.56 289.222 318.108 289.204C312.538 289.185 307 288.352 301.457 288.28C299.818 288.258 299.852 288.764 299.335 290.352C298.859 291.813 298.47 293.302 298.172 294.81Z" fill="#2F2E41"/>
<path d="M276.382 292.244C274.883 291.872 273.339 291.713 271.796 291.77C270.174 291.865 268.591 292.304 267.153 293.057C265.714 293.811 264.452 294.862 263.451 296.142C262.45 297.421 261.732 298.898 261.347 300.476C260.961 302.054 260.915 303.696 261.213 305.293C261.592 307.022 262.209 308.691 263.045 310.252C264.268 312.716 265.734 315.173 267.99 316.748C269.31 317.669 270.835 318.241 272.343 318.803L284.212 323.234C285.958 323.885 287.704 324.537 289.467 325.141C298.325 328.173 307.556 329.979 316.904 330.509C319.751 330.67 322.641 330.708 325.416 330.051C326.075 329.896 326.777 329.664 327.157 329.104C327.381 328.71 327.513 328.269 327.542 327.816L328.256 322.707C328.357 321.987 328.453 321.23 328.188 320.554C327.851 319.697 327.012 319.159 326.211 318.703C318.404 314.25 309.296 311.808 302.717 305.684C301.168 304.242 299.869 301.953 297.989 300.977C295.858 299.869 293.35 299.241 291.147 298.221C286.332 295.991 281.597 293.426 276.382 292.244Z" fill="#2F2E41"/>
<path opacity="0.1" d="M288.238 299.093C292.433 300.393 310.152 309.436 313.194 312.603C312.788 312.751 298.974 305.064 298.56 304.941C294.795 303.824 291.009 302.699 287.431 301.058C286.712 300.727 282.757 299.177 282.933 298.27C283.132 297.246 287.494 298.862 288.238 299.093Z" fill="#1E1E1E"/>
<path d="M313.286 219.693L302.03 228.295C302.03 228.295 290.126 228.703 290.551 236.313C290.977 243.922 295.851 279.94 295.851 279.94L296.923 292.335L316.549 297.863C327.153 300.85 338.348 301.056 349.054 298.461L346.686 286.03C346.686 286.03 355.95 229.512 350.258 227.042C344.566 224.572 341.015 225.294 341.015 225.294L333.871 219.098L313.286 219.693Z" fill="#FAFAFF"/>
<path d="M335.623 209.557C341.64 203.503 341.611 193.717 335.557 187.7C329.503 181.682 319.717 181.712 313.7 187.766C307.683 193.82 307.713 203.606 313.767 209.624C319.821 215.641 329.606 215.611 335.623 209.557Z" fill="#FFB7B7"/>
<path d="M305.716 198.328L311.829 198.309L314.503 190.75L315.065 198.299L317.987 198.291L319.546 193.881L319.874 198.285L341.583 198.219C341.57 193.88 339.834 189.723 336.756 186.664C333.679 183.605 329.512 181.894 325.173 181.908L322.027 181.917C317.688 181.93 313.532 183.667 310.473 186.744C307.414 189.822 305.703 193.989 305.716 198.328Z" fill="#1E1E1E"/>
<path d="M339.227 221.391L308.317 221.485L308.431 258.791L339.341 258.697L339.227 221.391Z" fill="#6C63FF"/>
<path d="M310.344 327.393L313.274 334.949L343.813 327.244L339.489 316.092L310.344 327.393Z" fill="#FFB7B7"/>
<path d="M312.063 324.508L317.833 339.39L317.833 339.39C318.808 341.906 318.744 344.705 317.655 347.173C316.566 349.641 314.541 351.575 312.026 352.551L311.718 352.67L302.272 328.305L312.063 324.508Z" fill="#2F2E41"/>
<path d="M371.319 289.059C373.773 288.436 376.317 288.254 378.834 288.522C380.844 288.738 382.917 289.29 384.388 290.677C386.179 292.364 386.761 294.981 386.816 297.441C386.909 302.341 385.299 307.121 382.259 310.966C381.517 311.938 380.634 312.794 379.638 313.504C378.564 314.181 377.419 314.737 376.223 315.163L349.705 325.716C342.729 328.493 335.728 331.277 328.449 333.115C328.053 333.308 327.597 333.335 327.182 333.192C326.766 333.048 326.424 332.745 326.232 332.35C326.226 332.337 326.22 332.325 326.215 332.313C323.878 328.997 321.916 325.433 320.363 321.686C320.29 321.597 320.239 321.492 320.215 321.379C320.191 321.267 320.195 321.15 320.226 321.039C320.256 320.928 320.313 320.826 320.392 320.741C320.47 320.657 320.568 320.593 320.677 320.554L339.423 309.707C340.765 308.93 342.123 308.142 343.237 307.062C344.046 306.273 344.708 305.346 345.191 304.324C345.577 303.51 345.608 301.591 346.103 300.988C346.588 300.398 348.253 300.346 349.022 300.113C350.106 299.777 351.167 299.372 352.198 298.901C356.393 297.009 360.126 294.267 364.146 292.054C366.4 290.756 368.811 289.749 371.319 289.059Z" fill="#2F2E41"/>
<path opacity="0.1" d="M360.698 297.149C357.479 299.582 353.308 301.822 350.118 304.319C349.03 305.171 330.869 315.455 330.616 316.814C333.6 317.308 352.563 303.955 355.277 302.62C357.992 301.286 360.397 299.408 362.779 297.543C363.386 297.068 365.961 295.638 364.213 295.114C363.228 294.82 361.423 296.662 360.698 297.149Z" fill="#1E1E1E"/>
<path opacity="0.17" d="M297.732 245.322L298.148 242.027C298.148 242.027 314.068 243.141 311.593 247.056C309.118 250.972 303.079 251.346 303.079 251.346L297.732 245.322Z" fill="#2F2E41"/>
<path d="M309.702 230.965C310.614 231.062 311.494 231.361 312.277 231.838C313.06 232.316 313.727 232.961 314.232 233.727C314.691 234.426 315.005 235.211 315.153 236.034C315.302 236.858 315.283 237.702 315.097 238.518C314.91 239.334 314.561 240.103 314.07 240.781C313.579 241.458 312.957 242.029 312.239 242.46C311.976 242.617 311.702 242.753 311.418 242.867L301.726 272.822C301.444 273.414 301.048 273.944 300.561 274.381C300.074 274.819 299.505 275.157 298.887 275.374C298.269 275.591 297.615 275.684 296.961 275.647C296.307 275.611 295.667 275.445 295.077 275.16C294.487 274.876 293.959 274.477 293.524 273.987C293.089 273.498 292.755 272.927 292.541 272.308C292.327 271.689 292.238 271.034 292.278 270.38C292.318 269.726 292.487 269.087 292.775 268.498L303.089 238.873C302.803 237.895 302.762 236.861 302.97 235.864C303.179 234.866 303.63 233.935 304.283 233.153C304.937 232.371 305.774 231.762 306.719 231.38C307.664 230.999 308.689 230.856 309.702 230.965Z" fill="#FFB7B7"/>
<path d="M297.869 242.309C297.869 242.309 303.504 251.869 311.593 247.056L303.831 277.138L297.213 277.158L290.364 275.9L292.243 263.476L297.869 242.309Z" fill="#FAFAFF"/>
<path d="M337.914 248.733L333.251 242.372C333.251 242.372 335.463 235.752 344.125 238.144C344.125 238.144 349.669 250.454 337.914 248.733Z" fill="#FAFAFF"/>
<path opacity="0.17" d="M337.914 248.733L333.251 242.372C333.251 242.372 335.463 235.752 344.125 238.144C344.125 238.144 349.669 250.454 337.914 248.733Z" fill="#2F2E41"/>
<path d="M339.076 226.454C340.418 227.073 341.492 228.153 342.105 229.497C342.718 230.841 342.828 232.361 342.415 233.78L352.909 263.341C353.201 263.928 353.374 264.566 353.418 265.22C353.462 265.873 353.377 266.529 353.166 267.149C352.956 267.77 352.626 268.343 352.193 268.835C351.761 269.327 351.236 269.729 350.648 270.017C350.06 270.306 349.421 270.475 348.767 270.516C348.113 270.556 347.458 270.467 346.839 270.254C346.219 270.04 345.648 269.707 345.159 269.272C344.669 268.837 344.27 268.309 343.985 267.72L334.11 237.824C333.826 237.711 333.55 237.577 333.286 237.422C332.566 236.996 331.94 236.428 331.445 235.754C330.95 235.079 330.596 234.312 330.405 233.497C330.214 232.683 330.19 231.838 330.333 231.014C330.477 230.19 330.786 229.403 331.241 228.701C331.74 227.932 332.404 227.283 333.184 226.8C333.965 226.318 334.842 226.014 335.753 225.911C336.89 225.779 338.041 225.967 339.076 226.454Z" fill="#FFB7B7"/>
<path d="M333.251 242.372C333.251 242.372 340.927 246.997 344.125 238.144L355.008 266.539L351.817 272.16L351.353 272.2C349.439 272.366 347.515 272.064 345.743 271.321C343.972 270.579 342.408 269.417 341.184 267.937C338.689 264.917 336.986 261.323 336.228 257.48L333.251 242.372Z" fill="#FAFAFF"/>
<path d="M207.626 121.284C208.11 120.214 208.275 119.015 208.1 117.843C207.926 116.672 207.42 115.584 206.648 114.72C203.802 111.717 199.375 113.739 195.54 113.456C189.151 112.984 184.777 104.979 186.664 98.537C188.551 92.0948 195.316 88.0802 201.709 88.4842C208.101 88.8882 213.901 93.0329 217.769 98.4072C220.392 93.9315 226.869 93.3907 231.058 96.2579C235.248 99.1251 237.427 104.382 238.337 109.554C239.246 114.726 239.117 120.044 239.885 125.242C241.748 137.84 249.512 149.686 260.707 154.551C271.903 159.417 286.201 156.224 293.485 146.04C294.945 158.35 292.487 170.821 286.498 181.502C280.508 192.182 271.323 200.471 260.381 205.069C254.33 207.613 247.643 208.973 241.261 207.59C230.956 205.355 222.918 196.108 219.395 185.671C215.873 175.234 216.256 163.769 217.918 152.833C218.942 146.098 220.074 138.121 215.395 133.4C214.083 132.257 212.54 131.444 210.884 131.023C210.006 130.748 209.198 130.266 208.524 129.613C207.85 128.96 207.325 128.154 206.992 127.255C206.658 126.357 206.523 125.39 206.598 124.429C206.673 123.468 206.955 122.538 207.424 121.709C207.499 121.568 207.566 121.426 207.626 121.284Z" fill="#1E1E1E"/>
</svg>
