<svg xmlns="http://www.w3.org/2000/svg" fill="none" viewBox="6.37 22.97 458.99 523.81">
<path d="M225.871 25.6446C232.059 22.0719 239.683 22.0719 245.871 25.6446L455.368 146.598C461.556 150.17 465.368 156.773 465.368 163.918V405.824C465.368 412.969 461.556 419.572 455.368 423.145L245.871 544.098C239.683 547.67 232.059 547.67 225.871 544.098L16.3743 423.145C10.1863 419.572 6.37436 412.969 6.37436 405.824V163.918C6.37436 156.773 10.1863 150.17 16.3744 146.598L225.871 25.6446Z" fill="#F461A6" fill-opacity="0.1"/>
<path d="M255.709 41.2464C262.287 38.4545 269.854 39.3837 275.56 43.6838L456.775 180.239C462.482 184.539 465.461 191.557 464.59 198.649L436.937 423.864C436.066 430.956 431.478 437.045 424.901 439.837L216.033 528.496C209.456 531.288 201.888 530.359 196.182 526.059L14.9667 389.503C9.26024 385.203 6.28133 378.185 7.15212 371.093L34.805 145.878C35.6758 138.786 40.264 132.698 46.8413 129.906L255.709 41.2464Z" fill="#F461A6" fill-opacity="0.1"/>
<path d="M282.623 60.0344C289.492 58.0649 296.889 59.9093 302.029 64.8729L454.461 212.075C459.601 217.039 461.703 224.367 459.974 231.3L408.709 436.912C406.981 443.845 401.685 449.329 394.816 451.299L191.119 509.708C184.251 511.677 176.853 509.833 171.713 504.869L19.2808 357.667C14.1409 352.704 12.0395 345.375 13.7681 338.442L65.0328 132.83C66.7614 125.897 72.0574 120.413 78.9259 118.444L282.623 60.0344Z" fill="#F461A6" fill-opacity="0.1"/>
<path d="M304.307 81.2896C311.365 80.1719 318.482 82.904 322.979 88.457L446.896 241.482C451.392 247.035 452.585 254.565 450.024 261.235L379.46 445.063C376.899 451.734 370.974 456.532 363.917 457.649L169.435 488.452C162.378 489.57 155.26 486.838 150.763 481.285L26.8464 328.26C22.3497 322.707 21.1571 315.177 23.7177 308.506L94.2825 124.679C96.8432 118.008 102.768 113.21 109.825 112.093L304.307 81.2896Z" fill="#F461A6" fill-opacity="0.1"/>
<path d="M320.573 104.27C327.714 104.021 334.445 107.6 338.232 113.659L434.627 267.924C438.414 273.984 438.68 281.603 435.325 287.912L349.926 448.526C346.571 454.835 340.106 458.875 332.965 459.124L151.169 465.472C144.028 465.722 137.297 462.143 133.51 456.083L37.115 301.818C33.3285 295.758 33.0625 288.139 36.417 281.83L121.817 121.217C125.171 114.908 131.637 110.868 138.778 110.618L320.573 104.27Z" fill="#F461A6" fill-opacity="0.1"/>
<path d="M333.348 128.226C340.466 128.849 346.711 133.222 349.731 139.697L420.268 290.966C423.288 297.441 422.623 305.036 418.525 310.889L322.792 447.611C318.693 453.464 311.784 456.686 304.666 456.063L138.395 441.516C131.277 440.894 125.031 436.521 122.012 430.045L51.4741 278.777C48.4544 272.301 49.1189 264.706 53.2172 258.853L148.951 122.131C153.049 116.278 159.959 113.056 167.077 113.679L333.348 128.226Z" fill="#F461A6" fill-opacity="0.1"/>
<path d="M342.674 152.42C349.664 153.906 355.329 159.007 357.537 165.803L404.479 310.274C406.687 317.069 405.102 324.527 400.321 329.837L298.676 442.725C293.894 448.035 286.644 450.391 279.654 448.905L131.068 417.322C124.079 415.837 118.413 410.735 116.205 403.94L69.2636 259.468C67.0556 252.673 68.6407 245.215 73.4218 239.905L175.067 127.017C179.848 121.707 187.099 119.351 194.088 120.837L342.674 152.42Z" fill="#F461A6" fill-opacity="0.1"/>
<path d="M345.707 176.142C352.463 178.469 357.465 184.223 358.828 191.237L384.951 325.627C386.314 332.641 383.832 339.85 378.44 344.538L275.115 434.356C269.723 439.044 262.239 440.498 255.483 438.172L126.036 393.6C119.28 391.274 114.278 385.52 112.914 378.506L86.7915 244.115C85.4281 237.101 87.9102 229.892 93.3028 225.205L196.627 135.386C202.02 130.699 209.504 129.244 216.26 131.57L345.707 176.142Z" fill="#F461A6" fill-opacity="0.1"/>
<g clip-path="url(#clip0_66_258)">
<path d="M382.205 272.725V200.5C382.205 199.468 381.808 198.479 381.101 197.75C380.394 197.02 379.435 196.611 378.436 196.611C377.436 196.611 376.477 197.02 375.77 197.75C375.063 198.479 374.666 199.468 374.666 200.5V272.725C374.666 273.757 375.063 274.746 375.77 275.475C376.477 276.205 377.436 276.614 378.436 276.614C379.435 276.614 380.394 276.205 381.101 275.475C381.808 274.746 382.205 273.757 382.205 272.725Z" fill="#FAFAFF"/>
<path d="M391.225 272.725V200.5C391.225 199.468 390.828 198.479 390.121 197.75C389.414 197.02 388.455 196.611 387.455 196.611C386.456 196.611 385.497 197.02 384.79 197.75C384.083 198.479 383.686 199.468 383.686 200.5V272.725C383.686 273.757 384.083 274.746 384.79 275.475C385.497 276.205 386.456 276.614 387.455 276.614C388.455 276.614 389.414 276.205 390.121 275.475C390.828 274.746 391.225 273.757 391.225 272.725Z" fill="#FAFAFF"/>
<path d="M400.244 272.725V200.5C400.244 199.468 399.847 198.479 399.14 197.75C398.433 197.02 397.475 196.611 396.475 196.611C395.475 196.611 394.517 197.02 393.81 197.75C393.103 198.479 392.706 199.468 392.706 200.5V272.725C392.706 273.757 393.103 274.746 393.81 275.475C394.517 276.205 395.475 276.614 396.475 276.614C397.475 276.614 398.433 276.205 399.14 275.475C399.847 274.746 400.244 273.757 400.244 272.725Z" fill="#FAFAFF"/>
<path d="M59.7026 388.084C61.2206 388.085 62.7274 387.816 64.1562 387.287L64.3765 387.205L64.2751 386.702C66.8339 381.368 65.9394 374.061 61.9849 368.052C58.3896 362.591 52.9226 358.62 48.0994 355.116C47.4873 354.672 46.7604 354.426 46.0121 354.412C45.2638 354.397 44.5283 354.613 43.9002 355.033C43.2722 355.453 42.7801 356.057 42.4875 356.768C42.1949 357.479 42.115 358.264 42.2581 359.022L43.9829 368.152C45.2276 374.738 46.7085 380.972 51.1 384.86C53.5123 386.942 56.5573 388.084 59.7026 388.084Z" fill="#FAFAFF"/>
<path d="M48.4071 403.862C50.0777 403.851 51.7193 403.411 53.1829 402.58C54.6465 401.749 55.8857 400.553 56.7878 399.103L56.913 398.902L56.6148 398.631C55.8433 394.287 52.2138 390.417 47.3406 388.752C42.9112 387.24 38.0217 387.487 33.7107 387.705C33.141 387.733 32.5923 387.936 32.1343 388.286C31.6762 388.637 31.3294 389.12 31.1377 389.674C30.9461 390.229 30.9182 390.829 31.0577 391.4C31.1971 391.97 31.4977 392.485 31.9212 392.88L36.7717 397.397C40.2966 400.679 43.812 403.642 48.0526 403.855C48.171 403.859 48.2891 403.862 48.4071 403.862Z" fill="#FAFAFF"/>
<path d="M63.4605 408.691C64.1768 403.187 64.9133 397.614 64.4109 392.051C63.9647 387.111 62.5359 382.287 59.6269 378.331C58.09 376.242 56.211 374.446 54.0748 373.024C53.5196 372.654 53.0086 373.583 53.5614 373.951C57.2646 376.431 60.1129 380.055 61.699 384.307C63.4706 389.059 63.7551 394.241 63.4498 399.289C63.2652 402.343 62.8739 405.376 62.4796 408.405C62.4478 408.541 62.4667 408.685 62.5325 408.807C62.5983 408.929 62.7062 409.021 62.8348 409.065C62.8998 409.083 62.9675 409.088 63.0341 409.079C63.1007 409.069 63.165 409.047 63.2231 409.012C63.2812 408.977 63.3321 408.931 63.3729 408.876C63.4136 408.821 63.4434 408.758 63.4605 408.691Z" fill="#F2F2F2"/>
<path d="M65.4849 411.854C62.0372 405.42 58.0382 398.269 50.8926 395.983C48.9084 395.35 46.8235 395.123 44.7549 395.315C44.1032 395.374 44.2659 396.433 44.9164 396.374C48.3909 396.073 51.8575 397.04 54.7113 399.107C57.4731 401.09 59.6234 403.847 61.4435 406.77C62.5583 408.56 63.5569 410.427 64.5557 412.291C64.8749 412.887 65.8078 412.457 65.4849 411.854Z" fill="#F2F2F2"/>
<path d="M67.0364 411.76L63.5552 411.842L84.5454 296.149L88.0267 296.825L82.5456 326.838H100.204L94.7233 296.825L98.2043 296.149L119.019 411.842L115.714 411.76L104.77 351.839H77.9797L67.0364 411.76ZM103.959 347.394L101.016 331.283H81.7339L78.7914 347.394H103.959Z" fill="#FAFAFF"/>
<path d="M219.043 274.568V236.574C219.043 235.446 217.353 234.529 215.274 234.529C213.196 234.529 211.505 235.446 211.505 236.574V274.568C211.505 275.696 213.196 276.614 215.274 276.614C217.353 276.614 219.043 275.696 219.043 274.568Z" fill="#FAFAFF"/>
<path d="M228.063 274.568V236.574C228.063 235.446 226.372 234.529 224.294 234.529C222.215 234.529 220.524 235.446 220.524 236.574V274.568C220.524 275.696 222.215 276.614 224.294 276.614C226.372 276.614 228.063 275.696 228.063 274.568Z" fill="#FAFAFF"/>
<path d="M237.083 274.568V236.574C237.083 235.446 235.392 234.529 233.313 234.529C231.235 234.529 229.544 235.446 229.544 236.574V274.568C229.544 275.696 231.235 276.614 233.313 276.614C235.392 276.614 237.083 275.696 237.083 274.568Z" fill="#FAFAFF"/>
<path d="M161.202 246.628C161.219 246.512 161.259 246.402 161.32 246.303C161.381 246.205 161.461 246.121 161.556 246.056L189.973 226.7C189.545 226.516 189.187 226.192 188.953 225.779C188.67 225.268 188.593 224.662 188.741 224.093C188.888 223.524 189.248 223.039 189.742 222.743L192.073 221.354C192.568 221.061 193.156 220.982 193.707 221.134C194.258 221.287 194.729 221.658 195.016 222.167C195.171 222.447 195.264 222.759 195.289 223.08L215.802 209.108C216.49 207.387 217.535 205.841 218.862 204.579C220.189 203.316 221.767 202.368 223.486 201.799V195.638H231.025V201.799C233.526 202.624 235.708 204.248 237.257 206.436C238.806 208.624 239.64 211.263 239.641 213.972V215.639H232.102C232.102 216.965 231.591 218.237 230.682 219.175C229.773 220.113 228.541 220.639 227.255 220.639C225.97 220.639 224.737 220.113 223.829 219.175C222.92 218.237 222.409 216.965 222.409 215.639H214.87V213.972C214.871 213.173 214.944 212.376 215.088 211.591L163.195 246.937L184.751 273.978C184.918 273.977 185.085 273.975 185.253 273.975C186.973 273.975 188.64 274.017 190.228 274.09C190.132 273.815 190.09 273.523 190.105 273.232C190.136 272.644 190.391 272.093 190.816 271.698C191.24 271.304 191.798 271.099 192.368 271.128L195.056 271.273C195.626 271.305 196.161 271.569 196.543 272.006C196.925 272.444 197.123 273.02 197.095 273.608C197.075 273.955 196.975 274.293 196.804 274.592C201.558 275.113 204.639 275.832 204.639 276.198C204.639 276.797 196.366 276.226 186.011 276.199C185.964 276.338 185.882 276.461 185.773 276.556C185.664 276.652 185.532 276.715 185.391 276.741C185.251 276.766 185.106 276.753 184.972 276.701C184.838 276.65 184.72 276.563 184.63 276.449L184.43 276.199C174.106 276.229 165.868 276.795 165.868 276.198C165.868 275.634 173.192 274.232 182.683 274.007L161.377 247.281C161.305 247.191 161.252 247.086 161.222 246.973C161.192 246.861 161.185 246.743 161.202 246.628Z" fill="#CCCCCC"/>
<path d="M160.222 411.995H226.29C227.625 411.993 228.905 411.443 229.849 410.464C230.793 409.486 231.324 408.16 231.325 406.776V294.429C231.327 293.193 231.801 292.008 232.645 291.134C233.488 290.26 234.632 289.768 235.825 289.767H390.365C391.558 289.768 392.702 290.26 393.546 291.134C394.389 292.008 394.864 293.193 394.865 294.429V406.776C394.867 408.16 395.398 409.486 396.342 410.464C397.286 411.443 398.566 411.993 399.901 411.995H402.162C403.497 411.993 404.777 411.443 405.721 410.464C406.665 409.486 407.196 408.16 407.198 406.776V288.378C407.194 285.063 405.922 281.886 403.66 279.542C401.398 277.199 398.332 275.881 395.133 275.877H167.25C164.051 275.881 160.985 277.199 158.723 279.542C156.461 281.886 155.189 285.063 155.186 288.378V406.776C155.187 408.16 155.718 409.486 156.662 410.464C157.606 411.443 158.887 411.993 160.222 411.995Z" fill="#FAFAFF"/>
<path d="M155.636 305.088H231.563V308.422H155.636V305.088Z" fill="white"/>
<path d="M155.636 350.09H231.563V353.424H155.636V350.09Z" fill="white"/>
<path d="M294.414 275.371L296.596 274.423L298.093 263.137H318.028L319.65 274.377L321.603 275.384C321.696 275.433 321.771 275.512 321.815 275.61C321.859 275.707 321.87 275.817 321.846 275.922C321.822 276.027 321.765 276.12 321.683 276.187C321.601 276.254 321.5 276.291 321.395 276.291H294.593C294.486 276.291 294.383 276.252 294.3 276.182C294.217 276.112 294.16 276.015 294.139 275.907C294.118 275.799 294.134 275.686 294.184 275.589C294.234 275.491 294.315 275.414 294.414 275.371Z" fill="#FAFAFF"/>
<path d="M162.367 202.006C161.508 201.878 160.632 201.946 159.801 202.206C158.97 202.465 158.205 202.909 157.558 203.507C156.912 204.104 156.4 204.841 156.06 205.664C155.719 206.488 155.557 207.379 155.586 208.274L135.897 216.093L144.817 222.669L162.147 214.235C163.602 214.085 164.952 213.39 165.942 212.282C166.933 211.173 167.495 209.729 167.522 208.221C167.549 206.714 167.039 205.248 166.089 204.103C165.139 202.957 163.814 202.211 162.367 202.006Z" fill="#9E616A"/>
<path d="M87.6044 198.167L84.2733 204.416C85.0782 208.379 87.1587 211.945 90.1765 214.533C95.2765 218.971 121.943 235.499 121.943 235.499L155.608 218.062L149.718 209.988L123.288 219.126C113.484 209.574 101.652 202.517 88.7367 198.518L87.6044 198.167Z" fill="#FAFAFF"/>
<path d="M93.7984 301.564C79.2882 301.564 67.5253 297.609 67.5253 292.731C67.5253 287.853 79.2882 283.898 93.7984 283.898C108.309 283.898 120.072 287.853 120.072 292.731C120.072 297.609 108.309 301.564 93.7984 301.564Z" fill="#FAFAFF"/>
<path d="M152.74 404.275L159.717 402.285L155.598 373.574L145.301 376.511L152.74 404.275Z" fill="#9E616A"/>
<path d="M152.83 411.76L175.326 405.344L175.247 405.05C174.605 402.654 173.067 400.62 170.971 399.394C168.875 398.168 166.393 397.851 164.071 398.513L164.07 398.514L150.331 402.432L152.83 411.76Z" fill="#2F2E41"/>
<path d="M172.968 404.368L179.589 401.351L171.462 373.566L161.69 378.018L172.968 404.368Z" fill="#9E616A"/>
<path d="M174.113 411.76L195.463 402.033L195.344 401.754C194.371 399.48 192.562 397.698 190.316 396.8C188.069 395.902 185.569 395.962 183.365 396.966L183.364 396.966L170.324 402.907L174.113 411.76Z" fill="#2F2E41"/>
<path d="M73.351 271.136C73.351 271.136 69.8415 282.355 91.3749 296.543L119.108 325.055L147.923 396.173L165.031 388.259L161.676 379.019L159.424 372.819L158.272 369.646L157.038 366.246L138.723 315.806L123.338 288.014L122.892 272.934L119.108 262.303L91.6536 252.252L73.351 271.136Z" fill="#2F2E41"/>
<path d="M87.3517 271.692C87.3517 271.692 83.8422 282.911 105.376 297.099L133.108 325.61L161.924 396.728L179.032 388.815L175.676 379.575L173.425 373.374L172.273 370.202L171.038 366.801L152.723 316.362L147.572 307.056C140.777 294.78 132.519 283.429 122.992 273.269L117.942 267.883L117.404 259.549L105.654 252.808L87.3517 271.692Z" fill="#2F2E41"/>
<path d="M103.942 216.769L95.3259 197.879L80.2905 195.763C80.2905 195.763 68.55 211.196 71.6324 232.881C72.7883 241.013 73.7303 249.109 73.7864 256.215C73.8013 258.106 72.198 258.951 72.1709 260.66C72.1443 262.339 75.2097 265.075 74.3249 266.216C73.0596 267.789 72.3061 269.733 72.1709 271.772C73.2379 274.392 105.533 260.197 119.108 262.303L103.942 216.769Z" fill="#FAFAFF"/>
<path d="M82.5864 186.253C78.7486 179.592 80.8712 170.982 87.3273 167.023C93.7834 163.063 102.128 165.253 105.966 171.914C109.804 178.575 107.681 187.185 101.225 191.145C94.7691 195.104 86.4242 192.914 82.5864 186.253Z" fill="#9E616A"/>
<path d="M85.5817 174.046C85.6078 174.415 85.6438 174.904 85.6852 175.457C85.7275 176.972 85.3138 178.462 84.5012 179.724C83.7404 181.052 84.6483 189.069 84.6483 189.069C62.372 173.048 79.9736 156.953 86.8588 158.384C86.7151 156.346 92.3305 157.153 92.3305 157.153C94.4701 153.716 99.1595 158.279 99.1595 158.279L98.2546 156.708C101.895 157.664 105.494 169.273 105.494 169.273C104.259 174.281 85.4379 172.008 85.5817 174.046Z" fill="#2F2E41"/>
<path d="M171.998 224.2C164.343 213.695 158.292 202.042 154.054 189.648C153.809 188.906 153.826 188.099 154.103 187.37C154.381 186.641 154.9 186.036 155.569 185.665L181.763 171.184C182.187 170.948 182.658 170.814 183.139 170.794C183.62 170.774 184.099 170.867 184.54 171.067C184.989 171.269 185.388 171.573 185.706 171.957C186.024 172.342 186.253 172.796 186.375 173.285C189.424 185.229 195.155 196.264 203.104 205.499C203.431 205.875 203.671 206.323 203.805 206.809C203.939 207.294 203.964 207.806 203.878 208.303C203.795 208.792 203.605 209.256 203.322 209.658C203.039 210.06 202.671 210.391 202.246 210.624L176.051 225.105C175.381 225.474 174.606 225.585 173.864 225.419C173.122 225.254 172.461 224.822 171.998 224.2Z" fill="#CCCCCC"/>
<path d="M173.786 222.814C173.927 222.995 174.125 223.121 174.345 223.168C174.566 223.215 174.796 223.181 174.995 223.072L201.19 208.59C201.317 208.522 201.427 208.424 201.512 208.304C201.596 208.184 201.652 208.046 201.676 207.9C201.704 207.746 201.696 207.588 201.654 207.437C201.612 207.287 201.537 207.148 201.434 207.033C193.25 197.526 187.35 186.166 184.212 173.87C184.175 173.718 184.106 173.577 184.007 173.457C183.909 173.338 183.786 173.244 183.647 173.182C183.516 173.121 183.373 173.093 183.229 173.099C183.085 173.105 182.945 173.145 182.819 173.217L156.625 187.698C156.426 187.809 156.272 187.988 156.187 188.203C156.103 188.419 156.094 188.659 156.163 188.88C160.325 201.053 166.268 212.497 173.786 222.814Z" fill="white"/>
<path d="M182.95 186.976L164.883 197.902C163.085 198.989 161.457 196.109 163.252 195.023L181.32 184.097C183.117 183.01 184.745 185.89 182.95 186.976Z" fill="#6C63FF"/>
<path d="M186.181 193.087L168.114 204.013C166.316 205.1 164.688 202.22 166.483 201.135L184.55 190.209C186.348 189.122 187.976 192.002 186.181 193.087Z" fill="#6C63FF"/>
<path d="M189.951 199.754L171.883 210.68C170.086 211.767 168.458 208.887 170.252 207.802L188.32 196.876C190.118 195.789 191.745 198.669 189.951 199.754Z" fill="#6C63FF"/>
<path d="M193.72 205.31L175.653 216.236C173.855 217.323 172.227 214.443 174.022 213.358L192.089 202.431C193.887 201.344 195.515 204.224 193.72 205.31Z" fill="#6C63FF"/>
<path d="M111.356 269.579L104.573 285.316C104.409 285.693 104.339 286.106 104.369 286.517C104.399 286.929 104.528 287.326 104.745 287.674C104.999 288.089 105.367 288.417 105.802 288.616C106.237 288.816 106.72 288.878 107.189 288.796C107.349 288.77 107.506 288.727 107.657 288.667C108.256 288.428 108.74 287.954 109.001 287.348L115.784 271.611C115.913 271.311 115.984 270.987 115.992 270.659C116.001 270.331 115.946 270.004 115.832 269.698C115.601 269.079 115.142 268.58 114.555 268.31C113.967 268.041 113.3 268.023 112.701 268.261C112.101 268.499 111.617 268.973 111.356 269.579Z" fill="#6C63FF"/>
<path d="M105.12 284.047L103.761 287.223L103.066 291.726C103.02 292.022 103.07 292.326 103.209 292.59C103.348 292.854 103.567 293.063 103.833 293.185C104.099 293.307 104.396 293.335 104.679 293.265C104.962 293.194 105.214 293.029 105.397 292.795L108.209 289.186L109.548 286.079L105.12 284.047Z" fill="#3F3D56"/>
<path d="M117.291 265.2L116.319 271.501C116.288 271.707 116.21 271.903 116.093 272.074C115.976 272.244 115.823 272.385 115.645 272.484C115.467 272.584 115.27 272.64 115.067 272.648C114.865 272.656 114.664 272.616 114.479 272.532L113.515 272.089L111.655 276.405C111.597 276.539 111.489 276.644 111.356 276.697C111.223 276.749 111.075 276.745 110.945 276.686C110.814 276.626 110.712 276.515 110.661 276.378C110.61 276.24 110.613 276.088 110.671 275.953L112.531 271.638L111.567 271.196C111.248 271.049 110.998 270.778 110.872 270.441C110.746 270.105 110.754 269.73 110.895 269.4C110.942 269.291 111.003 269.188 111.076 269.095L114.96 264.13C115.142 263.897 115.395 263.732 115.678 263.662C115.961 263.591 116.258 263.619 116.524 263.741C116.79 263.863 117.009 264.072 117.148 264.336C117.287 264.6 117.337 264.904 117.291 265.2Z" fill="#3F3D56"/>
<path d="M114.478 276.572C114.325 275.691 113.986 274.855 113.486 274.123C112.986 273.391 112.337 272.781 111.584 272.336C110.831 271.891 109.992 271.621 109.127 271.547C108.262 271.472 107.392 271.595 106.578 271.905L93.1875 255.083L89.945 265.888L103.158 280.206C103.753 281.583 104.817 282.687 106.149 283.308C107.48 283.929 108.987 284.025 110.382 283.577C111.777 283.129 112.965 282.169 113.72 280.878C114.475 279.587 114.744 278.055 114.478 276.572Z" fill="#9E616A"/>
<path d="M97.6204 275.479L103.518 266.69L86.7714 243.653L95.3983 224.58L94.7701 201.892L87.6413 200.534L87.5528 200.579C84.087 202.638 81.4079 205.857 79.9605 209.704C78.1821 214.291 74.2121 231.511 72.0039 241.366C71.5701 243.276 71.6175 245.269 72.1417 247.155C72.6658 249.04 73.6492 250.756 74.9981 252.139L97.6204 275.479Z" fill="#FAFAFF"/>
<path d="M263.67 233.011C263.719 233.438 263.735 233.868 263.719 234.298L293.913 256.962L302.208 253.175L309.385 265.344L295.332 273.522C294.196 274.182 292.884 274.445 291.592 274.271C290.299 274.096 289.096 273.494 288.164 272.554L257.774 241.929C256.219 242.337 254.58 242.246 253.075 241.669C251.571 241.093 250.272 240.057 249.352 238.7C248.432 237.343 247.934 235.73 247.924 234.074C247.915 232.418 248.394 230.798 249.299 229.43C250.203 228.062 251.49 227.011 252.987 226.416C254.485 225.821 256.123 225.71 257.683 226.099C259.243 226.488 260.652 227.357 261.721 228.592C262.791 229.827 263.47 231.368 263.67 233.011Z" fill="#FFB6B6"/>
<path d="M294.89 257.791L303.695 272.929C303.946 273.36 304.283 273.73 304.685 274.014C305.086 274.298 305.543 274.489 306.022 274.575C306.502 274.661 306.994 274.639 307.465 274.51C307.936 274.382 308.374 274.151 308.75 273.832L321.934 262.661C324.062 261.325 325.591 259.174 326.184 256.678C326.777 254.182 326.387 251.545 325.099 249.346C323.811 247.146 321.731 245.563 319.313 244.944C316.896 244.324 314.339 244.719 312.203 246.041L296.496 252.763C296.046 252.956 295.642 253.246 295.311 253.615C294.98 253.983 294.73 254.421 294.577 254.898C294.425 255.375 294.374 255.88 294.428 256.379C294.482 256.879 294.639 257.36 294.89 257.791Z" fill="#6C63FF"/>
<path d="M332.618 389.373H315.358V359.863H332.618V389.373Z" fill="#FAFAFF"/>
<path d="M316.223 375.478L318.438 378.846L277.014 407.847L274.799 404.479L316.223 375.478Z" fill="#FAFAFF"/>
<path d="M331.753 375.478L373.177 404.479L370.961 407.847L329.538 378.846L331.753 375.478Z" fill="#FAFAFF"/>
<path d="M275.907 411.76C272.911 411.76 270.482 409.254 270.482 406.163C270.482 403.072 272.911 400.566 275.907 400.566C278.903 400.566 281.331 403.072 281.331 406.163C281.331 409.254 278.903 411.76 275.907 411.76Z" fill="#FAFAFF"/>
<path d="M324.234 411.76C321.239 411.76 318.81 409.254 318.81 406.163C318.81 403.072 321.239 400.566 324.234 400.566C327.23 400.566 329.659 403.072 329.659 406.163C329.659 409.254 327.23 411.76 324.234 411.76Z" fill="#FAFAFF"/>
<path d="M372.069 411.76C369.073 411.76 366.644 409.254 366.644 406.163C366.644 403.072 369.073 400.566 372.069 400.566C375.065 400.566 377.493 403.072 377.493 406.163C377.493 409.254 375.065 411.76 372.069 411.76Z" fill="#FAFAFF"/>
<path d="M322.262 377.162H326.207V406.163H322.262V377.162Z" fill="#FAFAFF"/>
<path d="M327.686 373.092H320.289V333.914H327.686V373.092Z" fill="#FAFAFF"/>
<path d="M345.193 340.02V330.862C345.191 329.175 344.541 327.559 343.385 326.367C342.23 325.174 340.663 324.504 339.029 324.502H305.988C304.354 324.504 302.787 325.174 301.632 326.367C300.476 327.559 299.826 329.175 299.824 330.862V340.02C299.826 341.706 300.476 343.323 301.632 344.515C302.787 345.707 304.354 346.378 305.988 346.38H339.029C340.663 346.378 342.23 345.707 343.385 344.515C344.541 343.323 345.191 341.706 345.193 340.02Z" fill="#3F3D56"/>
<path d="M285.518 402.621L276.381 402.621L272.033 378.169L285.519 378.17L285.518 402.621Z" fill="#FFB8B8"/>
<path d="M287.848 411.76L258.385 411.759V411.374C258.385 409.821 258.682 408.282 259.258 406.847C259.834 405.411 260.679 404.107 261.744 403.008C262.809 401.909 264.073 401.038 265.464 400.443C266.855 399.849 268.347 399.542 269.853 399.542H269.854L287.849 399.543L287.848 411.76Z" fill="#2F2E41"/>
<path d="M271.851 387.458L253.634 345.312C252.114 341.759 251.945 337.746 253.163 334.072C254.381 330.397 256.896 327.331 260.207 325.484L299.72 303.623L317.75 302.041L334.382 300.481L334.502 300.69C334.655 300.958 338.231 307.331 335.814 314.318C333.981 319.619 329.211 323.759 321.639 326.624C303.964 333.31 283.546 339.025 275.587 341.172C275.236 341.264 274.907 341.433 274.623 341.666C274.339 341.899 274.106 342.192 273.939 342.525C273.772 342.854 273.673 343.215 273.648 343.585C273.623 343.956 273.672 344.327 273.793 344.677L290.717 383.907C290.894 384.405 290.957 384.937 290.903 385.464C290.849 385.991 290.678 386.498 290.403 386.946C290.129 387.394 289.759 387.771 289.321 388.048C288.883 388.325 288.389 388.495 287.878 388.544L275.232 389.494C275.125 389.504 275.018 389.509 274.911 389.509C274.264 389.509 273.63 389.315 273.087 388.951C272.544 388.587 272.115 388.069 271.851 387.458Z" fill="#2F2E41"/>
<path d="M291.481 402.621L282.344 402.621L277.996 378.169L291.482 378.17L291.481 402.621Z" fill="#FFB8B8"/>
<path d="M293.811 411.76L264.348 411.759V411.374C264.348 409.821 264.644 408.282 265.22 406.847C265.797 405.411 266.641 404.107 267.706 403.008C268.771 401.909 270.035 401.038 271.427 400.443C272.818 399.849 274.309 399.542 275.815 399.542H275.816L293.812 399.543L293.811 411.76Z" fill="#2F2E41"/>
<path d="M278.559 389.765L260.342 347.619C258.821 344.066 258.653 340.053 259.871 336.379C261.089 332.704 263.604 329.638 266.915 327.791L306.428 305.93L324.458 304.348L337.485 303.182L337.483 302.998C337.637 303.265 341.213 309.638 338.795 316.625C336.962 321.926 335.919 326.066 328.347 328.931C310.672 335.617 290.254 341.332 282.295 343.479C281.944 343.572 281.615 343.74 281.331 343.973C281.047 344.207 280.814 344.499 280.647 344.832C280.48 345.161 280.381 345.522 280.356 345.892C280.331 346.263 280.38 346.634 280.501 346.984L297.425 386.214C297.602 386.712 297.665 387.245 297.611 387.771C297.557 388.298 297.386 388.805 297.111 389.253C296.837 389.701 296.467 390.078 296.029 390.355C295.591 390.632 295.097 390.802 294.586 390.851L281.94 391.801C281.833 391.811 281.726 391.816 281.619 391.816C280.972 391.816 280.338 391.622 279.795 391.258C279.252 390.894 278.823 390.376 278.559 389.765Z" fill="#2F2E41"/>
<path d="M289.986 208.229C287.647 198.08 293.724 187.897 303.56 185.484C313.396 183.071 323.266 189.341 325.605 199.489C327.944 209.637 321.867 219.82 312.031 222.234C302.195 224.647 292.325 218.377 289.986 208.229Z" fill="#FFB8B8"/>
<path d="M244.694 276.425C237.039 265.919 230.988 254.267 226.75 241.872C226.504 241.131 226.522 240.324 226.799 239.595C227.077 238.865 227.596 238.261 228.264 237.89L254.459 223.408C254.883 223.172 255.353 223.039 255.835 223.019C256.316 222.999 256.795 223.092 257.236 223.292C257.685 223.493 258.084 223.798 258.402 224.182C258.72 224.566 258.948 225.02 259.071 225.51C262.119 237.453 267.85 248.489 275.8 257.723C276.127 258.099 276.367 258.547 276.501 259.033C276.635 259.519 276.66 260.03 276.574 260.528C276.491 261.017 276.301 261.48 276.018 261.883C275.735 262.285 275.367 262.615 274.942 262.848L248.747 277.33C248.077 277.699 247.302 277.81 246.56 277.644C245.818 277.478 245.156 277.046 244.694 276.425Z" fill="#CCCCCC"/>
<path d="M246.482 275.039C246.623 275.22 246.821 275.345 247.041 275.392C247.262 275.439 247.492 275.406 247.691 275.297L273.886 260.815C274.013 260.746 274.123 260.649 274.207 260.529C274.292 260.409 274.348 260.271 274.372 260.125C274.399 259.971 274.392 259.812 274.35 259.662C274.308 259.511 274.232 259.373 274.13 259.258C265.946 249.751 260.046 238.39 256.908 226.095C256.871 225.943 256.801 225.802 256.703 225.682C256.605 225.563 256.482 225.469 256.343 225.407C256.211 225.346 256.068 225.318 255.925 225.324C255.781 225.33 255.641 225.37 255.515 225.442L229.321 239.923C229.122 240.034 228.967 240.212 228.883 240.428C228.799 240.644 228.79 240.883 228.859 241.105C233.021 253.278 238.964 264.722 246.482 275.039Z" fill="white"/>
<path d="M255.646 239.2L237.579 250.127C235.781 251.214 234.153 248.334 235.948 247.248L254.015 236.322C255.813 235.235 257.441 238.115 255.646 239.2Z" fill="#CCCCCC"/>
<path d="M258.877 245.312L240.81 256.238C239.012 257.325 237.384 254.445 239.179 253.36L257.246 242.433C259.044 241.346 260.672 244.226 258.877 245.312Z" fill="#CCCCCC"/>
<path d="M261.416 251.399L244.984 261.464C243.349 262.465 241.601 260.395 243.233 259.395L259.664 249.331C261.299 248.329 263.048 250.4 261.416 251.399Z" fill="#CCCCCC"/>
<path d="M266.416 257.535L248.348 268.461C246.551 269.548 244.923 266.668 246.718 265.583L264.785 254.656C266.583 253.569 268.211 256.449 266.416 257.535Z" fill="#CCCCCC"/>
<path d="M297.24 305.153L333.466 304.929L333.476 304.663C334.167 285.91 331.946 268.923 326.685 252.731C326.611 252.125 326.53 251.477 326.452 250.841C325.553 243.597 324.84 237.845 318.163 235.703C318.719 234.94 319.047 234.025 319.106 233.073C319.148 232.439 319.068 231.804 318.869 231.203C318.671 230.602 318.359 230.048 317.951 229.572C317.561 229.114 317.086 228.739 316.554 228.472C316.022 228.204 315.444 228.048 314.853 228.013L301.959 227.56C301.281 227.555 300.622 227.786 300.087 228.215C299.105 228.967 298.415 230.056 298.141 231.285C297.866 232.515 298.025 233.805 298.588 234.925C298.74 235.237 298.798 235.379 298.82 235.441C298.362 237.919 297.002 240.862 295.562 243.977C293.502 248.437 291.166 253.491 290.565 258.899C290.241 261.819 290.376 264.773 290.964 267.649C291.233 269.198 291.295 270.778 291.148 272.345C291.031 274.669 290.919 276.862 292.192 278.984C292.517 279.559 292.888 280.172 293.323 280.851L295.114 285.267L297.24 305.153Z" fill="#6C63FF"/>
<path d="M351.604 331.397V255.025C351.601 252.537 350.641 250.151 348.936 248.391C347.23 246.631 344.918 245.641 342.506 245.639H339.989C337.577 245.641 335.265 246.631 333.559 248.391C331.854 250.151 330.894 252.537 330.892 255.025V331.397C330.894 333.885 331.854 336.271 333.559 338.031C335.265 339.79 337.577 340.78 339.989 340.783H342.506C344.918 340.78 347.23 339.79 348.936 338.031C350.641 336.271 351.601 333.885 351.604 331.397Z" fill="#3F3D56"/>
<path d="M254.458 262.648C254.718 262.984 254.952 263.34 255.158 263.714L292.399 266.52L297.506 258.785L309.827 265.212L302.075 279.811C301.449 280.991 300.469 281.929 299.282 282.485C298.095 283.04 296.765 283.184 295.492 282.894L254.013 273.433C252.9 274.626 251.462 275.442 249.889 275.771C248.316 276.101 246.683 275.929 245.208 275.277C243.732 274.626 242.484 273.527 241.629 272.125C240.773 270.724 240.352 269.087 240.42 267.433C240.488 265.779 241.043 264.185 242.011 262.864C242.979 261.543 244.313 260.557 245.837 260.037C247.361 259.518 249.002 259.489 250.542 259.956C252.082 260.422 253.448 261.361 254.458 262.648Z" fill="#FFB6B6"/>
<path d="M293.652 266.691L308.876 274.754C309.309 274.983 309.785 275.113 310.271 275.136C310.757 275.158 311.243 275.072 311.694 274.884C312.145 274.695 312.552 274.409 312.886 274.043C313.221 273.678 313.475 273.243 313.631 272.767L319.113 256.099C320.237 253.811 320.437 251.156 319.67 248.716C318.902 246.276 317.229 244.249 315.016 243.078C321.765 246.652 307.71 236.501 302.346 247.283L292.444 261.547C292.161 261.955 291.966 262.422 291.873 262.915C291.78 263.408 291.791 263.916 291.906 264.404C292.021 264.893 292.236 265.35 292.537 265.744C292.838 266.139 293.219 266.462 293.652 266.691Z" fill="#6C63FF"/>
<path d="M18.5123 412.871H453.23C453.4 412.871 453.562 412.801 453.682 412.677C453.802 412.553 453.869 412.385 453.869 412.21C453.869 412.035 453.802 411.867 453.682 411.743C453.562 411.619 453.4 411.549 453.23 411.548H18.5123C18.3422 411.548 18.1791 411.618 18.0589 411.742C17.9387 411.866 17.8711 412.034 17.8711 412.21C17.8711 412.385 17.9387 412.553 18.0589 412.677C18.1791 412.801 18.3422 412.871 18.5123 412.871Z" fill="#FAFAFF"/>
<path d="M292.171 196.409C292.784 194.901 292.517 195.686 293.136 194.185C292.937 194.925 292.998 195.7 293.312 196.409H310.27V187.743C305.302 186.012 300.445 184.539 297.511 187.743C294.896 187.743 292.389 188.656 290.54 190.281C288.692 191.906 287.653 194.11 287.653 196.409H292.171Z" fill="#1E1E1E"/>
<path d="M300.458 234.268C300.472 234.044 300.493 233.813 300.521 233.59C300.765 231.951 301.162 230.347 301.705 228.804C302.23 227.121 302.762 225.431 303.295 223.748C302.609 226.803 302.818 230.029 303.89 232.936C306.965 230.208 305.025 223.971 309.046 223.971C318.713 223.971 328.66 215.046 328.66 204.032C328.66 193.025 324.513 184.794 314.846 184.794C305.172 184.794 297.635 185.855 297.446 196.861C309.355 200.051 298.209 233.151 300.458 234.268Z" fill="#1E1E1E"/>
<path d="M321.369 197.787C326.208 197.787 330.131 193.617 330.131 188.474C330.131 183.331 326.208 179.162 321.369 179.162C316.53 179.162 312.607 183.331 312.607 188.474C312.607 193.617 316.53 197.787 321.369 197.787Z" fill="#1E1E1E"/>
<path d="M318.195 183.281L319.494 182.101C321.124 186.724 325.742 189.339 328.274 193.48C332.427 200.277 330.09 209.358 326.735 216.633C323.375 223.907 318.996 231.245 319.39 239.343C319.652 244.746 322.06 249.769 324.783 254.343C327.347 258.664 330.549 262.956 334.528 265.641C335.076 264.324 335.721 263.055 336.456 261.846C337.358 260.26 338.261 258.667 339.167 257.087C337.829 260.027 337.43 263.35 338.031 266.553C338.09 266.886 338.165 267.223 338.247 267.556C339.052 267.849 339.879 268.07 340.719 268.215C342.857 268.567 345.043 268.398 347.112 267.721C347.617 266.62 348.18 265.55 348.798 264.517C349.7 262.93 350.603 261.337 351.509 259.757C350.56 261.826 354.132 265.914 354.156 268.215C355.502 264.517 355.772 262.801 356.849 258.634C359.578 251.913 358.548 243.11 353.967 237.647C350.834 233.91 348.798 232.799 345.91 228.447C344.194 223.354 343.127 220.55 342.579 215.02C342.619 207.022 344.705 202.317 347.112 194.742C349.427 187.438 345.95 177.184 339.167 174.463C332.383 171.748 320.993 176.171 318.195 183.281Z" fill="#1E1E1E"/>
<path d="M330.656 256.466C331.066 255.784 331.282 254.986 331.275 254.175C331.269 253.365 331.041 252.579 330.622 251.922C329.057 249.622 326.573 246.318 324.122 245.772C320.04 244.863 323.091 244.069 324.896 239.872C326.7 235.675 325.727 232.803 329.818 233.667C333.91 234.531 337.278 237.878 339.287 241.881C341.388 239.086 345.62 239.317 348.064 241.648C350.509 243.98 356.986 249.227 357.103 252.82C356.034 256.551 356.675 259.765 354.695 266.294C351.863 275.632 356.765 280.416 361.345 285.821C365.471 290.689 366.808 294.993 366.995 299.785C365.516 311.071 363.259 309.635 362.537 315.141C363.041 324.768 364.588 316.064 357.103 318.175C352.964 319.342 345.002 323.935 341.771 317.545C337.834 309.761 333.726 308.64 332.4 301.234C331.075 293.828 331.268 286.094 333.336 278.828C334.609 274.353 336.784 271.18 334.39 266.294C333.646 265.397 333.651 265.603 332.446 264.261C331.904 263.993 331.301 261.617 330.925 261.112C330.549 260.606 329.837 261.099 329.703 260.458C329.57 259.818 329.571 259.15 329.706 258.505C329.842 257.86 330.109 257.254 330.487 256.735C330.548 256.647 330.605 256.557 330.656 256.466Z" fill="#1E1E1E"/>
<path d="M344.448 291.735C344.986 291.157 345.359 290.422 345.517 289.628C345.675 288.834 345.611 288.017 345.333 287.284C344.267 284.698 344.791 281.75 342.505 280.689C338.696 278.921 339.556 277.982 342.169 274.267C344.782 270.551 344.41 267.532 348.237 269.257C352.064 270.983 354.682 274.981 355.838 279.328C357.387 283.099 356.814 283.626 358.733 286.433C360.653 289.239 362.091 293.325 361.479 296.864C360.867 300.403 368.874 297.465 365.464 307.267C360 315.574 363.699 319.623 369.461 325.322C375.223 331.021 384.709 332.242 391.476 327.353C389.587 335.615 385.261 343.082 379.175 348.587C373.089 354.093 365.585 357.325 357.839 357.779C353.555 358.029 349.148 357.373 345.549 355.019C339.738 351.219 336.903 343.422 337.103 335.894C337.304 328.366 343.344 323.595 341.89 316.173C340.082 306.944 347.913 306.263 346.113 302.15C345.567 301.113 345.53 301.316 344.623 299.743C344.147 299.365 344.037 296.911 343.772 296.336C343.506 295.761 342.71 296.09 342.709 295.435C342.708 294.78 342.844 294.127 343.107 293.525C343.37 292.923 343.753 292.388 344.228 291.962C344.306 291.889 344.379 291.813 344.448 291.735Z" fill="#1E1E1E"/>
</g>
<defs>
<clipPath id="clip0_66_258">
<rect width="436" height="257" fill="white" transform="matrix(-1 0 0 1 453.871 155.871)"/>
</clipPath>
</defs>
</svg>