<svg width="685" height="402" viewBox="0 0 685 402" fill="none" xmlns="http://www.w3.org/2000/svg">
<ellipse cx="91.8317" cy="81.6454" rx="91.8317" ry="81.6454" fill="url(#paint0_linear_38_9)" fill-opacity="0.5"/>
<ellipse cx="592.832" cy="319.645" rx="91.8317" ry="81.6454" transform="rotate(-180 592.832 319.645)" fill="url(#paint1_linear_38_9)" fill-opacity="0.5"/>
<ellipse cx="342.931" cy="197.867" rx="269.145" ry="168.877" fill="url(#paint2_linear_38_9)" fill-opacity="0.4"/>
<g clip-path="url(#clip0_38_9)">
<path d="M484.251 166.868V95.8698C484.251 94.8559 483.887 93.8835 483.238 93.1666C482.59 92.4497 481.71 92.0469 480.793 92.0469C479.876 92.0469 478.996 92.4497 478.348 93.1666C477.699 93.8835 477.335 94.8559 477.335 95.8698V166.868C477.335 167.882 477.699 168.854 478.348 169.571C478.996 170.288 479.876 170.691 480.793 170.691C481.71 170.691 482.59 170.288 483.238 169.571C483.887 168.854 484.251 167.882 484.251 166.868Z" fill="#FAFAFF"/>
<path d="M492.526 166.868V95.8698C492.526 94.8559 492.162 93.8835 491.513 93.1666C490.865 92.4497 489.985 92.0469 489.068 92.0469C488.151 92.0469 487.271 92.4497 486.623 93.1666C485.974 93.8835 485.61 94.8559 485.61 95.8698V166.868C485.61 167.882 485.974 168.854 486.623 169.571C487.271 170.288 488.151 170.691 489.068 170.691C489.985 170.691 490.865 170.288 491.513 169.571C492.162 168.854 492.526 167.882 492.526 166.868Z" fill="#FAFAFF"/>
<path d="M500.801 166.868V95.8698C500.801 94.8559 500.437 93.8835 499.788 93.1666C499.14 92.4497 498.26 92.0469 497.343 92.0469C496.426 92.0469 495.546 92.4497 494.898 93.1666C494.249 93.8835 493.885 94.8559 493.885 95.8698V166.868C493.885 167.882 494.249 168.854 494.898 169.571C495.546 170.288 496.426 170.691 497.343 170.691C498.26 170.691 499.14 170.288 499.788 169.571C500.437 168.854 500.801 167.882 500.801 166.868Z" fill="#FAFAFF"/>
<path d="M188.378 280.266C189.77 280.267 191.153 280.002 192.463 279.482L192.666 279.402L192.572 278.907C194.92 273.664 194.099 266.481 190.471 260.575C187.173 255.206 182.157 251.302 177.732 247.858C177.171 247.421 176.504 247.18 175.817 247.166C175.131 247.151 174.456 247.364 173.88 247.777C173.304 248.19 172.852 248.784 172.584 249.482C172.315 250.181 172.242 250.952 172.373 251.697L173.956 260.672C175.098 267.147 176.456 273.275 180.485 277.097C182.698 279.144 185.492 280.265 188.378 280.266Z" fill="#FAFAFF"/>
<path d="M178.015 295.775C179.547 295.765 181.053 295.332 182.396 294.515C183.739 293.698 184.876 292.523 185.703 291.097L185.818 290.9L185.545 290.633C184.837 286.363 181.507 282.559 177.036 280.923C172.972 279.436 168.487 279.679 164.532 279.893C164.009 279.921 163.506 280.12 163.085 280.465C162.665 280.809 162.347 281.284 162.171 281.829C161.995 282.374 161.97 282.964 162.098 283.525C162.226 284.086 162.501 284.592 162.89 284.98L167.34 289.42C170.574 292.647 173.799 295.56 177.689 295.768C177.798 295.773 177.906 295.775 178.015 295.775Z" fill="#FAFAFF"/>
<path d="M191.825 300.522C192.482 295.112 193.158 289.633 192.697 284.166C192.288 279.31 190.977 274.567 188.308 270.678C186.898 268.625 185.174 266.859 183.214 265.462C182.705 265.099 182.236 266.011 182.743 266.373C186.141 268.811 188.754 272.374 190.209 276.553C191.834 281.225 192.095 286.318 191.815 291.281C191.646 294.282 191.287 297.264 190.925 300.242C190.896 300.375 190.913 300.516 190.974 300.636C191.034 300.756 191.133 300.847 191.251 300.89C191.311 300.908 191.373 300.912 191.434 300.904C191.495 300.895 191.554 300.872 191.607 300.838C191.661 300.804 191.707 300.758 191.745 300.704C191.782 300.65 191.809 300.588 191.825 300.522Z" fill="#FAFAFF"/>
<path d="M193.682 303.632C190.519 297.307 186.85 290.277 180.295 288.031C178.475 287.408 176.562 287.185 174.664 287.373C174.066 287.432 174.215 288.473 174.812 288.415C178 288.119 181.18 289.07 183.798 291.102C186.332 293.051 188.305 295.761 189.975 298.634C190.997 300.394 191.914 302.229 192.83 304.061C193.123 304.647 193.979 304.224 193.682 303.632Z" fill="#FAFAFF"/>
<path d="M195.106 303.539L191.912 303.62L211.169 189.893L214.363 190.559L209.334 220.061H225.535L220.507 190.559L223.7 189.893L242.797 303.62L239.764 303.539L229.724 244.637H205.145L195.106 303.539ZM228.979 240.268L226.28 224.43H208.59L205.89 240.268H228.979Z" fill="#FAFAFF"/>
<path d="M334.562 168.68V131.332C334.562 130.223 333.01 129.321 331.104 129.321C329.197 129.321 327.645 130.223 327.645 131.332V168.68C327.645 169.788 329.197 170.691 331.104 170.691C333.01 170.691 334.562 169.788 334.562 168.68Z" fill="#FAFAFF"/>
<path d="M342.837 168.68V131.332C342.837 130.223 341.285 129.321 339.378 129.321C337.472 129.321 335.92 130.223 335.92 131.332V168.68C335.92 169.788 337.472 170.691 339.378 170.691C341.285 170.691 342.837 169.788 342.837 168.68Z" fill="#FAFAFF"/>
<path d="M351.112 168.68V131.332C351.112 130.223 349.56 129.321 347.653 129.321C345.747 129.321 344.195 130.223 344.195 131.332V168.68C344.195 169.788 345.747 170.691 347.653 170.691C349.56 170.691 351.112 169.788 351.112 168.68Z" fill="#FAFAFF"/>
<path d="M281.496 141.214C281.512 141.1 281.549 140.992 281.605 140.895C281.66 140.798 281.734 140.716 281.821 140.652L307.892 121.626C307.499 121.444 307.17 121.126 306.956 120.719C306.696 120.217 306.625 119.621 306.761 119.062C306.897 118.503 307.227 118.026 307.679 117.735L309.819 116.37C310.273 116.082 310.812 116.004 311.317 116.154C311.823 116.304 312.255 116.669 312.518 117.169C312.66 117.445 312.746 117.751 312.768 118.067L331.587 104.332C332.22 102.64 333.178 101.121 334.395 99.8797C335.613 98.6388 337.061 97.7063 338.637 97.1471V91.0913H345.554V97.1471C347.848 97.9583 349.851 99.5545 351.271 101.705C352.692 103.856 353.458 106.451 353.458 109.114V110.752H346.542C346.542 112.056 346.073 113.306 345.24 114.228C344.406 115.15 343.275 115.668 342.096 115.668C340.916 115.668 339.785 115.15 338.952 114.228C338.118 113.306 337.649 112.056 337.649 110.752H330.733V109.114C330.734 108.328 330.801 107.545 330.933 106.773L283.324 141.519L303.101 168.099C303.254 168.098 303.407 168.097 303.562 168.097C305.139 168.097 306.668 168.138 308.125 168.209C308.037 167.939 307.999 167.653 308.012 167.366C308.041 166.788 308.275 166.246 308.665 165.859C309.054 165.471 309.565 165.27 310.088 165.298L312.555 165.44C313.078 165.472 313.568 165.731 313.919 166.161C314.269 166.591 314.452 167.157 314.426 167.736C314.408 168.077 314.316 168.409 314.158 168.703C318.52 169.216 321.347 169.922 321.347 170.281C321.347 170.87 313.757 170.31 304.257 170.283C304.214 170.419 304.138 170.541 304.038 170.634C303.938 170.728 303.817 170.79 303.688 170.815C303.559 170.84 303.427 170.827 303.304 170.777C303.181 170.726 303.072 170.641 302.989 170.529L302.806 170.283C293.335 170.312 285.777 170.869 285.777 170.281C285.777 169.727 292.496 168.349 301.203 168.128L281.657 141.856C281.591 141.768 281.542 141.665 281.515 141.554C281.487 141.443 281.481 141.327 281.496 141.214Z" fill="#CCCCCC"/>
<path d="M280.597 303.77H341.21C342.434 303.768 343.609 303.227 344.475 302.266C345.341 301.304 345.828 300 345.83 298.64V188.203C345.831 186.987 346.266 185.822 347.04 184.963C347.814 184.104 348.863 183.621 349.958 183.62H491.738C492.832 183.621 493.882 184.104 494.655 184.963C495.429 185.822 495.865 186.987 495.866 188.203V298.64C495.867 300 496.355 301.304 497.221 302.266C498.087 303.228 499.261 303.768 500.486 303.77H502.56C503.785 303.768 504.959 303.228 505.825 302.266C506.692 301.304 507.179 300 507.18 298.64V182.254C507.177 178.996 506.01 175.873 503.935 173.569C501.86 171.266 499.046 169.97 496.112 169.966H287.045C284.11 169.97 281.297 171.266 279.222 173.569C277.147 175.873 275.98 178.996 275.976 182.254V298.64C275.978 300 276.465 301.304 277.331 302.266C278.198 303.228 279.372 303.769 280.597 303.77Z" fill="#FAFAFF"/>
<path d="M276.39 198.681H346.048V201.957H276.39V198.681Z" fill="white"/>
<path d="M276.39 242.918H346.048V246.195H276.39V242.918Z" fill="white"/>
<path d="M403.709 169.469L405.711 168.537L407.084 157.442H425.373L426.862 168.492L428.653 169.482C428.738 169.529 428.807 169.607 428.848 169.703C428.888 169.799 428.898 169.907 428.876 170.01C428.854 170.114 428.801 170.205 428.726 170.271C428.651 170.337 428.558 170.373 428.462 170.373H403.874C403.775 170.373 403.68 170.335 403.604 170.266C403.528 170.198 403.476 170.102 403.457 169.995C403.437 169.889 403.452 169.779 403.498 169.683C403.544 169.587 403.618 169.511 403.709 169.469Z" fill="#FAFAFF"/>
<path d="M282.565 97.3506C281.777 97.2251 280.973 97.2921 280.211 97.547C279.449 97.8018 278.746 98.2383 278.153 98.8257C277.56 99.4131 277.091 100.137 276.778 100.947C276.466 101.756 276.318 102.632 276.344 103.512L258.28 111.198L266.464 117.663L282.364 109.372C283.698 109.225 284.936 108.541 285.845 107.452C286.754 106.362 287.269 104.942 287.294 103.46C287.319 101.978 286.851 100.538 285.98 99.4119C285.108 98.2859 283.893 97.5525 282.565 97.3506Z" fill="#9E616A"/>
<path d="M213.975 93.5774L210.919 99.7197C211.658 103.615 213.567 107.121 216.335 109.665C221.014 114.028 245.479 130.275 245.479 130.275L276.364 113.134L270.961 105.197L246.713 114.18C237.718 104.79 226.863 97.8534 215.014 93.922L213.975 93.5774Z" fill="#FAFAFF"/>
<path d="M219.658 195.216C206.346 195.216 195.554 191.329 195.554 186.534C195.554 181.738 206.346 177.851 219.658 177.851C232.97 177.851 243.762 181.738 243.762 186.534C243.762 191.329 232.97 195.216 219.658 195.216Z" fill="#FAFAFF"/>
<path d="M273.733 296.182L280.133 294.226L276.355 266.002L266.908 268.89L273.733 296.182Z" fill="#9E616A"/>
<path d="M273.815 303.539L294.454 297.233L294.381 296.944C293.793 294.589 292.381 292.589 290.459 291.384C288.536 290.179 286.259 289.867 284.128 290.518L284.128 290.518L271.523 294.37L273.815 303.539Z" fill="#2F2E41"/>
<path d="M292.29 296.273L298.365 293.308L290.909 265.994L281.944 270.37L292.29 296.273Z" fill="#9E616A"/>
<path d="M293.341 303.539L312.929 293.978L312.819 293.704C311.926 291.468 310.267 289.717 308.206 288.834C306.145 287.951 303.851 288.01 301.829 288.997L301.828 288.997L289.865 294.837L293.341 303.539Z" fill="#2F2E41"/>
<path d="M200.899 165.306C200.899 165.306 197.679 176.334 217.435 190.281L242.877 218.308L269.314 288.217L285.009 280.438L281.931 271.355L279.865 265.26L278.808 262.142L277.676 258.799L260.873 209.217L246.759 181.897L246.349 167.073L242.877 156.623L217.69 146.743L200.899 165.306Z" fill="#2F2E41"/>
<path d="M213.744 165.852C213.744 165.852 210.524 176.88 230.279 190.827L255.722 218.854L282.159 288.763L297.854 280.985L294.775 271.901L292.71 265.806L291.653 262.688L290.52 259.345L273.718 209.763L268.992 200.616C262.757 188.548 255.182 177.39 246.441 167.402L241.808 162.108L241.314 153.916L230.535 147.289L213.744 165.852Z" fill="#2F2E41"/>
<path d="M228.964 111.863L221.059 93.2942L207.265 91.2141C207.265 91.2141 196.494 106.384 199.322 127.701C200.383 135.695 201.247 143.653 201.298 150.639C201.312 152.498 199.841 153.328 199.816 155.008C199.792 156.659 202.604 159.348 201.792 160.469C200.632 162.015 199.94 163.926 199.816 165.931C200.795 168.506 230.424 154.552 242.878 156.623L228.964 111.863Z" fill="#FAFAFF"/>
<path d="M209.372 81.8659C205.851 75.318 207.798 66.8546 213.721 62.9623C219.644 59.0699 227.3 61.2227 230.821 67.7705C234.342 74.3184 232.395 82.7818 226.472 86.6741C220.549 90.5665 212.893 88.4137 209.372 81.8659Z" fill="#9E616A"/>
<path d="M212.12 69.8658C212.144 70.2288 212.177 70.7094 212.215 71.2532C212.253 72.7418 211.874 74.2071 211.128 75.4475C210.43 76.7524 211.263 84.634 211.263 84.634C190.826 68.8853 206.975 53.0634 213.291 54.4698C213.16 52.4671 218.311 53.2605 218.311 53.2605C220.274 49.8811 224.576 54.3669 224.576 54.3669L223.746 52.823C227.086 53.7623 230.388 65.1742 230.388 65.1742C229.255 70.0974 211.988 67.8631 212.12 69.8658Z" fill="#2F2E41"/>
<path d="M291.401 119.168C284.378 108.841 278.826 97.3864 274.939 85.2026C274.713 84.4738 274.729 83.6803 274.984 82.9633C275.238 82.2464 275.714 81.6525 276.328 81.2874L300.36 67.0522C300.749 66.8201 301.18 66.6892 301.622 66.6694C302.063 66.6496 302.503 66.7414 302.907 66.9378C303.319 67.1358 303.685 67.435 303.977 67.8128C304.268 68.1906 304.478 68.637 304.59 69.1179C307.388 80.8586 312.645 91.7065 319.938 100.784C320.239 101.154 320.459 101.594 320.582 102.072C320.705 102.549 320.728 103.052 320.648 103.541C320.572 104.022 320.398 104.477 320.139 104.873C319.879 105.268 319.541 105.593 319.151 105.822L295.119 120.057C294.505 120.42 293.793 120.529 293.113 120.366C292.432 120.203 291.825 119.778 291.401 119.168Z" fill="#CCCCCC"/>
<path d="M293.041 117.805C293.17 117.984 293.352 118.106 293.554 118.153C293.757 118.199 293.968 118.166 294.15 118.058L318.182 103.823C318.299 103.756 318.4 103.659 318.478 103.542C318.555 103.424 318.607 103.288 318.629 103.145C318.654 102.993 318.647 102.838 318.608 102.69C318.57 102.542 318.5 102.406 318.406 102.292C310.898 92.9472 305.486 81.7796 302.606 69.693C302.573 69.5437 302.509 69.4049 302.419 69.2875C302.329 69.1701 302.215 69.0774 302.088 69.0165C301.967 68.9569 301.836 68.9291 301.704 68.9351C301.573 68.9412 301.444 68.9809 301.328 69.0512L277.297 83.2863C277.115 83.395 276.973 83.5707 276.895 83.7828C276.818 83.995 276.81 84.2303 276.873 84.4482C280.691 96.414 286.144 107.663 293.041 117.805Z" fill="white"/>
<path d="M301.449 82.5759L284.873 93.3164C283.224 94.385 281.73 91.5538 283.377 90.4869L299.953 79.7464C301.602 78.6778 303.095 81.509 301.449 82.5759Z" fill="#6C63FF"/>
<path d="M304.413 88.5835L287.837 99.3239C286.188 100.393 284.695 97.5614 286.341 96.4945L302.917 85.754C304.566 84.6854 306.059 87.5166 304.413 88.5835Z" fill="#6C63FF"/>
<path d="M307.871 95.1372L291.295 105.878C289.646 106.946 288.153 104.115 289.799 103.048L306.375 92.3077C308.024 91.2391 309.518 94.0703 307.871 95.1372Z" fill="#6C63FF"/>
<path d="M311.329 100.598L294.754 111.339C293.104 112.407 291.611 109.576 293.258 108.509L309.833 97.7689C311.482 96.7003 312.976 99.5315 311.329 100.598Z" fill="#6C63FF"/>
<path d="M235.766 163.775L229.543 179.245C229.393 179.615 229.329 180.021 229.356 180.425C229.384 180.83 229.502 181.221 229.7 181.562C229.934 181.97 230.272 182.293 230.671 182.489C231.07 182.685 231.513 182.746 231.943 182.665C232.09 182.64 232.234 182.598 232.372 182.538C232.922 182.304 233.366 181.837 233.605 181.242L239.828 165.772C239.947 165.477 240.012 165.159 240.019 164.837C240.027 164.514 239.977 164.193 239.872 163.892C239.661 163.283 239.239 162.793 238.7 162.528C238.162 162.263 237.55 162.246 236.999 162.48C236.449 162.713 236.005 163.179 235.766 163.775Z" fill="#6C63FF"/>
<path d="M230.045 177.997L228.798 181.119L228.161 185.546C228.118 185.837 228.165 186.136 228.292 186.395C228.419 186.654 228.62 186.86 228.864 186.98C229.108 187.1 229.381 187.127 229.641 187.058C229.9 186.989 230.131 186.827 230.299 186.597L232.879 183.048L234.107 179.994L230.045 177.997Z" fill="#3F3D56"/>
<path d="M241.211 159.471L240.32 165.664C240.29 165.867 240.219 166.06 240.112 166.227C240.005 166.395 239.864 166.533 239.701 166.631C239.538 166.729 239.356 166.784 239.171 166.792C238.985 166.8 238.8 166.761 238.631 166.678L237.747 166.243L236.04 170.485C235.987 170.617 235.888 170.72 235.766 170.772C235.644 170.824 235.508 170.82 235.389 170.761C235.269 170.702 235.175 170.593 235.128 170.458C235.081 170.323 235.085 170.173 235.138 170.041L236.844 165.799L235.96 165.364C235.667 165.22 235.437 164.953 235.322 164.623C235.206 164.292 235.214 163.924 235.343 163.599C235.386 163.492 235.442 163.391 235.509 163.299L239.072 158.419C239.24 158.19 239.471 158.028 239.731 157.958C239.99 157.889 240.263 157.917 240.507 158.037C240.751 158.157 240.952 158.362 241.08 158.622C241.207 158.881 241.253 159.179 241.211 159.471Z" fill="#3F3D56"/>
<path d="M238.63 170.65C238.489 169.783 238.179 168.961 237.72 168.241C237.262 167.522 236.666 166.922 235.975 166.485C235.284 166.047 234.515 165.783 233.721 165.709C232.928 165.636 232.129 165.756 231.382 166.061L219.098 149.525L216.123 160.147L228.244 174.221C228.791 175.575 229.767 176.66 230.989 177.27C232.21 177.881 233.592 177.975 234.872 177.535C236.152 177.095 237.242 176.15 237.934 174.881C238.627 173.612 238.874 172.107 238.63 170.65Z" fill="#9E616A"/>
<path d="M223.164 169.575L228.575 160.936L213.211 138.29L221.126 119.541L220.55 97.2392L214.009 95.9036L213.928 95.9486C210.748 97.9719 208.291 101.137 206.963 104.918C205.331 109.427 201.689 126.354 199.663 136.042C199.265 137.92 199.309 139.879 199.789 141.732C200.27 143.586 201.173 145.272 202.41 146.631L223.164 169.575Z" fill="#FAFAFF"/>
<path d="M375.503 127.829C375.548 128.249 375.563 128.671 375.548 129.094L403.25 151.373L410.86 147.65L417.444 159.612L404.551 167.651C403.509 168.3 402.305 168.558 401.12 168.387C399.934 168.215 398.831 167.623 397.975 166.7L370.095 136.595C368.667 136.996 367.164 136.907 365.784 136.34C364.403 135.773 363.212 134.755 362.368 133.421C361.524 132.087 361.067 130.501 361.058 128.873C361.049 127.246 361.489 125.654 362.319 124.309C363.149 122.964 364.329 121.931 365.703 121.346C367.077 120.761 368.58 120.652 370.011 121.034C371.442 121.416 372.735 122.271 373.716 123.485C374.697 124.699 375.32 126.214 375.503 127.829Z" fill="#FFB6B6"/>
<path d="M404.146 152.187L412.224 167.069C412.454 167.492 412.763 167.856 413.132 168.135C413.5 168.414 413.919 168.602 414.359 168.686C414.799 168.771 415.25 168.749 415.682 168.623C416.114 168.497 416.516 168.269 416.862 167.956L428.957 156.975C430.909 155.662 432.311 153.547 432.856 151.094C433.4 148.64 433.042 146.048 431.861 143.886C430.679 141.724 428.77 140.168 426.552 139.559C424.335 138.95 421.989 139.338 420.03 140.638L405.619 147.246C405.206 147.435 404.836 147.72 404.532 148.082C404.228 148.444 403.999 148.875 403.859 149.344C403.719 149.812 403.672 150.309 403.722 150.8C403.771 151.291 403.916 151.764 404.146 152.187Z" fill="#6C63FF"/>
<path d="M438.758 281.533H422.924V252.525H438.758V281.533Z" fill="#FAFAFF"/>
<path d="M423.717 267.874L425.75 271.185L387.746 299.693L385.714 296.382L423.717 267.874Z" fill="#FAFAFF"/>
<path d="M437.965 267.874L475.968 296.382L473.936 299.693L435.933 271.185L437.965 267.874Z" fill="#FAFAFF"/>
<path d="M386.73 303.539C383.981 303.539 381.753 301.076 381.753 298.038C381.753 294.999 383.981 292.536 386.73 292.536C389.478 292.536 391.707 294.999 391.707 298.038C391.707 301.076 389.478 303.539 386.73 303.539Z" fill="#FAFAFF"/>
<path d="M431.067 303.539C428.319 303.539 426.091 301.076 426.091 298.038C426.091 294.999 428.319 292.536 431.067 292.536C433.816 292.536 436.044 294.999 436.044 298.038C436.044 301.076 433.816 303.539 431.067 303.539Z" fill="#FAFAFF"/>
<path d="M474.952 303.539C472.203 303.539 469.975 301.076 469.975 298.038C469.975 294.999 472.203 292.536 474.952 292.536C477.7 292.536 479.929 294.999 479.929 298.038C479.929 301.076 477.7 303.539 474.952 303.539Z" fill="#FAFAFF"/>
<path d="M429.258 269.529H432.877V298.038H429.258V269.529Z" fill="#FAFAFF"/>
<path d="M434.234 265.528H427.448V227.017H434.234V265.528Z" fill="#FAFAFF"/>
<path d="M450.295 233.019V224.016C450.293 222.359 449.697 220.77 448.637 219.598C447.577 218.426 446.139 217.766 444.64 217.764H414.328C412.828 217.766 411.391 218.426 410.331 219.598C409.27 220.77 408.674 222.359 408.672 224.016V233.019C408.674 234.676 409.27 236.265 410.331 237.438C411.391 238.61 412.828 239.269 414.328 239.271H444.64C446.139 239.269 447.577 238.61 448.637 237.438C449.697 236.265 450.293 234.676 450.295 233.019Z" fill="#3F3D56"/>
<path d="M395.547 294.556L387.165 294.556L383.176 270.52L395.548 270.52L395.547 294.556Z" fill="#FFB8B8"/>
<path d="M397.685 303.539L370.655 303.538V303.16C370.655 301.633 370.927 300.121 371.456 298.709C371.984 297.298 372.759 296.016 373.736 294.936C374.713 293.856 375.873 292.999 377.149 292.415C378.426 291.83 379.794 291.53 381.176 291.53H381.177L397.686 291.53L397.685 303.539Z" fill="#2F2E41"/>
<path d="M383.009 279.651L366.297 238.221C364.901 234.729 364.747 230.784 365.864 227.172C366.982 223.56 369.289 220.546 372.327 218.73L408.577 197.241L425.118 195.685L440.377 194.152L440.487 194.358C440.628 194.621 443.908 200.885 441.691 207.754C440.009 212.964 435.633 217.034 428.686 219.85C412.47 226.423 393.738 232.041 386.437 234.151C386.114 234.242 385.813 234.408 385.552 234.637C385.292 234.866 385.078 235.154 384.925 235.481C384.772 235.804 384.681 236.159 384.658 236.523C384.635 236.888 384.68 237.253 384.791 237.597L400.317 276.16C400.479 276.649 400.538 277.173 400.488 277.691C400.438 278.209 400.281 278.707 400.03 279.147C399.778 279.588 399.438 279.958 399.036 280.231C398.635 280.503 398.182 280.67 397.713 280.718L386.111 281.651C386.012 281.662 385.914 281.667 385.817 281.667C385.223 281.667 384.641 281.476 384.143 281.118C383.645 280.761 383.251 280.251 383.009 279.651Z" fill="#2F2E41"/>
<path d="M401.018 294.556L392.635 294.556L388.646 270.52L401.019 270.52L401.018 294.556Z" fill="#FFB8B8"/>
<path d="M403.156 303.539L376.125 303.538V303.16C376.125 301.633 376.397 300.121 376.926 298.709C377.455 297.298 378.23 296.016 379.207 294.936C380.184 293.856 381.343 292.999 382.62 292.415C383.896 291.83 385.264 291.53 386.646 291.53H386.647L403.156 291.53L403.156 303.539Z" fill="#2F2E41"/>
<path d="M389.163 281.919L372.451 240.488C371.055 236.996 370.901 233.051 372.019 229.439C373.136 225.827 375.443 222.813 378.481 220.997L414.731 199.508L431.272 197.953L443.224 196.807L443.222 196.625C443.363 196.888 446.644 203.153 444.426 210.022C442.744 215.232 441.787 219.302 434.84 222.118C418.624 228.691 399.892 234.309 392.591 236.419C392.268 236.51 391.967 236.675 391.706 236.905C391.446 237.134 391.232 237.422 391.079 237.749C390.926 238.072 390.835 238.427 390.812 238.791C390.789 239.155 390.834 239.521 390.945 239.864L406.471 278.428C406.634 278.917 406.692 279.44 406.642 279.958C406.592 280.476 406.435 280.975 406.184 281.415C405.932 281.856 405.592 282.226 405.19 282.498C404.789 282.771 404.336 282.937 403.867 282.985L392.265 283.919C392.167 283.929 392.068 283.935 391.971 283.935C391.377 283.934 390.795 283.744 390.297 283.386C389.799 283.028 389.405 282.519 389.163 281.919Z" fill="#2F2E41"/>
<path d="M399.647 103.468C397.501 93.4919 403.076 83.4819 412.1 81.1095C421.124 78.7372 430.178 84.9009 432.324 94.8765C434.47 104.852 428.895 114.862 419.871 117.234C410.847 119.607 401.793 113.443 399.647 103.468Z" fill="#FFB8B8"/>
<path d="M358.094 170.504C351.072 160.178 345.52 148.723 341.632 136.54C341.407 135.811 341.423 135.017 341.677 134.3C341.932 133.583 342.408 132.989 343.021 132.624L367.053 118.389C367.442 118.157 367.874 118.026 368.315 118.006C368.757 117.986 369.196 118.078 369.601 118.275C370.013 118.473 370.379 118.772 370.67 119.15C370.962 119.528 371.172 119.974 371.284 120.455C374.081 132.196 379.339 143.043 386.632 152.121C386.932 152.49 387.152 152.931 387.275 153.408C387.398 153.886 387.421 154.389 387.342 154.877C387.266 155.359 387.091 155.814 386.832 156.21C386.573 156.605 386.235 156.93 385.845 157.159L361.813 171.394C361.198 171.757 360.487 171.866 359.806 171.703C359.125 171.54 358.519 171.115 358.094 170.504Z" fill="#CCCCCC"/>
<path d="M359.734 169.142C359.864 169.321 360.045 169.444 360.248 169.49C360.45 169.536 360.661 169.503 360.844 169.396L384.876 155.16C384.992 155.093 385.093 154.997 385.171 154.879C385.248 154.761 385.3 154.625 385.322 154.482C385.347 154.331 385.34 154.175 385.301 154.027C385.263 153.879 385.194 153.743 385.1 153.629C377.592 144.284 372.179 133.117 369.299 121.03C369.266 120.881 369.202 120.742 369.112 120.625C369.022 120.507 368.909 120.415 368.781 120.354C368.661 120.294 368.529 120.266 368.398 120.272C368.266 120.278 368.137 120.318 368.022 120.388L343.99 134.623C343.808 134.732 343.666 134.908 343.589 135.12C343.511 135.332 343.504 135.567 343.566 135.785C347.385 147.751 352.837 159 359.734 169.142Z" fill="white"/>
<path d="M368.142 133.913L351.567 144.654C349.917 145.722 348.424 142.891 350.07 141.824L366.646 131.084C368.295 130.015 369.789 132.846 368.142 133.913Z" fill="#CCCCCC"/>
<path d="M371.106 139.92L354.531 150.661C352.881 151.729 351.388 148.898 353.035 147.831L369.61 137.091C371.259 136.022 372.753 138.853 371.106 139.92Z" fill="#CCCCCC"/>
<path d="M373.435 145.905L358.36 155.798C356.861 156.782 355.256 154.747 356.754 153.764L371.829 143.871C373.328 142.887 374.933 144.922 373.435 145.905Z" fill="#CCCCCC"/>
<path d="M378.023 151.936L361.447 162.676C359.798 163.745 358.304 160.913 359.951 159.847L376.527 149.106C378.176 148.037 379.669 150.869 378.023 151.936Z" fill="#CCCCCC"/>
<path d="M406.302 198.744L439.537 198.525L439.546 198.263C440.18 179.829 438.142 163.13 433.316 147.213C433.247 146.617 433.174 145.981 433.101 145.356C432.277 138.234 431.622 132.581 425.497 130.475C426.007 129.725 426.308 128.826 426.362 127.889C426.401 127.267 426.327 126.642 426.145 126.051C425.963 125.461 425.677 124.916 425.303 124.449C424.945 123.998 424.509 123.63 424.021 123.367C423.533 123.103 423.003 122.95 422.461 122.916L410.631 122.471C410.009 122.466 409.404 122.693 408.914 123.114C408.013 123.854 407.38 124.924 407.128 126.132C406.876 127.341 407.021 128.609 407.538 129.71C407.678 130.017 407.731 130.156 407.751 130.217C407.331 132.653 406.083 135.546 404.763 138.608C402.872 142.992 400.729 147.961 400.178 153.277C399.88 156.147 400.004 159.051 400.544 161.878C400.791 163.401 400.848 164.954 400.713 166.494C400.605 168.778 400.503 170.934 401.671 173.02C401.968 173.585 402.309 174.188 402.708 174.856L404.351 179.196L406.302 198.744Z" fill="#6C63FF"/>
<path d="M456.177 224.542V149.469C456.174 147.022 455.294 144.677 453.729 142.947C452.164 141.217 450.043 140.244 447.83 140.242H445.521C443.309 140.244 441.187 141.217 439.622 142.947C438.058 144.677 437.177 147.022 437.175 149.469V224.542C437.177 226.988 438.058 229.334 439.622 231.063C441.187 232.793 443.309 233.766 445.521 233.769H447.83C450.043 233.766 452.164 232.793 453.729 231.063C455.294 229.334 456.174 226.988 456.177 224.542Z" fill="#3F3D56"/>
<path d="M367.052 156.962C367.291 157.292 367.506 157.642 367.694 158.01L401.86 160.768L406.546 153.165L417.85 159.483L410.738 173.834C410.163 174.993 409.264 175.915 408.175 176.461C407.086 177.008 405.866 177.149 404.698 176.863L366.644 167.563C365.623 168.736 364.304 169.538 362.861 169.862C361.418 170.186 359.92 170.017 358.566 169.377C357.212 168.736 356.067 167.656 355.282 166.278C354.497 164.901 354.111 163.292 354.173 161.666C354.236 160.039 354.745 158.473 355.633 157.174C356.521 155.875 357.745 154.906 359.143 154.396C360.541 153.885 362.047 153.857 363.46 154.315C364.872 154.774 366.126 155.697 367.052 156.962Z" fill="#FFB6B6"/>
<path d="M403.01 160.937L416.976 168.862C417.374 169.087 417.811 169.215 418.257 169.238C418.703 169.26 419.148 169.175 419.562 168.99C419.976 168.805 420.349 168.523 420.656 168.164C420.963 167.805 421.196 167.377 421.339 166.909L426.369 150.524C427.4 148.275 427.584 145.666 426.879 143.267C426.175 140.869 424.64 138.876 422.61 137.725C428.802 141.238 415.907 131.259 410.986 141.858L401.902 155.88C401.642 156.281 401.463 156.74 401.378 157.225C401.293 157.709 401.303 158.209 401.408 158.689C401.513 159.168 401.711 159.618 401.987 160.006C402.264 160.394 402.612 160.711 403.01 160.937Z" fill="#6C63FF"/>
<path d="M150.588 304.632H549.412C549.567 304.631 549.717 304.562 549.827 304.44C549.937 304.319 549.998 304.154 549.998 303.981C549.998 303.809 549.937 303.644 549.827 303.522C549.717 303.4 549.567 303.332 549.412 303.331H150.588C150.432 303.331 150.283 303.4 150.172 303.522C150.062 303.643 150 303.809 150 303.981C150 304.154 150.062 304.319 150.172 304.441C150.283 304.563 150.432 304.632 150.588 304.632Z" fill="#FAFAFF"/>
<path d="M413.197 102.689C413.589 101.785 413.725 100.773 413.587 99.7828C413.449 98.793 413.045 97.872 412.426 97.1404C410.144 94.596 406.577 96.2931 403.492 96.044C398.354 95.629 394.854 88.855 396.388 83.4175C397.922 77.98 403.375 74.6059 408.517 74.9637C413.659 75.3214 418.314 78.8378 421.413 83.3879C423.535 79.6136 428.746 79.1734 432.11 81.6064C435.473 84.0394 437.213 88.4857 437.933 92.8574C438.652 97.2292 438.535 101.722 439.14 106.115C440.608 116.763 446.825 126.79 455.82 130.929C464.815 135.068 476.326 132.408 482.211 123.823C483.355 134.227 481.348 144.756 476.503 153.763C471.658 162.771 464.248 169.749 455.434 173.606C450.559 175.739 445.176 176.871 440.045 175.686C431.76 173.772 425.316 165.939 422.508 157.113C419.699 148.287 420.036 138.602 421.4 129.368C422.24 123.68 423.17 116.944 419.418 112.943C418.364 111.974 417.125 111.284 415.794 110.924C415.088 110.689 414.44 110.28 413.899 109.727C413.358 109.173 412.938 108.491 412.672 107.731C412.406 106.971 412.3 106.155 412.362 105.343C412.425 104.531 412.654 103.746 413.033 103.047C413.094 102.928 413.149 102.808 413.197 102.689Z" fill="#2F2E41"/>
</g>
<defs>
<linearGradient id="paint0_linear_38_9" x1="109.417" y1="199.387" x2="106.77" y2="-19.7761" gradientUnits="userSpaceOnUse">
<stop stop-color="#6C63FF"/>
<stop offset="1" stop-color="#6C63FF" stop-opacity="0"/>
</linearGradient>
<linearGradient id="paint1_linear_38_9" x1="610.417" y1="437.387" x2="607.77" y2="218.224" gradientUnits="userSpaceOnUse">
<stop stop-color="#6C63FF"/>
<stop offset="1" stop-color="#6C63FF" stop-opacity="0"/>
</linearGradient>
<linearGradient id="paint2_linear_38_9" x1="598.399" y1="152.748" x2="84.9134" y2="317.965" gradientUnits="userSpaceOnUse">
<stop stop-color="#F461A6"/>
<stop offset="1" stop-color="#F461A6" stop-opacity="0"/>
</linearGradient>
<clipPath id="clip0_38_9">
<rect width="400" height="252.632" fill="white" transform="matrix(-1 0 0 1 550 52)"/>
</clipPath>
</defs>
</svg>
