<svg width="407" height="445" viewBox="0 0 407 445" fill="none" xmlns="http://www.w3.org/2000/svg">
<circle cx="196.5" cy="248.5" r="196.5" fill="#6C63FF" fill-opacity="0.1"/>
<circle cx="192" cy="253" r="175" fill="#6C63FF" fill-opacity="0.1"/>
<circle cx="188" cy="257" r="155" fill="#6C63FF" fill-opacity="0.1"/>
<circle cx="187" cy="266" r="135" fill="#6C63FF" fill-opacity="0.1"/>
<circle cx="185" cy="274" r="115" fill="#6C63FF" fill-opacity="0.1"/>
<circle cx="182" cy="283" r="100" fill="#6C63FF" fill-opacity="0.1"/>
<circle cx="183" cy="294" r="90" fill="#6C63FF" fill-opacity="0.1"/>
<circle cx="179" cy="305" r="80" fill="#6C63FF" fill-opacity="0.1"/>
<g clip-path="url(#clip0_51_228)">
<path d="M386.068 388.614C386.068 404.315 301.212 417.044 196.534 417.044C91.8562 417.044 7 404.315 7 388.614C7 377.499 49.5351 367.869 111.525 363.198C137.087 361.266 165.97 360.184 196.534 360.184C209.098 360.184 221.375 360.367 233.248 360.716C320.355 363.284 386.068 374.796 386.068 388.614Z" fill="#3F3D56"/>
<path opacity="0.1" d="M172.078 394.422C212.26 394.422 244.834 390.453 244.834 385.557C244.834 380.661 212.26 376.692 172.078 376.692C131.896 376.692 99.3214 380.661 99.3214 385.557C99.3214 390.453 131.896 394.422 172.078 394.422Z" fill="black"/>
<path d="M171.772 391.977C209.76 391.977 240.555 359.129 240.555 318.609C240.555 278.089 209.76 245.241 171.772 245.241C133.785 245.241 102.99 278.089 102.99 318.609C102.99 359.129 133.785 391.977 171.772 391.977Z" fill="#3F3D56"/>
<path d="M193.477 362.018H150.679V401.148H193.477V362.018Z" fill="#6C63FF"/>
<path d="M249.42 371.495L246.974 384.946L262.871 387.391L273.265 381.277L272.653 371.495H249.42Z" fill="#575A89"/>
<path d="M169.327 118.987C169.327 118.987 168.104 133.049 165.047 133.66C161.99 134.272 171.772 158.728 171.772 158.728H186.446L198.062 155.671L192.56 142.22C192.56 142.22 185.223 132.437 190.726 124.489C196.228 116.541 169.327 118.987 169.327 118.987Z" fill="#FFB8B8"/>
<path opacity="0.1" d="M169.327 118.987C169.327 118.987 168.104 133.049 165.047 133.66C161.99 134.272 171.772 158.728 171.772 158.728H186.446L198.062 155.671L192.56 142.22C192.56 142.22 185.223 132.437 190.726 124.489C196.228 116.541 169.327 118.987 169.327 118.987Z" fill="black"/>
<path d="M138.757 226.593C138.757 226.593 122.86 257.163 135.7 263.277C148.539 269.391 151.596 268.78 151.596 270.614C151.596 272.448 149.15 271.837 150.373 274.894C151.596 277.951 147.928 290.178 151.596 297.515C155.264 304.852 154.042 310.355 154.042 310.355C154.042 310.355 154.042 310.966 155.264 313.412C156.487 315.857 157.099 317.691 156.487 318.914C155.876 320.137 152.207 328.085 155.876 329.919C159.544 331.754 178.498 332.976 180.332 329.919C182.166 326.862 178.498 325.028 180.332 323.194C182.166 321.36 183.389 320.748 182.166 319.526C180.943 318.303 179.72 303.018 179.72 303.018C179.72 303.018 182.777 285.287 181.555 282.842C180.332 280.396 178.498 277.951 179.72 276.116C180.943 274.282 182.166 274.894 182.777 272.448C183.389 270.002 184.612 264.5 184.612 264.5L191.337 263.888L207.233 266.945C207.233 266.945 224.964 286.51 244.529 292.624C244.529 292.624 250.031 298.127 251.866 298.127C253.7 298.127 253.7 298.127 253.088 299.349C252.477 300.572 250.643 300.572 251.866 301.795C253.088 303.018 254.923 301.184 253.7 303.018C252.477 304.852 251.254 304.852 252.477 306.075C253.7 307.298 251.866 314.023 251.866 314.634C251.866 315.246 246.363 372.717 248.197 373.94C250.031 375.163 275.71 378.831 277.544 373.94C279.379 369.049 276.322 362.935 276.322 362.935C276.322 362.935 285.493 289.567 283.047 284.676C280.601 279.785 272.042 257.774 226.187 243.712C226.187 243.712 213.347 241.267 213.347 239.432C213.347 237.598 212.125 225.982 209.679 225.37C207.233 224.759 193.171 224.147 193.171 224.147L175.441 229.65L150.985 225.37L138.757 226.593Z" fill="#2F2E41"/>
<path d="M160.156 329.308L157.099 340.313C157.099 340.313 154.653 358.044 157.71 362.324C160.111 365.685 164.399 369.801 172.35 370.524C174.578 370.728 176.809 370.166 178.675 368.93C180.54 367.694 181.928 365.858 182.608 363.727C182.699 363.471 182.756 363.205 182.777 362.935C182.777 361.712 180.943 347.039 180.943 347.039L177.886 331.754L177.275 327.474L160.156 329.308Z" fill="#2F2E41"/>
<path d="M249.42 381.888C249.42 381.888 246.363 378.831 245.752 381.888C245.14 384.945 242.695 397.785 246.974 398.396C251.254 399.008 292.218 405.122 296.498 402.676C300.778 400.23 308.726 396.562 303.835 394.728C298.943 392.894 284.881 387.391 284.881 387.391C284.881 387.391 276.933 376.997 275.71 376.386C274.487 375.774 267.762 376.997 264.705 379.443C261.648 381.888 249.42 381.888 249.42 381.888Z" fill="#2F2E41"/>
<path d="M184 131.826C194.468 131.826 202.954 123.34 202.954 112.873C202.954 102.405 194.468 93.9193 184 93.9193C173.533 93.9193 165.047 102.405 165.047 112.873C165.047 123.34 173.533 131.826 184 131.826Z" fill="#FFB8B8"/>
<path d="M182.166 155.671L174.829 147.722L166.697 131.826C166.697 131.826 160.767 129.992 159.544 133.049C158.321 136.106 136.311 145.888 136.311 145.888C136.311 145.888 141.814 197.246 139.368 202.137C136.922 207.028 132.643 226.593 136.311 228.427C139.979 230.261 157.099 228.427 162.601 230.873C168.104 233.318 184 233.318 188.28 230.261C192.56 227.204 193.783 224.759 198.062 226.593C201.706 228.154 210.224 174.77 212.676 158.861C212.882 157.525 212.711 156.158 212.181 154.914C211.65 153.671 210.782 152.6 209.675 151.824C204.189 147.976 194.309 141.345 192.56 142.22C190.114 143.443 182.166 155.671 182.166 155.671Z" fill="#575A89"/>
<path d="M208.456 153.225C209.892 153.584 211.183 154.374 212.157 155.488C213.131 156.602 213.741 157.988 213.904 159.459L218.85 203.971C218.85 203.971 206.622 230.261 200.508 212.531C194.394 194.8 208.456 153.225 208.456 153.225Z" fill="#575A89"/>
<path d="M207.233 208.251L220.684 204.583C220.684 204.583 223.13 221.702 225.575 221.702C228.021 221.702 217.016 231.484 211.513 230.261C206.011 229.039 198.062 224.759 197.451 221.702C196.84 218.645 202.954 205.805 202.954 205.805L207.233 208.251Z" fill="#575A89"/>
<path d="M169.692 121.049C170.981 118.207 170.757 114.892 171.823 111.959C172.393 110.389 173.319 108.972 174.528 107.818C175.737 106.665 177.196 105.807 178.792 105.311C180.387 104.815 182.076 104.694 183.726 104.959C185.375 105.223 186.942 105.865 188.302 106.835C189.673 107.813 191.047 109.186 192.72 108.999C194.521 108.798 196.128 106.788 197.785 107.525C199.621 108.341 199.125 111.632 200.985 112.392C201.964 112.792 203.121 112.176 203.685 111.281C204.179 110.342 204.448 109.3 204.472 108.239C204.728 105.631 204.96 102.872 203.829 100.508C203.354 99.7068 202.939 98.8709 202.589 98.0073C202.391 97.2009 202.312 96.37 202.353 95.5407C202.343 92.4757 202.119 89.2787 200.577 86.6301C198.865 83.691 195.701 81.8116 192.4 80.9916C189.1 80.1715 185.641 80.2973 182.252 80.5842C176.65 81.0585 170.807 82.0751 166.394 85.5579C165.794 85.9962 165.277 86.5387 164.869 87.1595C164.482 87.897 164.208 88.6889 164.057 89.5082C163.103 93.3943 161.672 97.1476 159.797 100.683C158.895 102.182 158.158 103.773 157.599 105.431C157.131 107.115 157.162 109.034 158.142 110.481C158.94 111.66 160.215 112.288 161.217 113.251C162.21 114.206 162.675 116.042 163.774 116.765C164.734 117.396 165.884 116.95 166.864 117.619C168.121 118.478 168.212 120.361 169.692 121.049Z" fill="#2F2E41"/>
<path d="M185.223 164.842L187.057 161.173C187.057 161.173 213.959 169.121 219.461 176.458C219.461 176.458 232.912 167.899 240.249 169.121L247.586 170.344L224.964 190.52L196.228 188.075L185.223 164.842Z" fill="#F2F2F2"/>
<path d="M184 161.173L158.933 196.023L195.005 213.754C195.005 213.754 198.378 215.588 200.971 213.754L224.964 202.748L247.586 170.344L224.964 181.961C224.964 181.961 222.518 177.07 217.627 179.515L184 161.173Z" fill="#6C63FF"/>
<path d="M222.518 222.925L227.41 210.085C227.41 210.085 238.415 196.023 232.301 189.298C226.187 182.572 219.461 208.862 219.461 208.862L222.518 222.925Z" fill="#FFB8B8"/>
<path d="M166.085 220.876L176.758 212.223C176.758 212.223 193.333 205.58 191.418 196.695C189.503 187.81 170.496 207.178 170.496 207.178L166.085 220.876Z" fill="#FFB8B8"/>
<path opacity="0.1" d="M139.674 159.033H139.062C139.062 159.033 129.586 147.722 127.751 163.007C125.917 178.292 119.803 229.039 135.7 230.873C151.596 232.707 162.907 223.23 162.907 223.23C162.907 223.23 174.524 205.5 170.244 205.5C168.173 205.5 162.541 204.57 157.404 204.888C151.925 205.228 147.001 206.772 147.316 205.194C147.928 202.137 156.793 163.313 139.674 159.033Z" fill="black"/>
<path d="M138.757 147.111L136.311 145.888C136.311 145.888 126.529 147.722 124.694 163.007C122.86 178.292 116.746 229.039 132.643 230.873C148.539 232.707 169.938 228.427 169.938 228.427C169.938 228.427 174.218 205.194 169.938 205.194C165.658 205.194 143.648 208.251 144.259 205.194C144.871 202.137 155.876 151.391 138.757 147.111Z" fill="#575A89"/>
<path d="M213.653 215.894L220.395 205.561L224.658 222.619L213.653 227.51V215.894Z" fill="#575A89"/>
<path d="M98.5078 85.0156C107.625 85.0156 115.016 77.6248 115.016 68.5078C115.016 59.3908 107.625 52 98.5078 52C89.3908 52 82 59.3908 82 68.5078C82 77.6248 89.3908 85.0156 98.5078 85.0156Z" fill="#6C63FF"/>
<path d="M108.13 174H69V213.13H108.13V174Z" fill="#6C63FF"/>
<path d="M245.808 36L255.712 53.154L265.615 70.3081H245.808H226L235.903 53.154L245.808 36Z" fill="#6C63FF"/>
<path d="M372.422 117.723C372.185 125.042 370.403 130.908 367.075 135.321C363.746 139.735 359.792 141.943 355.213 141.943C351.482 141.943 348.213 139.783 345.404 135.463C342.595 131.143 341.19 124.498 341.191 115.528C341.191 113.545 341.238 111.656 341.332 109.862C341.426 108.068 341.544 106.369 341.686 104.763L344.165 81.4641H327.806C324.973 110.924 322.648 128.452 320.83 134.047C319.012 139.641 315.932 142.439 311.589 142.439C309.628 142.39 307.758 141.607 306.348 140.243C305.531 139.519 304.885 138.623 304.456 137.618C304.027 136.614 303.827 135.527 303.869 134.436C303.869 132.265 305.581 129.232 309.004 125.336C312.426 121.441 314.327 117.888 314.705 114.678L318.954 81.4641H312.085C310.148 81.4756 308.242 81.949 306.525 82.845C304.945 83.5707 303.57 84.678 302.524 86.0672L299.479 90.5996H297C299.313 83.4237 302.157 78.0297 305.534 74.4176C308.909 70.8058 312.792 69 317.183 69H371.289V81.4641H353.017C352.451 87.1295 352.014 92.795 351.707 98.4604C351.4 104.126 351.246 109.815 351.247 115.528C351.247 119.399 352.144 122.539 353.938 124.947C355.732 127.354 357.974 128.558 360.666 128.558C362.318 128.558 364.053 127.885 365.871 126.54C366.734 125.934 367.456 125.149 367.988 124.239C368.52 123.328 368.849 122.313 368.952 121.264C369.093 120.226 369.199 119.412 369.27 118.821C369.341 118.231 369.376 117.865 369.377 117.723L372.422 117.723Z" fill="#6C63FF"/>
<path opacity="0.1" d="M372.422 117.723C372.185 125.042 370.403 130.908 367.075 135.321C363.746 139.735 359.792 141.943 355.213 141.943C351.482 141.943 348.213 139.783 345.404 135.463C342.595 131.143 341.19 124.498 341.191 115.528C341.191 113.545 341.238 111.656 341.332 109.862C341.426 108.068 341.544 106.369 341.686 104.763L344.165 81.4641H327.806C324.973 110.924 322.648 128.452 320.83 134.047C319.012 139.641 315.932 142.439 311.589 142.439C309.628 142.39 307.758 141.607 306.348 140.243C305.531 139.519 304.885 138.623 304.456 137.618C304.027 136.614 303.827 135.527 303.869 134.436C303.869 132.265 305.581 129.232 309.004 125.336C312.426 121.441 314.327 117.888 314.705 114.678L318.954 81.4641H312.085C310.148 81.4756 308.242 81.949 306.525 82.845C304.945 83.5707 303.57 84.678 302.524 86.0672L299.479 90.5996H297C299.313 83.4237 302.157 78.0297 305.534 74.4176C308.909 70.8058 312.792 69 317.183 69H371.289V81.4641H353.017C352.451 87.1295 352.014 92.795 351.707 98.4604C351.4 104.126 351.246 109.815 351.247 115.528C351.247 119.399 352.144 122.539 353.938 124.947C355.732 127.354 357.974 128.558 360.666 128.558C362.318 128.558 364.053 127.885 365.871 126.54C366.734 125.934 367.456 125.149 367.988 124.239C368.52 123.328 368.849 122.313 368.952 121.264C369.093 120.226 369.199 119.412 369.27 118.821C369.341 118.231 369.376 117.865 369.377 117.723L372.422 117.723Z" fill="black"/>
</g>
<defs>
<clipPath id="clip0_51_228">
<rect width="400" height="417.044" fill="white" transform="translate(7)"/>
</clipPath>
</defs>
</svg>
