<svg xmlns="http://www.w3.org/2000/svg" fill="none" viewBox="34.84 72.33 581.54 324.65">
<path fill-rule="evenodd" clip-rule="evenodd" d="M287.294 77.0838C330.398 68.6835 370.779 73.4302 411.86 76.1465C453.736 78.9154 497.248 79.1309 530.644 93.1741C566.806 108.38 596.213 130.378 608.868 158.989C621.994 188.663 616.602 222.99 602.92 256.579C588.75 291.367 572.864 330.945 528.997 355.072C485.223 379.148 429.425 372.365 378.31 380.118C336.819 386.411 295.147 399.718 255.993 396.479C216.876 393.242 190.317 375.008 158.713 361.948C121.435 346.543 72.855 339.361 53.1118 312.639C32.052 284.136 27.882 246.488 47.5447 211.486C66.9993 176.855 114.316 150.18 158.194 125.582C197.516 103.538 241.156 86.0752 287.294 77.0838Z" fill="url(#paint0_linear_12_1228)"/>
<path d="M202.091 181.771C201.495 181.854 201.04 181.927 200.726 181.992C200.444 182.01 200.204 182.039 200.008 182.079C199.852 182.112 199.695 182.144 199.538 182.176C199.381 182.209 199.146 182.257 198.833 182.322C198.52 182.387 198.191 182.475 197.847 182.587C197.495 182.66 197.123 182.737 196.731 182.818C195.752 183.02 194.504 183.033 192.989 182.856C192.597 182.937 192.166 183.027 191.696 183.124C191.226 183.221 190.721 183.346 190.182 183.498C189.733 183.509 189.104 183.537 188.295 183.582C187.485 183.627 186.514 183.684 185.382 183.755C184.567 183.229 184.094 182.674 183.963 182.088C183.84 181.542 183.85 180.948 183.993 180.305C185.026 178.703 185.784 177.423 186.266 176.466C186.748 175.509 187.154 174.67 187.484 173.948C187.805 173.187 188.15 172.442 188.519 171.712C188.879 170.944 189.439 169.97 190.199 168.792C190.321 168.604 190.475 168.286 190.662 167.839C190.848 167.392 191.046 166.902 191.254 166.369C191.492 165.788 191.735 165.228 191.983 164.687C192.23 164.145 192.436 163.694 192.601 163.334C193.509 161.717 193.77 160.049 193.384 158.332C193.2 157.513 192.836 156.894 192.291 156.475C191.785 156.049 190.964 155.953 189.828 156.188C187.831 156.601 186.251 157.417 185.091 158.638C183.921 159.819 183.111 161.232 182.661 162.877C182.445 163.738 182.263 164.388 182.115 164.827C182.007 165.258 181.897 165.587 181.784 165.815C181.671 166.042 181.54 166.192 181.393 166.263C181.236 166.296 181.02 166.34 180.746 166.397C180.237 166.502 179.723 166.404 179.205 166.103C178.677 165.763 178.343 165.28 178.203 164.656C178.116 164.266 178.15 163.687 178.305 162.919C178.491 162.105 178.74 161.298 179.053 160.498C179.395 159.652 179.756 158.883 180.133 158.192C180.55 157.493 180.937 157.025 181.294 156.788C183.576 154.724 186.383 153.347 189.712 152.659C190.887 152.416 191.906 152.389 192.768 152.579C193.67 152.76 194.421 153.094 195.023 153.583C195.625 154.071 196.115 154.705 196.495 155.484C196.866 156.224 197.153 157.043 197.354 157.94C197.863 160.204 197.583 162.243 196.514 164.056C196.188 164.614 195.906 165.182 195.668 165.763C195.429 166.343 195.21 166.919 195.011 167.491C194.802 168.024 194.605 168.514 194.418 168.961C194.271 169.4 194.137 169.714 194.015 169.902C193.876 170.013 193.689 170.276 193.454 170.692C193.211 171.069 192.931 171.556 192.614 172.152C192.336 172.741 192.037 173.415 191.716 174.176C191.425 174.889 191.135 175.603 190.844 176.316C189.597 177.881 188.891 179.027 188.726 179.756C189.802 179.615 191.121 179.465 192.683 179.305C193.363 179.41 194.016 179.397 194.643 179.268C195.073 179.179 195.452 179.039 195.778 178.849C195.974 178.809 196.194 178.784 196.438 178.774C196.673 178.726 196.927 178.673 197.202 178.616C197.867 178.479 198.588 178.309 199.362 178.108C200.137 177.907 200.995 177.71 201.935 177.515C202.287 177.443 202.658 177.631 203.046 178.082C203.425 178.494 203.676 178.973 203.799 179.519C203.983 180.339 203.862 180.895 203.436 181.187C203.009 181.479 202.561 181.674 202.091 181.771ZM233.406 172.419C233.576 172.629 233.687 172.851 233.74 173.085C233.871 173.67 233.798 174.257 233.52 174.846C233.234 175.395 232.875 175.714 232.444 175.803C232.013 175.892 230.876 175.392 229.033 174.303C228.244 173.527 227.586 172.969 227.058 172.628C226.522 172.249 225.995 171.909 225.476 171.608C224.997 171.298 224.47 170.958 223.894 170.587C223.31 170.177 222.537 169.561 221.573 168.739L219.451 172.976C219.104 173.987 218.8 174.825 218.54 175.492C218.319 176.15 218.109 176.765 217.909 177.338C217.749 177.902 217.569 178.47 217.37 179.042C217.161 179.575 216.897 180.222 216.576 180.982C216.363 181.312 216.002 181.53 215.493 181.635C214.944 181.749 214.42 181.694 213.919 181.47C213.465 181.278 213.186 180.948 213.081 180.48C213.037 180.285 213.059 180.015 213.145 179.67C213.262 179.278 213.399 178.882 213.555 178.483C213.702 178.044 213.85 177.605 213.997 177.166C214.145 176.727 214.238 176.32 214.276 175.944C214.528 175.239 214.777 174.616 215.024 174.074C215.263 173.494 215.536 172.886 215.845 172.251C216.144 171.576 216.504 170.808 216.925 169.945C217.338 169.043 217.828 167.941 218.396 166.639C217.904 166.455 217.495 166.274 217.168 166.096C216.832 165.88 216.429 165.637 215.959 165.366C215.488 165.096 214.906 164.787 214.214 164.441C213.512 164.055 212.554 163.62 211.338 163.136C210.432 162.751 209.768 162.44 209.345 162.2C208.953 161.914 208.704 161.536 208.599 161.068C208.301 159.741 208.779 158.948 210.032 158.689C210.385 158.616 210.716 158.629 211.025 158.729L214.678 160.485C214.887 160.687 215.275 160.954 215.842 161.286C216.439 161.571 217.035 161.856 217.632 162.141C218.268 162.418 218.817 162.672 219.279 162.903C219.771 163.087 220.041 163.195 220.089 163.226C220.511 162.73 220.854 162.251 221.119 161.788C221.414 161.278 221.645 160.842 221.81 160.481C222.014 160.112 222.152 159.818 222.226 159.599C222.3 159.379 222.341 159.289 222.35 159.328C222.879 158.034 223.326 157.105 223.691 156.539C224.086 155.927 224.499 155.576 224.93 155.487C226.184 155.228 226.933 155.644 227.179 156.737C227.31 157.323 227.068 158.251 226.451 159.522L224.635 163.205L223.384 165.302C224.404 166.193 226.088 167.397 228.437 168.913L233.406 172.419ZM263.393 153.784C263.25 154.059 262.867 154.363 262.245 154.696C261.614 154.989 260.959 155.268 260.28 155.531C259.602 155.793 258.992 156.001 258.453 156.153C257.952 156.298 257.737 156.342 257.806 156.287C257.767 156.295 257.497 156.371 256.997 156.516C256.496 156.66 255.854 156.813 255.071 156.975C254.914 157.007 254.758 157.04 254.601 157.072C254.444 157.104 254.303 157.113 254.177 157.099C254.466 158.386 254.737 159.596 254.992 160.728C255.285 161.852 255.469 162.855 255.545 163.738C255.65 164.574 255.603 165.278 255.404 165.85C255.196 166.383 254.739 166.723 254.034 166.868C253.486 166.982 252.974 166.985 252.499 166.879C252.055 166.726 251.737 166.22 251.544 165.362C251.43 164.854 251.314 164.245 251.195 163.535C251.107 162.777 251.036 161.913 250.982 160.944C250.917 160.835 250.845 160.605 250.766 160.254C250.608 159.552 250.492 158.943 250.417 158.427C250.381 157.904 250.359 157.622 250.35 157.583C249.676 157.682 249.064 157.788 248.516 157.901C247.967 158.015 247.419 158.128 246.87 158.241C245.029 158.622 243.632 158.972 242.679 159.291C241.195 159.435 240.317 158.902 240.045 157.692C239.8 156.599 240.225 155.939 241.322 155.713C242.85 155.397 243.995 155.201 244.757 155.125C245.549 155.002 246.199 154.888 246.709 154.783C247.14 154.694 247.59 154.601 248.06 154.504C248.521 154.367 249.002 154.227 249.503 154.083C249.341 153.545 249.197 153.084 249.07 152.702C248.973 152.273 248.89 151.902 248.82 151.59C248.653 150.848 248.607 150.368 248.681 150.148C248.47 149.212 248.048 147.972 247.415 146.428C247.33 145.139 247.876 144.373 249.051 144.13C249.638 144.008 250.1 144.056 250.435 144.272C250.771 144.489 251.068 144.897 251.325 145.497C251.574 146.058 251.828 146.823 252.086 147.79C252.345 148.758 252.671 149.936 253.064 151.325L253.538 153.433C253.921 153.313 254.382 153.176 254.922 153.024C255.461 152.872 256.114 152.675 256.88 152.435C257.054 152.481 257.318 152.467 257.67 152.395C258.179 152.289 258.665 152.169 259.126 152.032C259.587 151.896 259.99 151.772 260.334 151.66C260.708 151.501 260.988 151.382 261.175 151.302C261.363 151.223 261.441 151.207 261.41 151.254C262.455 151.16 263.1 151.66 263.346 152.753C263.433 153.143 263.449 153.487 263.393 153.784ZM301.421 153.887C301.164 154.022 300.845 154.149 300.462 154.269C300.118 154.381 299.731 154.482 299.3 154.571C298.751 154.684 298.199 154.778 297.641 154.852C297.084 154.927 296.629 155 296.277 155.073C296.003 155.13 295.772 155.198 295.585 155.277C295.389 155.318 295.232 155.35 295.115 155.375C295.163 155.773 295.225 156.414 295.3 157.297C295.367 158.14 295.423 159.027 295.468 159.957C295.512 160.887 295.549 161.778 295.576 162.63C295.603 163.482 295.598 164.096 295.559 164.472C295.307 164.81 294.828 165.052 294.123 165.197C293.066 165.416 292.402 165.288 292.131 164.813C291.938 163.954 291.786 162.822 291.675 161.415C291.565 160.009 291.481 158.27 291.426 156.198C290.63 156.485 289.942 156.709 289.363 156.87C288.785 157.03 288.299 157.151 287.908 157.232C287.712 157.272 287.472 157.302 287.189 157.319C286.946 157.329 286.589 157.382 286.119 157.479C285.679 157.529 285.102 157.608 284.388 157.714C283.675 157.821 282.789 157.984 281.731 158.202C281.418 158.267 280.935 158.306 280.282 158.318C279.668 158.323 279.03 158.312 278.368 158.285C277.697 158.219 277.066 158.146 276.474 158.064C275.882 157.982 275.446 157.868 275.167 157.722C275.019 157.425 274.918 157.16 274.866 156.926C274.708 156.224 274.629 155.689 274.628 155.321C274.628 154.954 274.703 154.469 274.855 153.866C275.037 153.215 275.299 152.283 275.641 151.069C275.974 149.816 276.372 147.936 276.834 145.431L280.106 136.73C280.328 136.439 280.654 136.249 281.085 136.16C282.182 135.933 282.835 136.288 283.046 137.225C283.274 138.24 282.388 141.322 280.388 146.473L278.781 154.647C279.186 155.175 279.761 155.363 280.506 155.209C280.897 155.128 281.187 155.048 281.374 154.968C281.6 154.881 281.772 154.825 281.889 154.8C282.037 154.729 282.185 154.658 282.333 154.586C282.481 154.515 282.673 154.455 282.908 154.406C283.339 154.317 283.798 154.263 284.285 154.244C284.803 154.178 285.365 154.123 285.97 154.079C286.91 153.885 287.787 153.683 288.601 153.474C289.415 153.265 290.185 153.045 290.912 152.813C290.811 152.18 290.679 151.411 290.517 150.505C290.393 149.592 290.279 148.533 290.172 147.33C290.015 146.995 289.897 146.652 289.818 146.3C289.731 145.91 289.643 145.52 289.555 145.13C289.38 144.349 289.259 143.537 289.193 142.693C289.156 141.802 289.029 140.869 288.81 139.893C288.748 139.62 288.628 139.175 288.449 138.558C288.26 137.903 288.053 137.252 287.825 136.604C287.628 135.91 287.449 135.294 287.287 134.755C287.125 134.217 287.036 133.909 287.018 133.831C287.113 133.158 287.434 132.765 287.983 132.651C288.375 132.57 288.692 132.525 288.936 132.516C289.219 132.498 289.465 132.59 289.674 132.792C289.923 132.985 290.163 133.324 290.394 133.807C290.617 134.251 290.912 134.925 291.279 135.829C291.506 136.477 291.701 137.069 291.863 137.608C292.055 138.099 292.195 138.54 292.283 138.93C292.432 139.593 292.583 140.358 292.737 141.225C292.89 142.092 293.092 143.173 293.342 144.469C293.425 144.656 293.493 144.867 293.545 145.101C293.589 145.296 293.646 145.55 293.716 145.862C293.892 146.643 294.039 147.388 294.157 148.099C294.267 148.77 294.364 149.383 294.447 149.938C294.548 150.571 294.641 151.164 294.724 151.719C295.338 151.714 296.291 151.578 297.584 151.311L298.23 151.178C299.17 150.983 299.932 150.907 300.516 150.95C301.138 150.985 301.542 151.412 301.726 152.231C301.875 152.895 301.773 153.447 301.421 153.887ZM329.002 135.505C328.597 135.711 328.16 135.863 327.69 135.96C327.024 136.098 326.471 136.192 326.031 136.242C325.631 136.284 325.172 136.338 324.654 136.404C324.166 136.423 323.507 136.498 322.675 136.629C321.874 136.713 320.749 136.905 319.3 137.204C318.438 137.383 317.916 137.613 317.733 137.896C317.076 138.072 316.267 138.301 315.305 138.581C314.383 138.854 313.264 139.167 311.95 139.52C310.513 139.695 309.672 139.235 309.427 138.143C309.331 137.713 309.306 137.33 309.353 136.994C309.44 136.649 309.677 136.335 310.064 136.051C310.451 135.766 311.027 135.504 311.793 135.264C312.59 134.977 313.669 134.672 315.031 134.35C315.227 134.309 315.427 134.288 315.632 134.287C315.867 134.238 316.122 134.186 316.396 134.129C317.806 133.838 319.771 133.37 322.291 132.727C323.083 132.604 323.919 132.492 324.798 132.392C325.717 132.284 326.698 132.183 327.743 132.09C328.619 132.521 329.14 133.108 329.306 133.849C329.42 134.357 329.319 134.909 329.002 135.505ZM331.572 146.675C331.128 146.889 330.621 147.096 330.051 147.295C329.511 147.448 328.776 147.64 327.844 147.874C326.943 148.06 325.773 148.322 324.332 148.661C322.922 148.953 321.105 149.349 318.881 149.849C316.713 150.42 315.16 150.802 314.22 150.997C313.358 151.175 312.742 151.077 312.371 150.705C311.992 150.293 311.749 149.853 311.644 149.385C311.556 148.995 311.545 148.67 311.61 148.412C311.675 148.153 311.91 147.921 312.314 147.715C312.71 147.47 313.354 147.234 314.246 147.009C315.13 146.745 316.351 146.431 317.909 146.068C317.9 146.029 318.257 145.976 318.979 145.908C319.732 145.793 320.834 145.586 322.283 145.287C323.262 145.084 323.843 144.842 324.026 144.559L330.156 143.108C331.475 142.958 332.235 143.331 332.437 144.229C332.603 144.971 332.315 145.786 331.572 146.675ZM347.631 137.658C347.649 138.471 347.759 139.326 347.961 140.224C348.46 142.448 349.286 144.115 350.437 145.225C351.588 146.335 353.045 146.708 354.807 146.343C356.492 145.995 357.864 145.078 358.924 143.593C359.145 142.568 359.394 141.577 359.671 140.621C359.987 139.657 360.071 138.843 359.922 138.18C359.589 136.697 358.708 135.695 357.279 135.173C355.881 134.605 354.218 134.499 352.289 134.857C351.78 134.962 350.227 135.896 347.631 137.658ZM363.296 136.502C363.322 136.619 363.353 136.756 363.388 136.912C363.453 137.021 363.499 137.134 363.526 137.251C363.648 137.798 363.719 138.294 363.737 138.739C363.755 139.185 363.703 139.685 363.582 140.241C363.5 140.789 363.318 141.439 363.036 142.192C362.794 142.936 362.458 143.904 362.028 145.096L360.157 146.892C359.079 147.931 358.048 148.634 357.064 149.001C356.12 149.36 355.315 149.608 354.649 149.745C353.709 149.94 352.697 149.904 351.612 149.638C350.567 149.364 349.537 148.883 348.521 148.194C347.545 147.497 346.662 146.577 345.872 145.434C345.082 144.29 344.508 142.918 344.149 141.318C344.105 141.123 344.041 140.564 343.957 139.642C343.873 138.72 343.745 137.42 343.572 135.74C343.589 135.083 343.731 134.257 344 133.262C344.259 132.229 344.569 131.144 344.929 130.007C345.319 128.824 345.753 127.652 346.23 126.492C346.698 125.292 347.193 124.21 347.714 123.244C348.226 122.24 348.719 121.424 349.193 120.795C349.697 120.119 350.16 119.717 350.582 119.589C350.769 119.142 351.129 118.557 351.664 117.834C352.237 117.102 352.835 116.387 353.457 115.686C354.108 114.939 354.704 114.305 355.243 113.786C355.821 113.258 356.224 112.95 356.45 112.862C357.626 112.987 358.306 113.459 358.49 114.278C358.525 114.435 358.54 114.595 358.536 114.759C358.532 114.923 358.413 115.213 358.178 115.629C357.944 116.045 357.544 116.638 356.979 117.409C356.445 118.132 355.649 119.154 354.593 120.475C354.324 120.735 354.009 121.065 353.648 121.467C353.287 121.868 352.905 122.355 352.501 122.929L350.695 125.569L349.179 128.945C348.736 129.894 348.398 130.761 348.164 131.544C347.969 132.319 347.835 133.001 347.762 133.587C348.118 133.35 348.558 133.117 349.08 132.886C349.593 132.617 350.111 132.367 350.633 132.136C351.155 131.906 351.647 131.723 352.108 131.586C352.6 131.403 353.022 131.275 353.375 131.202C353.845 131.105 354.395 131.093 355.027 131.167C355.658 131.24 356.274 131.338 356.875 131.459C357.516 131.571 358.097 131.696 358.62 131.833C359.134 131.931 359.536 131.991 359.828 132.012C360.089 132.081 360.377 132.266 360.691 132.569C361.044 132.863 361.371 133.225 361.672 133.652C362.012 134.072 362.322 134.539 362.602 135.053C362.872 135.528 363.104 136.011 363.296 136.502ZM394.645 139.088C394.815 139.298 394.927 139.52 394.979 139.754C395.111 140.34 395.038 140.927 394.76 141.515C394.473 142.064 394.115 142.384 393.684 142.473C393.253 142.562 392.116 142.062 390.272 140.972C389.483 140.196 388.825 139.638 388.298 139.298C387.762 138.919 387.234 138.578 386.716 138.277C386.237 137.968 385.709 137.628 385.134 137.256C384.55 136.846 383.776 136.23 382.813 135.408L380.69 139.645C380.343 140.656 380.04 141.495 379.78 142.161C379.558 142.82 379.348 143.435 379.149 144.007C378.988 144.571 378.809 145.139 378.609 145.711C378.401 146.244 378.136 146.891 377.815 147.652C377.602 147.982 377.241 148.199 376.732 148.305C376.184 148.418 375.659 148.363 375.158 148.14C374.705 147.948 374.426 147.617 374.321 147.149C374.277 146.954 374.298 146.684 374.385 146.339C374.502 145.948 374.638 145.552 374.795 145.152C374.942 144.713 375.089 144.274 375.237 143.836C375.384 143.397 375.477 142.989 375.516 142.614C375.767 141.909 376.017 141.285 376.264 140.744C376.503 140.164 376.776 139.556 377.084 138.92C377.384 138.246 377.744 137.477 378.165 136.614C378.577 135.712 379.068 134.61 379.636 133.308C379.144 133.124 378.734 132.943 378.407 132.766C378.072 132.549 377.669 132.306 377.198 132.036C376.728 131.765 376.146 131.457 375.453 131.11C374.752 130.724 373.793 130.289 372.578 129.805C371.672 129.421 371.007 129.109 370.585 128.87C370.192 128.583 369.944 128.206 369.838 127.737C369.54 126.411 370.018 125.617 371.272 125.358C371.624 125.285 371.955 125.299 372.264 125.398L375.918 127.155C376.127 127.356 376.515 127.623 377.081 127.956C377.678 128.241 378.275 128.526 378.872 128.811C379.508 129.088 380.057 129.342 380.519 129.573C381.011 129.757 381.281 129.865 381.329 129.895C381.751 129.4 382.094 128.921 382.359 128.457C382.654 127.947 382.884 127.512 383.049 127.151C383.253 126.782 383.392 126.488 383.466 126.268C383.539 126.049 383.581 125.959 383.589 125.998C384.119 124.704 384.566 123.774 384.931 123.209C385.326 122.596 385.739 122.245 386.17 122.156C387.423 121.897 388.173 122.314 388.418 123.407C388.55 123.992 388.307 124.92 387.691 126.191L385.874 129.875L384.623 131.971C385.644 132.863 387.328 134.067 389.677 135.582L394.645 139.088Z" fill="#6C63FF"/>
<path d="M204.502 321.268L201.224 321.711C200.945 321.728 200.451 321.839 199.743 322.043C199.073 322.205 198.478 322.302 197.959 322.334C198.047 323.05 198.167 323.944 198.32 325.017C198.512 326.087 198.685 327.178 198.84 328.291C199.035 329.401 199.224 330.431 199.408 331.382C199.593 332.332 199.742 333.064 199.857 333.578C199.83 333.78 199.808 334.042 199.789 334.364C199.811 334.683 199.836 335.062 199.866 335.501C199.943 336.659 200.106 338.191 200.355 340.1C199.852 340.972 199.102 341.44 198.104 341.501C197.186 341.558 196.519 341.178 196.103 340.363C196.079 340.003 196.052 339.604 196.023 339.165C196.03 338.684 196.015 338.164 195.978 337.605C195.94 337.046 195.879 336.429 195.793 335.753C195.745 335.035 195.694 334.276 195.641 333.478L195.616 333.119C195.579 332.56 195.473 331.885 195.3 331.095C195.127 330.304 194.905 329.396 194.636 328.37L193.851 322.949C193.532 322.968 193.095 323.035 192.541 323.15C192.028 323.262 191.377 323.422 190.589 323.631C190.47 323.639 190.35 323.646 190.23 323.653C190.148 323.618 190.046 323.605 189.927 323.612C189.567 323.634 189.251 323.694 188.976 323.791C188.7 323.848 188.58 323.856 188.617 323.813C187.686 323.67 187.184 323.06 187.111 321.983C187.047 321.025 187.448 320.439 188.316 320.225C188.356 320.222 188.397 320.24 188.44 320.277C188.52 320.272 188.6 320.268 188.679 320.263C188.879 320.25 189.117 320.216 189.394 320.158C189.711 320.099 190.007 320.04 190.284 319.983C190.558 319.886 190.774 319.813 190.931 319.763C191.128 319.71 191.206 319.686 191.166 319.688C191.441 319.591 191.756 319.511 192.113 319.449C192.469 319.387 192.906 319.32 193.422 319.248L192.541 313.291L192.517 312.932C192.412 311.375 192.963 309.438 194.171 307.119C194.554 306.855 194.918 306.612 195.264 306.39C195.65 306.166 196.097 305.958 196.606 305.766C197.111 305.534 197.738 305.315 198.486 305.109C199.234 304.902 200.201 304.682 201.388 304.448L201.687 304.43C202.725 304.366 203.286 304.952 203.369 306.189C203.433 307.147 203.017 307.814 202.12 308.19L201.761 308.213C201.162 308.25 200.551 308.408 199.929 308.687L198.3 309.509C197.643 309.87 197.233 310.336 197.071 310.907C196.906 311.438 196.784 312.007 196.705 312.613C196.707 312.653 196.719 312.832 196.741 313.152C196.8 313.429 196.842 313.767 196.869 314.166C196.893 314.525 196.917 314.884 196.941 315.243C197.005 315.6 197.043 315.858 197.054 316.018L197.086 316.497C197.107 316.816 197.15 317.154 197.214 317.511C197.278 317.867 197.385 318.262 197.534 318.693C198.931 318.607 199.983 318.442 200.688 318.198C201.393 317.954 202.025 317.814 202.584 317.78C203.183 317.743 203.77 317.827 204.345 318.032C204.957 318.194 205.29 318.675 205.344 319.473C205.405 320.391 205.125 320.989 204.502 321.268ZM227.874 342.847C227.97 343.081 228.022 343.258 228.03 343.378C228.062 343.857 227.851 344.291 227.396 344.68C226.981 345.066 226.534 345.274 226.055 345.304C225.735 345.323 225.387 345.205 225.009 344.947C224.633 344.73 224.232 344.434 223.806 344.06C223.423 343.723 223.037 343.346 222.648 342.929C222.262 342.552 221.937 342.192 221.673 341.847C220.113 340.1 219.216 338.392 218.984 336.724C218.731 336.539 218.425 336.157 218.065 335.578C217.745 334.997 217.4 334.337 217.03 333.598C216.7 332.857 216.388 332.095 216.095 331.312C215.839 330.486 215.671 329.775 215.591 329.179L214.477 320.651C214.585 319.282 214.793 317.606 215.101 315.623C215.446 313.598 215.934 311.604 216.564 309.642C217.231 307.637 218.051 305.823 219.024 304.2C220.035 302.534 221.28 301.375 222.76 300.723L223.059 300.704C223.618 300.669 224.089 300.821 224.473 301.158C224.853 301.455 225.061 301.863 225.096 302.382C225.118 302.701 225.023 303.087 224.813 303.541C224.6 303.955 224.331 304.413 224.003 304.914C223.674 305.375 223.307 305.879 222.902 306.425C222.535 306.928 222.189 307.45 221.865 307.992C220.557 311.198 219.702 313.996 219.302 316.386C218.938 318.732 218.822 320.884 218.953 322.839C218.959 322.919 218.988 323.358 219.042 324.156C219.135 324.952 219.281 325.925 219.478 327.075C219.673 328.185 219.955 329.39 220.323 330.69C220.688 331.949 221.167 333.122 221.762 334.207C222.081 334.789 222.334 335.274 222.521 335.663C222.747 336.05 222.995 336.456 223.264 336.88C223.53 337.264 223.862 337.725 224.259 338.261C224.693 338.755 225.299 339.419 226.076 340.253C227.12 341.471 227.72 342.335 227.874 342.847ZM259.696 333.666C259.832 333.898 259.908 334.133 259.924 334.373C259.964 334.971 259.802 335.543 259.437 336.086C259.07 336.59 258.667 336.855 258.228 336.882C257.789 336.909 256.743 336.253 255.089 334.912C254.429 334.031 253.864 333.385 253.395 332.973C252.924 332.521 252.455 332.109 251.989 331.737C251.563 331.363 251.095 330.951 250.583 330.502C250.069 330.013 249.4 329.293 248.574 328.342L245.829 332.239C245.332 333.191 244.904 333.979 244.545 334.602C244.226 335.223 243.924 335.803 243.639 336.341C243.395 336.878 243.13 337.415 242.845 337.954C242.558 338.452 242.198 339.056 241.764 339.764C241.504 340.06 241.114 340.225 240.595 340.257C240.036 340.291 239.526 340.163 239.066 339.87C238.648 339.616 238.422 339.249 238.39 338.77C238.377 338.57 238.439 338.306 238.578 337.977C238.753 337.605 238.948 337.233 239.164 336.859C239.377 336.445 239.589 336.031 239.802 335.617C240.015 335.203 240.169 334.813 240.265 334.446C240.621 333.783 240.963 333.201 241.29 332.7C241.614 332.159 241.977 331.595 242.379 331.009C242.778 330.383 243.251 329.673 243.799 328.877C244.345 328.042 244.998 327.02 245.758 325.811C245.3 325.559 244.924 325.321 244.628 325.099C244.33 324.837 243.969 324.539 243.546 324.204C243.122 323.87 242.595 323.482 241.964 323.04C241.33 322.558 240.45 321.991 239.324 321.339C238.488 320.83 237.88 320.427 237.499 320.13C237.156 319.79 236.968 319.381 236.936 318.902C236.844 317.545 237.438 316.827 238.715 316.748C239.074 316.726 239.399 316.786 239.689 316.928L243.028 319.187C243.204 319.416 243.546 319.736 244.055 320.145C244.601 320.512 245.146 320.879 245.692 321.246C246.278 321.611 246.781 321.94 247.202 322.235C247.66 322.487 247.91 322.632 247.953 322.669C248.445 322.238 248.857 321.812 249.19 321.391C249.559 320.927 249.853 320.528 250.071 320.194C250.329 319.857 250.512 319.586 250.618 319.379C250.724 319.172 250.779 319.088 250.782 319.128C251.502 317.921 252.086 317.064 252.533 316.555C253.017 316.004 253.479 315.715 253.918 315.688C255.196 315.609 255.872 316.128 255.947 317.246C255.987 317.844 255.606 318.73 254.802 319.901L252.444 323.293L250.888 325.193C251.759 326.221 253.238 327.653 255.326 329.487L259.696 333.666ZM281.336 323.01C281.249 324.097 281.032 325.634 280.684 327.619C280.373 329.562 279.867 331.577 279.166 333.664C278.501 335.709 277.646 337.605 276.601 339.353C275.596 341.098 274.333 342.299 272.814 342.954C272.734 342.959 272.674 342.962 272.634 342.965C272.597 343.007 272.538 343.031 272.459 343.036C271.94 343.068 271.488 342.915 271.105 342.578C270.722 342.241 270.512 341.813 270.478 341.295C270.453 340.935 270.565 340.508 270.812 340.012C271.062 339.555 271.369 339.055 271.734 338.512C272.098 337.968 272.481 337.404 272.883 336.818C273.324 336.229 273.726 335.644 274.088 335.06C274.776 333.374 275.32 331.918 275.719 330.691C276.155 329.422 276.477 328.26 276.687 327.205C276.934 326.107 277.064 325.057 277.077 324.055C277.13 323.05 277.117 321.968 277.039 320.811C277.034 320.731 276.985 320.293 276.891 319.498C276.837 318.699 276.713 317.745 276.518 316.635C276.321 315.485 276.04 314.28 275.674 313.02C275.306 311.721 274.825 310.528 274.231 309.443C273.912 308.861 273.639 308.377 273.412 307.991C273.226 307.601 272.999 307.215 272.733 306.83C272.464 306.406 272.112 305.947 271.678 305.453C271.281 304.916 270.715 304.25 269.98 303.454C269.16 302.583 268.613 301.895 268.339 301.391C268.104 300.885 267.979 300.512 267.963 300.272C267.931 299.793 268.102 299.362 268.477 298.978C268.892 298.592 269.319 298.385 269.758 298.358C270.078 298.338 270.323 298.403 270.493 298.553C274.652 301.382 276.944 304.165 277.368 306.904C277.621 307.089 277.907 307.472 278.227 308.054C278.587 308.632 278.932 309.292 279.262 310.033C279.632 310.772 279.946 311.554 280.201 312.38C280.455 313.166 280.641 313.856 280.761 314.449C280.759 315.01 280.778 315.59 280.818 316.189C280.858 316.788 280.903 317.446 280.951 318.165C280.999 318.883 281.05 319.641 281.104 320.439C281.157 321.238 281.235 322.095 281.336 323.01ZM315.833 313.363C315.402 313.51 314.947 313.598 314.467 313.628C313.789 313.67 313.228 313.684 312.787 313.672C312.385 313.656 311.923 313.645 311.401 313.637C310.917 313.587 310.254 313.568 309.413 313.58C308.609 313.549 307.469 313.58 305.991 313.671C305.113 313.725 304.562 313.879 304.339 314.134C303.663 314.216 302.828 314.327 301.836 314.469C300.883 314.608 299.73 314.759 298.378 314.923C296.933 314.892 296.173 314.318 296.098 313.2C296.068 312.761 296.103 312.379 296.201 312.052C296.339 311.723 296.621 311.445 297.047 311.218C297.473 310.991 298.082 310.814 298.875 310.684C299.706 310.513 300.818 310.364 302.213 310.238C302.412 310.225 302.613 310.233 302.816 310.26C303.055 310.246 303.315 310.23 303.594 310.212C305.032 310.123 307.044 309.939 309.631 309.659C310.432 309.649 311.274 309.657 312.158 309.683C313.082 309.706 314.066 309.745 315.112 309.801C315.911 310.352 316.336 311.007 316.387 311.766C316.422 312.285 316.237 312.817 315.833 313.363ZM316.661 324.794C316.19 324.943 315.657 325.076 315.064 325.193C314.508 325.267 313.752 325.354 312.796 325.453C311.878 325.51 310.682 325.604 309.207 325.735C307.77 325.824 305.915 325.959 303.642 326.139C301.414 326.397 299.821 326.556 298.863 326.615C297.985 326.67 297.391 326.486 297.082 326.064C296.77 325.602 296.599 325.132 296.566 324.653C296.54 324.254 296.578 323.931 296.682 323.684C296.785 323.437 297.053 323.241 297.484 323.094C297.912 322.907 298.584 322.765 299.5 322.668C300.413 322.532 301.666 322.394 303.261 322.256C303.258 322.216 303.619 322.213 304.343 322.249C305.104 322.242 306.223 322.193 307.7 322.101C308.698 322.04 309.309 321.882 309.533 321.627L315.808 321.059C317.134 321.097 317.828 321.575 317.889 322.493C317.94 323.252 317.531 324.018 316.661 324.794ZM353.195 324.278C353.31 325.994 353.127 327.448 352.646 328.64C352.205 329.83 351.529 330.813 350.619 331.591C349.749 332.366 348.665 332.934 347.366 333.295C346.11 333.693 344.703 333.94 343.146 334.037C342.907 334.051 342.647 334.067 342.368 334.085C342.128 334.1 341.887 334.094 341.645 334.069L336.238 332.36C334.969 331.957 333.936 331.5 333.14 330.988C332.381 330.434 331.78 329.85 331.338 329.236C330.936 328.62 330.652 327.976 330.487 327.305C330.319 326.594 330.212 325.899 330.166 325.221C330.07 323.784 330.167 322.536 330.456 321.476C330.786 320.414 331.242 319.444 331.824 318.566C332.447 317.686 333.195 316.898 334.071 316.203C334.983 315.465 335.996 314.721 337.108 313.971C336.261 313.302 335.598 312.682 335.119 312.11C334.637 311.499 334.26 310.961 333.988 310.497C333.714 309.993 333.526 309.584 333.425 309.27C333.361 308.913 333.325 308.675 333.317 308.555C333.201 306.839 333.463 305.36 334.101 304.118C334.739 302.876 335.572 301.843 336.599 301.018C337.623 300.153 338.782 299.501 340.075 299.06C341.369 298.619 342.612 298.322 343.804 298.168C345.491 298.224 346.954 298.815 348.193 299.941C349.471 301.064 350.177 302.623 350.311 304.619C350.33 304.898 350.282 305.382 350.168 306.07C350.094 306.756 349.886 307.551 349.546 308.453C349.203 309.316 348.683 310.23 347.986 311.195C347.329 312.157 346.427 313.054 345.281 313.887C346.966 314.504 348.321 315.282 349.346 316.22C350.371 317.159 351.158 318.132 351.707 319.14C352.256 320.148 352.621 321.107 352.802 322.018C353.024 322.926 353.155 323.679 353.195 324.278ZM345.423 302.577C344.877 302.21 344.185 302.052 343.347 302.104C342.628 302.148 341.917 302.312 341.215 302.596C340.55 302.838 339.951 303.175 339.419 303.609C338.927 304.04 338.52 304.546 338.198 305.127C337.916 305.706 337.799 306.354 337.847 307.073C337.987 309.148 339 310.808 340.888 312.054C341.327 312.027 342.502 311.313 344.412 309.913C345.566 307.397 346.099 305.48 346.011 304.163C345.968 303.525 345.772 302.996 345.423 302.577ZM348.143 320.683C346.339 318.31 344.136 316.843 341.533 316.283C341.336 316.335 341.023 316.454 340.595 316.641C340.206 316.825 339.683 317.098 339.026 317.459L336.715 318.865C335.071 320.048 334.33 321.858 334.494 324.292C334.523 324.731 334.574 325.189 334.646 325.665C334.756 326.099 334.869 326.593 334.986 327.147C335.42 327.641 335.972 328.088 336.64 328.488C337.348 328.885 338.112 329.218 338.932 329.488C339.752 329.758 340.608 329.966 341.5 330.111C342.389 330.216 343.232 330.244 344.031 330.195C347.674 329.529 349.402 327.799 349.215 325.005C349.161 324.207 348.804 322.766 348.143 320.683ZM383.736 325.997C383.872 326.229 383.948 326.464 383.964 326.704C384.004 327.302 383.842 327.874 383.478 328.417C383.111 328.921 382.708 329.186 382.269 329.213C381.829 329.24 380.783 328.584 379.13 327.243C378.469 326.362 377.904 325.716 377.436 325.304C376.964 324.852 376.496 324.44 376.03 324.068C375.604 323.694 375.135 323.282 374.624 322.833C374.11 322.344 373.44 321.624 372.615 320.673L369.87 324.57C369.372 325.522 368.944 326.31 368.585 326.933C368.266 327.554 367.964 328.134 367.68 328.672C367.435 329.209 367.171 329.746 366.886 330.285C366.599 330.783 366.238 331.387 365.805 332.095C365.544 332.391 365.154 332.556 364.635 332.588C364.076 332.622 363.567 332.494 363.106 332.201C362.688 331.947 362.463 331.58 362.431 331.101C362.417 330.901 362.48 330.637 362.618 330.308C362.794 329.936 362.989 329.564 363.204 329.19C363.417 328.776 363.63 328.362 363.843 327.948C364.055 327.534 364.21 327.144 364.305 326.777C364.662 326.114 365.003 325.532 365.33 325.031C365.655 324.49 366.018 323.926 366.42 323.34C366.819 322.714 367.292 322.004 367.84 321.208C368.385 320.373 369.038 319.351 369.799 318.142C369.341 317.89 368.964 317.652 368.669 317.43C368.37 317.168 368.009 316.87 367.586 316.535C367.163 316.201 366.636 315.813 366.005 315.371C365.371 314.889 364.491 314.322 363.365 313.67C362.529 313.161 361.92 312.758 361.54 312.461C361.196 312.121 361.008 311.712 360.976 311.233C360.885 309.876 361.478 309.158 362.756 309.079C363.115 309.057 363.44 309.117 363.73 309.259L367.069 311.518C367.244 311.747 367.587 312.067 368.095 312.476C368.641 312.843 369.187 313.21 369.733 313.577C370.318 313.942 370.822 314.271 371.242 314.566C371.7 314.818 371.951 314.963 371.993 315C372.485 314.569 372.898 314.143 373.23 313.722C373.6 313.258 373.894 312.859 374.112 312.525C374.37 312.188 374.552 311.917 374.659 311.71C374.765 311.503 374.819 311.419 374.822 311.459C375.543 310.252 376.127 309.395 376.574 308.886C377.058 308.335 377.519 308.046 377.959 308.019C379.236 307.94 379.912 308.459 379.987 309.577C380.028 310.175 379.646 311.061 378.843 312.232L376.485 315.624L374.929 317.524C375.8 318.552 377.279 319.984 379.366 321.818L383.736 325.997ZM414.658 312.964C414.227 313.111 413.772 313.199 413.293 313.228C413.053 313.243 412.733 313.243 412.331 313.228C411.969 313.21 411.567 313.195 411.125 313.182C410.723 313.167 410.301 313.153 409.859 313.14C409.458 313.125 409.117 313.126 408.837 313.143C408.84 313.183 408.461 313.207 407.7 313.214C406.976 313.178 405.875 313.206 404.398 313.298C403.4 313.359 402.789 313.517 402.565 313.771C401.81 313.858 400.875 313.976 399.763 314.125C398.69 314.272 397.438 314.429 396.006 314.598C394.561 314.567 393.801 313.993 393.726 312.875C393.699 312.476 393.715 312.115 393.773 311.79C393.831 311.466 394.074 311.191 394.499 310.964C394.925 310.737 395.593 310.536 396.503 310.359C397.453 310.18 398.765 310.019 400.44 309.875C400.639 309.863 400.86 309.869 401.102 309.894C401.382 309.877 401.681 309.859 402.001 309.839C403.598 309.74 405.749 309.547 408.456 309.259C409.257 309.25 410.1 309.258 410.983 309.284C411.907 309.307 412.892 309.346 413.938 309.401C414.737 309.953 415.162 310.608 415.213 311.366C415.247 311.885 415.063 312.418 414.658 312.964ZM446.585 320.848C446.311 321.547 446.015 322.206 445.696 322.827C445.374 323.408 444.934 324.016 444.375 324.652C443.816 325.288 443.102 325.993 442.232 326.768C441.402 327.541 440.36 328.447 439.107 329.486C435.339 331.883 432.897 333.116 431.779 333.185C431.3 333.215 431.011 333.093 430.912 332.818C430.814 332.544 430.743 332.087 430.7 331.449C430.668 330.97 430.838 330.518 431.21 330.095C431.586 329.711 432.079 329.3 432.691 328.861C433.346 328.46 434.077 328.014 434.886 327.523C435.738 327.07 436.587 326.576 437.433 326.043C438.026 325.926 438.878 325.172 439.987 323.781L442.429 320.745C443.245 319.171 443.613 317.786 443.533 316.589C443.452 315.391 443.102 314.351 442.481 313.468C441.861 312.584 441.111 311.869 440.233 311.322C439.391 310.733 438.461 310.31 437.441 310.052C436.462 309.792 435.553 309.688 434.714 309.74C434.235 309.77 433.74 309.86 433.229 310.012C432.755 310.122 432.259 310.192 431.74 310.224C431.58 310.234 431.319 310.23 430.957 310.213C430.593 310.155 430.207 310.079 429.799 309.984C429.429 309.846 429.078 309.688 428.745 309.508C428.45 309.286 428.29 308.995 428.266 308.636C428.217 307.917 428.237 307.015 428.324 305.927C428.449 304.797 428.575 303.687 428.702 302.597C428.869 301.505 429.004 300.535 429.108 299.687C429.251 298.836 429.316 298.311 429.303 298.112L429.102 295.119C429.062 295.121 429.062 295.422 429.102 296.02C429.046 295.182 429.151 294.655 429.417 294.438C429.68 294.181 430.131 294.033 430.77 293.994C431.569 293.944 432.13 293.95 432.455 294.01C432.82 294.067 433.126 294.149 433.373 294.253C433.621 294.358 433.887 294.442 434.172 294.505C434.497 294.565 435.038 294.571 435.797 294.524C435.996 294.512 436.136 294.503 436.216 294.498C436.293 294.454 436.412 294.426 436.571 294.416C436.691 294.409 437.133 294.422 437.897 294.455C438.701 294.485 439.526 294.534 440.372 294.602C441.256 294.628 442.04 294.659 442.724 294.697C443.448 294.733 443.79 294.752 443.75 294.754C444.519 294.867 444.937 295.422 445.004 296.42C445.079 297.537 444.639 298.146 443.684 298.245C443.159 298.197 442.497 298.178 441.696 298.187C440.894 298.197 439.915 298.237 438.757 298.309C438.557 298.321 438.277 298.319 437.915 298.301C437.593 298.281 437.231 298.263 436.829 298.248C436.427 298.233 436.045 298.216 435.683 298.198C435.361 298.178 435.1 298.174 434.9 298.187C434.341 298.221 433.929 298.347 433.663 298.564C433.397 298.781 433.197 299.093 433.064 299.502C432.931 299.911 432.844 300.398 432.802 300.961C432.796 301.483 432.755 302.066 432.679 302.712C432.466 304.328 432.375 305.356 432.405 305.795C432.418 305.995 432.446 306.113 432.489 306.151C432.725 306.096 432.964 306.061 433.203 306.046C433.443 306.031 433.682 306.017 433.922 306.002C434.8 305.948 435.764 305.968 436.812 306.064C437.901 306.157 438.981 306.41 440.051 306.825C441.161 307.237 442.224 307.853 443.242 308.672C444.296 309.448 445.209 310.514 445.982 311.869C446.437 312.682 446.788 313.422 447.033 314.088C447.318 314.752 447.483 315.423 447.529 316.101C447.607 317.259 447.292 318.841 446.585 320.848Z" fill="#6C63FF"/>
<path d="M138.68 251.052C138.24 251.172 137.78 251.232 137.3 251.232C137.06 251.232 136.74 251.212 136.34 251.172C135.98 251.132 135.58 251.092 135.14 251.052C134.74 251.012 134.32 250.972 133.88 250.932C133.48 250.892 133.14 250.872 132.86 250.872C132.86 250.912 132.48 250.912 131.72 250.872C131 250.792 129.9 250.752 128.42 250.752C127.42 250.752 126.8 250.872 126.56 251.112C125.8 251.152 124.86 251.212 123.74 251.292C122.66 251.372 121.4 251.452 119.96 251.532C118.52 251.412 117.8 250.792 117.8 249.672C117.8 249.272 117.84 248.912 117.92 248.592C118 248.272 118.26 248.012 118.7 247.812C119.14 247.612 119.82 247.452 120.74 247.332C121.7 247.212 123.02 247.132 124.7 247.092C124.9 247.092 125.12 247.112 125.36 247.152C125.64 247.152 125.94 247.152 126.26 247.152C127.86 247.152 130.02 247.092 132.74 246.972C133.54 247.012 134.38 247.072 135.26 247.152C136.18 247.232 137.16 247.332 138.2 247.452C138.96 248.052 139.34 248.732 139.34 249.492C139.34 250.012 139.12 250.532 138.68 251.052ZM162.567 235.392V235.632C162.567 235.992 162.467 236.692 162.267 237.732C162.107 238.772 161.907 239.892 161.667 241.092C161.467 242.252 161.267 243.332 161.067 244.332C160.907 245.292 160.827 245.892 160.827 246.132C160.827 246.372 160.827 246.592 160.827 246.792C160.867 246.952 160.907 247.112 160.947 247.272C160.787 247.552 160.707 248.272 160.707 249.432C160.707 249.992 160.707 250.592 160.707 251.232C160.747 251.832 160.767 252.352 160.767 252.792C160.767 253.232 160.747 253.592 160.707 253.872C160.707 254.152 160.687 254.392 160.647 254.592C160.847 255.872 161.007 257.012 161.127 258.012C161.247 258.972 161.307 259.792 161.307 260.472C161.307 261.272 161.107 261.992 160.707 262.632C160.307 263.232 159.507 263.532 158.307 263.532C157.467 263.532 156.927 263.232 156.687 262.632L156.327 258.612C156.407 258.372 156.447 258.032 156.447 257.592C156.447 257.432 156.427 257.092 156.387 256.572C156.387 256.012 156.367 255.432 156.327 254.832C156.287 254.192 156.247 253.592 156.207 253.032C156.207 252.432 156.207 252.012 156.207 251.772C156.207 250.372 156.327 249.452 156.567 249.012C156.407 248.532 156.327 247.932 156.327 247.212C156.327 246.972 156.367 246.572 156.447 246.012C156.527 245.452 156.607 244.872 156.687 244.272C156.767 243.672 156.847 243.112 156.927 242.592C157.007 242.072 157.047 241.712 157.047 241.512V241.272C157.127 240.712 157.227 239.952 157.347 238.992C157.507 238.032 157.727 236.912 158.007 235.632C158.367 234.432 159.167 233.832 160.407 233.832C161.767 233.832 162.487 234.352 162.567 235.392Z" fill="#6C63FF"/>
<path d="M528.164 172.879C528.424 172.775 529.064 172.497 530.085 172.044C531.069 171.607 532.468 171.025 534.283 170.298C535.468 169.823 536.223 169.607 536.546 169.65C536.847 169.443 537.164 169.273 537.498 169.139C537.831 169.006 538.202 168.857 538.609 168.694C539.424 168.368 540.318 168.074 541.292 167.814C542.213 167.531 543.107 167.238 543.975 166.933C544.367 166.733 544.747 166.559 545.118 166.411C545.488 166.262 545.859 166.114 546.229 165.965C546.673 165.787 547.155 165.595 547.673 165.387C548.213 165.127 548.729 164.964 549.221 164.896C549.735 164.777 550.204 164.805 550.628 164.98C551.037 165.119 551.361 165.464 551.601 166.016C551.841 166.568 551.84 167.065 551.597 167.507C551.376 167.898 551.012 168.26 550.504 168.593C549.997 168.926 549.391 169.233 548.687 169.515C548.021 169.782 547.354 170.05 546.687 170.317C545.465 170.806 544.007 171.304 542.314 171.81C540.604 172.279 538.99 172.817 537.471 173.426C536.027 174.004 534.741 174.649 533.615 175.359C533.488 175.367 533.083 175.486 532.401 175.716C531.718 175.947 530.98 176.199 530.186 176.474C529.339 176.727 528.556 176.976 527.836 177.221C527.116 177.466 526.648 177.589 526.431 177.59C526.013 177.93 524.786 178.508 522.749 179.324C522.156 179.561 521.424 179.876 520.551 180.269C519.625 180.64 518.672 181 517.693 181.349C516.677 181.713 515.69 182.043 514.733 182.341C513.722 182.616 512.824 182.803 512.04 182.901C511.421 182.977 510.959 182.665 510.655 181.966C510.287 181.12 510.277 180.498 510.625 180.099C510.974 179.701 511.722 179.271 512.87 178.811C513.389 178.604 513.971 178.392 514.616 178.177C515.262 177.961 515.99 177.734 516.8 177.496C516.948 177.437 517.829 177.062 519.442 176.373C521.056 175.683 523.029 174.871 525.363 173.936C525.881 173.728 526.389 173.547 526.887 173.39C527.331 173.212 527.757 173.042 528.164 172.879Z" fill="#6C63FF"/>
<path d="M530.727 152.719C530.348 153.566 529.683 154.427 528.73 155.303C527.827 156.208 526.78 157.047 525.589 157.821C524.448 158.624 523.26 159.335 522.025 159.956C520.828 160.567 519.746 161.001 518.781 161.26C517.737 161.539 516.964 161.602 516.461 161.447C515.958 161.292 515.611 160.888 515.421 160.235C515.13 159.236 515.548 158.524 516.673 158.098C518.251 157.51 519.416 157.074 520.166 156.79C520.916 156.506 521.311 156.359 521.35 156.349C522.69 155.659 523.872 154.783 524.896 153.722C525.909 152.623 526.731 151.512 527.363 150.391C527.983 149.231 528.416 148.142 528.661 147.124C528.945 146.096 529.008 145.313 528.852 144.775C528.688 143.784 528.528 143.02 528.372 142.482C527.88 140.792 527.117 139.672 526.082 139.121C525.047 138.57 523.757 138.502 522.211 138.916C521.438 139.123 519.731 139.912 517.09 141.282C516.045 141.272 515.333 140.614 514.953 139.308C515.002 139.046 515.238 138.714 515.663 138.31C516.075 137.869 516.527 137.416 517.017 136.954C517.535 136.443 518.039 135.956 518.529 135.493C519.008 134.992 519.338 134.552 519.519 134.172C520.666 131.961 521.038 130.163 520.636 128.781C520.055 126.784 518.335 126.168 515.475 126.934C515.089 127.037 514.747 127.15 514.449 127.271C514.178 127.343 513.886 127.484 513.572 127.692C513.258 127.901 512.913 128.221 512.539 128.652C512.154 129.045 511.697 129.623 511.169 130.385C510.482 131.315 510.018 132.081 509.777 132.684C509.524 133.248 509.327 133.715 509.185 134.084C509.07 134.405 508.938 134.668 508.789 134.873C508.63 135.04 508.318 135.186 507.855 135.31C506.695 135.62 505.915 135.084 505.512 133.702C505.345 133.126 505.365 132.479 505.572 131.761C505.807 130.994 506.164 130.215 506.642 129.425C507.147 128.585 507.722 127.769 508.365 126.976C509.048 126.172 509.766 125.42 510.521 124.721C511.044 124.374 511.623 124.074 512.258 123.821C512.931 123.558 513.673 123.318 514.485 123.101C515.798 122.749 516.985 122.534 518.046 122.457C519.134 122.331 520.098 122.425 520.939 122.738C521.769 123.012 522.491 123.564 523.107 124.393C523.751 125.172 524.285 126.292 524.71 127.751C524.855 128.251 524.926 128.853 524.923 129.557C524.947 130.213 524.817 131.055 524.534 132.084L523.772 134.834C524.8 134.931 525.637 135.017 526.284 135.092C526.93 135.168 527.461 135.274 527.876 135.411C528.28 135.51 528.636 135.663 528.947 135.87C529.245 136.038 529.58 136.259 529.951 136.532C531.198 137.523 532.072 138.882 532.575 140.611C533.503 143.798 532.887 147.835 530.727 152.719Z" fill="#6C63FF"/>
<path d="M547.382 197.314C547.383 197.603 547.425 198.606 547.508 200.323C547.591 202.039 547.74 204.484 547.955 207.655C548.126 210.673 548.035 213.223 547.682 215.305C547.694 215.343 547.726 215.811 547.778 216.707C547.87 217.594 547.887 218.583 547.83 219.674C547.8 220.717 547.651 221.709 547.384 222.65C547.166 223.62 546.748 224.187 546.13 224.353C545.55 224.508 544.929 224.447 544.265 224.169C543.739 222.364 543.563 220.9 543.736 219.777C543.697 219.498 543.684 218.881 543.697 217.925C543.71 216.969 543.775 215.689 543.891 214.085C543.658 211.994 543.643 210.011 543.847 208.135C543.779 207.904 543.723 207.423 543.676 206.69C543.657 205.909 543.613 205.113 543.544 204.304C543.513 203.484 543.486 202.746 543.462 202.09C543.437 201.434 543.414 201.068 543.392 200.991C543.118 198.332 542.953 196.906 542.897 196.714C541.615 196.602 539.613 196.807 536.891 197.33L533.647 198.633C533.52 198.626 533.321 198.659 533.05 198.731C532.741 198.814 532.281 199.02 531.669 199.35C531.045 199.641 530.56 199.833 530.212 199.926C529.401 200.143 528.727 200.117 528.19 199.847C527.692 199.566 527.364 199.157 527.208 198.619C527.051 198.082 527.031 197.653 527.145 197.332C527.288 196.963 527.516 196.674 527.83 196.465C528.183 196.247 528.611 196.07 529.113 195.935C529.615 195.801 530.137 195.661 530.678 195.516L532.533 195.019C533.431 194.53 534.325 194.167 535.214 193.929C535.407 193.877 535.6 193.825 535.793 193.773C535.987 193.722 536.185 193.689 536.39 193.676C536.726 193.544 537.03 193.442 537.3 193.37C537.609 193.287 537.899 193.209 538.17 193.137C538.711 192.992 539.064 192.918 539.23 192.915L541.368 192.963L541.6 192.901C542.45 192.673 543.88 192.58 545.891 192.621C546.229 192.779 546.498 193.203 546.699 193.895C546.733 194.01 546.775 194.226 546.826 194.544C546.865 194.823 546.916 195.141 546.978 195.497C547.029 195.814 547.08 196.132 547.131 196.449C547.17 196.729 547.212 196.945 547.257 197.099C547.279 197.175 547.296 197.233 547.307 197.272C547.346 197.261 547.371 197.275 547.382 197.314Z" fill="#6C63FF"/>
<path d="M333.103 230.019C332.689 230.205 332.244 230.336 331.77 230.41C331.098 230.515 330.542 230.582 330.1 230.611C329.698 230.633 329.237 230.665 328.717 230.706C328.229 230.701 327.567 230.744 326.73 230.835C325.926 230.88 324.793 231.017 323.331 231.246C322.462 231.382 321.929 231.587 321.732 231.86C321.067 232.005 320.247 232.194 319.272 232.428C318.337 232.655 317.205 232.913 315.875 233.203C314.432 233.307 313.616 232.807 313.429 231.703C313.355 231.269 313.35 230.885 313.415 230.551C313.52 230.211 313.772 229.908 314.174 229.643C314.575 229.378 315.164 229.144 315.941 228.941C316.751 228.693 317.844 228.441 319.22 228.185C319.418 228.154 319.619 228.143 319.823 228.151C320.06 228.114 320.317 228.074 320.594 228.031C322.016 227.808 324.002 227.436 326.55 226.916C327.347 226.831 328.187 226.761 329.07 226.703C329.993 226.64 330.978 226.587 332.025 226.544C332.877 227.018 333.366 227.63 333.494 228.379C333.581 228.892 333.451 229.438 333.103 230.019ZM335.084 241.307C334.63 241.5 334.114 241.682 333.534 241.854C332.988 241.98 332.243 242.137 331.302 242.325C330.393 242.467 329.211 242.672 327.755 242.941C326.332 243.164 324.498 243.471 322.252 243.863C320.059 244.328 318.489 244.635 317.54 244.783C316.671 244.919 316.061 244.792 315.711 244.402C315.353 243.972 315.135 243.52 315.054 243.047C314.987 242.653 314.993 242.328 315.071 242.073C315.149 241.818 315.396 241.597 315.81 241.411C316.218 241.185 316.873 240.981 317.775 240.799C318.671 240.578 319.906 240.324 321.48 240.037C321.473 239.998 321.832 239.962 322.557 239.929C323.314 239.851 324.424 239.697 325.886 239.469C326.874 239.314 327.467 239.1 327.664 238.826L333.858 237.674C335.182 237.588 335.921 237.998 336.075 238.905C336.203 239.655 335.873 240.455 335.084 241.307ZM391.931 241.332C391.459 242.135 390.7 242.922 389.655 243.693C388.656 244.497 387.521 245.221 386.251 245.865C385.028 246.543 383.768 247.125 382.471 247.611C381.214 248.091 380.091 248.409 379.103 248.564C378.036 248.731 377.262 248.71 376.78 248.502C376.299 248.294 376.001 247.855 375.887 247.185C375.712 246.159 376.208 245.495 377.373 245.191C379.006 244.773 380.211 244.463 380.988 244.26C381.765 244.058 382.173 243.953 382.213 243.947C383.621 243.403 384.894 242.657 386.031 241.71C387.162 240.723 388.104 239.705 388.859 238.656C389.607 237.567 390.161 236.529 390.52 235.541C390.919 234.548 391.072 233.775 390.978 233.223C390.928 232.219 390.857 231.44 390.763 230.888C390.468 229.153 389.838 227.956 388.874 227.298C387.91 226.639 386.638 226.433 385.057 226.681C384.267 226.805 382.483 227.408 379.705 228.49C378.67 228.369 378.039 227.638 377.811 226.297C377.889 226.042 378.162 225.736 378.628 225.38C379.088 224.984 379.588 224.582 380.127 224.174C380.699 223.72 381.255 223.289 381.794 222.88C382.326 222.433 382.704 222.029 382.927 221.671C384.317 219.59 384.892 217.841 384.65 216.421C384.302 214.371 382.665 213.574 379.741 214.032C379.346 214.094 378.993 214.169 378.684 214.258C378.407 214.302 378.101 214.41 377.766 214.584C377.43 214.758 377.052 215.04 376.631 215.43C376.204 215.78 375.685 216.307 375.074 217.01C374.286 217.862 373.738 218.575 373.43 219.15C373.115 219.685 372.866 220.129 372.683 220.481C372.532 220.788 372.372 221.036 372.201 221.225C372.023 221.374 371.698 221.486 371.223 221.56C370.038 221.746 369.324 221.129 369.083 219.709C368.982 219.117 369.076 218.475 369.364 217.783C369.684 217.044 370.127 216.307 370.691 215.571C371.289 214.789 371.952 214.037 372.681 213.316C373.45 212.588 374.249 211.917 375.077 211.301C375.636 211.011 376.245 210.774 376.903 210.59C377.601 210.4 378.365 210.24 379.195 210.11C380.539 209.899 381.741 209.812 382.802 209.848C383.896 209.839 384.842 210.035 385.641 210.436C386.432 210.798 387.087 211.424 387.603 212.315C388.153 213.16 388.555 214.332 388.81 215.83C388.897 216.343 388.899 216.95 388.815 217.651C388.765 218.307 388.54 219.132 388.141 220.125L387.072 222.783C388.08 222.989 388.901 223.164 389.534 223.308C390.167 223.452 390.682 223.614 391.078 223.795C391.467 223.936 391.804 224.126 392.088 224.365C392.365 224.565 392.672 224.82 393.009 225.132C394.133 226.251 394.845 227.699 395.147 229.473C395.704 232.746 394.632 236.699 391.931 241.332ZM415.06 236.253C415.167 236.884 414.955 237.423 414.422 237.871C413.929 238.313 413.446 238.571 412.972 238.645C412.142 238.775 411.473 238.778 410.965 238.655C410.457 238.533 410.042 238.355 409.718 238.122C409.427 237.844 409.216 237.553 409.083 237.25C408.943 236.907 408.847 236.578 408.793 236.263C408.672 235.553 408.805 234.783 409.192 233.954C409.578 233.124 410.186 232.644 411.016 232.514C411.292 232.471 411.615 232.461 411.984 232.484C412.386 232.462 412.789 232.56 413.191 232.781C413.594 233.001 413.964 233.389 414.302 233.943C414.633 234.458 414.885 235.228 415.06 236.253ZM432.505 204.373L432.545 204.61C432.605 204.965 432.624 205.67 432.601 206.726C432.617 207.776 432.607 208.911 432.572 210.132C432.569 211.306 432.552 212.402 432.522 213.418C432.525 214.39 432.547 214.994 432.587 215.23C432.627 215.467 432.664 215.684 432.698 215.881C432.764 216.032 432.83 216.184 432.897 216.335C432.786 216.636 432.827 217.358 433.022 218.502C433.116 219.054 433.216 219.646 433.324 220.276C433.464 220.862 433.571 221.371 433.645 221.805C433.718 222.239 433.759 222.597 433.766 222.879C433.813 223.155 433.834 223.395 433.828 223.598C434.24 224.829 434.589 225.928 434.876 226.895C435.155 227.823 435.352 228.622 435.466 229.293C435.6 230.081 435.523 230.822 435.236 231.515C434.941 232.168 434.201 232.588 433.015 232.774C432.186 232.904 431.602 232.691 431.264 232.137L430.234 228.23C430.273 227.981 430.255 227.639 430.182 227.205C430.155 227.048 430.078 226.716 429.951 226.209C429.857 225.657 429.74 225.088 429.6 224.503C429.453 223.878 429.313 223.293 429.18 222.747C429.079 222.156 429.009 221.742 428.968 221.505C428.734 220.125 428.698 219.199 428.861 218.728C428.623 218.28 428.443 217.701 428.322 216.991C428.282 216.754 428.254 216.354 428.24 215.789C428.225 215.225 428.206 214.641 428.185 214.037C428.163 213.433 428.148 212.869 428.14 212.344C428.132 211.819 428.111 211.458 428.078 211.26L428.037 211.024C428.023 210.459 427.994 209.695 427.951 208.73C427.949 207.758 427.978 206.62 428.04 205.315C428.194 204.076 428.884 203.361 430.109 203.169C431.453 202.959 432.251 203.36 432.505 204.373ZM475.039 220.363C474.776 220.486 474.45 220.597 474.062 220.699C473.713 220.794 473.321 220.875 472.886 220.943C472.333 221.03 471.776 221.097 471.216 221.144C470.656 221.191 470.198 221.243 469.843 221.298C469.566 221.342 469.332 221.399 469.142 221.469C468.944 221.5 468.786 221.525 468.667 221.543C468.695 221.944 468.723 222.587 468.752 223.473C468.775 224.32 468.784 225.209 468.78 226.141C468.776 227.073 468.766 227.965 468.749 228.818C468.731 229.671 468.694 230.284 468.635 230.657C468.366 230.983 467.876 231.201 467.165 231.313C466.098 231.48 465.442 231.319 465.196 230.831C465.049 229.964 464.956 228.824 464.919 227.413C464.882 226.002 464.89 224.26 464.943 222.187C464.133 222.435 463.435 222.626 462.849 222.758C462.263 222.89 461.772 222.987 461.377 223.049C461.18 223.08 460.939 223.098 460.656 223.101C460.412 223.099 460.053 223.135 459.579 223.209C459.137 223.238 458.558 223.288 457.84 223.36C457.122 223.432 456.229 223.552 455.162 223.719C454.846 223.768 454.362 223.783 453.709 223.764C453.096 223.739 452.46 223.697 451.801 223.638C451.135 223.54 450.509 223.435 449.922 223.325C449.335 223.214 448.907 223.079 448.636 222.919C448.503 222.616 448.417 222.346 448.377 222.109C448.256 221.4 448.205 220.861 448.224 220.494C448.242 220.126 448.343 219.645 448.526 219.05C448.741 218.409 449.051 217.49 449.456 216.293C449.855 215.056 450.35 213.198 450.942 210.716L454.662 202.179C454.899 201.899 455.234 201.725 455.669 201.657C456.775 201.483 457.409 201.87 457.57 202.816C457.745 203.842 456.699 206.88 454.435 211.93L452.403 220.021C452.78 220.57 453.344 220.785 454.095 220.667C454.49 220.605 454.784 220.539 454.974 220.469C455.205 220.392 455.379 220.345 455.498 220.326C455.649 220.262 455.801 220.198 455.952 220.134C456.103 220.07 456.298 220.019 456.535 219.982C456.969 219.914 457.431 219.882 457.918 219.887C458.439 219.846 459.002 219.818 459.608 219.804C460.557 219.656 461.442 219.497 462.266 219.327C463.089 219.158 463.869 218.975 464.606 218.779C464.539 218.141 464.447 217.366 464.333 216.453C464.257 215.534 464.198 214.47 464.155 213.262C464.016 212.92 463.916 212.571 463.855 212.216C463.788 211.822 463.721 211.428 463.654 211.033C463.52 210.245 463.442 209.427 463.419 208.58C463.43 207.688 463.351 206.749 463.183 205.763C463.137 205.487 463.04 205.037 462.893 204.412C462.739 203.748 462.566 203.087 462.373 202.429C462.213 201.725 462.066 201.1 461.932 200.554C461.799 200.009 461.725 199.696 461.712 199.617C461.842 198.949 462.183 198.572 462.737 198.485C463.132 198.423 463.451 198.394 463.695 198.396C463.978 198.392 464.219 198.496 464.418 198.708C464.655 198.913 464.877 199.263 465.083 199.757C465.282 200.212 465.541 200.9 465.86 201.822C466.053 202.48 466.216 203.082 466.35 203.628C466.516 204.128 466.633 204.575 466.7 204.97C466.814 205.64 466.925 206.412 467.033 207.286C467.141 208.159 467.286 209.25 467.468 210.558C467.541 210.748 467.598 210.962 467.638 211.199C467.671 211.396 467.715 211.652 467.769 211.968C467.903 212.757 468.011 213.509 468.092 214.225C468.166 214.901 468.231 215.519 468.285 216.077C468.353 216.714 468.414 217.312 468.468 217.87C469.081 217.896 470.04 217.806 471.344 217.602L471.996 217.5C472.944 217.351 473.709 217.313 474.289 217.384C474.908 217.449 475.289 217.895 475.43 218.723C475.544 219.394 475.413 219.94 475.039 220.363Z" fill="#6C63FF"/>
<path d="M293.622 247.267C294.109 251.843 293.458 255.707 291.668 258.859C289.877 262.012 287.484 263.871 284.487 264.436C282.047 264.896 279.718 263.958 277.501 261.621C275.284 259.284 273.782 255.33 272.995 249.757C272.821 248.525 272.687 247.347 272.591 246.22C272.495 245.094 272.423 244.024 272.375 243.009L271.953 228.23L261.249 230.249C261.981 248.899 261.997 260.074 261.299 263.774C260.6 267.474 258.83 269.591 255.988 270.128C254.702 270.34 253.409 270.084 252.367 269.41C251.769 269.061 251.267 268.584 250.899 268.013C250.53 267.442 250.304 266.792 250.236 266.109C250.045 264.76 250.899 262.665 252.797 259.822C254.694 256.98 255.626 254.539 255.591 252.498L255.457 231.341L250.963 232.189C249.697 232.435 248.492 232.964 247.447 233.732C246.477 234.378 245.674 235.236 245.112 236.228L243.517 239.419L241.895 239.725C242.779 234.982 244.167 231.28 246.059 228.62C247.95 225.96 250.332 224.359 253.206 223.817L288.606 217.14L289.699 224.883L277.745 227.137C277.871 230.727 278.082 234.3 278.379 237.857C278.675 241.415 279.073 244.968 279.575 248.516C279.915 250.921 280.777 252.761 282.162 254.035C283.547 255.31 285.12 255.781 286.881 255.449C287.962 255.245 289.038 254.613 290.109 253.552C290.621 253.07 291.025 252.493 291.293 251.862C291.561 251.23 291.687 250.559 291.662 249.895C291.664 249.233 291.662 248.714 291.656 248.338C291.651 247.963 291.642 247.731 291.63 247.643L293.622 247.267Z" fill="#6C63FF"/>
<defs>
<linearGradient id="paint0_linear_12_1228" x1="41.4723" y1="51.2683" x2="652.056" y2="108.034" gradientUnits="userSpaceOnUse">
<stop stop-color="#FFAF67" stop-opacity="0.3"/>
<stop offset="1" stop-color="#F461A6" stop-opacity="0.3"/>
</linearGradient>
</defs>
</svg>